G04 #@! TF.GenerationSoftware,KiCad,Pcbnew,(5.1.9)-1*
G04 #@! TF.CreationDate,2025-03-23T14:15:07+09:00*
G04 #@! TF.ProjectId,PYUUTA32k,50595555-5441-4333-926b-2e6b69636164,rev?*
G04 #@! TF.SameCoordinates,PX53920b0PY93c3260*
G04 #@! TF.FileFunction,Legend,Top*
G04 #@! TF.FilePolarity,Positive*
%FSLAX46Y46*%
G04 Gerber Fmt 4.6, Leading zero omitted, Abs format (unit mm)*
G04 Created by KiCad (PCBNEW (5.1.9)-1) date 2025-03-23 14:15:07*
%MOMM*%
%LPD*%
G01*
G04 APERTURE LIST*
%ADD10C,0.150000*%
%ADD11C,0.500000*%
%ADD12C,0.120000*%
G04 APERTURE END LIST*
D10*
X50617380Y73175953D02*
X50617380Y72699762D01*
X49617380Y72699762D01*
X50569761Y73461667D02*
X50617380Y73604524D01*
X50617380Y73842620D01*
X50569761Y73937858D01*
X50522142Y73985477D01*
X50426904Y74033096D01*
X50331666Y74033096D01*
X50236428Y73985477D01*
X50188809Y73937858D01*
X50141190Y73842620D01*
X50093571Y73652143D01*
X50045952Y73556905D01*
X49998333Y73509286D01*
X49903095Y73461667D01*
X49807857Y73461667D01*
X49712619Y73509286D01*
X49665000Y73556905D01*
X49617380Y73652143D01*
X49617380Y73890239D01*
X49665000Y74033096D01*
X49617380Y74652143D02*
X49617380Y74747381D01*
X49665000Y74842620D01*
X49712619Y74890239D01*
X49807857Y74937858D01*
X49998333Y74985477D01*
X50236428Y74985477D01*
X50426904Y74937858D01*
X50522142Y74890239D01*
X50569761Y74842620D01*
X50617380Y74747381D01*
X50617380Y74652143D01*
X50569761Y74556905D01*
X50522142Y74509286D01*
X50426904Y74461667D01*
X50236428Y74414048D01*
X49998333Y74414048D01*
X49807857Y74461667D01*
X49712619Y74509286D01*
X49665000Y74556905D01*
X49617380Y74652143D01*
X49950714Y75842620D02*
X50617380Y75842620D01*
X49569761Y75604524D02*
X50284047Y75366429D01*
X50284047Y75985477D01*
X50617380Y61110953D02*
X50617380Y60634762D01*
X49617380Y60634762D01*
X50569761Y61396667D02*
X50617380Y61539524D01*
X50617380Y61777620D01*
X50569761Y61872858D01*
X50522142Y61920477D01*
X50426904Y61968096D01*
X50331666Y61968096D01*
X50236428Y61920477D01*
X50188809Y61872858D01*
X50141190Y61777620D01*
X50093571Y61587143D01*
X50045952Y61491905D01*
X49998333Y61444286D01*
X49903095Y61396667D01*
X49807857Y61396667D01*
X49712619Y61444286D01*
X49665000Y61491905D01*
X49617380Y61587143D01*
X49617380Y61825239D01*
X49665000Y61968096D01*
X49617380Y62587143D02*
X49617380Y62682381D01*
X49665000Y62777620D01*
X49712619Y62825239D01*
X49807857Y62872858D01*
X49998333Y62920477D01*
X50236428Y62920477D01*
X50426904Y62872858D01*
X50522142Y62825239D01*
X50569761Y62777620D01*
X50617380Y62682381D01*
X50617380Y62587143D01*
X50569761Y62491905D01*
X50522142Y62444286D01*
X50426904Y62396667D01*
X50236428Y62349048D01*
X49998333Y62349048D01*
X49807857Y62396667D01*
X49712619Y62444286D01*
X49665000Y62491905D01*
X49617380Y62587143D01*
X50045952Y63491905D02*
X49998333Y63396667D01*
X49950714Y63349048D01*
X49855476Y63301429D01*
X49807857Y63301429D01*
X49712619Y63349048D01*
X49665000Y63396667D01*
X49617380Y63491905D01*
X49617380Y63682381D01*
X49665000Y63777620D01*
X49712619Y63825239D01*
X49807857Y63872858D01*
X49855476Y63872858D01*
X49950714Y63825239D01*
X49998333Y63777620D01*
X50045952Y63682381D01*
X50045952Y63491905D01*
X50093571Y63396667D01*
X50141190Y63349048D01*
X50236428Y63301429D01*
X50426904Y63301429D01*
X50522142Y63349048D01*
X50569761Y63396667D01*
X50617380Y63491905D01*
X50617380Y63682381D01*
X50569761Y63777620D01*
X50522142Y63825239D01*
X50426904Y63872858D01*
X50236428Y63872858D01*
X50141190Y63825239D01*
X50093571Y63777620D01*
X50045952Y63682381D01*
X73112380Y70747143D02*
X73112380Y70842381D01*
X73160000Y70937620D01*
X73207619Y70985239D01*
X73302857Y71032858D01*
X73493333Y71080477D01*
X73731428Y71080477D01*
X73921904Y71032858D01*
X74017142Y70985239D01*
X74064761Y70937620D01*
X74112380Y70842381D01*
X74112380Y70747143D01*
X74064761Y70651905D01*
X74017142Y70604286D01*
X73921904Y70556667D01*
X73731428Y70509048D01*
X73493333Y70509048D01*
X73302857Y70556667D01*
X73207619Y70604286D01*
X73160000Y70651905D01*
X73112380Y70747143D01*
X74017142Y71509048D02*
X74064761Y71556667D01*
X74112380Y71509048D01*
X74064761Y71461429D01*
X74017142Y71509048D01*
X74112380Y71509048D01*
X74112380Y72509048D02*
X74112380Y71937620D01*
X74112380Y72223334D02*
X73112380Y72223334D01*
X73255238Y72128096D01*
X73350476Y72032858D01*
X73398095Y71937620D01*
X73445714Y73366191D02*
X74112380Y73366191D01*
X73445714Y72937620D02*
X73969523Y72937620D01*
X74064761Y72985239D01*
X74112380Y73080477D01*
X74112380Y73223334D01*
X74064761Y73318572D01*
X74017142Y73366191D01*
X73588571Y74175715D02*
X73588571Y73842381D01*
X74112380Y73842381D02*
X73112380Y73842381D01*
X73112380Y74318572D01*
X73112380Y58682143D02*
X73112380Y58777381D01*
X73160000Y58872620D01*
X73207619Y58920239D01*
X73302857Y58967858D01*
X73493333Y59015477D01*
X73731428Y59015477D01*
X73921904Y58967858D01*
X74017142Y58920239D01*
X74064761Y58872620D01*
X74112380Y58777381D01*
X74112380Y58682143D01*
X74064761Y58586905D01*
X74017142Y58539286D01*
X73921904Y58491667D01*
X73731428Y58444048D01*
X73493333Y58444048D01*
X73302857Y58491667D01*
X73207619Y58539286D01*
X73160000Y58586905D01*
X73112380Y58682143D01*
X74017142Y59444048D02*
X74064761Y59491667D01*
X74112380Y59444048D01*
X74064761Y59396429D01*
X74017142Y59444048D01*
X74112380Y59444048D01*
X74112380Y60444048D02*
X74112380Y59872620D01*
X74112380Y60158334D02*
X73112380Y60158334D01*
X73255238Y60063096D01*
X73350476Y59967858D01*
X73398095Y59872620D01*
X73445714Y61301191D02*
X74112380Y61301191D01*
X73445714Y60872620D02*
X73969523Y60872620D01*
X74064761Y60920239D01*
X74112380Y61015477D01*
X74112380Y61158334D01*
X74064761Y61253572D01*
X74017142Y61301191D01*
X73588571Y62110715D02*
X73588571Y61777381D01*
X74112380Y61777381D02*
X73112380Y61777381D01*
X73112380Y62253572D01*
D11*
X67846190Y4532143D02*
X67846190Y1532143D01*
X66970000Y1532143D01*
X66750952Y1675000D01*
X66641428Y1817858D01*
X66531904Y2103572D01*
X66531904Y2532143D01*
X66641428Y2817858D01*
X66750952Y2960715D01*
X66970000Y3103572D01*
X67846190Y3103572D01*
X65108095Y3103572D02*
X65108095Y4532143D01*
X65874761Y1532143D02*
X65108095Y3103572D01*
X64341428Y1532143D01*
X63574761Y1532143D02*
X63574761Y3960715D01*
X63465238Y4246429D01*
X63355714Y4389286D01*
X63136666Y4532143D01*
X62698571Y4532143D01*
X62479523Y4389286D01*
X62370000Y4246429D01*
X62260476Y3960715D01*
X62260476Y1532143D01*
X61165238Y1532143D02*
X61165238Y3960715D01*
X61055714Y4246429D01*
X60946190Y4389286D01*
X60727142Y4532143D01*
X60289047Y4532143D01*
X60070000Y4389286D01*
X59960476Y4246429D01*
X59850952Y3960715D01*
X59850952Y1532143D01*
X59084285Y1532143D02*
X57770000Y1532143D01*
X58427142Y4532143D02*
X58427142Y1532143D01*
X57112857Y3675000D02*
X56017619Y3675000D01*
X57331904Y4532143D02*
X56565238Y1532143D01*
X55798571Y4532143D01*
X55250952Y1532143D02*
X53827142Y1532143D01*
X54593809Y2675000D01*
X54265238Y2675000D01*
X54046190Y2817858D01*
X53936666Y2960715D01*
X53827142Y3246429D01*
X53827142Y3960715D01*
X53936666Y4246429D01*
X54046190Y4389286D01*
X54265238Y4532143D01*
X54922380Y4532143D01*
X55141428Y4389286D01*
X55250952Y4246429D01*
X52950952Y1817858D02*
X52841428Y1675000D01*
X52622380Y1532143D01*
X52074761Y1532143D01*
X51855714Y1675000D01*
X51746190Y1817858D01*
X51636666Y2103572D01*
X51636666Y2389286D01*
X51746190Y2817858D01*
X53060476Y4532143D01*
X51636666Y4532143D01*
X50650952Y4532143D02*
X50650952Y1532143D01*
X50431904Y3389286D02*
X49774761Y4532143D01*
X49774761Y2532143D02*
X50650952Y3675000D01*
X47474761Y4532143D02*
X48241428Y3103572D01*
X48789047Y4532143D02*
X48789047Y1532143D01*
X47912857Y1532143D01*
X47693809Y1675000D01*
X47584285Y1817858D01*
X47474761Y2103572D01*
X47474761Y2532143D01*
X47584285Y2817858D01*
X47693809Y2960715D01*
X47912857Y3103572D01*
X48789047Y3103572D01*
X46050952Y1532143D02*
X45612857Y1532143D01*
X45393809Y1675000D01*
X45174761Y1960715D01*
X45065238Y2532143D01*
X45065238Y3532143D01*
X45174761Y4103572D01*
X45393809Y4389286D01*
X45612857Y4532143D01*
X46050952Y4532143D01*
X46270000Y4389286D01*
X46489047Y4103572D01*
X46598571Y3532143D01*
X46598571Y2532143D01*
X46489047Y1960715D01*
X46270000Y1675000D01*
X46050952Y1532143D01*
X44079523Y4532143D02*
X44079523Y1532143D01*
X43312857Y3675000D01*
X42546190Y1532143D01*
X42546190Y4532143D01*
X39698571Y4532143D02*
X39698571Y1532143D01*
X38931904Y3675000D01*
X38165238Y1532143D01*
X38165238Y4532143D01*
X37070000Y1532143D02*
X37070000Y3960715D01*
X36960476Y4246429D01*
X36850952Y4389286D01*
X36631904Y4532143D01*
X36193809Y4532143D01*
X35974761Y4389286D01*
X35865238Y4246429D01*
X35755714Y3960715D01*
X35755714Y1532143D01*
X33565238Y4532143D02*
X34660476Y4532143D01*
X34660476Y1532143D01*
X33127142Y1532143D02*
X31812857Y1532143D01*
X32470000Y4532143D02*
X32470000Y1532143D01*
X31046190Y4532143D02*
X31046190Y1532143D01*
X26884285Y4246429D02*
X26993809Y4389286D01*
X27322380Y4532143D01*
X27541428Y4532143D01*
X27870000Y4389286D01*
X28089047Y4103572D01*
X28198571Y3817858D01*
X28308095Y3246429D01*
X28308095Y2817858D01*
X28198571Y2246429D01*
X28089047Y1960715D01*
X27870000Y1675000D01*
X27541428Y1532143D01*
X27322380Y1532143D01*
X26993809Y1675000D01*
X26884285Y1817858D01*
X26008095Y3675000D02*
X24912857Y3675000D01*
X26227142Y4532143D02*
X25460476Y1532143D01*
X24693809Y4532143D01*
X22612857Y4532143D02*
X23379523Y3103572D01*
X23927142Y4532143D02*
X23927142Y1532143D01*
X23050952Y1532143D01*
X22831904Y1675000D01*
X22722380Y1817858D01*
X22612857Y2103572D01*
X22612857Y2532143D01*
X22722380Y2817858D01*
X22831904Y2960715D01*
X23050952Y3103572D01*
X23927142Y3103572D01*
X21955714Y1532143D02*
X20641428Y1532143D01*
X21298571Y4532143D02*
X21298571Y1532143D01*
X18560476Y4532143D02*
X19327142Y3103572D01*
X19874761Y4532143D02*
X19874761Y1532143D01*
X18998571Y1532143D01*
X18779523Y1675000D01*
X18670000Y1817858D01*
X18560476Y2103572D01*
X18560476Y2532143D01*
X18670000Y2817858D01*
X18779523Y2960715D01*
X18998571Y3103572D01*
X19874761Y3103572D01*
X17574761Y4532143D02*
X17574761Y1532143D01*
X16479523Y4532143D02*
X16479523Y1532143D01*
X15931904Y1532143D01*
X15603333Y1675000D01*
X15384285Y1960715D01*
X15274761Y2246429D01*
X15165238Y2817858D01*
X15165238Y3246429D01*
X15274761Y3817858D01*
X15384285Y4103572D01*
X15603333Y4389286D01*
X15931904Y4532143D01*
X16479523Y4532143D01*
X12974761Y1675000D02*
X13193809Y1532143D01*
X13522380Y1532143D01*
X13850952Y1675000D01*
X14070000Y1960715D01*
X14179523Y2246429D01*
X14289047Y2817858D01*
X14289047Y3246429D01*
X14179523Y3817858D01*
X14070000Y4103572D01*
X13850952Y4389286D01*
X13522380Y4532143D01*
X13303333Y4532143D01*
X12974761Y4389286D01*
X12865238Y4246429D01*
X12865238Y3246429D01*
X13303333Y3246429D01*
X11879523Y2960715D02*
X11112857Y2960715D01*
X10784285Y4532143D02*
X11879523Y4532143D01*
X11879523Y1532143D01*
X10784285Y1532143D01*
X4318095Y75557143D02*
X4318095Y77557143D01*
X5270476Y74414286D02*
X6222857Y76557143D01*
X3746666Y76557143D01*
X6413333Y54872143D02*
X3937142Y54872143D01*
X5270476Y56015000D01*
X4699047Y56015000D01*
X4318095Y56157858D01*
X4127619Y56300715D01*
X3937142Y56586429D01*
X3937142Y57300715D01*
X4127619Y57586429D01*
X4318095Y57729286D01*
X4699047Y57872143D01*
X5841904Y57872143D01*
X6222857Y57729286D01*
X6413333Y57586429D01*
X6222857Y34202858D02*
X6032380Y34060000D01*
X5651428Y33917143D01*
X4699047Y33917143D01*
X4318095Y34060000D01*
X4127619Y34202858D01*
X3937142Y34488572D01*
X3937142Y34774286D01*
X4127619Y35202858D01*
X6413333Y36917143D01*
X3937142Y36917143D01*
X3302142Y17232143D02*
X5587857Y17232143D01*
X4445000Y17232143D02*
X4445000Y14232143D01*
X4825952Y14660715D01*
X5206904Y14946429D01*
X5587857Y15089286D01*
D10*
X50617380Y37139762D02*
X50617380Y36663572D01*
X49617380Y36663572D01*
X50569761Y37425477D02*
X50617380Y37568334D01*
X50617380Y37806429D01*
X50569761Y37901667D01*
X50522142Y37949286D01*
X50426904Y37996905D01*
X50331666Y37996905D01*
X50236428Y37949286D01*
X50188809Y37901667D01*
X50141190Y37806429D01*
X50093571Y37615953D01*
X50045952Y37520715D01*
X49998333Y37473096D01*
X49903095Y37425477D01*
X49807857Y37425477D01*
X49712619Y37473096D01*
X49665000Y37520715D01*
X49617380Y37615953D01*
X49617380Y37854048D01*
X49665000Y37996905D01*
X50617380Y38949286D02*
X50617380Y38377858D01*
X50617380Y38663572D02*
X49617380Y38663572D01*
X49760238Y38568334D01*
X49855476Y38473096D01*
X49903095Y38377858D01*
X49617380Y39282620D02*
X49617380Y39901667D01*
X49998333Y39568334D01*
X49998333Y39711191D01*
X50045952Y39806429D01*
X50093571Y39854048D01*
X50188809Y39901667D01*
X50426904Y39901667D01*
X50522142Y39854048D01*
X50569761Y39806429D01*
X50617380Y39711191D01*
X50617380Y39425477D01*
X50569761Y39330239D01*
X50522142Y39282620D01*
X50045952Y40473096D02*
X49998333Y40377858D01*
X49950714Y40330239D01*
X49855476Y40282620D01*
X49807857Y40282620D01*
X49712619Y40330239D01*
X49665000Y40377858D01*
X49617380Y40473096D01*
X49617380Y40663572D01*
X49665000Y40758810D01*
X49712619Y40806429D01*
X49807857Y40854048D01*
X49855476Y40854048D01*
X49950714Y40806429D01*
X49998333Y40758810D01*
X50045952Y40663572D01*
X50045952Y40473096D01*
X50093571Y40377858D01*
X50141190Y40330239D01*
X50236428Y40282620D01*
X50426904Y40282620D01*
X50522142Y40330239D01*
X50569761Y40377858D01*
X50617380Y40473096D01*
X50617380Y40663572D01*
X50569761Y40758810D01*
X50522142Y40806429D01*
X50426904Y40854048D01*
X50236428Y40854048D01*
X50141190Y40806429D01*
X50093571Y40758810D01*
X50045952Y40663572D01*
X50617380Y50315953D02*
X50617380Y49839762D01*
X49617380Y49839762D01*
X50569761Y50601667D02*
X50617380Y50744524D01*
X50617380Y50982620D01*
X50569761Y51077858D01*
X50522142Y51125477D01*
X50426904Y51173096D01*
X50331666Y51173096D01*
X50236428Y51125477D01*
X50188809Y51077858D01*
X50141190Y50982620D01*
X50093571Y50792143D01*
X50045952Y50696905D01*
X49998333Y50649286D01*
X49903095Y50601667D01*
X49807857Y50601667D01*
X49712619Y50649286D01*
X49665000Y50696905D01*
X49617380Y50792143D01*
X49617380Y51030239D01*
X49665000Y51173096D01*
X49617380Y51506429D02*
X49617380Y52125477D01*
X49998333Y51792143D01*
X49998333Y51935000D01*
X50045952Y52030239D01*
X50093571Y52077858D01*
X50188809Y52125477D01*
X50426904Y52125477D01*
X50522142Y52077858D01*
X50569761Y52030239D01*
X50617380Y51935000D01*
X50617380Y51649286D01*
X50569761Y51554048D01*
X50522142Y51506429D01*
X49712619Y52506429D02*
X49665000Y52554048D01*
X49617380Y52649286D01*
X49617380Y52887381D01*
X49665000Y52982620D01*
X49712619Y53030239D01*
X49807857Y53077858D01*
X49903095Y53077858D01*
X50045952Y53030239D01*
X50617380Y52458810D01*
X50617380Y53077858D01*
X8437619Y76549524D02*
X8390000Y76597143D01*
X8342380Y76692381D01*
X8342380Y76930477D01*
X8390000Y77025715D01*
X8437619Y77073334D01*
X8532857Y77120953D01*
X8628095Y77120953D01*
X8770952Y77073334D01*
X9342380Y76501905D01*
X9342380Y77120953D01*
X8342380Y77454286D02*
X8342380Y78120953D01*
X9342380Y77692381D01*
X8342380Y78978096D02*
X8342380Y78501905D01*
X8818571Y78454286D01*
X8770952Y78501905D01*
X8723333Y78597143D01*
X8723333Y78835239D01*
X8770952Y78930477D01*
X8818571Y78978096D01*
X8913809Y79025715D01*
X9151904Y79025715D01*
X9247142Y78978096D01*
X9294761Y78930477D01*
X9342380Y78835239D01*
X9342380Y78597143D01*
X9294761Y78501905D01*
X9247142Y78454286D01*
X9342380Y79978096D02*
X9342380Y79406667D01*
X9342380Y79692381D02*
X8342380Y79692381D01*
X8485238Y79597143D01*
X8580476Y79501905D01*
X8628095Y79406667D01*
X8437619Y80359048D02*
X8390000Y80406667D01*
X8342380Y80501905D01*
X8342380Y80740000D01*
X8390000Y80835239D01*
X8437619Y80882858D01*
X8532857Y80930477D01*
X8628095Y80930477D01*
X8770952Y80882858D01*
X9342380Y80311429D01*
X9342380Y80930477D01*
X8437619Y56864524D02*
X8390000Y56912143D01*
X8342380Y57007381D01*
X8342380Y57245477D01*
X8390000Y57340715D01*
X8437619Y57388334D01*
X8532857Y57435953D01*
X8628095Y57435953D01*
X8770952Y57388334D01*
X9342380Y56816905D01*
X9342380Y57435953D01*
X8342380Y57769286D02*
X8342380Y58435953D01*
X9342380Y58007381D01*
X8342380Y59293096D02*
X8342380Y58816905D01*
X8818571Y58769286D01*
X8770952Y58816905D01*
X8723333Y58912143D01*
X8723333Y59150239D01*
X8770952Y59245477D01*
X8818571Y59293096D01*
X8913809Y59340715D01*
X9151904Y59340715D01*
X9247142Y59293096D01*
X9294761Y59245477D01*
X9342380Y59150239D01*
X9342380Y58912143D01*
X9294761Y58816905D01*
X9247142Y58769286D01*
X9342380Y60293096D02*
X9342380Y59721667D01*
X9342380Y60007381D02*
X8342380Y60007381D01*
X8485238Y59912143D01*
X8580476Y59816905D01*
X8628095Y59721667D01*
X8437619Y60674048D02*
X8390000Y60721667D01*
X8342380Y60816905D01*
X8342380Y61055000D01*
X8390000Y61150239D01*
X8437619Y61197858D01*
X8532857Y61245477D01*
X8628095Y61245477D01*
X8770952Y61197858D01*
X9342380Y60626429D01*
X9342380Y61245477D01*
X8437619Y36544524D02*
X8390000Y36592143D01*
X8342380Y36687381D01*
X8342380Y36925477D01*
X8390000Y37020715D01*
X8437619Y37068334D01*
X8532857Y37115953D01*
X8628095Y37115953D01*
X8770952Y37068334D01*
X9342380Y36496905D01*
X9342380Y37115953D01*
X8342380Y37449286D02*
X8342380Y38115953D01*
X9342380Y37687381D01*
X8342380Y38973096D02*
X8342380Y38496905D01*
X8818571Y38449286D01*
X8770952Y38496905D01*
X8723333Y38592143D01*
X8723333Y38830239D01*
X8770952Y38925477D01*
X8818571Y38973096D01*
X8913809Y39020715D01*
X9151904Y39020715D01*
X9247142Y38973096D01*
X9294761Y38925477D01*
X9342380Y38830239D01*
X9342380Y38592143D01*
X9294761Y38496905D01*
X9247142Y38449286D01*
X9342380Y39973096D02*
X9342380Y39401667D01*
X9342380Y39687381D02*
X8342380Y39687381D01*
X8485238Y39592143D01*
X8580476Y39496905D01*
X8628095Y39401667D01*
X8437619Y40354048D02*
X8390000Y40401667D01*
X8342380Y40496905D01*
X8342380Y40735000D01*
X8390000Y40830239D01*
X8437619Y40877858D01*
X8532857Y40925477D01*
X8628095Y40925477D01*
X8770952Y40877858D01*
X9342380Y40306429D01*
X9342380Y40925477D01*
X8437619Y14954524D02*
X8390000Y15002143D01*
X8342380Y15097381D01*
X8342380Y15335477D01*
X8390000Y15430715D01*
X8437619Y15478334D01*
X8532857Y15525953D01*
X8628095Y15525953D01*
X8770952Y15478334D01*
X9342380Y14906905D01*
X9342380Y15525953D01*
X8342380Y15859286D02*
X8342380Y16525953D01*
X9342380Y16097381D01*
X8342380Y17383096D02*
X8342380Y16906905D01*
X8818571Y16859286D01*
X8770952Y16906905D01*
X8723333Y17002143D01*
X8723333Y17240239D01*
X8770952Y17335477D01*
X8818571Y17383096D01*
X8913809Y17430715D01*
X9151904Y17430715D01*
X9247142Y17383096D01*
X9294761Y17335477D01*
X9342380Y17240239D01*
X9342380Y17002143D01*
X9294761Y16906905D01*
X9247142Y16859286D01*
X9342380Y18383096D02*
X9342380Y17811667D01*
X9342380Y18097381D02*
X8342380Y18097381D01*
X8485238Y18002143D01*
X8580476Y17906905D01*
X8628095Y17811667D01*
X8437619Y18764048D02*
X8390000Y18811667D01*
X8342380Y18906905D01*
X8342380Y19145000D01*
X8390000Y19240239D01*
X8437619Y19287858D01*
X8532857Y19335477D01*
X8628095Y19335477D01*
X8770952Y19287858D01*
X9342380Y18716429D01*
X9342380Y19335477D01*
X68397380Y27979762D02*
X68397380Y27408334D01*
X68397380Y27694048D02*
X67397380Y27694048D01*
X67540238Y27598810D01*
X67635476Y27503572D01*
X67683095Y27408334D01*
X67397380Y28598810D02*
X67397380Y28694048D01*
X67445000Y28789286D01*
X67492619Y28836905D01*
X67587857Y28884524D01*
X67778333Y28932143D01*
X68016428Y28932143D01*
X68206904Y28884524D01*
X68302142Y28836905D01*
X68349761Y28789286D01*
X68397380Y28694048D01*
X68397380Y28598810D01*
X68349761Y28503572D01*
X68302142Y28455953D01*
X68206904Y28408334D01*
X68016428Y28360715D01*
X67778333Y28360715D01*
X67587857Y28408334D01*
X67492619Y28455953D01*
X67445000Y28503572D01*
X67397380Y28598810D01*
X68397380Y29360715D02*
X67397380Y29360715D01*
X68016428Y29455953D02*
X68397380Y29741667D01*
X67730714Y29741667D02*
X68111666Y29360715D01*
X63317380Y27979762D02*
X63317380Y27408334D01*
X63317380Y27694048D02*
X62317380Y27694048D01*
X62460238Y27598810D01*
X62555476Y27503572D01*
X62603095Y27408334D01*
X62317380Y28598810D02*
X62317380Y28694048D01*
X62365000Y28789286D01*
X62412619Y28836905D01*
X62507857Y28884524D01*
X62698333Y28932143D01*
X62936428Y28932143D01*
X63126904Y28884524D01*
X63222142Y28836905D01*
X63269761Y28789286D01*
X63317380Y28694048D01*
X63317380Y28598810D01*
X63269761Y28503572D01*
X63222142Y28455953D01*
X63126904Y28408334D01*
X62936428Y28360715D01*
X62698333Y28360715D01*
X62507857Y28408334D01*
X62412619Y28455953D01*
X62365000Y28503572D01*
X62317380Y28598810D01*
X63317380Y29360715D02*
X62317380Y29360715D01*
X62936428Y29455953D02*
X63317380Y29741667D01*
X62650714Y29741667D02*
X63031666Y29360715D01*
X58237380Y27979762D02*
X58237380Y27408334D01*
X58237380Y27694048D02*
X57237380Y27694048D01*
X57380238Y27598810D01*
X57475476Y27503572D01*
X57523095Y27408334D01*
X57237380Y28598810D02*
X57237380Y28694048D01*
X57285000Y28789286D01*
X57332619Y28836905D01*
X57427857Y28884524D01*
X57618333Y28932143D01*
X57856428Y28932143D01*
X58046904Y28884524D01*
X58142142Y28836905D01*
X58189761Y28789286D01*
X58237380Y28694048D01*
X58237380Y28598810D01*
X58189761Y28503572D01*
X58142142Y28455953D01*
X58046904Y28408334D01*
X57856428Y28360715D01*
X57618333Y28360715D01*
X57427857Y28408334D01*
X57332619Y28455953D01*
X57285000Y28503572D01*
X57237380Y28598810D01*
X58237380Y29360715D02*
X57237380Y29360715D01*
X57856428Y29455953D02*
X58237380Y29741667D01*
X57570714Y29741667D02*
X57951666Y29360715D01*
X53157380Y27979762D02*
X53157380Y27408334D01*
X53157380Y27694048D02*
X52157380Y27694048D01*
X52300238Y27598810D01*
X52395476Y27503572D01*
X52443095Y27408334D01*
X52157380Y28598810D02*
X52157380Y28694048D01*
X52205000Y28789286D01*
X52252619Y28836905D01*
X52347857Y28884524D01*
X52538333Y28932143D01*
X52776428Y28932143D01*
X52966904Y28884524D01*
X53062142Y28836905D01*
X53109761Y28789286D01*
X53157380Y28694048D01*
X53157380Y28598810D01*
X53109761Y28503572D01*
X53062142Y28455953D01*
X52966904Y28408334D01*
X52776428Y28360715D01*
X52538333Y28360715D01*
X52347857Y28408334D01*
X52252619Y28455953D01*
X52205000Y28503572D01*
X52157380Y28598810D01*
X53157380Y29360715D02*
X52157380Y29360715D01*
X52776428Y29455953D02*
X53157380Y29741667D01*
X52490714Y29741667D02*
X52871666Y29360715D01*
X59507380Y80367381D02*
X59507380Y79795953D01*
X59507380Y80081667D02*
X58507380Y80081667D01*
X58650238Y79986429D01*
X58745476Y79891191D01*
X58793095Y79795953D01*
X58507380Y80986429D02*
X58507380Y81081667D01*
X58555000Y81176905D01*
X58602619Y81224524D01*
X58697857Y81272143D01*
X58888333Y81319762D01*
X59126428Y81319762D01*
X59316904Y81272143D01*
X59412142Y81224524D01*
X59459761Y81176905D01*
X59507380Y81081667D01*
X59507380Y80986429D01*
X59459761Y80891191D01*
X59412142Y80843572D01*
X59316904Y80795953D01*
X59126428Y80748334D01*
X58888333Y80748334D01*
X58697857Y80795953D01*
X58602619Y80843572D01*
X58555000Y80891191D01*
X58507380Y80986429D01*
X58507380Y81938810D02*
X58507380Y82034048D01*
X58555000Y82129286D01*
X58602619Y82176905D01*
X58697857Y82224524D01*
X58888333Y82272143D01*
X59126428Y82272143D01*
X59316904Y82224524D01*
X59412142Y82176905D01*
X59459761Y82129286D01*
X59507380Y82034048D01*
X59507380Y81938810D01*
X59459761Y81843572D01*
X59412142Y81795953D01*
X59316904Y81748334D01*
X59126428Y81700715D01*
X58888333Y81700715D01*
X58697857Y81748334D01*
X58602619Y81795953D01*
X58555000Y81843572D01*
X58507380Y81938810D01*
X58840714Y83129286D02*
X59507380Y83129286D01*
X58840714Y82700715D02*
X59364523Y82700715D01*
X59459761Y82748334D01*
X59507380Y82843572D01*
X59507380Y82986429D01*
X59459761Y83081667D01*
X59412142Y83129286D01*
X58983571Y83938810D02*
X58983571Y83605477D01*
X59507380Y83605477D02*
X58507380Y83605477D01*
X58507380Y84081667D01*
X47077380Y79002143D02*
X47077380Y79097381D01*
X47125000Y79192620D01*
X47172619Y79240239D01*
X47267857Y79287858D01*
X47458333Y79335477D01*
X47696428Y79335477D01*
X47886904Y79287858D01*
X47982142Y79240239D01*
X48029761Y79192620D01*
X48077380Y79097381D01*
X48077380Y79002143D01*
X48029761Y78906905D01*
X47982142Y78859286D01*
X47886904Y78811667D01*
X47696428Y78764048D01*
X47458333Y78764048D01*
X47267857Y78811667D01*
X47172619Y78859286D01*
X47125000Y78906905D01*
X47077380Y79002143D01*
X47982142Y79764048D02*
X48029761Y79811667D01*
X48077380Y79764048D01*
X48029761Y79716429D01*
X47982142Y79764048D01*
X48077380Y79764048D01*
X48077380Y80764048D02*
X48077380Y80192620D01*
X48077380Y80478334D02*
X47077380Y80478334D01*
X47220238Y80383096D01*
X47315476Y80287858D01*
X47363095Y80192620D01*
X47410714Y81621191D02*
X48077380Y81621191D01*
X47410714Y81192620D02*
X47934523Y81192620D01*
X48029761Y81240239D01*
X48077380Y81335477D01*
X48077380Y81478334D01*
X48029761Y81573572D01*
X47982142Y81621191D01*
X47553571Y82430715D02*
X47553571Y82097381D01*
X48077380Y82097381D02*
X47077380Y82097381D01*
X47077380Y82573572D01*
X47077380Y58682143D02*
X47077380Y58777381D01*
X47125000Y58872620D01*
X47172619Y58920239D01*
X47267857Y58967858D01*
X47458333Y59015477D01*
X47696428Y59015477D01*
X47886904Y58967858D01*
X47982142Y58920239D01*
X48029761Y58872620D01*
X48077380Y58777381D01*
X48077380Y58682143D01*
X48029761Y58586905D01*
X47982142Y58539286D01*
X47886904Y58491667D01*
X47696428Y58444048D01*
X47458333Y58444048D01*
X47267857Y58491667D01*
X47172619Y58539286D01*
X47125000Y58586905D01*
X47077380Y58682143D01*
X47982142Y59444048D02*
X48029761Y59491667D01*
X48077380Y59444048D01*
X48029761Y59396429D01*
X47982142Y59444048D01*
X48077380Y59444048D01*
X48077380Y60444048D02*
X48077380Y59872620D01*
X48077380Y60158334D02*
X47077380Y60158334D01*
X47220238Y60063096D01*
X47315476Y59967858D01*
X47363095Y59872620D01*
X47410714Y61301191D02*
X48077380Y61301191D01*
X47410714Y60872620D02*
X47934523Y60872620D01*
X48029761Y60920239D01*
X48077380Y61015477D01*
X48077380Y61158334D01*
X48029761Y61253572D01*
X47982142Y61301191D01*
X47553571Y62110715D02*
X47553571Y61777381D01*
X48077380Y61777381D02*
X47077380Y61777381D01*
X47077380Y62253572D01*
X73112380Y46617143D02*
X73112380Y46712381D01*
X73160000Y46807620D01*
X73207619Y46855239D01*
X73302857Y46902858D01*
X73493333Y46950477D01*
X73731428Y46950477D01*
X73921904Y46902858D01*
X74017142Y46855239D01*
X74064761Y46807620D01*
X74112380Y46712381D01*
X74112380Y46617143D01*
X74064761Y46521905D01*
X74017142Y46474286D01*
X73921904Y46426667D01*
X73731428Y46379048D01*
X73493333Y46379048D01*
X73302857Y46426667D01*
X73207619Y46474286D01*
X73160000Y46521905D01*
X73112380Y46617143D01*
X74017142Y47379048D02*
X74064761Y47426667D01*
X74112380Y47379048D01*
X74064761Y47331429D01*
X74017142Y47379048D01*
X74112380Y47379048D01*
X74112380Y48379048D02*
X74112380Y47807620D01*
X74112380Y48093334D02*
X73112380Y48093334D01*
X73255238Y47998096D01*
X73350476Y47902858D01*
X73398095Y47807620D01*
X73445714Y49236191D02*
X74112380Y49236191D01*
X73445714Y48807620D02*
X73969523Y48807620D01*
X74064761Y48855239D01*
X74112380Y48950477D01*
X74112380Y49093334D01*
X74064761Y49188572D01*
X74017142Y49236191D01*
X73588571Y50045715D02*
X73588571Y49712381D01*
X74112380Y49712381D02*
X73112380Y49712381D01*
X73112380Y50188572D01*
X75652380Y34552143D02*
X75652380Y34647381D01*
X75700000Y34742620D01*
X75747619Y34790239D01*
X75842857Y34837858D01*
X76033333Y34885477D01*
X76271428Y34885477D01*
X76461904Y34837858D01*
X76557142Y34790239D01*
X76604761Y34742620D01*
X76652380Y34647381D01*
X76652380Y34552143D01*
X76604761Y34456905D01*
X76557142Y34409286D01*
X76461904Y34361667D01*
X76271428Y34314048D01*
X76033333Y34314048D01*
X75842857Y34361667D01*
X75747619Y34409286D01*
X75700000Y34456905D01*
X75652380Y34552143D01*
X76557142Y35314048D02*
X76604761Y35361667D01*
X76652380Y35314048D01*
X76604761Y35266429D01*
X76557142Y35314048D01*
X76652380Y35314048D01*
X76652380Y36314048D02*
X76652380Y35742620D01*
X76652380Y36028334D02*
X75652380Y36028334D01*
X75795238Y35933096D01*
X75890476Y35837858D01*
X75938095Y35742620D01*
X75985714Y37171191D02*
X76652380Y37171191D01*
X75985714Y36742620D02*
X76509523Y36742620D01*
X76604761Y36790239D01*
X76652380Y36885477D01*
X76652380Y37028334D01*
X76604761Y37123572D01*
X76557142Y37171191D01*
X76128571Y37980715D02*
X76128571Y37647381D01*
X76652380Y37647381D02*
X75652380Y37647381D01*
X75652380Y38123572D01*
X47077380Y38362143D02*
X47077380Y38457381D01*
X47125000Y38552620D01*
X47172619Y38600239D01*
X47267857Y38647858D01*
X47458333Y38695477D01*
X47696428Y38695477D01*
X47886904Y38647858D01*
X47982142Y38600239D01*
X48029761Y38552620D01*
X48077380Y38457381D01*
X48077380Y38362143D01*
X48029761Y38266905D01*
X47982142Y38219286D01*
X47886904Y38171667D01*
X47696428Y38124048D01*
X47458333Y38124048D01*
X47267857Y38171667D01*
X47172619Y38219286D01*
X47125000Y38266905D01*
X47077380Y38362143D01*
X47982142Y39124048D02*
X48029761Y39171667D01*
X48077380Y39124048D01*
X48029761Y39076429D01*
X47982142Y39124048D01*
X48077380Y39124048D01*
X48077380Y40124048D02*
X48077380Y39552620D01*
X48077380Y39838334D02*
X47077380Y39838334D01*
X47220238Y39743096D01*
X47315476Y39647858D01*
X47363095Y39552620D01*
X47410714Y40981191D02*
X48077380Y40981191D01*
X47410714Y40552620D02*
X47934523Y40552620D01*
X48029761Y40600239D01*
X48077380Y40695477D01*
X48077380Y40838334D01*
X48029761Y40933572D01*
X47982142Y40981191D01*
X47553571Y41790715D02*
X47553571Y41457381D01*
X48077380Y41457381D02*
X47077380Y41457381D01*
X47077380Y41933572D01*
X47077380Y18042143D02*
X47077380Y18137381D01*
X47125000Y18232620D01*
X47172619Y18280239D01*
X47267857Y18327858D01*
X47458333Y18375477D01*
X47696428Y18375477D01*
X47886904Y18327858D01*
X47982142Y18280239D01*
X48029761Y18232620D01*
X48077380Y18137381D01*
X48077380Y18042143D01*
X48029761Y17946905D01*
X47982142Y17899286D01*
X47886904Y17851667D01*
X47696428Y17804048D01*
X47458333Y17804048D01*
X47267857Y17851667D01*
X47172619Y17899286D01*
X47125000Y17946905D01*
X47077380Y18042143D01*
X47982142Y18804048D02*
X48029761Y18851667D01*
X48077380Y18804048D01*
X48029761Y18756429D01*
X47982142Y18804048D01*
X48077380Y18804048D01*
X48077380Y19804048D02*
X48077380Y19232620D01*
X48077380Y19518334D02*
X47077380Y19518334D01*
X47220238Y19423096D01*
X47315476Y19327858D01*
X47363095Y19232620D01*
X47410714Y20661191D02*
X48077380Y20661191D01*
X47410714Y20232620D02*
X47934523Y20232620D01*
X48029761Y20280239D01*
X48077380Y20375477D01*
X48077380Y20518334D01*
X48029761Y20613572D01*
X47982142Y20661191D01*
X47553571Y21470715D02*
X47553571Y21137381D01*
X48077380Y21137381D02*
X47077380Y21137381D01*
X47077380Y21613572D01*
X58705714Y17327620D02*
X58658095Y17280000D01*
X58562857Y17232381D01*
X58324761Y17232381D01*
X58229523Y17280000D01*
X58181904Y17327620D01*
X58134285Y17422858D01*
X58134285Y17518096D01*
X58181904Y17660953D01*
X58753333Y18232381D01*
X58134285Y18232381D01*
X60674285Y18232381D02*
X61245714Y18232381D01*
X60960000Y18232381D02*
X60960000Y17232381D01*
X61055238Y17375239D01*
X61150476Y17470477D01*
X61245714Y17518096D01*
X63547619Y17232381D02*
X63452380Y17232381D01*
X63357142Y17280000D01*
X63309523Y17327620D01*
X63261904Y17422858D01*
X63214285Y17613334D01*
X63214285Y17851429D01*
X63261904Y18041905D01*
X63309523Y18137143D01*
X63357142Y18184762D01*
X63452380Y18232381D01*
X63547619Y18232381D01*
X63642857Y18184762D01*
X63690476Y18137143D01*
X63738095Y18041905D01*
X63785714Y17851429D01*
X63785714Y17613334D01*
X63738095Y17422858D01*
X63690476Y17327620D01*
X63642857Y17280000D01*
X63547619Y17232381D01*
D12*
X71785000Y50360000D02*
X72490000Y50360000D01*
X69750000Y50360000D02*
X70455000Y50360000D01*
X71785000Y46120000D02*
X72490000Y46120000D01*
X69750000Y46120000D02*
X70455000Y46120000D01*
X72490000Y46120000D02*
X72490000Y50360000D01*
X69750000Y46120000D02*
X69750000Y50360000D01*
X75030000Y38335000D02*
X75030000Y34095000D01*
X72290000Y38335000D02*
X72290000Y34095000D01*
X75030000Y38335000D02*
X74325000Y38335000D01*
X72995000Y38335000D02*
X72290000Y38335000D01*
X75030000Y34095000D02*
X74325000Y34095000D01*
X72995000Y34095000D02*
X72290000Y34095000D01*
X46960000Y13140000D02*
X46255000Y13140000D01*
X48995000Y13140000D02*
X48290000Y13140000D01*
X46960000Y17380000D02*
X46255000Y17380000D01*
X48995000Y17380000D02*
X48290000Y17380000D01*
X46255000Y17380000D02*
X46255000Y13140000D01*
X48995000Y17380000D02*
X48995000Y13140000D01*
X48995000Y37700000D02*
X48995000Y33460000D01*
X46255000Y37700000D02*
X46255000Y33460000D01*
X48995000Y37700000D02*
X48290000Y37700000D01*
X46960000Y37700000D02*
X46255000Y37700000D01*
X48995000Y33460000D02*
X48290000Y33460000D01*
X46960000Y33460000D02*
X46255000Y33460000D01*
X48995000Y58020000D02*
X48995000Y53780000D01*
X46255000Y58020000D02*
X46255000Y53780000D01*
X48995000Y58020000D02*
X48290000Y58020000D01*
X46960000Y58020000D02*
X46255000Y58020000D01*
X48995000Y53780000D02*
X48290000Y53780000D01*
X46960000Y53780000D02*
X46255000Y53780000D01*
X46960000Y74100000D02*
X46255000Y74100000D01*
X48995000Y74100000D02*
X48290000Y74100000D01*
X46960000Y78340000D02*
X46255000Y78340000D01*
X48995000Y78340000D02*
X48290000Y78340000D01*
X46255000Y78340000D02*
X46255000Y74100000D01*
X48995000Y78340000D02*
X48995000Y74100000D01*
X66775000Y27400000D02*
X66445000Y27400000D01*
X66775000Y20860000D02*
X66775000Y27400000D01*
X66445000Y20860000D02*
X66775000Y20860000D01*
X64035000Y27400000D02*
X64365000Y27400000D01*
X64035000Y20860000D02*
X64035000Y27400000D01*
X64365000Y20860000D02*
X64035000Y20860000D01*
X59285000Y20860000D02*
X58955000Y20860000D01*
X58955000Y20860000D02*
X58955000Y27400000D01*
X58955000Y27400000D02*
X59285000Y27400000D01*
X61365000Y20860000D02*
X61695000Y20860000D01*
X61695000Y20860000D02*
X61695000Y27400000D01*
X61695000Y27400000D02*
X61365000Y27400000D01*
X56615000Y27400000D02*
X56285000Y27400000D01*
X56615000Y20860000D02*
X56615000Y27400000D01*
X56285000Y20860000D02*
X56615000Y20860000D01*
X53875000Y27400000D02*
X54205000Y27400000D01*
X53875000Y20860000D02*
X53875000Y27400000D01*
X54205000Y20860000D02*
X53875000Y20860000D01*
X65610000Y14840000D02*
X65610000Y8019000D01*
X53770000Y14840000D02*
X53770000Y8019000D01*
X65610000Y14840000D02*
X64540000Y14840000D01*
X62460000Y14840000D02*
X61949000Y14840000D01*
X59970000Y14840000D02*
X59409000Y14840000D01*
X57430000Y14840000D02*
X56869000Y14840000D01*
X54890000Y14840000D02*
X53770000Y14840000D01*
X54890000Y8019000D02*
X53770000Y8019000D01*
X57430000Y8019000D02*
X56869000Y8019000D01*
X59970000Y8019000D02*
X59409000Y8019000D01*
X65610000Y8019000D02*
X64490000Y8019000D01*
X62510000Y8019000D02*
X61949000Y8019000D01*
X65850000Y15080000D02*
X65850000Y13697000D01*
X65850000Y15080000D02*
X64540000Y15080000D01*
X64135000Y13240000D02*
X62865000Y13240000D01*
X62865000Y13240000D02*
X62865000Y9620000D01*
X62865000Y9620000D02*
X64135000Y9620000D01*
X64135000Y9620000D02*
X64135000Y13240000D01*
X64015000Y13240000D02*
X64015000Y12033333D01*
X63895000Y13240000D02*
X63895000Y12033333D01*
X63775000Y13240000D02*
X63775000Y12033333D01*
X63655000Y13240000D02*
X63655000Y12033333D01*
X63535000Y13240000D02*
X63535000Y12033333D01*
X63415000Y13240000D02*
X63415000Y12033333D01*
X63295000Y13240000D02*
X63295000Y12033333D01*
X63175000Y13240000D02*
X63175000Y12033333D01*
X63055000Y13240000D02*
X63055000Y12033333D01*
X62935000Y13240000D02*
X62935000Y12033333D01*
X64135000Y12033333D02*
X62865000Y12033333D01*
X61595000Y13240000D02*
X60325000Y13240000D01*
X60325000Y13240000D02*
X60325000Y9620000D01*
X60325000Y9620000D02*
X61595000Y9620000D01*
X61595000Y9620000D02*
X61595000Y13240000D01*
X61475000Y13240000D02*
X61475000Y12033333D01*
X61355000Y13240000D02*
X61355000Y12033333D01*
X61235000Y13240000D02*
X61235000Y12033333D01*
X61115000Y13240000D02*
X61115000Y12033333D01*
X60995000Y13240000D02*
X60995000Y12033333D01*
X60875000Y13240000D02*
X60875000Y12033333D01*
X60755000Y13240000D02*
X60755000Y12033333D01*
X60635000Y13240000D02*
X60635000Y12033333D01*
X60515000Y13240000D02*
X60515000Y12033333D01*
X60395000Y13240000D02*
X60395000Y12033333D01*
X61595000Y12033333D02*
X60325000Y12033333D01*
X59055000Y13240000D02*
X57785000Y13240000D01*
X57785000Y13240000D02*
X57785000Y9620000D01*
X57785000Y9620000D02*
X59055000Y9620000D01*
X59055000Y9620000D02*
X59055000Y13240000D01*
X58935000Y13240000D02*
X58935000Y12033333D01*
X58815000Y13240000D02*
X58815000Y12033333D01*
X58695000Y13240000D02*
X58695000Y12033333D01*
X58575000Y13240000D02*
X58575000Y12033333D01*
X58455000Y13240000D02*
X58455000Y12033333D01*
X58335000Y13240000D02*
X58335000Y12033333D01*
X58215000Y13240000D02*
X58215000Y12033333D01*
X58095000Y13240000D02*
X58095000Y12033333D01*
X57975000Y13240000D02*
X57975000Y12033333D01*
X57855000Y13240000D02*
X57855000Y12033333D01*
X59055000Y12033333D02*
X57785000Y12033333D01*
X56515000Y13240000D02*
X55245000Y13240000D01*
X55245000Y13240000D02*
X55245000Y9620000D01*
X55245000Y9620000D02*
X56515000Y9620000D01*
X56515000Y9620000D02*
X56515000Y13240000D01*
X56395000Y13240000D02*
X56395000Y12033333D01*
X56275000Y13240000D02*
X56275000Y12033333D01*
X56155000Y13240000D02*
X56155000Y12033333D01*
X56035000Y13240000D02*
X56035000Y12033333D01*
X55915000Y13240000D02*
X55915000Y12033333D01*
X55795000Y13240000D02*
X55795000Y12033333D01*
X55675000Y13240000D02*
X55675000Y12033333D01*
X55555000Y13240000D02*
X55555000Y12033333D01*
X55435000Y13240000D02*
X55435000Y12033333D01*
X55315000Y13240000D02*
X55315000Y12033333D01*
X56515000Y12033333D02*
X55245000Y12033333D01*
X45780000Y16240000D02*
X45780000Y21300000D01*
X45780000Y21300000D02*
X10100000Y21300000D01*
X10100000Y21300000D02*
X10100000Y9180000D01*
X10100000Y9180000D02*
X45780000Y9180000D01*
X45780000Y9180000D02*
X45780000Y14240000D01*
X45780000Y14240000D02*
G75*
G02*
X45780000Y16240000I0J1000000D01*
G01*
X45780000Y36560000D02*
X45780000Y41620000D01*
X45780000Y41620000D02*
X10100000Y41620000D01*
X10100000Y41620000D02*
X10100000Y29500000D01*
X10100000Y29500000D02*
X45780000Y29500000D01*
X45780000Y29500000D02*
X45780000Y34560000D01*
X45780000Y34560000D02*
G75*
G02*
X45780000Y36560000I0J1000000D01*
G01*
X45780000Y49820000D02*
X45780000Y54880000D01*
X10100000Y49820000D02*
X45780000Y49820000D01*
X10100000Y61940000D02*
X10100000Y49820000D01*
X45780000Y61940000D02*
X10100000Y61940000D01*
X45780000Y56880000D02*
X45780000Y61940000D01*
X45780000Y54880000D02*
G75*
G02*
X45780000Y56880000I0J1000000D01*
G01*
X45780000Y70140000D02*
X45780000Y75200000D01*
X10100000Y70140000D02*
X45780000Y70140000D01*
X10100000Y82260000D02*
X10100000Y70140000D01*
X45780000Y82260000D02*
X10100000Y82260000D01*
X45780000Y77200000D02*
X45780000Y82260000D01*
X45780000Y75200000D02*
G75*
G02*
X45780000Y77200000I0J1000000D01*
G01*
X71815000Y37195000D02*
X71815000Y38445000D01*
X71815000Y38445000D02*
X51375000Y38445000D01*
X51375000Y38445000D02*
X51375000Y33945000D01*
X51375000Y33945000D02*
X71815000Y33945000D01*
X71815000Y33945000D02*
X71815000Y35195000D01*
X71815000Y35195000D02*
G75*
G02*
X71815000Y37195000I0J1000000D01*
G01*
X69275000Y49260000D02*
X69275000Y50510000D01*
X69275000Y50510000D02*
X51375000Y50510000D01*
X51375000Y50510000D02*
X51375000Y46010000D01*
X51375000Y46010000D02*
X69275000Y46010000D01*
X69275000Y46010000D02*
X69275000Y47260000D01*
X69275000Y47260000D02*
G75*
G02*
X69275000Y49260000I0J1000000D01*
G01*
X57865000Y82570000D02*
G75*
G03*
X57865000Y82570000I-2620000J0D01*
G01*
X57825000Y82570000D02*
X52665000Y82570000D01*
X57825000Y82530000D02*
X52665000Y82530000D01*
X57824000Y82490000D02*
X52666000Y82490000D01*
X57823000Y82450000D02*
X52667000Y82450000D01*
X57821000Y82410000D02*
X52669000Y82410000D01*
X57818000Y82370000D02*
X52672000Y82370000D01*
X57814000Y82330000D02*
X56285000Y82330000D01*
X54205000Y82330000D02*
X52676000Y82330000D01*
X57810000Y82290000D02*
X56285000Y82290000D01*
X54205000Y82290000D02*
X52680000Y82290000D01*
X57806000Y82250000D02*
X56285000Y82250000D01*
X54205000Y82250000D02*
X52684000Y82250000D01*
X57801000Y82210000D02*
X56285000Y82210000D01*
X54205000Y82210000D02*
X52689000Y82210000D01*
X57795000Y82170000D02*
X56285000Y82170000D01*
X54205000Y82170000D02*
X52695000Y82170000D01*
X57788000Y82130000D02*
X56285000Y82130000D01*
X54205000Y82130000D02*
X52702000Y82130000D01*
X57781000Y82090000D02*
X56285000Y82090000D01*
X54205000Y82090000D02*
X52709000Y82090000D01*
X57773000Y82050000D02*
X56285000Y82050000D01*
X54205000Y82050000D02*
X52717000Y82050000D01*
X57765000Y82010000D02*
X56285000Y82010000D01*
X54205000Y82010000D02*
X52725000Y82010000D01*
X57756000Y81970000D02*
X56285000Y81970000D01*
X54205000Y81970000D02*
X52734000Y81970000D01*
X57746000Y81930000D02*
X56285000Y81930000D01*
X54205000Y81930000D02*
X52744000Y81930000D01*
X57736000Y81890000D02*
X56285000Y81890000D01*
X54205000Y81890000D02*
X52754000Y81890000D01*
X57725000Y81849000D02*
X56285000Y81849000D01*
X54205000Y81849000D02*
X52765000Y81849000D01*
X57713000Y81809000D02*
X56285000Y81809000D01*
X54205000Y81809000D02*
X52777000Y81809000D01*
X57700000Y81769000D02*
X56285000Y81769000D01*
X54205000Y81769000D02*
X52790000Y81769000D01*
X57687000Y81729000D02*
X56285000Y81729000D01*
X54205000Y81729000D02*
X52803000Y81729000D01*
X57673000Y81689000D02*
X56285000Y81689000D01*
X54205000Y81689000D02*
X52817000Y81689000D01*
X57659000Y81649000D02*
X56285000Y81649000D01*
X54205000Y81649000D02*
X52831000Y81649000D01*
X57643000Y81609000D02*
X56285000Y81609000D01*
X54205000Y81609000D02*
X52847000Y81609000D01*
X57627000Y81569000D02*
X56285000Y81569000D01*
X54205000Y81569000D02*
X52863000Y81569000D01*
X57610000Y81529000D02*
X56285000Y81529000D01*
X54205000Y81529000D02*
X52880000Y81529000D01*
X57593000Y81489000D02*
X56285000Y81489000D01*
X54205000Y81489000D02*
X52897000Y81489000D01*
X57574000Y81449000D02*
X56285000Y81449000D01*
X54205000Y81449000D02*
X52916000Y81449000D01*
X57555000Y81409000D02*
X56285000Y81409000D01*
X54205000Y81409000D02*
X52935000Y81409000D01*
X57535000Y81369000D02*
X56285000Y81369000D01*
X54205000Y81369000D02*
X52955000Y81369000D01*
X57513000Y81329000D02*
X56285000Y81329000D01*
X54205000Y81329000D02*
X52977000Y81329000D01*
X57492000Y81289000D02*
X56285000Y81289000D01*
X54205000Y81289000D02*
X52998000Y81289000D01*
X57469000Y81249000D02*
X56285000Y81249000D01*
X54205000Y81249000D02*
X53021000Y81249000D01*
X57445000Y81209000D02*
X56285000Y81209000D01*
X54205000Y81209000D02*
X53045000Y81209000D01*
X57420000Y81169000D02*
X56285000Y81169000D01*
X54205000Y81169000D02*
X53070000Y81169000D01*
X57394000Y81129000D02*
X56285000Y81129000D01*
X54205000Y81129000D02*
X53096000Y81129000D01*
X57367000Y81089000D02*
X56285000Y81089000D01*
X54205000Y81089000D02*
X53123000Y81089000D01*
X57340000Y81049000D02*
X56285000Y81049000D01*
X54205000Y81049000D02*
X53150000Y81049000D01*
X57310000Y81009000D02*
X56285000Y81009000D01*
X54205000Y81009000D02*
X53180000Y81009000D01*
X57280000Y80969000D02*
X56285000Y80969000D01*
X54205000Y80969000D02*
X53210000Y80969000D01*
X57249000Y80929000D02*
X56285000Y80929000D01*
X54205000Y80929000D02*
X53241000Y80929000D01*
X57216000Y80889000D02*
X56285000Y80889000D01*
X54205000Y80889000D02*
X53274000Y80889000D01*
X57182000Y80849000D02*
X56285000Y80849000D01*
X54205000Y80849000D02*
X53308000Y80849000D01*
X57146000Y80809000D02*
X56285000Y80809000D01*
X54205000Y80809000D02*
X53344000Y80809000D01*
X57109000Y80769000D02*
X56285000Y80769000D01*
X54205000Y80769000D02*
X53381000Y80769000D01*
X57071000Y80729000D02*
X56285000Y80729000D01*
X54205000Y80729000D02*
X53419000Y80729000D01*
X57030000Y80689000D02*
X56285000Y80689000D01*
X54205000Y80689000D02*
X53460000Y80689000D01*
X56988000Y80649000D02*
X56285000Y80649000D01*
X54205000Y80649000D02*
X53502000Y80649000D01*
X56944000Y80609000D02*
X56285000Y80609000D01*
X54205000Y80609000D02*
X53546000Y80609000D01*
X56898000Y80569000D02*
X56285000Y80569000D01*
X54205000Y80569000D02*
X53592000Y80569000D01*
X56850000Y80529000D02*
X56285000Y80529000D01*
X54205000Y80529000D02*
X53640000Y80529000D01*
X56799000Y80489000D02*
X56285000Y80489000D01*
X54205000Y80489000D02*
X53691000Y80489000D01*
X56745000Y80449000D02*
X56285000Y80449000D01*
X54205000Y80449000D02*
X53745000Y80449000D01*
X56688000Y80409000D02*
X56285000Y80409000D01*
X54205000Y80409000D02*
X53802000Y80409000D01*
X56628000Y80369000D02*
X56285000Y80369000D01*
X54205000Y80369000D02*
X53862000Y80369000D01*
X56564000Y80329000D02*
X56285000Y80329000D01*
X54205000Y80329000D02*
X53926000Y80329000D01*
X56496000Y80289000D02*
X56285000Y80289000D01*
X54205000Y80289000D02*
X53994000Y80289000D01*
X56423000Y80249000D02*
X54067000Y80249000D01*
X56343000Y80209000D02*
X54147000Y80209000D01*
X56256000Y80169000D02*
X54234000Y80169000D01*
X56160000Y80129000D02*
X54330000Y80129000D01*
X56050000Y80089000D02*
X54440000Y80089000D01*
X55922000Y80049000D02*
X54568000Y80049000D01*
X55763000Y80009000D02*
X54727000Y80009000D01*
X55529000Y79969000D02*
X54961000Y79969000D01*
X56720000Y85374775D02*
X56720000Y84874775D01*
X56970000Y85124775D02*
X56470000Y85124775D01*
X69750000Y70250000D02*
X69750000Y74490000D01*
X72490000Y70250000D02*
X72490000Y74490000D01*
X69750000Y70250000D02*
X70455000Y70250000D01*
X71785000Y70250000D02*
X72490000Y70250000D01*
X69750000Y74490000D02*
X70455000Y74490000D01*
X71785000Y74490000D02*
X72490000Y74490000D01*
X72039000Y62425000D02*
X72744000Y62425000D01*
X70004000Y62425000D02*
X70709000Y62425000D01*
X72039000Y58185000D02*
X72744000Y58185000D01*
X70004000Y58185000D02*
X70709000Y58185000D01*
X72744000Y58185000D02*
X72744000Y62425000D01*
X70004000Y58185000D02*
X70004000Y62425000D01*
X69275000Y73390000D02*
X69275000Y74640000D01*
X69275000Y74640000D02*
X51375000Y74640000D01*
X51375000Y74640000D02*
X51375000Y70140000D01*
X51375000Y70140000D02*
X69275000Y70140000D01*
X69275000Y70140000D02*
X69275000Y71390000D01*
X69275000Y71390000D02*
G75*
G02*
X69275000Y73390000I0J1000000D01*
G01*
X69329000Y57995000D02*
X69329000Y59245000D01*
X51429000Y57995000D02*
X69329000Y57995000D01*
X51429000Y62495000D02*
X51429000Y57995000D01*
X69329000Y62495000D02*
X51429000Y62495000D01*
X69329000Y61245000D02*
X69329000Y62495000D01*
X69329000Y59245000D02*
G75*
G02*
X69329000Y61245000I0J1000000D01*
G01*
D10*
X71477142Y44918334D02*
X71524761Y44870715D01*
X71572380Y44727858D01*
X71572380Y44632620D01*
X71524761Y44489762D01*
X71429523Y44394524D01*
X71334285Y44346905D01*
X71143809Y44299286D01*
X71000952Y44299286D01*
X70810476Y44346905D01*
X70715238Y44394524D01*
X70620000Y44489762D01*
X70572380Y44632620D01*
X70572380Y44727858D01*
X70620000Y44870715D01*
X70667619Y44918334D01*
X71572380Y45870715D02*
X71572380Y45299286D01*
X71572380Y45585000D02*
X70572380Y45585000D01*
X70715238Y45489762D01*
X70810476Y45394524D01*
X70858095Y45299286D01*
X74017142Y32218334D02*
X74064761Y32170715D01*
X74112380Y32027858D01*
X74112380Y31932620D01*
X74064761Y31789762D01*
X73969523Y31694524D01*
X73874285Y31646905D01*
X73683809Y31599286D01*
X73540952Y31599286D01*
X73350476Y31646905D01*
X73255238Y31694524D01*
X73160000Y31789762D01*
X73112380Y31932620D01*
X73112380Y32027858D01*
X73160000Y32170715D01*
X73207619Y32218334D01*
X73207619Y32599286D02*
X73160000Y32646905D01*
X73112380Y32742143D01*
X73112380Y32980239D01*
X73160000Y33075477D01*
X73207619Y33123096D01*
X73302857Y33170715D01*
X73398095Y33170715D01*
X73540952Y33123096D01*
X74112380Y32551667D01*
X74112380Y33170715D01*
X47982142Y11263334D02*
X48029761Y11215715D01*
X48077380Y11072858D01*
X48077380Y10977620D01*
X48029761Y10834762D01*
X47934523Y10739524D01*
X47839285Y10691905D01*
X47648809Y10644286D01*
X47505952Y10644286D01*
X47315476Y10691905D01*
X47220238Y10739524D01*
X47125000Y10834762D01*
X47077380Y10977620D01*
X47077380Y11072858D01*
X47125000Y11215715D01*
X47172619Y11263334D01*
X47077380Y11596667D02*
X47077380Y12215715D01*
X47458333Y11882381D01*
X47458333Y12025239D01*
X47505952Y12120477D01*
X47553571Y12168096D01*
X47648809Y12215715D01*
X47886904Y12215715D01*
X47982142Y12168096D01*
X48029761Y12120477D01*
X48077380Y12025239D01*
X48077380Y11739524D01*
X48029761Y11644286D01*
X47982142Y11596667D01*
X47982142Y31583334D02*
X48029761Y31535715D01*
X48077380Y31392858D01*
X48077380Y31297620D01*
X48029761Y31154762D01*
X47934523Y31059524D01*
X47839285Y31011905D01*
X47648809Y30964286D01*
X47505952Y30964286D01*
X47315476Y31011905D01*
X47220238Y31059524D01*
X47125000Y31154762D01*
X47077380Y31297620D01*
X47077380Y31392858D01*
X47125000Y31535715D01*
X47172619Y31583334D01*
X47410714Y32440477D02*
X48077380Y32440477D01*
X47029761Y32202381D02*
X47744047Y31964286D01*
X47744047Y32583334D01*
X47982142Y51903334D02*
X48029761Y51855715D01*
X48077380Y51712858D01*
X48077380Y51617620D01*
X48029761Y51474762D01*
X47934523Y51379524D01*
X47839285Y51331905D01*
X47648809Y51284286D01*
X47505952Y51284286D01*
X47315476Y51331905D01*
X47220238Y51379524D01*
X47125000Y51474762D01*
X47077380Y51617620D01*
X47077380Y51712858D01*
X47125000Y51855715D01*
X47172619Y51903334D01*
X47077380Y52760477D02*
X47077380Y52570000D01*
X47125000Y52474762D01*
X47172619Y52427143D01*
X47315476Y52331905D01*
X47505952Y52284286D01*
X47886904Y52284286D01*
X47982142Y52331905D01*
X48029761Y52379524D01*
X48077380Y52474762D01*
X48077380Y52665239D01*
X48029761Y52760477D01*
X47982142Y52808096D01*
X47886904Y52855715D01*
X47648809Y52855715D01*
X47553571Y52808096D01*
X47505952Y52760477D01*
X47458333Y52665239D01*
X47458333Y52474762D01*
X47505952Y52379524D01*
X47553571Y52331905D01*
X47648809Y52284286D01*
X47982142Y72223334D02*
X48029761Y72175715D01*
X48077380Y72032858D01*
X48077380Y71937620D01*
X48029761Y71794762D01*
X47934523Y71699524D01*
X47839285Y71651905D01*
X47648809Y71604286D01*
X47505952Y71604286D01*
X47315476Y71651905D01*
X47220238Y71699524D01*
X47125000Y71794762D01*
X47077380Y71937620D01*
X47077380Y72032858D01*
X47125000Y72175715D01*
X47172619Y72223334D01*
X47077380Y72556667D02*
X47077380Y73223334D01*
X48077380Y72794762D01*
X46656666Y102032620D02*
X46656666Y101318334D01*
X46609047Y101175477D01*
X46513809Y101080239D01*
X46370952Y101032620D01*
X46275714Y101032620D01*
X47656666Y101032620D02*
X47085238Y101032620D01*
X47370952Y101032620D02*
X47370952Y102032620D01*
X47275714Y101889762D01*
X47180476Y101794524D01*
X47085238Y101746905D01*
X63487380Y21423334D02*
X63011190Y21090000D01*
X63487380Y20851905D02*
X62487380Y20851905D01*
X62487380Y21232858D01*
X62535000Y21328096D01*
X62582619Y21375715D01*
X62677857Y21423334D01*
X62820714Y21423334D01*
X62915952Y21375715D01*
X62963571Y21328096D01*
X63011190Y21232858D01*
X63011190Y20851905D01*
X62582619Y21804286D02*
X62535000Y21851905D01*
X62487380Y21947143D01*
X62487380Y22185239D01*
X62535000Y22280477D01*
X62582619Y22328096D01*
X62677857Y22375715D01*
X62773095Y22375715D01*
X62915952Y22328096D01*
X63487380Y21756667D01*
X63487380Y22375715D01*
X58407380Y21423334D02*
X57931190Y21090000D01*
X58407380Y20851905D02*
X57407380Y20851905D01*
X57407380Y21232858D01*
X57455000Y21328096D01*
X57502619Y21375715D01*
X57597857Y21423334D01*
X57740714Y21423334D01*
X57835952Y21375715D01*
X57883571Y21328096D01*
X57931190Y21232858D01*
X57931190Y20851905D01*
X57407380Y21756667D02*
X57407380Y22375715D01*
X57788333Y22042381D01*
X57788333Y22185239D01*
X57835952Y22280477D01*
X57883571Y22328096D01*
X57978809Y22375715D01*
X58216904Y22375715D01*
X58312142Y22328096D01*
X58359761Y22280477D01*
X58407380Y22185239D01*
X58407380Y21899524D01*
X58359761Y21804286D01*
X58312142Y21756667D01*
X53327380Y21423334D02*
X52851190Y21090000D01*
X53327380Y20851905D02*
X52327380Y20851905D01*
X52327380Y21232858D01*
X52375000Y21328096D01*
X52422619Y21375715D01*
X52517857Y21423334D01*
X52660714Y21423334D01*
X52755952Y21375715D01*
X52803571Y21328096D01*
X52851190Y21232858D01*
X52851190Y20851905D01*
X52660714Y22280477D02*
X53327380Y22280477D01*
X52279761Y22042381D02*
X52994047Y21804286D01*
X52994047Y22423334D01*
X68643333Y11834762D02*
X68500476Y11882381D01*
X68262380Y11882381D01*
X68167142Y11834762D01*
X68119523Y11787143D01*
X68071904Y11691905D01*
X68071904Y11596667D01*
X68119523Y11501429D01*
X68167142Y11453810D01*
X68262380Y11406191D01*
X68452857Y11358572D01*
X68548095Y11310953D01*
X68595714Y11263334D01*
X68643333Y11168096D01*
X68643333Y11072858D01*
X68595714Y10977620D01*
X68548095Y10930000D01*
X68452857Y10882381D01*
X68214761Y10882381D01*
X68071904Y10930000D01*
X67738571Y10882381D02*
X67500476Y11882381D01*
X67310000Y11168096D01*
X67119523Y11882381D01*
X66881428Y10882381D01*
X65976666Y11882381D02*
X66548095Y11882381D01*
X66262380Y11882381D02*
X66262380Y10882381D01*
X66357619Y11025239D01*
X66452857Y11120477D01*
X66548095Y11168096D01*
X8342380Y9398096D02*
X9151904Y9398096D01*
X9247142Y9445715D01*
X9294761Y9493334D01*
X9342380Y9588572D01*
X9342380Y9779048D01*
X9294761Y9874286D01*
X9247142Y9921905D01*
X9151904Y9969524D01*
X8342380Y9969524D01*
X9342380Y10969524D02*
X9342380Y10398096D01*
X9342380Y10683810D02*
X8342380Y10683810D01*
X8485238Y10588572D01*
X8580476Y10493334D01*
X8628095Y10398096D01*
X8342380Y29718096D02*
X9151904Y29718096D01*
X9247142Y29765715D01*
X9294761Y29813334D01*
X9342380Y29908572D01*
X9342380Y30099048D01*
X9294761Y30194286D01*
X9247142Y30241905D01*
X9151904Y30289524D01*
X8342380Y30289524D01*
X8437619Y30718096D02*
X8390000Y30765715D01*
X8342380Y30860953D01*
X8342380Y31099048D01*
X8390000Y31194286D01*
X8437619Y31241905D01*
X8532857Y31289524D01*
X8628095Y31289524D01*
X8770952Y31241905D01*
X9342380Y30670477D01*
X9342380Y31289524D01*
X8342380Y50038096D02*
X9151904Y50038096D01*
X9247142Y50085715D01*
X9294761Y50133334D01*
X9342380Y50228572D01*
X9342380Y50419048D01*
X9294761Y50514286D01*
X9247142Y50561905D01*
X9151904Y50609524D01*
X8342380Y50609524D01*
X8342380Y50990477D02*
X8342380Y51609524D01*
X8723333Y51276191D01*
X8723333Y51419048D01*
X8770952Y51514286D01*
X8818571Y51561905D01*
X8913809Y51609524D01*
X9151904Y51609524D01*
X9247142Y51561905D01*
X9294761Y51514286D01*
X9342380Y51419048D01*
X9342380Y51133334D01*
X9294761Y51038096D01*
X9247142Y50990477D01*
X8342380Y70358096D02*
X9151904Y70358096D01*
X9247142Y70405715D01*
X9294761Y70453334D01*
X9342380Y70548572D01*
X9342380Y70739048D01*
X9294761Y70834286D01*
X9247142Y70881905D01*
X9151904Y70929524D01*
X8342380Y70929524D01*
X8675714Y71834286D02*
X9342380Y71834286D01*
X8294761Y71596191D02*
X9009047Y71358096D01*
X9009047Y71977143D01*
X50252380Y32893096D02*
X51061904Y32893096D01*
X51157142Y32940715D01*
X51204761Y32988334D01*
X51252380Y33083572D01*
X51252380Y33274048D01*
X51204761Y33369286D01*
X51157142Y33416905D01*
X51061904Y33464524D01*
X50252380Y33464524D01*
X50252380Y34416905D02*
X50252380Y33940715D01*
X50728571Y33893096D01*
X50680952Y33940715D01*
X50633333Y34035953D01*
X50633333Y34274048D01*
X50680952Y34369286D01*
X50728571Y34416905D01*
X50823809Y34464524D01*
X51061904Y34464524D01*
X51157142Y34416905D01*
X51204761Y34369286D01*
X51252380Y34274048D01*
X51252380Y34035953D01*
X51204761Y33940715D01*
X51157142Y33893096D01*
X50252380Y44958096D02*
X51061904Y44958096D01*
X51157142Y45005715D01*
X51204761Y45053334D01*
X51252380Y45148572D01*
X51252380Y45339048D01*
X51204761Y45434286D01*
X51157142Y45481905D01*
X51061904Y45529524D01*
X50252380Y45529524D01*
X50252380Y46434286D02*
X50252380Y46243810D01*
X50300000Y46148572D01*
X50347619Y46100953D01*
X50490476Y46005715D01*
X50680952Y45958096D01*
X51061904Y45958096D01*
X51157142Y46005715D01*
X51204761Y46053334D01*
X51252380Y46148572D01*
X51252380Y46339048D01*
X51204761Y46434286D01*
X51157142Y46481905D01*
X51061904Y46529524D01*
X50823809Y46529524D01*
X50728571Y46481905D01*
X50680952Y46434286D01*
X50633333Y46339048D01*
X50633333Y46148572D01*
X50680952Y46053334D01*
X50728571Y46005715D01*
X50823809Y45958096D01*
X51792142Y82383334D02*
X51839761Y82335715D01*
X51887380Y82192858D01*
X51887380Y82097620D01*
X51839761Y81954762D01*
X51744523Y81859524D01*
X51649285Y81811905D01*
X51458809Y81764286D01*
X51315952Y81764286D01*
X51125476Y81811905D01*
X51030238Y81859524D01*
X50935000Y81954762D01*
X50887380Y82097620D01*
X50887380Y82192858D01*
X50935000Y82335715D01*
X50982619Y82383334D01*
X50887380Y83288096D02*
X50887380Y82811905D01*
X51363571Y82764286D01*
X51315952Y82811905D01*
X51268333Y82907143D01*
X51268333Y83145239D01*
X51315952Y83240477D01*
X51363571Y83288096D01*
X51458809Y83335715D01*
X51696904Y83335715D01*
X51792142Y83288096D01*
X51839761Y83240477D01*
X51887380Y83145239D01*
X51887380Y82907143D01*
X51839761Y82811905D01*
X51792142Y82764286D01*
X71477142Y68413334D02*
X71524761Y68365715D01*
X71572380Y68222858D01*
X71572380Y68127620D01*
X71524761Y67984762D01*
X71429523Y67889524D01*
X71334285Y67841905D01*
X71143809Y67794286D01*
X71000952Y67794286D01*
X70810476Y67841905D01*
X70715238Y67889524D01*
X70620000Y67984762D01*
X70572380Y68127620D01*
X70572380Y68222858D01*
X70620000Y68365715D01*
X70667619Y68413334D01*
X71000952Y68984762D02*
X70953333Y68889524D01*
X70905714Y68841905D01*
X70810476Y68794286D01*
X70762857Y68794286D01*
X70667619Y68841905D01*
X70620000Y68889524D01*
X70572380Y68984762D01*
X70572380Y69175239D01*
X70620000Y69270477D01*
X70667619Y69318096D01*
X70762857Y69365715D01*
X70810476Y69365715D01*
X70905714Y69318096D01*
X70953333Y69270477D01*
X71000952Y69175239D01*
X71000952Y68984762D01*
X71048571Y68889524D01*
X71096190Y68841905D01*
X71191428Y68794286D01*
X71381904Y68794286D01*
X71477142Y68841905D01*
X71524761Y68889524D01*
X71572380Y68984762D01*
X71572380Y69175239D01*
X71524761Y69270477D01*
X71477142Y69318096D01*
X71381904Y69365715D01*
X71191428Y69365715D01*
X71096190Y69318096D01*
X71048571Y69270477D01*
X71000952Y69175239D01*
X71731142Y56348334D02*
X71778761Y56300715D01*
X71826380Y56157858D01*
X71826380Y56062620D01*
X71778761Y55919762D01*
X71683523Y55824524D01*
X71588285Y55776905D01*
X71397809Y55729286D01*
X71254952Y55729286D01*
X71064476Y55776905D01*
X70969238Y55824524D01*
X70874000Y55919762D01*
X70826380Y56062620D01*
X70826380Y56157858D01*
X70874000Y56300715D01*
X70921619Y56348334D01*
X71826380Y56824524D02*
X71826380Y57015000D01*
X71778761Y57110239D01*
X71731142Y57157858D01*
X71588285Y57253096D01*
X71397809Y57300715D01*
X71016857Y57300715D01*
X70921619Y57253096D01*
X70874000Y57205477D01*
X70826380Y57110239D01*
X70826380Y56919762D01*
X70874000Y56824524D01*
X70921619Y56776905D01*
X71016857Y56729286D01*
X71254952Y56729286D01*
X71350190Y56776905D01*
X71397809Y56824524D01*
X71445428Y56919762D01*
X71445428Y57110239D01*
X71397809Y57205477D01*
X71350190Y57253096D01*
X71254952Y57300715D01*
X49617380Y68453096D02*
X50426904Y68453096D01*
X50522142Y68500715D01*
X50569761Y68548334D01*
X50617380Y68643572D01*
X50617380Y68834048D01*
X50569761Y68929286D01*
X50522142Y68976905D01*
X50426904Y69024524D01*
X49617380Y69024524D01*
X49617380Y69405477D02*
X49617380Y70072143D01*
X50617380Y69643572D01*
X49871379Y57023097D02*
X50680903Y57023097D01*
X50776141Y57070716D01*
X50823760Y57118335D01*
X50871379Y57213573D01*
X50871379Y57404049D01*
X50823760Y57499287D01*
X50776141Y57546906D01*
X50680903Y57594525D01*
X49871379Y57594525D01*
X50299951Y58213573D02*
X50252332Y58118335D01*
X50204713Y58070716D01*
X50109475Y58023097D01*
X50061856Y58023097D01*
X49966618Y58070716D01*
X49918999Y58118335D01*
X49871379Y58213573D01*
X49871379Y58404049D01*
X49918999Y58499287D01*
X49966618Y58546906D01*
X50061856Y58594525D01*
X50109475Y58594525D01*
X50204713Y58546906D01*
X50252332Y58499287D01*
X50299951Y58404049D01*
X50299951Y58213573D01*
X50347570Y58118335D01*
X50395189Y58070716D01*
X50490427Y58023097D01*
X50680903Y58023097D01*
X50776141Y58070716D01*
X50823760Y58118335D01*
X50871379Y58213573D01*
X50871379Y58404049D01*
X50823760Y58499287D01*
X50776141Y58546906D01*
X50680903Y58594525D01*
X50490427Y58594525D01*
X50395189Y58546906D01*
X50347570Y58499287D01*
X50299951Y58404049D01*
M02*
