G04 #@! TF.GenerationSoftware,KiCad,Pcbnew,(5.1.9)-1*
G04 #@! TF.CreationDate,2025-03-23T14:15:07+09:00*
G04 #@! TF.ProjectId,PYUUTA32k,50595555-5441-4333-926b-2e6b69636164,rev?*
G04 #@! TF.SameCoordinates,PX53920b0PY93c3260*
G04 #@! TF.FileFunction,Copper,L2,Bot*
G04 #@! TF.FilePolarity,Positive*
%FSLAX46Y46*%
G04 Gerber Fmt 4.6, Leading zero omitted, Abs format (unit mm)*
G04 Created by KiCad (PCBNEW (5.1.9)-1) date 2025-03-23 14:15:07*
%MOMM*%
%LPD*%
G01*
G04 APERTURE LIST*
G04 #@! TA.AperFunction,ComponentPad*
%ADD10C,1.600000*%
G04 #@! TD*
G04 #@! TA.AperFunction,ConnectorPad*
%ADD11R,1.780000X10.000000*%
G04 #@! TD*
G04 #@! TA.AperFunction,ComponentPad*
%ADD12O,1.600000X1.600000*%
G04 #@! TD*
G04 #@! TA.AperFunction,ComponentPad*
%ADD13R,1.600000X1.600000*%
G04 #@! TD*
G04 #@! TA.AperFunction,ComponentPad*
%ADD14R,1.600000X2.400000*%
G04 #@! TD*
G04 #@! TA.AperFunction,ComponentPad*
%ADD15O,1.600000X2.400000*%
G04 #@! TD*
G04 #@! TA.AperFunction,ViaPad*
%ADD16C,0.500000*%
G04 #@! TD*
G04 #@! TA.AperFunction,Conductor*
%ADD17C,0.400000*%
G04 #@! TD*
G04 #@! TA.AperFunction,Conductor*
%ADD18C,0.200000*%
G04 #@! TD*
G04 #@! TA.AperFunction,Conductor*
%ADD19C,0.254000*%
G04 #@! TD*
G04 #@! TA.AperFunction,Conductor*
%ADD20C,0.100000*%
G04 #@! TD*
G04 APERTURE END LIST*
D10*
X71120000Y49490000D03*
X71120000Y46990000D03*
X73660000Y37465000D03*
X73660000Y34965000D03*
X47625000Y14010000D03*
X47625000Y16510000D03*
X47625000Y36830000D03*
X47625000Y34330000D03*
X47625000Y57150000D03*
X47625000Y54650000D03*
X47625000Y74970000D03*
X47625000Y77470000D03*
D11*
X17780000Y94500000D03*
X20320000Y94500000D03*
X22860000Y94500000D03*
X25400000Y94500000D03*
X27940000Y94500000D03*
X30480000Y94500000D03*
X33020000Y94500000D03*
X35560000Y94500000D03*
X38100000Y94500000D03*
X40640000Y94500000D03*
X43180000Y94500000D03*
X45720000Y94500000D03*
X48260000Y94500000D03*
X50800000Y94500000D03*
X53340000Y94500000D03*
X55880000Y94500000D03*
X58420000Y94500000D03*
X60960000Y94500000D03*
D12*
X65405000Y27940000D03*
D10*
X65405000Y20320000D03*
X60325000Y20320000D03*
D12*
X60325000Y27940000D03*
X55245000Y27940000D03*
D10*
X55245000Y20320000D03*
D13*
X63500000Y15240000D03*
D12*
X55880000Y7620000D03*
X60960000Y15240000D03*
X58420000Y7620000D03*
X58420000Y15240000D03*
X60960000Y7620000D03*
X55880000Y15240000D03*
X63500000Y7620000D03*
D14*
X44450000Y22860000D03*
D15*
X11430000Y7620000D03*
X41910000Y22860000D03*
X13970000Y7620000D03*
X39370000Y22860000D03*
X16510000Y7620000D03*
X36830000Y22860000D03*
X19050000Y7620000D03*
X34290000Y22860000D03*
X21590000Y7620000D03*
X31750000Y22860000D03*
X24130000Y7620000D03*
X29210000Y22860000D03*
X26670000Y7620000D03*
X26670000Y22860000D03*
X29210000Y7620000D03*
X24130000Y22860000D03*
X31750000Y7620000D03*
X21590000Y22860000D03*
X34290000Y7620000D03*
X19050000Y22860000D03*
X36830000Y7620000D03*
X16510000Y22860000D03*
X39370000Y7620000D03*
X13970000Y22860000D03*
X41910000Y7620000D03*
X11430000Y22860000D03*
X44450000Y7620000D03*
D14*
X44450000Y43180000D03*
D15*
X11430000Y27940000D03*
X41910000Y43180000D03*
X13970000Y27940000D03*
X39370000Y43180000D03*
X16510000Y27940000D03*
X36830000Y43180000D03*
X19050000Y27940000D03*
X34290000Y43180000D03*
X21590000Y27940000D03*
X31750000Y43180000D03*
X24130000Y27940000D03*
X29210000Y43180000D03*
X26670000Y27940000D03*
X26670000Y43180000D03*
X29210000Y27940000D03*
X24130000Y43180000D03*
X31750000Y27940000D03*
X21590000Y43180000D03*
X34290000Y27940000D03*
X19050000Y43180000D03*
X36830000Y27940000D03*
X16510000Y43180000D03*
X39370000Y27940000D03*
X13970000Y43180000D03*
X41910000Y27940000D03*
X11430000Y43180000D03*
X44450000Y27940000D03*
X44450000Y48260000D03*
X11430000Y63500000D03*
X41910000Y48260000D03*
X13970000Y63500000D03*
X39370000Y48260000D03*
X16510000Y63500000D03*
X36830000Y48260000D03*
X19050000Y63500000D03*
X34290000Y48260000D03*
X21590000Y63500000D03*
X31750000Y48260000D03*
X24130000Y63500000D03*
X29210000Y48260000D03*
X26670000Y63500000D03*
X26670000Y48260000D03*
X29210000Y63500000D03*
X24130000Y48260000D03*
X31750000Y63500000D03*
X21590000Y48260000D03*
X34290000Y63500000D03*
X19050000Y48260000D03*
X36830000Y63500000D03*
X16510000Y48260000D03*
X39370000Y63500000D03*
X13970000Y48260000D03*
X41910000Y63500000D03*
X11430000Y48260000D03*
D14*
X44450000Y63500000D03*
D15*
X44450000Y68580000D03*
X11430000Y83820000D03*
X41910000Y68580000D03*
X13970000Y83820000D03*
X39370000Y68580000D03*
X16510000Y83820000D03*
X36830000Y68580000D03*
X19050000Y83820000D03*
X34290000Y68580000D03*
X21590000Y83820000D03*
X31750000Y68580000D03*
X24130000Y83820000D03*
X29210000Y68580000D03*
X26670000Y83820000D03*
X26670000Y68580000D03*
X29210000Y83820000D03*
X24130000Y68580000D03*
X31750000Y83820000D03*
X21590000Y68580000D03*
X34290000Y83820000D03*
X19050000Y68580000D03*
X36830000Y83820000D03*
X16510000Y68580000D03*
X39370000Y83820000D03*
X13970000Y68580000D03*
X41910000Y83820000D03*
X11430000Y68580000D03*
D14*
X44450000Y83820000D03*
X70485000Y40005000D03*
D15*
X52705000Y32385000D03*
X67945000Y40005000D03*
X55245000Y32385000D03*
X65405000Y40005000D03*
X57785000Y32385000D03*
X62865000Y40005000D03*
X60325000Y32385000D03*
X60325000Y40005000D03*
X62865000Y32385000D03*
X57785000Y40005000D03*
X65405000Y32385000D03*
X55245000Y40005000D03*
X67945000Y32385000D03*
X52705000Y40005000D03*
X70485000Y32385000D03*
D14*
X67945000Y52070000D03*
D15*
X52705000Y44450000D03*
X65405000Y52070000D03*
X55245000Y44450000D03*
X62865000Y52070000D03*
X57785000Y44450000D03*
X60325000Y52070000D03*
X60325000Y44450000D03*
X57785000Y52070000D03*
X62865000Y44450000D03*
X55245000Y52070000D03*
X65405000Y44450000D03*
X52705000Y52070000D03*
X67945000Y44450000D03*
D13*
X55245000Y83820000D03*
D10*
X55245000Y81320000D03*
X71120000Y73620000D03*
X71120000Y71120000D03*
X71374000Y59055000D03*
X71374000Y61555000D03*
D15*
X67945000Y68580000D03*
X52705000Y76200000D03*
X65405000Y68580000D03*
X55245000Y76200000D03*
X62865000Y68580000D03*
X57785000Y76200000D03*
X60325000Y68580000D03*
X60325000Y76200000D03*
X57785000Y68580000D03*
X62865000Y76200000D03*
X55245000Y68580000D03*
X65405000Y76200000D03*
X52705000Y68580000D03*
D14*
X67945000Y76200000D03*
X67999000Y64055000D03*
D15*
X52759000Y56435000D03*
X65459000Y64055000D03*
X55299000Y56435000D03*
X62919000Y64055000D03*
X57839000Y56435000D03*
X60379000Y64055000D03*
X60379000Y56435000D03*
X57839000Y64055000D03*
X62919000Y56435000D03*
X55299000Y64055000D03*
X65459000Y56435000D03*
X52759000Y64055000D03*
X67999000Y56435000D03*
D16*
X39953200Y87052600D03*
X51562000Y86352500D03*
X50597900Y86173600D03*
X47064500Y80699200D03*
X24277300Y88203300D03*
X44888800Y88897100D03*
X40640000Y84152500D03*
X58885500Y83733600D03*
X25054400Y70158000D03*
D17*
X60960000Y15240000D02*
X63500000Y15240000D01*
X58420000Y15240000D02*
X60960000Y15240000D01*
X67999000Y56435000D02*
X67999000Y54834700D01*
X71120000Y46990000D02*
X69539300Y48570700D01*
X69539300Y48570700D02*
X69539300Y53294400D01*
X69539300Y53294400D02*
X67999000Y54834700D01*
X57785000Y40005000D02*
X57785000Y41605300D01*
X67945000Y44450000D02*
X67945000Y42849700D01*
X67945000Y42849700D02*
X59029400Y42849700D01*
X59029400Y42849700D02*
X57785000Y41605300D01*
X57785000Y40005000D02*
X57785000Y38404700D01*
X47625000Y34330000D02*
X53710300Y34330000D01*
X53710300Y34330000D02*
X57785000Y38404700D01*
X55245000Y83820000D02*
X55245000Y82619700D01*
X47625000Y74970000D02*
X47625000Y75397600D01*
X47625000Y75397600D02*
X54847100Y82619700D01*
X54847100Y82619700D02*
X55245000Y82619700D01*
X55880000Y15240000D02*
X54679700Y15240000D01*
X47625000Y14010000D02*
X53449700Y14010000D01*
X53449700Y14010000D02*
X54679700Y15240000D01*
X55880000Y15240000D02*
X58420000Y15240000D01*
X40640000Y94500000D02*
X40640000Y88265000D01*
X40640000Y88265000D02*
X41275000Y87630000D01*
X41275000Y87630000D02*
X51435000Y87630000D01*
X51435000Y87630000D02*
X55245000Y83820000D01*
X71120000Y49490000D02*
X70139700Y50470300D01*
X70139700Y50470300D02*
X70139700Y60320700D01*
X70139700Y60320700D02*
X71374000Y61555000D01*
X60325000Y40005000D02*
X60325000Y38404700D01*
X62865000Y39605000D02*
X61664700Y38404700D01*
X61664700Y38404700D02*
X60325000Y38404700D01*
X62865000Y39605000D02*
X62865000Y39204900D01*
X62865000Y40005000D02*
X62865000Y39605000D01*
X66675000Y37465000D02*
X73660000Y37465000D01*
X65405000Y38554800D02*
X66494800Y37465000D01*
X66494800Y37465000D02*
X66675000Y37465000D01*
X66675000Y37465000D02*
X66675000Y30410300D01*
X66675000Y30410300D02*
X65405000Y29140300D01*
X65405000Y27940000D02*
X65405000Y29140300D01*
X12700000Y57150000D02*
X12700000Y46050300D01*
X12700000Y46050300D02*
X11430000Y44780300D01*
X11430000Y61899700D02*
X12700000Y60629700D01*
X12700000Y60629700D02*
X12700000Y57150000D01*
X47625000Y57150000D02*
X12700000Y57150000D01*
X11430000Y43180000D02*
X11430000Y44780300D01*
X52705000Y53099300D02*
X51675700Y53099300D01*
X51675700Y53099300D02*
X47625000Y57150000D01*
X11430000Y63500000D02*
X11430000Y61899700D01*
X55299000Y54834700D02*
X53563600Y53099300D01*
X53563600Y53099300D02*
X52705000Y53099300D01*
X52705000Y52870200D02*
X52705000Y53099300D01*
X55299000Y54984800D02*
X55299000Y54834700D01*
X55299000Y56435000D02*
X55299000Y54984800D01*
X57839000Y56435000D02*
X57839000Y54834700D01*
X55299000Y54834700D02*
X57839000Y54834700D01*
X11430000Y83820000D02*
X11430000Y85420300D01*
X17780000Y94500000D02*
X17780000Y89099700D01*
X17780000Y89099700D02*
X14100600Y85420300D01*
X14100600Y85420300D02*
X11430000Y85420300D01*
X60325000Y27940000D02*
X65405000Y27940000D01*
X55245000Y27940000D02*
X60325000Y27940000D01*
X62865000Y39204900D02*
X63515100Y38554800D01*
X63515100Y38554800D02*
X65405000Y38554800D01*
X65405000Y40005000D02*
X65405000Y38554800D01*
X52705000Y52070000D02*
X52705000Y52870200D01*
D18*
X38100000Y94500000D02*
X38100000Y89199700D01*
X21590000Y68580000D02*
X21590000Y70080300D01*
X21590000Y70080300D02*
X22539300Y70080300D01*
X22539300Y70080300D02*
X35418400Y82959400D01*
X35418400Y82959400D02*
X35418400Y86518100D01*
X35418400Y86518100D02*
X38100000Y89199700D01*
X21590000Y48260000D02*
X21590000Y46759700D01*
X21590000Y46759700D02*
X22728300Y45621400D01*
X22728300Y45621400D02*
X22728300Y39994900D01*
X22728300Y39994900D02*
X21590000Y38856600D01*
X21590000Y38856600D02*
X21590000Y27940000D01*
X19050000Y27940000D02*
X19050000Y29440300D01*
X19050000Y48260000D02*
X19050000Y46759700D01*
X19050000Y46759700D02*
X20219600Y45590100D01*
X20219600Y45590100D02*
X20219600Y30609900D01*
X20219600Y30609900D02*
X19050000Y29440300D01*
X19050000Y7620000D02*
X19050000Y9120300D01*
X19050000Y27940000D02*
X19050000Y26439700D01*
X19050000Y26439700D02*
X20161100Y25328600D01*
X20161100Y25328600D02*
X20161100Y10231400D01*
X20161100Y10231400D02*
X19050000Y9120300D01*
X35560000Y89199700D02*
X33066100Y86705800D01*
X33066100Y86705800D02*
X33066100Y83158700D01*
X33066100Y83158700D02*
X19987700Y70080300D01*
X19987700Y70080300D02*
X19050000Y70080300D01*
X35560000Y94500000D02*
X35560000Y89199700D01*
X19050000Y68580000D02*
X19050000Y70080300D01*
X16510000Y68580000D02*
X16510000Y70080300D01*
X16510000Y70080300D02*
X17447700Y70080300D01*
X17447700Y70080300D02*
X30480000Y83112600D01*
X30480000Y83112600D02*
X30480000Y84686000D01*
X30480000Y84686000D02*
X33020000Y87226000D01*
X33020000Y87226000D02*
X33020000Y94500000D01*
X30480000Y94500000D02*
X30480000Y89199700D01*
X13970000Y68580000D02*
X13970000Y70080300D01*
X13970000Y70080300D02*
X14907700Y70080300D01*
X14907700Y70080300D02*
X27798400Y82971000D01*
X27798400Y82971000D02*
X27798400Y86518100D01*
X27798400Y86518100D02*
X30480000Y89199700D01*
X11430000Y7620000D02*
X11430000Y9120300D01*
X11430000Y27940000D02*
X11430000Y26439700D01*
X11430000Y26439700D02*
X12541100Y25328600D01*
X12541100Y25328600D02*
X12541100Y10231400D01*
X12541100Y10231400D02*
X11430000Y9120300D01*
X27940000Y94500000D02*
X27940000Y89199700D01*
X11430000Y68580000D02*
X11430000Y70080300D01*
X11430000Y70080300D02*
X12367700Y70080300D01*
X12367700Y70080300D02*
X25258400Y82971000D01*
X25258400Y82971000D02*
X25258400Y86518100D01*
X25258400Y86518100D02*
X27940000Y89199700D01*
X13970000Y82319700D02*
X14383900Y81905800D01*
X14383900Y81905800D02*
X21634700Y81905800D01*
X21634700Y81905800D02*
X22718400Y82989500D01*
X22718400Y82989500D02*
X22718400Y85866100D01*
X22718400Y85866100D02*
X25400000Y88547700D01*
X25400000Y88547700D02*
X25400000Y89199700D01*
X25400000Y94500000D02*
X25400000Y89199700D01*
X13970000Y83820000D02*
X13970000Y82319700D01*
X22860000Y94500000D02*
X22860000Y89199700D01*
X16510000Y83820000D02*
X16510000Y82319700D01*
X16510000Y82319700D02*
X19508700Y82319700D01*
X19508700Y82319700D02*
X20150400Y82961400D01*
X20150400Y82961400D02*
X20150400Y86490100D01*
X20150400Y86490100D02*
X22860000Y89199700D01*
X16510000Y22860000D02*
X16510000Y24360300D01*
X16510000Y43180000D02*
X16510000Y41679700D01*
X16510000Y41679700D02*
X15360100Y40529800D01*
X15360100Y40529800D02*
X15360100Y25510200D01*
X15360100Y25510200D02*
X16510000Y24360300D01*
X19050000Y22860000D02*
X19050000Y24360300D01*
X19050000Y43180000D02*
X19050000Y41679700D01*
X19050000Y41679700D02*
X17900100Y40529800D01*
X17900100Y40529800D02*
X17900100Y25510200D01*
X17900100Y25510200D02*
X19050000Y24360300D01*
X20320000Y94500000D02*
X20320000Y89199700D01*
X19050000Y83820000D02*
X19050000Y87929700D01*
X19050000Y87929700D02*
X20320000Y89199700D01*
X39370000Y85320300D02*
X39953200Y85903500D01*
X39953200Y85903500D02*
X39953200Y87052600D01*
X39370000Y83820000D02*
X39370000Y85320300D01*
X39370000Y68580000D02*
X39370000Y70080300D01*
X48260000Y94500000D02*
X48260000Y89199700D01*
X48260000Y89199700D02*
X48853100Y88606600D01*
X48853100Y88606600D02*
X52485200Y88606600D01*
X52485200Y88606600D02*
X56345400Y84746400D01*
X56345400Y84746400D02*
X56345400Y80845400D01*
X56345400Y80845400D02*
X53563000Y78063000D01*
X53563000Y78063000D02*
X52568400Y78063000D01*
X52568400Y78063000D02*
X44585700Y70080300D01*
X44585700Y70080300D02*
X39370000Y70080300D01*
X26670000Y68580000D02*
X26670000Y70080300D01*
X26670000Y70080300D02*
X35461800Y78872100D01*
X35461800Y78872100D02*
X43296400Y78872100D01*
X43296400Y78872100D02*
X50597900Y86173600D01*
X26670000Y27940000D02*
X26670000Y29440300D01*
X26670000Y48260000D02*
X26670000Y46759700D01*
X26670000Y46759700D02*
X27781100Y45648600D01*
X27781100Y45648600D02*
X27781100Y30551400D01*
X27781100Y30551400D02*
X26670000Y29440300D01*
X31750000Y68580000D02*
X31750000Y70080300D01*
X31750000Y70080300D02*
X32150400Y70480700D01*
X32150400Y70480700D02*
X35690200Y70480700D01*
X35690200Y70480700D02*
X50800000Y85590500D01*
X50800000Y85590500D02*
X51562000Y86352500D01*
X51562000Y86352500D02*
X51562000Y86352500D01*
X50597900Y86173600D02*
X50597900Y86173600D01*
X34290000Y68580000D02*
X34290000Y70080300D01*
X34290000Y70080300D02*
X36445600Y70080300D01*
X36445600Y70080300D02*
X47064500Y80699200D01*
X29210000Y67079700D02*
X42983600Y67079700D01*
X42983600Y67079700D02*
X43383900Y66679400D01*
X43383900Y66679400D02*
X45563200Y66679400D01*
X45563200Y66679400D02*
X48977900Y70094100D01*
X48977900Y70094100D02*
X53187200Y70094100D01*
X53187200Y70094100D02*
X53975000Y69306300D01*
X53975000Y69306300D02*
X53975000Y67500300D01*
X53975000Y67500300D02*
X56482600Y64992700D01*
X56482600Y64992700D02*
X56482600Y61919400D01*
X56482600Y61919400D02*
X59109000Y59293000D01*
X59109000Y59293000D02*
X59109000Y55680400D01*
X59109000Y55680400D02*
X60054500Y54734900D01*
X60054500Y54734900D02*
X62166900Y54734900D01*
X62166900Y54734900D02*
X63985600Y52916200D01*
X63985600Y52916200D02*
X63985600Y49610900D01*
X63985600Y49610900D02*
X60325000Y45950300D01*
X29210000Y68580000D02*
X29210000Y67079700D01*
X60325000Y44450000D02*
X60325000Y45950300D01*
X21590000Y83820000D02*
X21590000Y85516000D01*
X21590000Y85516000D02*
X24277300Y88203300D01*
X24130000Y63500000D02*
X24130000Y65000300D01*
X45720000Y94500000D02*
X45720000Y89199700D01*
X44888800Y88897100D02*
X45191400Y89199700D01*
X45191400Y89199700D02*
X45720000Y89199700D01*
X24130000Y65000300D02*
X23024800Y66105500D01*
X23024800Y66105500D02*
X23024800Y69469900D01*
X23024800Y69469900D02*
X35621600Y82066700D01*
X35621600Y82066700D02*
X39597200Y82066700D01*
X39597200Y82066700D02*
X40640000Y83109500D01*
X40640000Y83109500D02*
X40640000Y84152500D01*
X24130000Y24360300D02*
X23028500Y25461800D01*
X23028500Y25461800D02*
X23028500Y39446000D01*
X23028500Y39446000D02*
X24130000Y40547500D01*
X24130000Y40547500D02*
X24130000Y41679700D01*
X24130000Y22860000D02*
X24130000Y24360300D01*
X24130000Y43180000D02*
X24130000Y41679700D01*
X58885500Y83733600D02*
X53419400Y89199700D01*
X53419400Y89199700D02*
X53340000Y89199700D01*
X53340000Y94500000D02*
X53340000Y89199700D01*
X63500000Y7620000D02*
X63500000Y8720300D01*
X64266800Y19181800D02*
X65405000Y20320000D01*
X44450000Y21359700D02*
X46627900Y19181800D01*
X46627900Y19181800D02*
X64266800Y19181800D01*
X63500000Y8720300D02*
X64600400Y9820700D01*
X64600400Y9820700D02*
X64600400Y18848200D01*
X64600400Y18848200D02*
X64266800Y19181800D01*
X44450000Y22860000D02*
X44450000Y21359700D01*
X29210000Y7620000D02*
X29210000Y9120300D01*
X62865000Y52070000D02*
X62865000Y50569700D01*
X62865000Y50569700D02*
X61927300Y50569700D01*
X61927300Y50569700D02*
X56515000Y45157400D01*
X56515000Y45157400D02*
X56515000Y43763300D01*
X56515000Y43763300D02*
X54257000Y41505300D01*
X54257000Y41505300D02*
X52249200Y41505300D01*
X52249200Y41505300D02*
X49381000Y38637100D01*
X49381000Y38637100D02*
X47861800Y38637100D01*
X47861800Y38637100D02*
X38100000Y28875300D01*
X38100000Y28875300D02*
X38100000Y18010300D01*
X38100000Y18010300D02*
X29210000Y9120300D01*
X55245000Y50569700D02*
X53805300Y49130000D01*
X53805300Y49130000D02*
X53805300Y43551400D01*
X53805300Y43551400D02*
X52159500Y41905600D01*
X52159500Y41905600D02*
X52083400Y41905600D01*
X52083400Y41905600D02*
X51683200Y41505400D01*
X51683200Y41505400D02*
X41275100Y41505400D01*
X41275100Y41505400D02*
X29210000Y29440300D01*
X55245000Y52070000D02*
X55245000Y50569700D01*
X29210000Y27940000D02*
X29210000Y29440300D01*
X29210000Y48260000D02*
X29210000Y46759700D01*
X52705000Y44450000D02*
X52705000Y45950300D01*
X52705000Y45950300D02*
X30019400Y45950300D01*
X30019400Y45950300D02*
X29210000Y46759700D01*
X67945000Y32385000D02*
X67945000Y33885300D01*
X67945000Y52070000D02*
X67945000Y46810900D01*
X67945000Y46810900D02*
X74761000Y39994900D01*
X74761000Y39994900D02*
X74761000Y37001800D01*
X74761000Y37001800D02*
X74074800Y36315600D01*
X74074800Y36315600D02*
X70375300Y36315600D01*
X70375300Y36315600D02*
X67945000Y33885300D01*
X25054400Y70158000D02*
X25258400Y69954000D01*
X25258400Y69954000D02*
X25258400Y68029800D01*
X25258400Y68029800D02*
X27009100Y66279100D01*
X27009100Y66279100D02*
X51904400Y66279100D01*
X51904400Y66279100D02*
X52705000Y67079700D01*
X52705000Y68580000D02*
X52705000Y67079700D01*
X50800000Y94500000D02*
X50800000Y89199700D01*
X65405000Y68580000D02*
X65405000Y70080300D01*
X65405000Y70080300D02*
X61595000Y73890300D01*
X61595000Y73890300D02*
X61595000Y80106000D01*
X61595000Y80106000D02*
X52501300Y89199700D01*
X52501300Y89199700D02*
X50800000Y89199700D01*
X67999000Y65555300D02*
X66844700Y66709600D01*
X66844700Y66709600D02*
X66844700Y67065700D01*
X66844700Y67065700D02*
X66844700Y73599400D01*
X66844700Y73599400D02*
X67945000Y74699700D01*
X66844700Y67065700D02*
X64958400Y67065700D01*
X64958400Y67065700D02*
X64135000Y67889100D01*
X64135000Y67889100D02*
X64135000Y69301500D01*
X64135000Y69301500D02*
X62915800Y70520700D01*
X62915800Y70520700D02*
X48838400Y70520700D01*
X48838400Y70520700D02*
X45397400Y67079700D01*
X45397400Y67079700D02*
X43750000Y67079700D01*
X43750000Y67079700D02*
X42249700Y68580000D01*
X42249700Y68580000D02*
X41910000Y68580000D01*
X67945000Y76200000D02*
X67945000Y74699700D01*
X67999000Y64055000D02*
X67999000Y65555300D01*
X41910000Y7620000D02*
X41910000Y9120300D01*
X41910000Y27940000D02*
X41910000Y26439700D01*
X41910000Y26439700D02*
X40798800Y25328500D01*
X40798800Y25328500D02*
X40798800Y10231500D01*
X40798800Y10231500D02*
X41910000Y9120300D01*
X67945000Y77700300D02*
X56445600Y89199700D01*
X56445600Y89199700D02*
X55880000Y89199700D01*
X55880000Y94500000D02*
X55880000Y89199700D01*
X67945000Y76200000D02*
X67945000Y77700300D01*
X24130000Y68580000D02*
X24130000Y67079700D01*
X55299000Y64055000D02*
X55299000Y65555300D01*
X55299000Y65555300D02*
X25654400Y65555300D01*
X25654400Y65555300D02*
X24130000Y67079700D01*
X24130000Y7620000D02*
X24130000Y9120300D01*
X24130000Y27940000D02*
X24130000Y26439700D01*
X24130000Y26439700D02*
X25241100Y25328600D01*
X25241100Y25328600D02*
X25241100Y10231400D01*
X25241100Y10231400D02*
X24130000Y9120300D01*
X65459000Y64055000D02*
X65459000Y65555300D01*
X62865000Y68580000D02*
X62865000Y67079700D01*
X65459000Y65555300D02*
X64389400Y65555300D01*
X64389400Y65555300D02*
X62865000Y67079700D01*
D19*
X16890000Y88861928D02*
X17494250Y88865000D01*
X17502250Y88873000D01*
X18057750Y88873000D01*
X18065750Y88865000D01*
X18670000Y88861928D01*
X18782420Y88873000D01*
X18953854Y88873000D01*
X18555808Y88474954D01*
X18527763Y88451938D01*
X18435914Y88340020D01*
X18395815Y88265000D01*
X18367664Y88212333D01*
X18325635Y88073785D01*
X18311444Y87929700D01*
X18315001Y87893585D01*
X18315000Y85454263D01*
X18248900Y85418932D01*
X18030393Y85239608D01*
X17851068Y85021101D01*
X17780000Y84888142D01*
X17708932Y85021101D01*
X17529608Y85239608D01*
X17311101Y85418932D01*
X17061808Y85552182D01*
X16791309Y85634236D01*
X16510000Y85661943D01*
X16228692Y85634236D01*
X15958193Y85552182D01*
X15708900Y85418932D01*
X15490393Y85239608D01*
X15311068Y85021101D01*
X15240000Y84888142D01*
X15168932Y85021101D01*
X14989608Y85239608D01*
X14771101Y85418932D01*
X14521808Y85552182D01*
X14251309Y85634236D01*
X13970000Y85661943D01*
X13688692Y85634236D01*
X13418193Y85552182D01*
X13168900Y85418932D01*
X12950393Y85239608D01*
X12771068Y85021101D01*
X12702735Y84893259D01*
X12552601Y85122839D01*
X12354895Y85324500D01*
X12121646Y85483715D01*
X11861818Y85594367D01*
X11779039Y85611904D01*
X11557000Y85489915D01*
X11557000Y83947000D01*
X11577000Y83947000D01*
X11577000Y83693000D01*
X11557000Y83693000D01*
X11557000Y82150085D01*
X11779039Y82028096D01*
X11861818Y82045633D01*
X12121646Y82156285D01*
X12354895Y82315500D01*
X12552601Y82517161D01*
X12702735Y82746742D01*
X12771068Y82618900D01*
X12950392Y82400393D01*
X13168899Y82221068D01*
X13245174Y82180298D01*
X13245635Y82175615D01*
X13287664Y82037067D01*
X13355914Y81909380D01*
X13447763Y81797462D01*
X13475807Y81774447D01*
X13838641Y81411613D01*
X13861662Y81383562D01*
X13973580Y81291713D01*
X14101267Y81223463D01*
X14197786Y81194184D01*
X14239814Y81181435D01*
X14383900Y81167244D01*
X14420005Y81170800D01*
X21598595Y81170800D01*
X21634700Y81167244D01*
X21670805Y81170800D01*
X21778785Y81181435D01*
X21917333Y81223463D01*
X22045020Y81291713D01*
X22156938Y81383562D01*
X22179958Y81411612D01*
X23142439Y82374092D01*
X23328899Y82221068D01*
X23420213Y82172260D01*
X12063254Y70815300D01*
X11466105Y70815300D01*
X11430000Y70818856D01*
X11393895Y70815300D01*
X11285915Y70804665D01*
X11147367Y70762637D01*
X11019680Y70694387D01*
X10907762Y70602538D01*
X10815913Y70490620D01*
X10747663Y70362933D01*
X10705635Y70224385D01*
X10705174Y70219701D01*
X10628900Y70178932D01*
X10410393Y69999608D01*
X10231068Y69781101D01*
X10097818Y69531808D01*
X10015764Y69261309D01*
X9995000Y69050492D01*
X9995000Y68109509D01*
X10015764Y67898692D01*
X10097818Y67628193D01*
X10231068Y67378900D01*
X10410392Y67160393D01*
X10628899Y66981068D01*
X10878192Y66847818D01*
X11148691Y66765764D01*
X11430000Y66738057D01*
X11711308Y66765764D01*
X11981807Y66847818D01*
X12231100Y66981068D01*
X12449607Y67160392D01*
X12628932Y67378899D01*
X12700000Y67511858D01*
X12771068Y67378900D01*
X12950392Y67160393D01*
X13168899Y66981068D01*
X13418192Y66847818D01*
X13688691Y66765764D01*
X13970000Y66738057D01*
X14251308Y66765764D01*
X14521807Y66847818D01*
X14771100Y66981068D01*
X14989607Y67160392D01*
X15168932Y67378899D01*
X15240000Y67511858D01*
X15311068Y67378900D01*
X15490392Y67160393D01*
X15708899Y66981068D01*
X15958192Y66847818D01*
X16228691Y66765764D01*
X16510000Y66738057D01*
X16791308Y66765764D01*
X17061807Y66847818D01*
X17311100Y66981068D01*
X17529607Y67160392D01*
X17708932Y67378899D01*
X17780000Y67511858D01*
X17851068Y67378900D01*
X18030392Y67160393D01*
X18248899Y66981068D01*
X18498192Y66847818D01*
X18768691Y66765764D01*
X19050000Y66738057D01*
X19331308Y66765764D01*
X19601807Y66847818D01*
X19851100Y66981068D01*
X20069607Y67160392D01*
X20248932Y67378899D01*
X20320000Y67511858D01*
X20391068Y67378900D01*
X20570392Y67160393D01*
X20788899Y66981068D01*
X21038192Y66847818D01*
X21308691Y66765764D01*
X21590000Y66738057D01*
X21871308Y66765764D01*
X22141807Y66847818D01*
X22289800Y66926922D01*
X22289800Y66141605D01*
X22286244Y66105500D01*
X22300435Y65961415D01*
X22305597Y65944400D01*
X22342463Y65822868D01*
X22410713Y65695181D01*
X22502562Y65583263D01*
X22530608Y65560246D01*
X23143816Y64947037D01*
X23110393Y64919608D01*
X22931068Y64701101D01*
X22860000Y64568142D01*
X22788932Y64701101D01*
X22609608Y64919608D01*
X22391101Y65098932D01*
X22141808Y65232182D01*
X21871309Y65314236D01*
X21590000Y65341943D01*
X21308692Y65314236D01*
X21038193Y65232182D01*
X20788900Y65098932D01*
X20570393Y64919608D01*
X20391068Y64701101D01*
X20320000Y64568142D01*
X20248932Y64701101D01*
X20069608Y64919608D01*
X19851101Y65098932D01*
X19601808Y65232182D01*
X19331309Y65314236D01*
X19050000Y65341943D01*
X18768692Y65314236D01*
X18498193Y65232182D01*
X18248900Y65098932D01*
X18030393Y64919608D01*
X17851068Y64701101D01*
X17780000Y64568142D01*
X17708932Y64701101D01*
X17529608Y64919608D01*
X17311101Y65098932D01*
X17061808Y65232182D01*
X16791309Y65314236D01*
X16510000Y65341943D01*
X16228692Y65314236D01*
X15958193Y65232182D01*
X15708900Y65098932D01*
X15490393Y64919608D01*
X15311068Y64701101D01*
X15240000Y64568142D01*
X15168932Y64701101D01*
X14989608Y64919608D01*
X14771101Y65098932D01*
X14521808Y65232182D01*
X14251309Y65314236D01*
X13970000Y65341943D01*
X13688692Y65314236D01*
X13418193Y65232182D01*
X13168900Y65098932D01*
X12950393Y64919608D01*
X12771068Y64701101D01*
X12702735Y64573259D01*
X12552601Y64802839D01*
X12354895Y65004500D01*
X12121646Y65163715D01*
X11861818Y65274367D01*
X11779039Y65291904D01*
X11557000Y65169915D01*
X11557000Y63627000D01*
X11577000Y63627000D01*
X11577000Y63373000D01*
X11557000Y63373000D01*
X11557000Y61830085D01*
X11779039Y61708096D01*
X11861818Y61725633D01*
X12121646Y61836285D01*
X12354895Y61995500D01*
X12552601Y62197161D01*
X12702735Y62426742D01*
X12771068Y62298900D01*
X12950392Y62080393D01*
X13168899Y61901068D01*
X13418192Y61767818D01*
X13688691Y61685764D01*
X13970000Y61658057D01*
X14251308Y61685764D01*
X14521807Y61767818D01*
X14771100Y61901068D01*
X14989607Y62080392D01*
X15168932Y62298899D01*
X15240000Y62431858D01*
X15311068Y62298900D01*
X15490392Y62080393D01*
X15708899Y61901068D01*
X15958192Y61767818D01*
X16228691Y61685764D01*
X16510000Y61658057D01*
X16791308Y61685764D01*
X17061807Y61767818D01*
X17311100Y61901068D01*
X17529607Y62080392D01*
X17708932Y62298899D01*
X17780000Y62431858D01*
X17851068Y62298900D01*
X18030392Y62080393D01*
X18248899Y61901068D01*
X18498192Y61767818D01*
X18768691Y61685764D01*
X19050000Y61658057D01*
X19331308Y61685764D01*
X19601807Y61767818D01*
X19851100Y61901068D01*
X20069607Y62080392D01*
X20248932Y62298899D01*
X20320000Y62431858D01*
X20391068Y62298900D01*
X20570392Y62080393D01*
X20788899Y61901068D01*
X21038192Y61767818D01*
X21308691Y61685764D01*
X21590000Y61658057D01*
X21871308Y61685764D01*
X22141807Y61767818D01*
X22391100Y61901068D01*
X22609607Y62080392D01*
X22788932Y62298899D01*
X22860000Y62431858D01*
X22931068Y62298900D01*
X23110392Y62080393D01*
X23328899Y61901068D01*
X23578192Y61767818D01*
X23848691Y61685764D01*
X24130000Y61658057D01*
X24411308Y61685764D01*
X24681807Y61767818D01*
X24931100Y61901068D01*
X25149607Y62080392D01*
X25328932Y62298899D01*
X25400000Y62431858D01*
X25471068Y62298900D01*
X25650392Y62080393D01*
X25868899Y61901068D01*
X26118192Y61767818D01*
X26388691Y61685764D01*
X26670000Y61658057D01*
X26951308Y61685764D01*
X27221807Y61767818D01*
X27471100Y61901068D01*
X27689607Y62080392D01*
X27868932Y62298899D01*
X27940000Y62431858D01*
X28011068Y62298900D01*
X28190392Y62080393D01*
X28408899Y61901068D01*
X28658192Y61767818D01*
X28928691Y61685764D01*
X29210000Y61658057D01*
X29491308Y61685764D01*
X29761807Y61767818D01*
X30011100Y61901068D01*
X30229607Y62080392D01*
X30408932Y62298899D01*
X30480000Y62431858D01*
X30551068Y62298900D01*
X30730392Y62080393D01*
X30948899Y61901068D01*
X31198192Y61767818D01*
X31468691Y61685764D01*
X31750000Y61658057D01*
X32031308Y61685764D01*
X32301807Y61767818D01*
X32551100Y61901068D01*
X32769607Y62080392D01*
X32948932Y62298899D01*
X33020000Y62431858D01*
X33091068Y62298900D01*
X33270392Y62080393D01*
X33488899Y61901068D01*
X33738192Y61767818D01*
X34008691Y61685764D01*
X34290000Y61658057D01*
X34571308Y61685764D01*
X34841807Y61767818D01*
X35091100Y61901068D01*
X35309607Y62080392D01*
X35488932Y62298899D01*
X35560000Y62431858D01*
X35631068Y62298900D01*
X35810392Y62080393D01*
X36028899Y61901068D01*
X36278192Y61767818D01*
X36548691Y61685764D01*
X36830000Y61658057D01*
X37111308Y61685764D01*
X37381807Y61767818D01*
X37631100Y61901068D01*
X37849607Y62080392D01*
X38028932Y62298899D01*
X38100000Y62431858D01*
X38171068Y62298900D01*
X38350392Y62080393D01*
X38568899Y61901068D01*
X38818192Y61767818D01*
X39088691Y61685764D01*
X39370000Y61658057D01*
X39651308Y61685764D01*
X39921807Y61767818D01*
X40171100Y61901068D01*
X40389607Y62080392D01*
X40568932Y62298899D01*
X40640000Y62431858D01*
X40711068Y62298900D01*
X40890392Y62080393D01*
X41108899Y61901068D01*
X41358192Y61767818D01*
X41628691Y61685764D01*
X41910000Y61658057D01*
X42191308Y61685764D01*
X42461807Y61767818D01*
X42711100Y61901068D01*
X42929607Y62080392D01*
X43022419Y62193483D01*
X43024188Y62175518D01*
X43060498Y62055820D01*
X43119463Y61945506D01*
X43198815Y61848815D01*
X43295506Y61769463D01*
X43405820Y61710498D01*
X43525518Y61674188D01*
X43650000Y61661928D01*
X45250000Y61661928D01*
X45374482Y61674188D01*
X45494180Y61710498D01*
X45604494Y61769463D01*
X45701185Y61848815D01*
X45780537Y61945506D01*
X45839502Y62055820D01*
X45875812Y62175518D01*
X45888072Y62300000D01*
X45888072Y63928000D01*
X51324000Y63928000D01*
X51324000Y63528000D01*
X51376350Y63250486D01*
X51481834Y62988517D01*
X51636399Y62752161D01*
X51834105Y62550500D01*
X52067354Y62391285D01*
X52327182Y62280633D01*
X52409961Y62263096D01*
X52632000Y62385085D01*
X52632000Y63928000D01*
X51324000Y63928000D01*
X45888072Y63928000D01*
X45888072Y64700000D01*
X45876224Y64820300D01*
X51368953Y64820300D01*
X51324000Y64582000D01*
X51324000Y64182000D01*
X52632000Y64182000D01*
X52632000Y64202000D01*
X52886000Y64202000D01*
X52886000Y64182000D01*
X52906000Y64182000D01*
X52906000Y63928000D01*
X52886000Y63928000D01*
X52886000Y62385085D01*
X53108039Y62263096D01*
X53190818Y62280633D01*
X53450646Y62391285D01*
X53683895Y62550500D01*
X53881601Y62752161D01*
X54031735Y62981742D01*
X54100068Y62853900D01*
X54279392Y62635393D01*
X54497899Y62456068D01*
X54747192Y62322818D01*
X55017691Y62240764D01*
X55299000Y62213057D01*
X55580308Y62240764D01*
X55747601Y62291511D01*
X55747601Y61955515D01*
X55744044Y61919400D01*
X55758235Y61775315D01*
X55793806Y61658057D01*
X55800264Y61636767D01*
X55868514Y61509080D01*
X55960363Y61397162D01*
X55988408Y61374146D01*
X58374000Y58988553D01*
X58374000Y58165425D01*
X58270818Y58209367D01*
X58188039Y58226904D01*
X57966000Y58104915D01*
X57966000Y56562000D01*
X57986000Y56562000D01*
X57986000Y56308000D01*
X57966000Y56308000D01*
X57966000Y54765085D01*
X58188039Y54643096D01*
X58270818Y54660633D01*
X58530646Y54771285D01*
X58763895Y54930500D01*
X58791399Y54958554D01*
X59509246Y54240707D01*
X59532262Y54212662D01*
X59644180Y54120813D01*
X59771867Y54052563D01*
X59906304Y54011782D01*
X59910415Y54010535D01*
X60054500Y53996344D01*
X60090605Y53999900D01*
X61862454Y53999900D01*
X62148306Y53714048D01*
X62063900Y53668932D01*
X61845393Y53489608D01*
X61666068Y53271101D01*
X61595000Y53138142D01*
X61523932Y53271101D01*
X61344608Y53489608D01*
X61126101Y53668932D01*
X60876808Y53802182D01*
X60606309Y53884236D01*
X60325000Y53911943D01*
X60043692Y53884236D01*
X59773193Y53802182D01*
X59523900Y53668932D01*
X59305393Y53489608D01*
X59126068Y53271101D01*
X59055000Y53138142D01*
X58983932Y53271101D01*
X58804608Y53489608D01*
X58586101Y53668932D01*
X58336808Y53802182D01*
X58066309Y53884236D01*
X57785000Y53911943D01*
X57503692Y53884236D01*
X57233193Y53802182D01*
X56983900Y53668932D01*
X56765393Y53489608D01*
X56586068Y53271101D01*
X56515000Y53138142D01*
X56443932Y53271101D01*
X56264608Y53489608D01*
X56046101Y53668932D01*
X55796808Y53802182D01*
X55526309Y53884236D01*
X55245000Y53911943D01*
X54963692Y53884236D01*
X54693193Y53802182D01*
X54443900Y53668932D01*
X54225393Y53489608D01*
X54046068Y53271101D01*
X53977735Y53143259D01*
X53827601Y53372839D01*
X53629895Y53574500D01*
X53396646Y53733715D01*
X53136818Y53844367D01*
X53054039Y53861904D01*
X52832000Y53739915D01*
X52832000Y52197000D01*
X52852000Y52197000D01*
X52852000Y51943000D01*
X52832000Y51943000D01*
X52832000Y50400085D01*
X53054039Y50278096D01*
X53136818Y50295633D01*
X53396646Y50406285D01*
X53629895Y50565500D01*
X53827601Y50767161D01*
X53977735Y50996742D01*
X54046068Y50868900D01*
X54225392Y50650393D01*
X54258816Y50622963D01*
X53311108Y49675254D01*
X53283062Y49652237D01*
X53191213Y49540319D01*
X53122963Y49412632D01*
X53102712Y49345872D01*
X53080935Y49274085D01*
X53066744Y49130000D01*
X53070300Y49093895D01*
X53070300Y46588450D01*
X52987633Y46632637D01*
X52849085Y46674665D01*
X52741105Y46685300D01*
X52705000Y46688856D01*
X52668895Y46685300D01*
X45280627Y46685300D01*
X45469607Y46840392D01*
X45648932Y47058899D01*
X45782182Y47308192D01*
X45864236Y47578691D01*
X45885000Y47789508D01*
X45885000Y48730491D01*
X45864236Y48941309D01*
X45782182Y49211808D01*
X45648932Y49461101D01*
X45469608Y49679608D01*
X45251101Y49858932D01*
X45001808Y49992182D01*
X44731309Y50074236D01*
X44450000Y50101943D01*
X44168692Y50074236D01*
X43898193Y49992182D01*
X43648900Y49858932D01*
X43430393Y49679608D01*
X43251068Y49461101D01*
X43180000Y49328142D01*
X43108932Y49461101D01*
X42929608Y49679608D01*
X42711101Y49858932D01*
X42461808Y49992182D01*
X42191309Y50074236D01*
X41910000Y50101943D01*
X41628692Y50074236D01*
X41358193Y49992182D01*
X41108900Y49858932D01*
X40890393Y49679608D01*
X40711068Y49461101D01*
X40640000Y49328142D01*
X40568932Y49461101D01*
X40389608Y49679608D01*
X40171101Y49858932D01*
X39921808Y49992182D01*
X39651309Y50074236D01*
X39370000Y50101943D01*
X39088692Y50074236D01*
X38818193Y49992182D01*
X38568900Y49858932D01*
X38350393Y49679608D01*
X38171068Y49461101D01*
X38100000Y49328142D01*
X38028932Y49461101D01*
X37849608Y49679608D01*
X37631101Y49858932D01*
X37381808Y49992182D01*
X37111309Y50074236D01*
X36830000Y50101943D01*
X36548692Y50074236D01*
X36278193Y49992182D01*
X36028900Y49858932D01*
X35810393Y49679608D01*
X35631068Y49461101D01*
X35560000Y49328142D01*
X35488932Y49461101D01*
X35309608Y49679608D01*
X35091101Y49858932D01*
X34841808Y49992182D01*
X34571309Y50074236D01*
X34290000Y50101943D01*
X34008692Y50074236D01*
X33738193Y49992182D01*
X33488900Y49858932D01*
X33270393Y49679608D01*
X33091068Y49461101D01*
X33020000Y49328142D01*
X32948932Y49461101D01*
X32769608Y49679608D01*
X32551101Y49858932D01*
X32301808Y49992182D01*
X32031309Y50074236D01*
X31750000Y50101943D01*
X31468692Y50074236D01*
X31198193Y49992182D01*
X30948900Y49858932D01*
X30730393Y49679608D01*
X30551068Y49461101D01*
X30480000Y49328142D01*
X30408932Y49461101D01*
X30229608Y49679608D01*
X30011101Y49858932D01*
X29761808Y49992182D01*
X29491309Y50074236D01*
X29210000Y50101943D01*
X28928692Y50074236D01*
X28658193Y49992182D01*
X28408900Y49858932D01*
X28190393Y49679608D01*
X28011068Y49461101D01*
X27940000Y49328142D01*
X27868932Y49461101D01*
X27689608Y49679608D01*
X27471101Y49858932D01*
X27221808Y49992182D01*
X26951309Y50074236D01*
X26670000Y50101943D01*
X26388692Y50074236D01*
X26118193Y49992182D01*
X25868900Y49858932D01*
X25650393Y49679608D01*
X25471068Y49461101D01*
X25400000Y49328142D01*
X25328932Y49461101D01*
X25149608Y49679608D01*
X24931101Y49858932D01*
X24681808Y49992182D01*
X24411309Y50074236D01*
X24130000Y50101943D01*
X23848692Y50074236D01*
X23578193Y49992182D01*
X23328900Y49858932D01*
X23110393Y49679608D01*
X22931068Y49461101D01*
X22860000Y49328142D01*
X22788932Y49461101D01*
X22609608Y49679608D01*
X22391101Y49858932D01*
X22141808Y49992182D01*
X21871309Y50074236D01*
X21590000Y50101943D01*
X21308692Y50074236D01*
X21038193Y49992182D01*
X20788900Y49858932D01*
X20570393Y49679608D01*
X20391068Y49461101D01*
X20320000Y49328142D01*
X20248932Y49461101D01*
X20069608Y49679608D01*
X19851101Y49858932D01*
X19601808Y49992182D01*
X19331309Y50074236D01*
X19050000Y50101943D01*
X18768692Y50074236D01*
X18498193Y49992182D01*
X18248900Y49858932D01*
X18030393Y49679608D01*
X17851068Y49461101D01*
X17780000Y49328142D01*
X17708932Y49461101D01*
X17529608Y49679608D01*
X17311101Y49858932D01*
X17061808Y49992182D01*
X16791309Y50074236D01*
X16510000Y50101943D01*
X16228692Y50074236D01*
X15958193Y49992182D01*
X15708900Y49858932D01*
X15490393Y49679608D01*
X15311068Y49461101D01*
X15240000Y49328142D01*
X15168932Y49461101D01*
X14989608Y49679608D01*
X14771101Y49858932D01*
X14521808Y49992182D01*
X14251309Y50074236D01*
X13970000Y50101943D01*
X13688692Y50074236D01*
X13418193Y49992182D01*
X13168900Y49858932D01*
X12950393Y49679608D01*
X12771068Y49461101D01*
X12700000Y49328142D01*
X12628932Y49461101D01*
X12449608Y49679608D01*
X12231101Y49858932D01*
X11981808Y49992182D01*
X11711309Y50074236D01*
X11430000Y50101943D01*
X11148692Y50074236D01*
X10878193Y49992182D01*
X10628900Y49858932D01*
X10410393Y49679608D01*
X10231068Y49461101D01*
X10097818Y49211808D01*
X10015764Y48941309D01*
X9995000Y48730492D01*
X9995000Y47789509D01*
X10015764Y47578692D01*
X10097818Y47308193D01*
X10231068Y47058900D01*
X10410392Y46840393D01*
X10628899Y46661068D01*
X10878192Y46527818D01*
X11148691Y46445764D01*
X11430000Y46418057D01*
X11711308Y46445764D01*
X11981807Y46527818D01*
X12231100Y46661068D01*
X12449607Y46840392D01*
X12628932Y47058899D01*
X12700000Y47191858D01*
X12771068Y47058900D01*
X12950392Y46840393D01*
X13168899Y46661068D01*
X13418192Y46527818D01*
X13688691Y46445764D01*
X13970000Y46418057D01*
X14251308Y46445764D01*
X14521807Y46527818D01*
X14771100Y46661068D01*
X14989607Y46840392D01*
X15168932Y47058899D01*
X15240000Y47191858D01*
X15311068Y47058900D01*
X15490392Y46840393D01*
X15708899Y46661068D01*
X15958192Y46527818D01*
X16228691Y46445764D01*
X16510000Y46418057D01*
X16791308Y46445764D01*
X17061807Y46527818D01*
X17311100Y46661068D01*
X17529607Y46840392D01*
X17708932Y47058899D01*
X17780000Y47191858D01*
X17851068Y47058900D01*
X18030392Y46840393D01*
X18248899Y46661068D01*
X18325174Y46620298D01*
X18325635Y46615615D01*
X18352269Y46527818D01*
X18367664Y46477067D01*
X18435914Y46349380D01*
X18527763Y46237462D01*
X18555808Y46214446D01*
X19484600Y45285653D01*
X19484600Y44947736D01*
X19331309Y44994236D01*
X19050000Y45021943D01*
X18768692Y44994236D01*
X18498193Y44912182D01*
X18248900Y44778932D01*
X18030393Y44599608D01*
X17851068Y44381101D01*
X17780000Y44248142D01*
X17708932Y44381101D01*
X17529608Y44599608D01*
X17311101Y44778932D01*
X17061808Y44912182D01*
X16791309Y44994236D01*
X16510000Y45021943D01*
X16228692Y44994236D01*
X15958193Y44912182D01*
X15708900Y44778932D01*
X15490393Y44599608D01*
X15311068Y44381101D01*
X15240000Y44248142D01*
X15168932Y44381101D01*
X14989608Y44599608D01*
X14771101Y44778932D01*
X14521808Y44912182D01*
X14251309Y44994236D01*
X13970000Y45021943D01*
X13688692Y44994236D01*
X13418193Y44912182D01*
X13168900Y44778932D01*
X12950393Y44599608D01*
X12771068Y44381101D01*
X12702735Y44253259D01*
X12552601Y44482839D01*
X12354895Y44684500D01*
X12121646Y44843715D01*
X11861818Y44954367D01*
X11779039Y44971904D01*
X11557000Y44849915D01*
X11557000Y43307000D01*
X11577000Y43307000D01*
X11577000Y43053000D01*
X11557000Y43053000D01*
X11557000Y41510085D01*
X11779039Y41388096D01*
X11861818Y41405633D01*
X12121646Y41516285D01*
X12354895Y41675500D01*
X12552601Y41877161D01*
X12702735Y42106742D01*
X12771068Y41978900D01*
X12950392Y41760393D01*
X13168899Y41581068D01*
X13418192Y41447818D01*
X13688691Y41365764D01*
X13970000Y41338057D01*
X14251308Y41365764D01*
X14521807Y41447818D01*
X14771100Y41581068D01*
X14989607Y41760392D01*
X15168932Y41978899D01*
X15240000Y42111858D01*
X15311068Y41978900D01*
X15490392Y41760393D01*
X15523816Y41732963D01*
X14865908Y41075054D01*
X14837862Y41052037D01*
X14746013Y40940119D01*
X14677763Y40812432D01*
X14663934Y40766844D01*
X14635735Y40673885D01*
X14621544Y40529800D01*
X14625100Y40493695D01*
X14625101Y29616971D01*
X14521808Y29672182D01*
X14251309Y29754236D01*
X13970000Y29781943D01*
X13688692Y29754236D01*
X13418193Y29672182D01*
X13168900Y29538932D01*
X12950393Y29359608D01*
X12771068Y29141101D01*
X12700000Y29008142D01*
X12628932Y29141101D01*
X12449608Y29359608D01*
X12231101Y29538932D01*
X11981808Y29672182D01*
X11711309Y29754236D01*
X11430000Y29781943D01*
X11148692Y29754236D01*
X10878193Y29672182D01*
X10628900Y29538932D01*
X10410393Y29359608D01*
X10231068Y29141101D01*
X10097818Y28891808D01*
X10015764Y28621309D01*
X9995000Y28410492D01*
X9995000Y27469509D01*
X10015764Y27258692D01*
X10097818Y26988193D01*
X10231068Y26738900D01*
X10410392Y26520393D01*
X10628899Y26341068D01*
X10705174Y26300298D01*
X10705635Y26295615D01*
X10738837Y26186165D01*
X10747664Y26157067D01*
X10815914Y26029380D01*
X10907763Y25917462D01*
X10935808Y25894446D01*
X11806100Y25024153D01*
X11806100Y24646171D01*
X11779039Y24651904D01*
X11557000Y24529915D01*
X11557000Y22987000D01*
X11577000Y22987000D01*
X11577000Y22733000D01*
X11557000Y22733000D01*
X11557000Y21190085D01*
X11779039Y21068096D01*
X11806100Y21073829D01*
X11806101Y10535848D01*
X10935808Y9665554D01*
X10907763Y9642538D01*
X10815914Y9530620D01*
X10747665Y9402934D01*
X10747664Y9402933D01*
X10705635Y9264385D01*
X10705174Y9259701D01*
X10628900Y9218932D01*
X10410393Y9039608D01*
X10231068Y8821101D01*
X10097818Y8571808D01*
X10015764Y8301309D01*
X9995000Y8090492D01*
X9995000Y7149509D01*
X10015764Y6938692D01*
X10097818Y6668193D01*
X10231068Y6418900D01*
X10410392Y6200393D01*
X10628899Y6021068D01*
X10878192Y5887818D01*
X11148691Y5805764D01*
X11430000Y5778057D01*
X11711308Y5805764D01*
X11981807Y5887818D01*
X12231100Y6021068D01*
X12449607Y6200392D01*
X12628932Y6418899D01*
X12700000Y6551858D01*
X12771068Y6418900D01*
X12950392Y6200393D01*
X13168899Y6021068D01*
X13418192Y5887818D01*
X13688691Y5805764D01*
X13970000Y5778057D01*
X14251308Y5805764D01*
X14521807Y5887818D01*
X14771100Y6021068D01*
X14989607Y6200392D01*
X15168932Y6418899D01*
X15240000Y6551858D01*
X15311068Y6418900D01*
X15490392Y6200393D01*
X15708899Y6021068D01*
X15958192Y5887818D01*
X16228691Y5805764D01*
X16510000Y5778057D01*
X16791308Y5805764D01*
X17061807Y5887818D01*
X17311100Y6021068D01*
X17529607Y6200392D01*
X17708932Y6418899D01*
X17780000Y6551858D01*
X17851068Y6418900D01*
X18030392Y6200393D01*
X18248899Y6021068D01*
X18498192Y5887818D01*
X18768691Y5805764D01*
X19050000Y5778057D01*
X19331308Y5805764D01*
X19601807Y5887818D01*
X19851100Y6021068D01*
X20069607Y6200392D01*
X20248932Y6418899D01*
X20320000Y6551858D01*
X20391068Y6418900D01*
X20570392Y6200393D01*
X20788899Y6021068D01*
X21038192Y5887818D01*
X21308691Y5805764D01*
X21590000Y5778057D01*
X21871308Y5805764D01*
X22141807Y5887818D01*
X22391100Y6021068D01*
X22609607Y6200392D01*
X22788932Y6418899D01*
X22860000Y6551858D01*
X22931068Y6418900D01*
X23110392Y6200393D01*
X23328899Y6021068D01*
X23578192Y5887818D01*
X23848691Y5805764D01*
X24130000Y5778057D01*
X24411308Y5805764D01*
X24681807Y5887818D01*
X24931100Y6021068D01*
X25149607Y6200392D01*
X25328932Y6418899D01*
X25400000Y6551858D01*
X25471068Y6418900D01*
X25650392Y6200393D01*
X25868899Y6021068D01*
X26118192Y5887818D01*
X26388691Y5805764D01*
X26670000Y5778057D01*
X26951308Y5805764D01*
X27221807Y5887818D01*
X27471100Y6021068D01*
X27689607Y6200392D01*
X27868932Y6418899D01*
X27940000Y6551858D01*
X28011068Y6418900D01*
X28190392Y6200393D01*
X28408899Y6021068D01*
X28658192Y5887818D01*
X28928691Y5805764D01*
X29210000Y5778057D01*
X29491308Y5805764D01*
X29761807Y5887818D01*
X30011100Y6021068D01*
X30229607Y6200392D01*
X30408932Y6418899D01*
X30480000Y6551858D01*
X30551068Y6418900D01*
X30730392Y6200393D01*
X30948899Y6021068D01*
X31198192Y5887818D01*
X31468691Y5805764D01*
X31750000Y5778057D01*
X32031308Y5805764D01*
X32301807Y5887818D01*
X32551100Y6021068D01*
X32769607Y6200392D01*
X32948932Y6418899D01*
X33020000Y6551858D01*
X33091068Y6418900D01*
X33270392Y6200393D01*
X33488899Y6021068D01*
X33738192Y5887818D01*
X34008691Y5805764D01*
X34290000Y5778057D01*
X34571308Y5805764D01*
X34841807Y5887818D01*
X35091100Y6021068D01*
X35309607Y6200392D01*
X35488932Y6418899D01*
X35560000Y6551858D01*
X35631068Y6418900D01*
X35810392Y6200393D01*
X36028899Y6021068D01*
X36278192Y5887818D01*
X36548691Y5805764D01*
X36830000Y5778057D01*
X37111308Y5805764D01*
X37381807Y5887818D01*
X37631100Y6021068D01*
X37849607Y6200392D01*
X38028932Y6418899D01*
X38100000Y6551858D01*
X38171068Y6418900D01*
X38350392Y6200393D01*
X38568899Y6021068D01*
X38818192Y5887818D01*
X39088691Y5805764D01*
X39370000Y5778057D01*
X39651308Y5805764D01*
X39921807Y5887818D01*
X40171100Y6021068D01*
X40389607Y6200392D01*
X40568932Y6418899D01*
X40640000Y6551858D01*
X40711068Y6418900D01*
X40890392Y6200393D01*
X41108899Y6021068D01*
X41358192Y5887818D01*
X41628691Y5805764D01*
X41910000Y5778057D01*
X42191308Y5805764D01*
X42461807Y5887818D01*
X42711100Y6021068D01*
X42929607Y6200392D01*
X43108932Y6418899D01*
X43180000Y6551858D01*
X43251068Y6418900D01*
X43430392Y6200393D01*
X43648899Y6021068D01*
X43898192Y5887818D01*
X44168691Y5805764D01*
X44450000Y5778057D01*
X44731308Y5805764D01*
X45001807Y5887818D01*
X45251100Y6021068D01*
X45469607Y6200392D01*
X45648932Y6418899D01*
X45782182Y6668192D01*
X45864236Y6938691D01*
X45885000Y7149508D01*
X45885000Y8090491D01*
X45864236Y8301309D01*
X45782182Y8571808D01*
X45648932Y8821101D01*
X45469608Y9039608D01*
X45251101Y9218932D01*
X45001808Y9352182D01*
X44731309Y9434236D01*
X44450000Y9461943D01*
X44168692Y9434236D01*
X43898193Y9352182D01*
X43648900Y9218932D01*
X43430393Y9039608D01*
X43251068Y8821101D01*
X43180000Y8688142D01*
X43108932Y8821101D01*
X42929608Y9039608D01*
X42711101Y9218932D01*
X42634826Y9259702D01*
X42634365Y9264385D01*
X42592337Y9402933D01*
X42524087Y9530620D01*
X42432238Y9642538D01*
X42404193Y9665554D01*
X41533800Y10535946D01*
X41533800Y16439488D01*
X46184783Y16439488D01*
X46226213Y16159870D01*
X46321397Y15893708D01*
X46388329Y15768486D01*
X46632298Y15696903D01*
X47445395Y16510000D01*
X47804605Y16510000D01*
X48617702Y15696903D01*
X48861671Y15768486D01*
X48982571Y16023996D01*
X49051300Y16298184D01*
X49065217Y16580512D01*
X49023787Y16860130D01*
X48928603Y17126292D01*
X48861671Y17251514D01*
X48617702Y17323097D01*
X47804605Y16510000D01*
X47445395Y16510000D01*
X46632298Y17323097D01*
X46388329Y17251514D01*
X46267429Y16996004D01*
X46198700Y16721816D01*
X46184783Y16439488D01*
X41533800Y16439488D01*
X41533800Y17502702D01*
X46811903Y17502702D01*
X47625000Y16689605D01*
X48438097Y17502702D01*
X48366514Y17746671D01*
X48111004Y17867571D01*
X47836816Y17936300D01*
X47554488Y17950217D01*
X47274870Y17908787D01*
X47008708Y17813603D01*
X46883486Y17746671D01*
X46811903Y17502702D01*
X41533800Y17502702D01*
X41533800Y21074549D01*
X41628691Y21045764D01*
X41910000Y21018057D01*
X42191308Y21045764D01*
X42461807Y21127818D01*
X42711100Y21261068D01*
X42929607Y21440392D01*
X43022419Y21553483D01*
X43024188Y21535518D01*
X43060498Y21415820D01*
X43119463Y21305506D01*
X43198815Y21208815D01*
X43295506Y21129463D01*
X43405820Y21070498D01*
X43525518Y21034188D01*
X43650000Y21021928D01*
X43797136Y21021928D01*
X43835914Y20949380D01*
X43927763Y20837462D01*
X43955808Y20814446D01*
X46082646Y18687607D01*
X46105662Y18659562D01*
X46133706Y18636547D01*
X46217580Y18567713D01*
X46345266Y18499463D01*
X46483815Y18457435D01*
X46627900Y18443244D01*
X46664005Y18446800D01*
X63865401Y18446800D01*
X63865401Y16678072D01*
X62700000Y16678072D01*
X62575518Y16665812D01*
X62455820Y16629502D01*
X62345506Y16570537D01*
X62248815Y16491185D01*
X62169463Y16394494D01*
X62110498Y16284180D01*
X62074188Y16164482D01*
X62073357Y16156039D01*
X61874759Y16354637D01*
X61639727Y16511680D01*
X61378574Y16619853D01*
X61101335Y16675000D01*
X60818665Y16675000D01*
X60541426Y16619853D01*
X60280273Y16511680D01*
X60045241Y16354637D01*
X59845363Y16154759D01*
X59792070Y16075000D01*
X59587930Y16075000D01*
X59534637Y16154759D01*
X59334759Y16354637D01*
X59099727Y16511680D01*
X58838574Y16619853D01*
X58561335Y16675000D01*
X58278665Y16675000D01*
X58001426Y16619853D01*
X57740273Y16511680D01*
X57505241Y16354637D01*
X57305363Y16154759D01*
X57252070Y16075000D01*
X57047930Y16075000D01*
X56994637Y16154759D01*
X56794759Y16354637D01*
X56559727Y16511680D01*
X56298574Y16619853D01*
X56021335Y16675000D01*
X55738665Y16675000D01*
X55461426Y16619853D01*
X55200273Y16511680D01*
X54965241Y16354637D01*
X54765363Y16154759D01*
X54712604Y16075799D01*
X54679700Y16079040D01*
X54638682Y16075000D01*
X54638681Y16075000D01*
X54516011Y16062918D01*
X54358613Y16015172D01*
X54213554Y15937636D01*
X54086409Y15833291D01*
X54060263Y15801432D01*
X53103833Y14845000D01*
X48792930Y14845000D01*
X48739637Y14924759D01*
X48539759Y15124637D01*
X48339131Y15258692D01*
X48366514Y15273329D01*
X48438097Y15517298D01*
X47625000Y16330395D01*
X46811903Y15517298D01*
X46883486Y15273329D01*
X46912341Y15259676D01*
X46710241Y15124637D01*
X46510363Y14924759D01*
X46353320Y14689727D01*
X46245147Y14428574D01*
X46190000Y14151335D01*
X46190000Y13868665D01*
X46245147Y13591426D01*
X46353320Y13330273D01*
X46510363Y13095241D01*
X46710241Y12895363D01*
X46945273Y12738320D01*
X47206426Y12630147D01*
X47483665Y12575000D01*
X47766335Y12575000D01*
X48043574Y12630147D01*
X48304727Y12738320D01*
X48539759Y12895363D01*
X48739637Y13095241D01*
X48792930Y13175000D01*
X53408682Y13175000D01*
X53449700Y13170960D01*
X53490718Y13175000D01*
X53490719Y13175000D01*
X53613389Y13187082D01*
X53770787Y13234828D01*
X53915846Y13312364D01*
X54042991Y13416709D01*
X54069145Y13448578D01*
X54855586Y14235018D01*
X54965241Y14125363D01*
X55200273Y13968320D01*
X55461426Y13860147D01*
X55738665Y13805000D01*
X56021335Y13805000D01*
X56298574Y13860147D01*
X56559727Y13968320D01*
X56794759Y14125363D01*
X56994637Y14325241D01*
X57047930Y14405000D01*
X57252070Y14405000D01*
X57305363Y14325241D01*
X57505241Y14125363D01*
X57740273Y13968320D01*
X58001426Y13860147D01*
X58278665Y13805000D01*
X58561335Y13805000D01*
X58838574Y13860147D01*
X59099727Y13968320D01*
X59334759Y14125363D01*
X59534637Y14325241D01*
X59587930Y14405000D01*
X59792070Y14405000D01*
X59845363Y14325241D01*
X60045241Y14125363D01*
X60280273Y13968320D01*
X60541426Y13860147D01*
X60818665Y13805000D01*
X61101335Y13805000D01*
X61378574Y13860147D01*
X61639727Y13968320D01*
X61874759Y14125363D01*
X62073357Y14323961D01*
X62074188Y14315518D01*
X62110498Y14195820D01*
X62169463Y14085506D01*
X62248815Y13988815D01*
X62345506Y13909463D01*
X62455820Y13850498D01*
X62575518Y13814188D01*
X62700000Y13801928D01*
X63865400Y13801928D01*
X63865400Y10125147D01*
X63005808Y9265554D01*
X62977763Y9242538D01*
X62885914Y9130620D01*
X62837267Y9039608D01*
X62817664Y9002933D01*
X62775635Y8864385D01*
X62775368Y8861676D01*
X62585241Y8734637D01*
X62385363Y8534759D01*
X62230000Y8302241D01*
X62074637Y8534759D01*
X61874759Y8734637D01*
X61639727Y8891680D01*
X61378574Y8999853D01*
X61101335Y9055000D01*
X60818665Y9055000D01*
X60541426Y8999853D01*
X60280273Y8891680D01*
X60045241Y8734637D01*
X59845363Y8534759D01*
X59690000Y8302241D01*
X59534637Y8534759D01*
X59334759Y8734637D01*
X59099727Y8891680D01*
X58838574Y8999853D01*
X58561335Y9055000D01*
X58278665Y9055000D01*
X58001426Y8999853D01*
X57740273Y8891680D01*
X57505241Y8734637D01*
X57305363Y8534759D01*
X57150000Y8302241D01*
X56994637Y8534759D01*
X56794759Y8734637D01*
X56559727Y8891680D01*
X56298574Y8999853D01*
X56021335Y9055000D01*
X55738665Y9055000D01*
X55461426Y8999853D01*
X55200273Y8891680D01*
X54965241Y8734637D01*
X54765363Y8534759D01*
X54608320Y8299727D01*
X54500147Y8038574D01*
X54445000Y7761335D01*
X54445000Y7478665D01*
X54500147Y7201426D01*
X54608320Y6940273D01*
X54765363Y6705241D01*
X54965241Y6505363D01*
X55200273Y6348320D01*
X55461426Y6240147D01*
X55738665Y6185000D01*
X56021335Y6185000D01*
X56298574Y6240147D01*
X56559727Y6348320D01*
X56794759Y6505363D01*
X56994637Y6705241D01*
X57150000Y6937759D01*
X57305363Y6705241D01*
X57505241Y6505363D01*
X57740273Y6348320D01*
X58001426Y6240147D01*
X58278665Y6185000D01*
X58561335Y6185000D01*
X58838574Y6240147D01*
X59099727Y6348320D01*
X59334759Y6505363D01*
X59534637Y6705241D01*
X59690000Y6937759D01*
X59845363Y6705241D01*
X60045241Y6505363D01*
X60280273Y6348320D01*
X60541426Y6240147D01*
X60818665Y6185000D01*
X61101335Y6185000D01*
X61378574Y6240147D01*
X61639727Y6348320D01*
X61874759Y6505363D01*
X62074637Y6705241D01*
X62230000Y6937759D01*
X62385363Y6705241D01*
X62585241Y6505363D01*
X62820273Y6348320D01*
X63081426Y6240147D01*
X63358665Y6185000D01*
X63641335Y6185000D01*
X63918574Y6240147D01*
X64179727Y6348320D01*
X64414759Y6505363D01*
X64614637Y6705241D01*
X64771680Y6940273D01*
X64879853Y7201426D01*
X64935000Y7478665D01*
X64935000Y7761335D01*
X64879853Y8038574D01*
X64771680Y8299727D01*
X64614637Y8534759D01*
X64484271Y8665125D01*
X65094597Y9275450D01*
X65122637Y9298462D01*
X65145650Y9326503D01*
X65145653Y9326506D01*
X65214487Y9410380D01*
X65282737Y9538066D01*
X65324765Y9676615D01*
X65338956Y9820700D01*
X65335400Y9856805D01*
X65335400Y18812095D01*
X65338956Y18848200D01*
X65335332Y18885000D01*
X65546335Y18885000D01*
X65823574Y18940147D01*
X66084727Y19048320D01*
X66319759Y19205363D01*
X66519637Y19405241D01*
X66676680Y19640273D01*
X66784853Y19901426D01*
X66840000Y20178665D01*
X66840000Y20461335D01*
X66784853Y20738574D01*
X66676680Y20999727D01*
X66519637Y21234759D01*
X66319759Y21434637D01*
X66084727Y21591680D01*
X65823574Y21699853D01*
X65546335Y21755000D01*
X65263665Y21755000D01*
X64986426Y21699853D01*
X64725273Y21591680D01*
X64490241Y21434637D01*
X64290363Y21234759D01*
X64133320Y20999727D01*
X64025147Y20738574D01*
X63970000Y20461335D01*
X63970000Y20178665D01*
X64012178Y19966624D01*
X63962354Y19916800D01*
X61707911Y19916800D01*
X61760000Y20178665D01*
X61760000Y20461335D01*
X61704853Y20738574D01*
X61596680Y20999727D01*
X61439637Y21234759D01*
X61239759Y21434637D01*
X61004727Y21591680D01*
X60743574Y21699853D01*
X60466335Y21755000D01*
X60183665Y21755000D01*
X59906426Y21699853D01*
X59645273Y21591680D01*
X59410241Y21434637D01*
X59210363Y21234759D01*
X59053320Y20999727D01*
X58945147Y20738574D01*
X58890000Y20461335D01*
X58890000Y20178665D01*
X58942089Y19916800D01*
X56627911Y19916800D01*
X56680000Y20178665D01*
X56680000Y20461335D01*
X56624853Y20738574D01*
X56516680Y20999727D01*
X56359637Y21234759D01*
X56159759Y21434637D01*
X55924727Y21591680D01*
X55663574Y21699853D01*
X55386335Y21755000D01*
X55103665Y21755000D01*
X54826426Y21699853D01*
X54565273Y21591680D01*
X54330241Y21434637D01*
X54130363Y21234759D01*
X53973320Y20999727D01*
X53865147Y20738574D01*
X53810000Y20461335D01*
X53810000Y20178665D01*
X53862089Y19916800D01*
X46932347Y19916800D01*
X45667761Y21181385D01*
X45701185Y21208815D01*
X45780537Y21305506D01*
X45839502Y21415820D01*
X45875812Y21535518D01*
X45888072Y21660000D01*
X45888072Y24060000D01*
X45875812Y24184482D01*
X45839502Y24304180D01*
X45780537Y24414494D01*
X45701185Y24511185D01*
X45604494Y24590537D01*
X45494180Y24649502D01*
X45374482Y24685812D01*
X45250000Y24698072D01*
X43650000Y24698072D01*
X43525518Y24685812D01*
X43405820Y24649502D01*
X43295506Y24590537D01*
X43198815Y24511185D01*
X43119463Y24414494D01*
X43060498Y24304180D01*
X43024188Y24184482D01*
X43022419Y24166518D01*
X42929608Y24279608D01*
X42711101Y24458932D01*
X42461808Y24592182D01*
X42191309Y24674236D01*
X41910000Y24701943D01*
X41628692Y24674236D01*
X41533800Y24645451D01*
X41533800Y25024054D01*
X42404193Y25894446D01*
X42432238Y25917462D01*
X42524087Y26029380D01*
X42592337Y26157067D01*
X42634365Y26295615D01*
X42634826Y26300299D01*
X42711100Y26341068D01*
X42929607Y26520392D01*
X43108932Y26738899D01*
X43180000Y26871858D01*
X43251068Y26738900D01*
X43430392Y26520393D01*
X43648899Y26341068D01*
X43898192Y26207818D01*
X44168691Y26125764D01*
X44450000Y26098057D01*
X44731308Y26125764D01*
X45001807Y26207818D01*
X45251100Y26341068D01*
X45469607Y26520392D01*
X45648932Y26738899D01*
X45782182Y26988192D01*
X45864236Y27258691D01*
X45885000Y27469508D01*
X45885000Y27590960D01*
X53853091Y27590960D01*
X53947930Y27326119D01*
X54092615Y27084869D01*
X54281586Y26876481D01*
X54507580Y26708963D01*
X54761913Y26588754D01*
X54895961Y26548096D01*
X55118000Y26670085D01*
X55118000Y27813000D01*
X55372000Y27813000D01*
X55372000Y26670085D01*
X55594039Y26548096D01*
X55728087Y26588754D01*
X55982420Y26708963D01*
X56208414Y26876481D01*
X56397385Y27084869D01*
X56542070Y27326119D01*
X56636909Y27590960D01*
X58933091Y27590960D01*
X59027930Y27326119D01*
X59172615Y27084869D01*
X59361586Y26876481D01*
X59587580Y26708963D01*
X59841913Y26588754D01*
X59975961Y26548096D01*
X60198000Y26670085D01*
X60198000Y27813000D01*
X60452000Y27813000D01*
X60452000Y26670085D01*
X60674039Y26548096D01*
X60808087Y26588754D01*
X61062420Y26708963D01*
X61288414Y26876481D01*
X61477385Y27084869D01*
X61622070Y27326119D01*
X61716909Y27590960D01*
X64013091Y27590960D01*
X64107930Y27326119D01*
X64252615Y27084869D01*
X64441586Y26876481D01*
X64667580Y26708963D01*
X64921913Y26588754D01*
X65055961Y26548096D01*
X65278000Y26670085D01*
X65278000Y27813000D01*
X65532000Y27813000D01*
X65532000Y26670085D01*
X65754039Y26548096D01*
X65888087Y26588754D01*
X66142420Y26708963D01*
X66368414Y26876481D01*
X66557385Y27084869D01*
X66702070Y27326119D01*
X66796909Y27590960D01*
X66675624Y27813000D01*
X65532000Y27813000D01*
X65278000Y27813000D01*
X64134376Y27813000D01*
X64013091Y27590960D01*
X61716909Y27590960D01*
X61595624Y27813000D01*
X60452000Y27813000D01*
X60198000Y27813000D01*
X59054376Y27813000D01*
X58933091Y27590960D01*
X56636909Y27590960D01*
X56515624Y27813000D01*
X55372000Y27813000D01*
X55118000Y27813000D01*
X53974376Y27813000D01*
X53853091Y27590960D01*
X45885000Y27590960D01*
X45885000Y28289040D01*
X53853091Y28289040D01*
X53974376Y28067000D01*
X55118000Y28067000D01*
X55118000Y29209915D01*
X55372000Y29209915D01*
X55372000Y28067000D01*
X56515624Y28067000D01*
X56636909Y28289040D01*
X58933091Y28289040D01*
X59054376Y28067000D01*
X60198000Y28067000D01*
X60198000Y29209915D01*
X60452000Y29209915D01*
X60452000Y28067000D01*
X61595624Y28067000D01*
X61716909Y28289040D01*
X64013091Y28289040D01*
X64134376Y28067000D01*
X65278000Y28067000D01*
X65278000Y29209915D01*
X65532000Y29209915D01*
X65532000Y28067000D01*
X66675624Y28067000D01*
X66796909Y28289040D01*
X66702070Y28553881D01*
X66557385Y28795131D01*
X66368414Y29003519D01*
X66142420Y29171037D01*
X65888087Y29291246D01*
X65754039Y29331904D01*
X65532000Y29209915D01*
X65278000Y29209915D01*
X65055961Y29331904D01*
X64921913Y29291246D01*
X64667580Y29171037D01*
X64441586Y29003519D01*
X64252615Y28795131D01*
X64107930Y28553881D01*
X64013091Y28289040D01*
X61716909Y28289040D01*
X61622070Y28553881D01*
X61477385Y28795131D01*
X61288414Y29003519D01*
X61062420Y29171037D01*
X60808087Y29291246D01*
X60674039Y29331904D01*
X60452000Y29209915D01*
X60198000Y29209915D01*
X59975961Y29331904D01*
X59841913Y29291246D01*
X59587580Y29171037D01*
X59361586Y29003519D01*
X59172615Y28795131D01*
X59027930Y28553881D01*
X58933091Y28289040D01*
X56636909Y28289040D01*
X56542070Y28553881D01*
X56397385Y28795131D01*
X56208414Y29003519D01*
X55982420Y29171037D01*
X55728087Y29291246D01*
X55594039Y29331904D01*
X55372000Y29209915D01*
X55118000Y29209915D01*
X54895961Y29331904D01*
X54761913Y29291246D01*
X54507580Y29171037D01*
X54281586Y29003519D01*
X54092615Y28795131D01*
X53947930Y28553881D01*
X53853091Y28289040D01*
X45885000Y28289040D01*
X45885000Y28410491D01*
X45864236Y28621309D01*
X45782182Y28891808D01*
X45648932Y29141101D01*
X45469608Y29359608D01*
X45251101Y29538932D01*
X45001808Y29672182D01*
X44731309Y29754236D01*
X44450000Y29781943D01*
X44168692Y29754236D01*
X43898193Y29672182D01*
X43648900Y29538932D01*
X43430393Y29359608D01*
X43251068Y29141101D01*
X43180000Y29008142D01*
X43108932Y29141101D01*
X42929608Y29359608D01*
X42711101Y29538932D01*
X42461808Y29672182D01*
X42191309Y29754236D01*
X41910000Y29781943D01*
X41628692Y29754236D01*
X41358193Y29672182D01*
X41108900Y29538932D01*
X40890393Y29359608D01*
X40711068Y29141101D01*
X40640000Y29008142D01*
X40568932Y29141101D01*
X40389608Y29359608D01*
X40171101Y29538932D01*
X39931270Y29667124D01*
X46375895Y36111748D01*
X46388329Y36088486D01*
X46632298Y36016903D01*
X47445395Y36830000D01*
X47804605Y36830000D01*
X48617702Y36016903D01*
X48861671Y36088486D01*
X48982571Y36343996D01*
X49051300Y36618184D01*
X49065217Y36900512D01*
X49023787Y37180130D01*
X48928603Y37446292D01*
X48861671Y37571514D01*
X48617702Y37643097D01*
X47804605Y36830000D01*
X47445395Y36830000D01*
X47431253Y36844142D01*
X47610858Y37023747D01*
X47625000Y37009605D01*
X48438097Y37822702D01*
X48414801Y37902100D01*
X49344895Y37902100D01*
X49381000Y37898544D01*
X49417105Y37902100D01*
X49525085Y37912735D01*
X49663633Y37954763D01*
X49791320Y38023013D01*
X49903238Y38114862D01*
X49926259Y38142913D01*
X51270000Y39486654D01*
X51270000Y39478000D01*
X51322350Y39200486D01*
X51427834Y38938517D01*
X51582399Y38702161D01*
X51780105Y38500500D01*
X52013354Y38341285D01*
X52273182Y38230633D01*
X52355961Y38213096D01*
X52578000Y38335085D01*
X52578000Y39878000D01*
X52558000Y39878000D01*
X52558000Y40132000D01*
X52578000Y40132000D01*
X52578000Y40152000D01*
X52832000Y40152000D01*
X52832000Y40132000D01*
X52852000Y40132000D01*
X52852000Y39878000D01*
X52832000Y39878000D01*
X52832000Y38335085D01*
X53054039Y38213096D01*
X53136818Y38230633D01*
X53396646Y38341285D01*
X53629895Y38500500D01*
X53827601Y38702161D01*
X53977735Y38931742D01*
X54046068Y38803900D01*
X54225392Y38585393D01*
X54443899Y38406068D01*
X54693192Y38272818D01*
X54963691Y38190764D01*
X55245000Y38163057D01*
X55526308Y38190764D01*
X55796807Y38272818D01*
X56046100Y38406068D01*
X56264607Y38585392D01*
X56443932Y38803899D01*
X56515000Y38936858D01*
X56586068Y38803900D01*
X56765392Y38585393D01*
X56776066Y38576633D01*
X53364433Y35165000D01*
X48792930Y35165000D01*
X48739637Y35244759D01*
X48539759Y35444637D01*
X48339131Y35578692D01*
X48366514Y35593329D01*
X48438097Y35837298D01*
X47625000Y36650395D01*
X46811903Y35837298D01*
X46883486Y35593329D01*
X46912341Y35579676D01*
X46710241Y35444637D01*
X46510363Y35244759D01*
X46353320Y35009727D01*
X46245147Y34748574D01*
X46190000Y34471335D01*
X46190000Y34188665D01*
X46245147Y33911426D01*
X46353320Y33650273D01*
X46510363Y33415241D01*
X46710241Y33215363D01*
X46945273Y33058320D01*
X47206426Y32950147D01*
X47483665Y32895000D01*
X47766335Y32895000D01*
X48043574Y32950147D01*
X48304727Y33058320D01*
X48539759Y33215363D01*
X48739637Y33415241D01*
X48792930Y33495000D01*
X51457373Y33495000D01*
X51372818Y33336808D01*
X51290764Y33066309D01*
X51270000Y32855492D01*
X51270000Y31914509D01*
X51290764Y31703692D01*
X51372818Y31433193D01*
X51506068Y31183900D01*
X51685392Y30965393D01*
X51903899Y30786068D01*
X52153192Y30652818D01*
X52423691Y30570764D01*
X52705000Y30543057D01*
X52986308Y30570764D01*
X53256807Y30652818D01*
X53506100Y30786068D01*
X53724607Y30965392D01*
X53903932Y31183899D01*
X53975000Y31316858D01*
X54046068Y31183900D01*
X54225392Y30965393D01*
X54443899Y30786068D01*
X54693192Y30652818D01*
X54963691Y30570764D01*
X55245000Y30543057D01*
X55526308Y30570764D01*
X55796807Y30652818D01*
X56046100Y30786068D01*
X56264607Y30965392D01*
X56443932Y31183899D01*
X56515000Y31316858D01*
X56586068Y31183900D01*
X56765392Y30965393D01*
X56983899Y30786068D01*
X57233192Y30652818D01*
X57503691Y30570764D01*
X57785000Y30543057D01*
X58066308Y30570764D01*
X58336807Y30652818D01*
X58586100Y30786068D01*
X58804607Y30965392D01*
X58983932Y31183899D01*
X59055000Y31316858D01*
X59126068Y31183900D01*
X59305392Y30965393D01*
X59523899Y30786068D01*
X59773192Y30652818D01*
X60043691Y30570764D01*
X60325000Y30543057D01*
X60606308Y30570764D01*
X60876807Y30652818D01*
X61126100Y30786068D01*
X61344607Y30965392D01*
X61523932Y31183899D01*
X61595000Y31316858D01*
X61666068Y31183900D01*
X61845392Y30965393D01*
X62063899Y30786068D01*
X62313192Y30652818D01*
X62583691Y30570764D01*
X62865000Y30543057D01*
X63146308Y30570764D01*
X63416807Y30652818D01*
X63666100Y30786068D01*
X63884607Y30965392D01*
X64063932Y31183899D01*
X64135000Y31316858D01*
X64206068Y31183900D01*
X64385392Y30965393D01*
X64603899Y30786068D01*
X64853192Y30652818D01*
X65123691Y30570764D01*
X65405000Y30543057D01*
X65686308Y30570764D01*
X65956807Y30652818D01*
X66206100Y30786068D01*
X66424607Y30965392D01*
X66603932Y31183899D01*
X66675000Y31316858D01*
X66746068Y31183900D01*
X66925392Y30965393D01*
X67143899Y30786068D01*
X67393192Y30652818D01*
X67663691Y30570764D01*
X67945000Y30543057D01*
X68226308Y30570764D01*
X68496807Y30652818D01*
X68746100Y30786068D01*
X68964607Y30965392D01*
X69143932Y31183899D01*
X69215000Y31316858D01*
X69286068Y31183900D01*
X69465392Y30965393D01*
X69683899Y30786068D01*
X69933192Y30652818D01*
X70203691Y30570764D01*
X70485000Y30543057D01*
X70766308Y30570764D01*
X71036807Y30652818D01*
X71286100Y30786068D01*
X71504607Y30965392D01*
X71683932Y31183899D01*
X71817182Y31433192D01*
X71899236Y31703691D01*
X71920000Y31914508D01*
X71920000Y32855491D01*
X71899236Y33066309D01*
X71817182Y33336808D01*
X71683932Y33586101D01*
X71504608Y33804608D01*
X71286101Y33983932D01*
X71036808Y34117182D01*
X70766309Y34199236D01*
X70485000Y34226943D01*
X70203692Y34199236D01*
X69933193Y34117182D01*
X69683900Y33983932D01*
X69465393Y33804608D01*
X69286068Y33586101D01*
X69215000Y33453142D01*
X69143932Y33586101D01*
X68964608Y33804608D01*
X68931184Y33832038D01*
X70679747Y35580600D01*
X72361758Y35580600D01*
X72280147Y35383574D01*
X72225000Y35106335D01*
X72225000Y34823665D01*
X72280147Y34546426D01*
X72388320Y34285273D01*
X72545363Y34050241D01*
X72745241Y33850363D01*
X72980273Y33693320D01*
X73241426Y33585147D01*
X73518665Y33530000D01*
X73801335Y33530000D01*
X74078574Y33585147D01*
X74339727Y33693320D01*
X74574759Y33850363D01*
X74774637Y34050241D01*
X74931680Y34285273D01*
X75039853Y34546426D01*
X75095000Y34823665D01*
X75095000Y35106335D01*
X75039853Y35383574D01*
X74931680Y35644727D01*
X74774637Y35879759D01*
X74726521Y35927875D01*
X75255193Y36456546D01*
X75283238Y36479562D01*
X75375087Y36591480D01*
X75443337Y36719167D01*
X75485365Y36857715D01*
X75496000Y36965695D01*
X75496000Y36965704D01*
X75499555Y37001799D01*
X75496000Y37037894D01*
X75496000Y39958795D01*
X75499556Y39994900D01*
X75485365Y40138985D01*
X75443337Y40277534D01*
X75375087Y40405220D01*
X75306253Y40489094D01*
X75306250Y40489097D01*
X75283237Y40517138D01*
X75255198Y40540149D01*
X68680000Y47115346D01*
X68680000Y50231928D01*
X68704300Y50231928D01*
X68704300Y48611719D01*
X68700260Y48570700D01*
X68704300Y48529682D01*
X68716382Y48407012D01*
X68764128Y48249614D01*
X68841664Y48104555D01*
X68946009Y47977409D01*
X68977879Y47951254D01*
X69703715Y47225418D01*
X69685000Y47131335D01*
X69685000Y46848665D01*
X69740147Y46571426D01*
X69848320Y46310273D01*
X70005363Y46075241D01*
X70205241Y45875363D01*
X70440273Y45718320D01*
X70701426Y45610147D01*
X70978665Y45555000D01*
X71261335Y45555000D01*
X71538574Y45610147D01*
X71799727Y45718320D01*
X72034759Y45875363D01*
X72234637Y46075241D01*
X72391680Y46310273D01*
X72499853Y46571426D01*
X72555000Y46848665D01*
X72555000Y47131335D01*
X72499853Y47408574D01*
X72391680Y47669727D01*
X72234637Y47904759D01*
X72034759Y48104637D01*
X71834131Y48238692D01*
X71861514Y48253329D01*
X71933097Y48497298D01*
X71120000Y49310395D01*
X71105858Y49296252D01*
X70926253Y49475857D01*
X70940395Y49490000D01*
X71299605Y49490000D01*
X72112702Y48676903D01*
X72356671Y48748486D01*
X72477571Y49003996D01*
X72546300Y49278184D01*
X72560217Y49560512D01*
X72518787Y49840130D01*
X72423603Y50106292D01*
X72356671Y50231514D01*
X72112702Y50303097D01*
X71299605Y49490000D01*
X70940395Y49490000D01*
X70926253Y49504142D01*
X71105858Y49683747D01*
X71120000Y49669605D01*
X71933097Y50482702D01*
X71861514Y50726671D01*
X71606004Y50847571D01*
X71331816Y50916300D01*
X71049488Y50930217D01*
X70769870Y50888787D01*
X70503708Y50793603D01*
X70378486Y50726671D01*
X70374300Y50712404D01*
X70374300Y53253382D01*
X70378340Y53294401D01*
X70362218Y53458089D01*
X70314472Y53615487D01*
X70236936Y53760546D01*
X70202766Y53802182D01*
X70132591Y53887691D01*
X70100726Y53913841D01*
X69007934Y55006633D01*
X69018607Y55015392D01*
X69197932Y55233899D01*
X69331182Y55483192D01*
X69413236Y55753691D01*
X69434000Y55964508D01*
X69434000Y56905491D01*
X69413236Y57116309D01*
X69331182Y57386808D01*
X69197932Y57636101D01*
X69018608Y57854608D01*
X68800101Y58033932D01*
X68550808Y58167182D01*
X68280309Y58249236D01*
X67999000Y58276943D01*
X67717692Y58249236D01*
X67447193Y58167182D01*
X67197900Y58033932D01*
X66979393Y57854608D01*
X66800068Y57636101D01*
X66729000Y57503142D01*
X66657932Y57636101D01*
X66478608Y57854608D01*
X66260101Y58033932D01*
X66010808Y58167182D01*
X65740309Y58249236D01*
X65459000Y58276943D01*
X65177692Y58249236D01*
X64907193Y58167182D01*
X64657900Y58033932D01*
X64439393Y57854608D01*
X64260068Y57636101D01*
X64189000Y57503142D01*
X64117932Y57636101D01*
X63938608Y57854608D01*
X63720101Y58033932D01*
X63470808Y58167182D01*
X63200309Y58249236D01*
X62919000Y58276943D01*
X62637692Y58249236D01*
X62367193Y58167182D01*
X62117900Y58033932D01*
X61899393Y57854608D01*
X61720068Y57636101D01*
X61649000Y57503142D01*
X61577932Y57636101D01*
X61398608Y57854608D01*
X61180101Y58033932D01*
X60930808Y58167182D01*
X60660309Y58249236D01*
X60379000Y58276943D01*
X60097692Y58249236D01*
X59844000Y58172280D01*
X59844000Y59196335D01*
X69939000Y59196335D01*
X69939000Y58913665D01*
X69994147Y58636426D01*
X70102320Y58375273D01*
X70259363Y58140241D01*
X70459241Y57940363D01*
X70694273Y57783320D01*
X70955426Y57675147D01*
X71232665Y57620000D01*
X71515335Y57620000D01*
X71792574Y57675147D01*
X72053727Y57783320D01*
X72288759Y57940363D01*
X72488637Y58140241D01*
X72645680Y58375273D01*
X72753853Y58636426D01*
X72809000Y58913665D01*
X72809000Y59196335D01*
X72753853Y59473574D01*
X72645680Y59734727D01*
X72488637Y59969759D01*
X72288759Y60169637D01*
X72088131Y60303692D01*
X72115514Y60318329D01*
X72187097Y60562298D01*
X71374000Y61375395D01*
X70560903Y60562298D01*
X70632486Y60318329D01*
X70661341Y60304676D01*
X70459241Y60169637D01*
X70259363Y59969759D01*
X70102320Y59734727D01*
X69994147Y59473574D01*
X69939000Y59196335D01*
X59844000Y59196335D01*
X59844000Y59256895D01*
X59847556Y59293000D01*
X59833365Y59437085D01*
X59791337Y59575634D01*
X59723087Y59703320D01*
X59654253Y59787194D01*
X59654250Y59787197D01*
X59631237Y59815238D01*
X59603197Y59838250D01*
X57956959Y61484488D01*
X69933783Y61484488D01*
X69975213Y61204870D01*
X70070397Y60938708D01*
X70137329Y60813486D01*
X70381298Y60741903D01*
X71194395Y61555000D01*
X71553605Y61555000D01*
X72366702Y60741903D01*
X72610671Y60813486D01*
X72731571Y61068996D01*
X72800300Y61343184D01*
X72814217Y61625512D01*
X72772787Y61905130D01*
X72677603Y62171292D01*
X72610671Y62296514D01*
X72366702Y62368097D01*
X71553605Y61555000D01*
X71194395Y61555000D01*
X70381298Y62368097D01*
X70137329Y62296514D01*
X70016429Y62041004D01*
X69947700Y61766816D01*
X69933783Y61484488D01*
X57956959Y61484488D01*
X57217600Y62223846D01*
X57217600Y62360016D01*
X57287192Y62322818D01*
X57557691Y62240764D01*
X57839000Y62213057D01*
X58120308Y62240764D01*
X58390807Y62322818D01*
X58640100Y62456068D01*
X58858607Y62635392D01*
X59037932Y62853899D01*
X59109000Y62986858D01*
X59180068Y62853900D01*
X59359392Y62635393D01*
X59577899Y62456068D01*
X59827192Y62322818D01*
X60097691Y62240764D01*
X60379000Y62213057D01*
X60660308Y62240764D01*
X60930807Y62322818D01*
X61180100Y62456068D01*
X61398607Y62635392D01*
X61577932Y62853899D01*
X61649000Y62986858D01*
X61720068Y62853900D01*
X61899392Y62635393D01*
X62117899Y62456068D01*
X62367192Y62322818D01*
X62637691Y62240764D01*
X62919000Y62213057D01*
X63200308Y62240764D01*
X63470807Y62322818D01*
X63720100Y62456068D01*
X63938607Y62635392D01*
X64117932Y62853899D01*
X64189000Y62986858D01*
X64260068Y62853900D01*
X64439392Y62635393D01*
X64657899Y62456068D01*
X64907192Y62322818D01*
X65177691Y62240764D01*
X65459000Y62213057D01*
X65740308Y62240764D01*
X66010807Y62322818D01*
X66260100Y62456068D01*
X66478607Y62635392D01*
X66571419Y62748483D01*
X66573188Y62730518D01*
X66609498Y62610820D01*
X66668463Y62500506D01*
X66747815Y62403815D01*
X66844506Y62324463D01*
X66954820Y62265498D01*
X67074518Y62229188D01*
X67199000Y62216928D01*
X68799000Y62216928D01*
X68923482Y62229188D01*
X69043180Y62265498D01*
X69153494Y62324463D01*
X69250185Y62403815D01*
X69329537Y62500506D01*
X69354764Y62547702D01*
X70560903Y62547702D01*
X71374000Y61734605D01*
X72187097Y62547702D01*
X72115514Y62791671D01*
X71860004Y62912571D01*
X71585816Y62981300D01*
X71303488Y62995217D01*
X71023870Y62953787D01*
X70757708Y62858603D01*
X70632486Y62791671D01*
X70560903Y62547702D01*
X69354764Y62547702D01*
X69388502Y62610820D01*
X69424812Y62730518D01*
X69437072Y62855000D01*
X69437072Y65255000D01*
X69424812Y65379482D01*
X69388502Y65499180D01*
X69329537Y65609494D01*
X69250185Y65706185D01*
X69153494Y65785537D01*
X69043180Y65844502D01*
X68923482Y65880812D01*
X68799000Y65893072D01*
X68651865Y65893072D01*
X68613087Y65965620D01*
X68544253Y66049494D01*
X68521238Y66077538D01*
X68493193Y66100554D01*
X67845932Y66747815D01*
X67945000Y66738057D01*
X68226308Y66765764D01*
X68496807Y66847818D01*
X68746100Y66981068D01*
X68964607Y67160392D01*
X69143932Y67378899D01*
X69277182Y67628192D01*
X69359236Y67898691D01*
X69380000Y68109508D01*
X69380000Y69050491D01*
X69359236Y69261309D01*
X69277182Y69531808D01*
X69143932Y69781101D01*
X68964608Y69999608D01*
X68746101Y70178932D01*
X68496808Y70312182D01*
X68226309Y70394236D01*
X67945000Y70421943D01*
X67663692Y70394236D01*
X67579700Y70368758D01*
X67579700Y71261335D01*
X69685000Y71261335D01*
X69685000Y70978665D01*
X69740147Y70701426D01*
X69848320Y70440273D01*
X70005363Y70205241D01*
X70205241Y70005363D01*
X70440273Y69848320D01*
X70701426Y69740147D01*
X70978665Y69685000D01*
X71261335Y69685000D01*
X71538574Y69740147D01*
X71799727Y69848320D01*
X72034759Y70005363D01*
X72234637Y70205241D01*
X72391680Y70440273D01*
X72499853Y70701426D01*
X72555000Y70978665D01*
X72555000Y71261335D01*
X72499853Y71538574D01*
X72391680Y71799727D01*
X72234637Y72034759D01*
X72034759Y72234637D01*
X71834131Y72368692D01*
X71861514Y72383329D01*
X71933097Y72627298D01*
X71120000Y73440395D01*
X70306903Y72627298D01*
X70378486Y72383329D01*
X70407341Y72369676D01*
X70205241Y72234637D01*
X70005363Y72034759D01*
X69848320Y71799727D01*
X69740147Y71538574D01*
X69685000Y71261335D01*
X67579700Y71261335D01*
X67579700Y73294954D01*
X67834234Y73549488D01*
X69679783Y73549488D01*
X69721213Y73269870D01*
X69816397Y73003708D01*
X69883329Y72878486D01*
X70127298Y72806903D01*
X70940395Y73620000D01*
X71299605Y73620000D01*
X72112702Y72806903D01*
X72356671Y72878486D01*
X72477571Y73133996D01*
X72546300Y73408184D01*
X72560217Y73690512D01*
X72518787Y73970130D01*
X72423603Y74236292D01*
X72356671Y74361514D01*
X72112702Y74433097D01*
X71299605Y73620000D01*
X70940395Y73620000D01*
X70127298Y74433097D01*
X69883329Y74361514D01*
X69762429Y74106004D01*
X69693700Y73831816D01*
X69679783Y73549488D01*
X67834234Y73549488D01*
X68439193Y74154446D01*
X68467238Y74177462D01*
X68559087Y74289380D01*
X68597865Y74361928D01*
X68745000Y74361928D01*
X68869482Y74374188D01*
X68989180Y74410498D01*
X69099494Y74469463D01*
X69196185Y74548815D01*
X69248615Y74612702D01*
X70306903Y74612702D01*
X71120000Y73799605D01*
X71933097Y74612702D01*
X71861514Y74856671D01*
X71606004Y74977571D01*
X71331816Y75046300D01*
X71049488Y75060217D01*
X70769870Y75018787D01*
X70503708Y74923603D01*
X70378486Y74856671D01*
X70306903Y74612702D01*
X69248615Y74612702D01*
X69275537Y74645506D01*
X69334502Y74755820D01*
X69370812Y74875518D01*
X69383072Y75000000D01*
X69383072Y77400000D01*
X69370812Y77524482D01*
X69334502Y77644180D01*
X69275537Y77754494D01*
X69196185Y77851185D01*
X69099494Y77930537D01*
X68989180Y77989502D01*
X68869482Y78025812D01*
X68745000Y78038072D01*
X68597865Y78038072D01*
X68559087Y78110620D01*
X68467238Y78222538D01*
X68439193Y78245554D01*
X63464619Y83220128D01*
X71765000Y83220128D01*
X71765000Y82779872D01*
X71850890Y82348075D01*
X72019369Y81941331D01*
X72263962Y81575271D01*
X72575271Y81263962D01*
X72941331Y81019369D01*
X73348075Y80850890D01*
X73779872Y80765000D01*
X74220128Y80765000D01*
X74651925Y80850890D01*
X75058669Y81019369D01*
X75424729Y81263962D01*
X75736038Y81575271D01*
X75980631Y81941331D01*
X76149110Y82348075D01*
X76235000Y82779872D01*
X76235000Y83220128D01*
X76149110Y83651925D01*
X75980631Y84058669D01*
X75736038Y84424729D01*
X75424729Y84736038D01*
X75058669Y84980631D01*
X74651925Y85149110D01*
X74220128Y85235000D01*
X73779872Y85235000D01*
X73348075Y85149110D01*
X72941331Y84980631D01*
X72575271Y84736038D01*
X72263962Y84424729D01*
X72019369Y84058669D01*
X71850890Y83651925D01*
X71765000Y83220128D01*
X63464619Y83220128D01*
X57822818Y88861928D01*
X59310000Y88861928D01*
X59422420Y88873000D01*
X59957580Y88873000D01*
X60070000Y88861928D01*
X61850000Y88861928D01*
X61962420Y88873000D01*
X62854033Y88873000D01*
X62904052Y88812052D01*
X63004550Y88729575D01*
X63119207Y88668290D01*
X63243617Y88630550D01*
X63340581Y88621000D01*
X63373000Y88617807D01*
X63405419Y88621000D01*
X78334045Y88621000D01*
X78339956Y660000D01*
X660000Y660000D01*
X660000Y5220128D01*
X2765000Y5220128D01*
X2765000Y4779872D01*
X2850890Y4348075D01*
X3019369Y3941331D01*
X3263962Y3575271D01*
X3575271Y3263962D01*
X3941331Y3019369D01*
X4348075Y2850890D01*
X4779872Y2765000D01*
X5220128Y2765000D01*
X5651925Y2850890D01*
X6058669Y3019369D01*
X6424729Y3263962D01*
X6736038Y3575271D01*
X6980631Y3941331D01*
X7149110Y4348075D01*
X7235000Y4779872D01*
X7235000Y5220128D01*
X71765000Y5220128D01*
X71765000Y4779872D01*
X71850890Y4348075D01*
X72019369Y3941331D01*
X72263962Y3575271D01*
X72575271Y3263962D01*
X72941331Y3019369D01*
X73348075Y2850890D01*
X73779872Y2765000D01*
X74220128Y2765000D01*
X74651925Y2850890D01*
X75058669Y3019369D01*
X75424729Y3263962D01*
X75736038Y3575271D01*
X75980631Y3941331D01*
X76149110Y4348075D01*
X76235000Y4779872D01*
X76235000Y5220128D01*
X76149110Y5651925D01*
X75980631Y6058669D01*
X75736038Y6424729D01*
X75424729Y6736038D01*
X75058669Y6980631D01*
X74651925Y7149110D01*
X74220128Y7235000D01*
X73779872Y7235000D01*
X73348075Y7149110D01*
X72941331Y6980631D01*
X72575271Y6736038D01*
X72263962Y6424729D01*
X72019369Y6058669D01*
X71850890Y5651925D01*
X71765000Y5220128D01*
X7235000Y5220128D01*
X7149110Y5651925D01*
X6980631Y6058669D01*
X6736038Y6424729D01*
X6424729Y6736038D01*
X6058669Y6980631D01*
X5651925Y7149110D01*
X5220128Y7235000D01*
X4779872Y7235000D01*
X4348075Y7149110D01*
X3941331Y6980631D01*
X3575271Y6736038D01*
X3263962Y6424729D01*
X3019369Y6058669D01*
X2850890Y5651925D01*
X2765000Y5220128D01*
X660000Y5220128D01*
X660000Y22733000D01*
X9995000Y22733000D01*
X9995000Y22333000D01*
X10047350Y22055486D01*
X10152834Y21793517D01*
X10307399Y21557161D01*
X10505105Y21355500D01*
X10738354Y21196285D01*
X10998182Y21085633D01*
X11080961Y21068096D01*
X11303000Y21190085D01*
X11303000Y22733000D01*
X9995000Y22733000D01*
X660000Y22733000D01*
X660000Y23387000D01*
X9995000Y23387000D01*
X9995000Y22987000D01*
X11303000Y22987000D01*
X11303000Y24529915D01*
X11080961Y24651904D01*
X10998182Y24634367D01*
X10738354Y24523715D01*
X10505105Y24364500D01*
X10307399Y24162839D01*
X10152834Y23926483D01*
X10047350Y23664514D01*
X9995000Y23387000D01*
X660000Y23387000D01*
X660000Y43053000D01*
X9995000Y43053000D01*
X9995000Y42653000D01*
X10047350Y42375486D01*
X10152834Y42113517D01*
X10307399Y41877161D01*
X10505105Y41675500D01*
X10738354Y41516285D01*
X10998182Y41405633D01*
X11080961Y41388096D01*
X11303000Y41510085D01*
X11303000Y43053000D01*
X9995000Y43053000D01*
X660000Y43053000D01*
X660000Y43707000D01*
X9995000Y43707000D01*
X9995000Y43307000D01*
X11303000Y43307000D01*
X11303000Y44849915D01*
X11080961Y44971904D01*
X10998182Y44954367D01*
X10738354Y44843715D01*
X10505105Y44684500D01*
X10307399Y44482839D01*
X10152834Y44246483D01*
X10047350Y43984514D01*
X9995000Y43707000D01*
X660000Y43707000D01*
X660000Y51943000D01*
X51270000Y51943000D01*
X51270000Y51543000D01*
X51322350Y51265486D01*
X51427834Y51003517D01*
X51582399Y50767161D01*
X51780105Y50565500D01*
X52013354Y50406285D01*
X52273182Y50295633D01*
X52355961Y50278096D01*
X52578000Y50400085D01*
X52578000Y51943000D01*
X51270000Y51943000D01*
X660000Y51943000D01*
X660000Y52597000D01*
X51270000Y52597000D01*
X51270000Y52197000D01*
X52578000Y52197000D01*
X52578000Y53739915D01*
X52355961Y53861904D01*
X52273182Y53844367D01*
X52013354Y53733715D01*
X51780105Y53574500D01*
X51582399Y53372839D01*
X51427834Y53136483D01*
X51322350Y52874514D01*
X51270000Y52597000D01*
X660000Y52597000D01*
X660000Y54791335D01*
X46190000Y54791335D01*
X46190000Y54508665D01*
X46245147Y54231426D01*
X46353320Y53970273D01*
X46510363Y53735241D01*
X46710241Y53535363D01*
X46945273Y53378320D01*
X47206426Y53270147D01*
X47483665Y53215000D01*
X47766335Y53215000D01*
X48043574Y53270147D01*
X48304727Y53378320D01*
X48539759Y53535363D01*
X48739637Y53735241D01*
X48896680Y53970273D01*
X49004853Y54231426D01*
X49060000Y54508665D01*
X49060000Y54791335D01*
X49004853Y55068574D01*
X48896680Y55329727D01*
X48739637Y55564759D01*
X48539759Y55764637D01*
X48339131Y55898692D01*
X48366514Y55913329D01*
X48438097Y56157298D01*
X47625000Y56970395D01*
X46811903Y56157298D01*
X46883486Y55913329D01*
X46912341Y55899676D01*
X46710241Y55764637D01*
X46510363Y55564759D01*
X46353320Y55329727D01*
X46245147Y55068574D01*
X46190000Y54791335D01*
X660000Y54791335D01*
X660000Y57079488D01*
X46184783Y57079488D01*
X46226213Y56799870D01*
X46321397Y56533708D01*
X46388329Y56408486D01*
X46632298Y56336903D01*
X47445395Y57150000D01*
X47804605Y57150000D01*
X48617702Y56336903D01*
X48861671Y56408486D01*
X48982571Y56663996D01*
X49043105Y56905492D01*
X51324000Y56905492D01*
X51324000Y55964509D01*
X51344764Y55753692D01*
X51426818Y55483193D01*
X51560068Y55233900D01*
X51739392Y55015393D01*
X51957899Y54836068D01*
X52207192Y54702818D01*
X52477691Y54620764D01*
X52759000Y54593057D01*
X53040308Y54620764D01*
X53310807Y54702818D01*
X53560100Y54836068D01*
X53778607Y55015392D01*
X53957932Y55233899D01*
X54026265Y55361741D01*
X54176399Y55132161D01*
X54374105Y54930500D01*
X54607354Y54771285D01*
X54867182Y54660633D01*
X54949961Y54643096D01*
X55172000Y54765085D01*
X55172000Y56308000D01*
X55426000Y56308000D01*
X55426000Y54765085D01*
X55648039Y54643096D01*
X55730818Y54660633D01*
X55990646Y54771285D01*
X56223895Y54930500D01*
X56421601Y55132161D01*
X56569000Y55357559D01*
X56716399Y55132161D01*
X56914105Y54930500D01*
X57147354Y54771285D01*
X57407182Y54660633D01*
X57489961Y54643096D01*
X57712000Y54765085D01*
X57712000Y56308000D01*
X55426000Y56308000D01*
X55172000Y56308000D01*
X55152000Y56308000D01*
X55152000Y56562000D01*
X55172000Y56562000D01*
X55172000Y58104915D01*
X55426000Y58104915D01*
X55426000Y56562000D01*
X57712000Y56562000D01*
X57712000Y58104915D01*
X57489961Y58226904D01*
X57407182Y58209367D01*
X57147354Y58098715D01*
X56914105Y57939500D01*
X56716399Y57737839D01*
X56569000Y57512441D01*
X56421601Y57737839D01*
X56223895Y57939500D01*
X55990646Y58098715D01*
X55730818Y58209367D01*
X55648039Y58226904D01*
X55426000Y58104915D01*
X55172000Y58104915D01*
X54949961Y58226904D01*
X54867182Y58209367D01*
X54607354Y58098715D01*
X54374105Y57939500D01*
X54176399Y57737839D01*
X54026265Y57508259D01*
X53957932Y57636101D01*
X53778608Y57854608D01*
X53560101Y58033932D01*
X53310808Y58167182D01*
X53040309Y58249236D01*
X52759000Y58276943D01*
X52477692Y58249236D01*
X52207193Y58167182D01*
X51957900Y58033932D01*
X51739393Y57854608D01*
X51560068Y57636101D01*
X51426818Y57386808D01*
X51344764Y57116309D01*
X51324000Y56905492D01*
X49043105Y56905492D01*
X49051300Y56938184D01*
X49065217Y57220512D01*
X49023787Y57500130D01*
X48928603Y57766292D01*
X48861671Y57891514D01*
X48617702Y57963097D01*
X47804605Y57150000D01*
X47445395Y57150000D01*
X46632298Y57963097D01*
X46388329Y57891514D01*
X46267429Y57636004D01*
X46198700Y57361816D01*
X46184783Y57079488D01*
X660000Y57079488D01*
X660000Y58142702D01*
X46811903Y58142702D01*
X47625000Y57329605D01*
X48438097Y58142702D01*
X48366514Y58386671D01*
X48111004Y58507571D01*
X47836816Y58576300D01*
X47554488Y58590217D01*
X47274870Y58548787D01*
X47008708Y58453603D01*
X46883486Y58386671D01*
X46811903Y58142702D01*
X660000Y58142702D01*
X660000Y63373000D01*
X9995000Y63373000D01*
X9995000Y62973000D01*
X10047350Y62695486D01*
X10152834Y62433517D01*
X10307399Y62197161D01*
X10505105Y61995500D01*
X10738354Y61836285D01*
X10998182Y61725633D01*
X11080961Y61708096D01*
X11303000Y61830085D01*
X11303000Y63373000D01*
X9995000Y63373000D01*
X660000Y63373000D01*
X660000Y64027000D01*
X9995000Y64027000D01*
X9995000Y63627000D01*
X11303000Y63627000D01*
X11303000Y65169915D01*
X11080961Y65291904D01*
X10998182Y65274367D01*
X10738354Y65163715D01*
X10505105Y65004500D01*
X10307399Y64802839D01*
X10152834Y64566483D01*
X10047350Y64304514D01*
X9995000Y64027000D01*
X660000Y64027000D01*
X660000Y83220128D01*
X2765000Y83220128D01*
X2765000Y82779872D01*
X2850890Y82348075D01*
X3019369Y81941331D01*
X3263962Y81575271D01*
X3575271Y81263962D01*
X3941331Y81019369D01*
X4348075Y80850890D01*
X4779872Y80765000D01*
X5220128Y80765000D01*
X5651925Y80850890D01*
X6058669Y81019369D01*
X6424729Y81263962D01*
X6736038Y81575271D01*
X6980631Y81941331D01*
X7149110Y82348075D01*
X7235000Y82779872D01*
X7235000Y83220128D01*
X7149110Y83651925D01*
X7132097Y83693000D01*
X9995000Y83693000D01*
X9995000Y83293000D01*
X10047350Y83015486D01*
X10152834Y82753517D01*
X10307399Y82517161D01*
X10505105Y82315500D01*
X10738354Y82156285D01*
X10998182Y82045633D01*
X11080961Y82028096D01*
X11303000Y82150085D01*
X11303000Y83693000D01*
X9995000Y83693000D01*
X7132097Y83693000D01*
X6980631Y84058669D01*
X6787975Y84347000D01*
X9995000Y84347000D01*
X9995000Y83947000D01*
X11303000Y83947000D01*
X11303000Y85489915D01*
X11080961Y85611904D01*
X10998182Y85594367D01*
X10738354Y85483715D01*
X10505105Y85324500D01*
X10307399Y85122839D01*
X10152834Y84886483D01*
X10047350Y84624514D01*
X9995000Y84347000D01*
X6787975Y84347000D01*
X6736038Y84424729D01*
X6424729Y84736038D01*
X6058669Y84980631D01*
X5651925Y85149110D01*
X5220128Y85235000D01*
X4779872Y85235000D01*
X4348075Y85149110D01*
X3941331Y84980631D01*
X3575271Y84736038D01*
X3263962Y84424729D01*
X3019369Y84058669D01*
X2850890Y83651925D01*
X2765000Y83220128D01*
X660000Y83220128D01*
X660000Y88621000D01*
X15334581Y88621000D01*
X15367000Y88617807D01*
X15399419Y88621000D01*
X15496383Y88630550D01*
X15620793Y88668290D01*
X15735450Y88729575D01*
X15835948Y88812052D01*
X15885967Y88873000D01*
X16777580Y88873000D01*
X16890000Y88861928D01*
G04 #@! TA.AperFunction,Conductor*
D20*
G36*
X16890000Y88861928D02*
G01*
X17494250Y88865000D01*
X17502250Y88873000D01*
X18057750Y88873000D01*
X18065750Y88865000D01*
X18670000Y88861928D01*
X18782420Y88873000D01*
X18953854Y88873000D01*
X18555808Y88474954D01*
X18527763Y88451938D01*
X18435914Y88340020D01*
X18395815Y88265000D01*
X18367664Y88212333D01*
X18325635Y88073785D01*
X18311444Y87929700D01*
X18315001Y87893585D01*
X18315000Y85454263D01*
X18248900Y85418932D01*
X18030393Y85239608D01*
X17851068Y85021101D01*
X17780000Y84888142D01*
X17708932Y85021101D01*
X17529608Y85239608D01*
X17311101Y85418932D01*
X17061808Y85552182D01*
X16791309Y85634236D01*
X16510000Y85661943D01*
X16228692Y85634236D01*
X15958193Y85552182D01*
X15708900Y85418932D01*
X15490393Y85239608D01*
X15311068Y85021101D01*
X15240000Y84888142D01*
X15168932Y85021101D01*
X14989608Y85239608D01*
X14771101Y85418932D01*
X14521808Y85552182D01*
X14251309Y85634236D01*
X13970000Y85661943D01*
X13688692Y85634236D01*
X13418193Y85552182D01*
X13168900Y85418932D01*
X12950393Y85239608D01*
X12771068Y85021101D01*
X12702735Y84893259D01*
X12552601Y85122839D01*
X12354895Y85324500D01*
X12121646Y85483715D01*
X11861818Y85594367D01*
X11779039Y85611904D01*
X11557000Y85489915D01*
X11557000Y83947000D01*
X11577000Y83947000D01*
X11577000Y83693000D01*
X11557000Y83693000D01*
X11557000Y82150085D01*
X11779039Y82028096D01*
X11861818Y82045633D01*
X12121646Y82156285D01*
X12354895Y82315500D01*
X12552601Y82517161D01*
X12702735Y82746742D01*
X12771068Y82618900D01*
X12950392Y82400393D01*
X13168899Y82221068D01*
X13245174Y82180298D01*
X13245635Y82175615D01*
X13287664Y82037067D01*
X13355914Y81909380D01*
X13447763Y81797462D01*
X13475807Y81774447D01*
X13838641Y81411613D01*
X13861662Y81383562D01*
X13973580Y81291713D01*
X14101267Y81223463D01*
X14197786Y81194184D01*
X14239814Y81181435D01*
X14383900Y81167244D01*
X14420005Y81170800D01*
X21598595Y81170800D01*
X21634700Y81167244D01*
X21670805Y81170800D01*
X21778785Y81181435D01*
X21917333Y81223463D01*
X22045020Y81291713D01*
X22156938Y81383562D01*
X22179958Y81411612D01*
X23142439Y82374092D01*
X23328899Y82221068D01*
X23420213Y82172260D01*
X12063254Y70815300D01*
X11466105Y70815300D01*
X11430000Y70818856D01*
X11393895Y70815300D01*
X11285915Y70804665D01*
X11147367Y70762637D01*
X11019680Y70694387D01*
X10907762Y70602538D01*
X10815913Y70490620D01*
X10747663Y70362933D01*
X10705635Y70224385D01*
X10705174Y70219701D01*
X10628900Y70178932D01*
X10410393Y69999608D01*
X10231068Y69781101D01*
X10097818Y69531808D01*
X10015764Y69261309D01*
X9995000Y69050492D01*
X9995000Y68109509D01*
X10015764Y67898692D01*
X10097818Y67628193D01*
X10231068Y67378900D01*
X10410392Y67160393D01*
X10628899Y66981068D01*
X10878192Y66847818D01*
X11148691Y66765764D01*
X11430000Y66738057D01*
X11711308Y66765764D01*
X11981807Y66847818D01*
X12231100Y66981068D01*
X12449607Y67160392D01*
X12628932Y67378899D01*
X12700000Y67511858D01*
X12771068Y67378900D01*
X12950392Y67160393D01*
X13168899Y66981068D01*
X13418192Y66847818D01*
X13688691Y66765764D01*
X13970000Y66738057D01*
X14251308Y66765764D01*
X14521807Y66847818D01*
X14771100Y66981068D01*
X14989607Y67160392D01*
X15168932Y67378899D01*
X15240000Y67511858D01*
X15311068Y67378900D01*
X15490392Y67160393D01*
X15708899Y66981068D01*
X15958192Y66847818D01*
X16228691Y66765764D01*
X16510000Y66738057D01*
X16791308Y66765764D01*
X17061807Y66847818D01*
X17311100Y66981068D01*
X17529607Y67160392D01*
X17708932Y67378899D01*
X17780000Y67511858D01*
X17851068Y67378900D01*
X18030392Y67160393D01*
X18248899Y66981068D01*
X18498192Y66847818D01*
X18768691Y66765764D01*
X19050000Y66738057D01*
X19331308Y66765764D01*
X19601807Y66847818D01*
X19851100Y66981068D01*
X20069607Y67160392D01*
X20248932Y67378899D01*
X20320000Y67511858D01*
X20391068Y67378900D01*
X20570392Y67160393D01*
X20788899Y66981068D01*
X21038192Y66847818D01*
X21308691Y66765764D01*
X21590000Y66738057D01*
X21871308Y66765764D01*
X22141807Y66847818D01*
X22289800Y66926922D01*
X22289800Y66141605D01*
X22286244Y66105500D01*
X22300435Y65961415D01*
X22305597Y65944400D01*
X22342463Y65822868D01*
X22410713Y65695181D01*
X22502562Y65583263D01*
X22530608Y65560246D01*
X23143816Y64947037D01*
X23110393Y64919608D01*
X22931068Y64701101D01*
X22860000Y64568142D01*
X22788932Y64701101D01*
X22609608Y64919608D01*
X22391101Y65098932D01*
X22141808Y65232182D01*
X21871309Y65314236D01*
X21590000Y65341943D01*
X21308692Y65314236D01*
X21038193Y65232182D01*
X20788900Y65098932D01*
X20570393Y64919608D01*
X20391068Y64701101D01*
X20320000Y64568142D01*
X20248932Y64701101D01*
X20069608Y64919608D01*
X19851101Y65098932D01*
X19601808Y65232182D01*
X19331309Y65314236D01*
X19050000Y65341943D01*
X18768692Y65314236D01*
X18498193Y65232182D01*
X18248900Y65098932D01*
X18030393Y64919608D01*
X17851068Y64701101D01*
X17780000Y64568142D01*
X17708932Y64701101D01*
X17529608Y64919608D01*
X17311101Y65098932D01*
X17061808Y65232182D01*
X16791309Y65314236D01*
X16510000Y65341943D01*
X16228692Y65314236D01*
X15958193Y65232182D01*
X15708900Y65098932D01*
X15490393Y64919608D01*
X15311068Y64701101D01*
X15240000Y64568142D01*
X15168932Y64701101D01*
X14989608Y64919608D01*
X14771101Y65098932D01*
X14521808Y65232182D01*
X14251309Y65314236D01*
X13970000Y65341943D01*
X13688692Y65314236D01*
X13418193Y65232182D01*
X13168900Y65098932D01*
X12950393Y64919608D01*
X12771068Y64701101D01*
X12702735Y64573259D01*
X12552601Y64802839D01*
X12354895Y65004500D01*
X12121646Y65163715D01*
X11861818Y65274367D01*
X11779039Y65291904D01*
X11557000Y65169915D01*
X11557000Y63627000D01*
X11577000Y63627000D01*
X11577000Y63373000D01*
X11557000Y63373000D01*
X11557000Y61830085D01*
X11779039Y61708096D01*
X11861818Y61725633D01*
X12121646Y61836285D01*
X12354895Y61995500D01*
X12552601Y62197161D01*
X12702735Y62426742D01*
X12771068Y62298900D01*
X12950392Y62080393D01*
X13168899Y61901068D01*
X13418192Y61767818D01*
X13688691Y61685764D01*
X13970000Y61658057D01*
X14251308Y61685764D01*
X14521807Y61767818D01*
X14771100Y61901068D01*
X14989607Y62080392D01*
X15168932Y62298899D01*
X15240000Y62431858D01*
X15311068Y62298900D01*
X15490392Y62080393D01*
X15708899Y61901068D01*
X15958192Y61767818D01*
X16228691Y61685764D01*
X16510000Y61658057D01*
X16791308Y61685764D01*
X17061807Y61767818D01*
X17311100Y61901068D01*
X17529607Y62080392D01*
X17708932Y62298899D01*
X17780000Y62431858D01*
X17851068Y62298900D01*
X18030392Y62080393D01*
X18248899Y61901068D01*
X18498192Y61767818D01*
X18768691Y61685764D01*
X19050000Y61658057D01*
X19331308Y61685764D01*
X19601807Y61767818D01*
X19851100Y61901068D01*
X20069607Y62080392D01*
X20248932Y62298899D01*
X20320000Y62431858D01*
X20391068Y62298900D01*
X20570392Y62080393D01*
X20788899Y61901068D01*
X21038192Y61767818D01*
X21308691Y61685764D01*
X21590000Y61658057D01*
X21871308Y61685764D01*
X22141807Y61767818D01*
X22391100Y61901068D01*
X22609607Y62080392D01*
X22788932Y62298899D01*
X22860000Y62431858D01*
X22931068Y62298900D01*
X23110392Y62080393D01*
X23328899Y61901068D01*
X23578192Y61767818D01*
X23848691Y61685764D01*
X24130000Y61658057D01*
X24411308Y61685764D01*
X24681807Y61767818D01*
X24931100Y61901068D01*
X25149607Y62080392D01*
X25328932Y62298899D01*
X25400000Y62431858D01*
X25471068Y62298900D01*
X25650392Y62080393D01*
X25868899Y61901068D01*
X26118192Y61767818D01*
X26388691Y61685764D01*
X26670000Y61658057D01*
X26951308Y61685764D01*
X27221807Y61767818D01*
X27471100Y61901068D01*
X27689607Y62080392D01*
X27868932Y62298899D01*
X27940000Y62431858D01*
X28011068Y62298900D01*
X28190392Y62080393D01*
X28408899Y61901068D01*
X28658192Y61767818D01*
X28928691Y61685764D01*
X29210000Y61658057D01*
X29491308Y61685764D01*
X29761807Y61767818D01*
X30011100Y61901068D01*
X30229607Y62080392D01*
X30408932Y62298899D01*
X30480000Y62431858D01*
X30551068Y62298900D01*
X30730392Y62080393D01*
X30948899Y61901068D01*
X31198192Y61767818D01*
X31468691Y61685764D01*
X31750000Y61658057D01*
X32031308Y61685764D01*
X32301807Y61767818D01*
X32551100Y61901068D01*
X32769607Y62080392D01*
X32948932Y62298899D01*
X33020000Y62431858D01*
X33091068Y62298900D01*
X33270392Y62080393D01*
X33488899Y61901068D01*
X33738192Y61767818D01*
X34008691Y61685764D01*
X34290000Y61658057D01*
X34571308Y61685764D01*
X34841807Y61767818D01*
X35091100Y61901068D01*
X35309607Y62080392D01*
X35488932Y62298899D01*
X35560000Y62431858D01*
X35631068Y62298900D01*
X35810392Y62080393D01*
X36028899Y61901068D01*
X36278192Y61767818D01*
X36548691Y61685764D01*
X36830000Y61658057D01*
X37111308Y61685764D01*
X37381807Y61767818D01*
X37631100Y61901068D01*
X37849607Y62080392D01*
X38028932Y62298899D01*
X38100000Y62431858D01*
X38171068Y62298900D01*
X38350392Y62080393D01*
X38568899Y61901068D01*
X38818192Y61767818D01*
X39088691Y61685764D01*
X39370000Y61658057D01*
X39651308Y61685764D01*
X39921807Y61767818D01*
X40171100Y61901068D01*
X40389607Y62080392D01*
X40568932Y62298899D01*
X40640000Y62431858D01*
X40711068Y62298900D01*
X40890392Y62080393D01*
X41108899Y61901068D01*
X41358192Y61767818D01*
X41628691Y61685764D01*
X41910000Y61658057D01*
X42191308Y61685764D01*
X42461807Y61767818D01*
X42711100Y61901068D01*
X42929607Y62080392D01*
X43022419Y62193483D01*
X43024188Y62175518D01*
X43060498Y62055820D01*
X43119463Y61945506D01*
X43198815Y61848815D01*
X43295506Y61769463D01*
X43405820Y61710498D01*
X43525518Y61674188D01*
X43650000Y61661928D01*
X45250000Y61661928D01*
X45374482Y61674188D01*
X45494180Y61710498D01*
X45604494Y61769463D01*
X45701185Y61848815D01*
X45780537Y61945506D01*
X45839502Y62055820D01*
X45875812Y62175518D01*
X45888072Y62300000D01*
X45888072Y63928000D01*
X51324000Y63928000D01*
X51324000Y63528000D01*
X51376350Y63250486D01*
X51481834Y62988517D01*
X51636399Y62752161D01*
X51834105Y62550500D01*
X52067354Y62391285D01*
X52327182Y62280633D01*
X52409961Y62263096D01*
X52632000Y62385085D01*
X52632000Y63928000D01*
X51324000Y63928000D01*
X45888072Y63928000D01*
X45888072Y64700000D01*
X45876224Y64820300D01*
X51368953Y64820300D01*
X51324000Y64582000D01*
X51324000Y64182000D01*
X52632000Y64182000D01*
X52632000Y64202000D01*
X52886000Y64202000D01*
X52886000Y64182000D01*
X52906000Y64182000D01*
X52906000Y63928000D01*
X52886000Y63928000D01*
X52886000Y62385085D01*
X53108039Y62263096D01*
X53190818Y62280633D01*
X53450646Y62391285D01*
X53683895Y62550500D01*
X53881601Y62752161D01*
X54031735Y62981742D01*
X54100068Y62853900D01*
X54279392Y62635393D01*
X54497899Y62456068D01*
X54747192Y62322818D01*
X55017691Y62240764D01*
X55299000Y62213057D01*
X55580308Y62240764D01*
X55747601Y62291511D01*
X55747601Y61955515D01*
X55744044Y61919400D01*
X55758235Y61775315D01*
X55793806Y61658057D01*
X55800264Y61636767D01*
X55868514Y61509080D01*
X55960363Y61397162D01*
X55988408Y61374146D01*
X58374000Y58988553D01*
X58374000Y58165425D01*
X58270818Y58209367D01*
X58188039Y58226904D01*
X57966000Y58104915D01*
X57966000Y56562000D01*
X57986000Y56562000D01*
X57986000Y56308000D01*
X57966000Y56308000D01*
X57966000Y54765085D01*
X58188039Y54643096D01*
X58270818Y54660633D01*
X58530646Y54771285D01*
X58763895Y54930500D01*
X58791399Y54958554D01*
X59509246Y54240707D01*
X59532262Y54212662D01*
X59644180Y54120813D01*
X59771867Y54052563D01*
X59906304Y54011782D01*
X59910415Y54010535D01*
X60054500Y53996344D01*
X60090605Y53999900D01*
X61862454Y53999900D01*
X62148306Y53714048D01*
X62063900Y53668932D01*
X61845393Y53489608D01*
X61666068Y53271101D01*
X61595000Y53138142D01*
X61523932Y53271101D01*
X61344608Y53489608D01*
X61126101Y53668932D01*
X60876808Y53802182D01*
X60606309Y53884236D01*
X60325000Y53911943D01*
X60043692Y53884236D01*
X59773193Y53802182D01*
X59523900Y53668932D01*
X59305393Y53489608D01*
X59126068Y53271101D01*
X59055000Y53138142D01*
X58983932Y53271101D01*
X58804608Y53489608D01*
X58586101Y53668932D01*
X58336808Y53802182D01*
X58066309Y53884236D01*
X57785000Y53911943D01*
X57503692Y53884236D01*
X57233193Y53802182D01*
X56983900Y53668932D01*
X56765393Y53489608D01*
X56586068Y53271101D01*
X56515000Y53138142D01*
X56443932Y53271101D01*
X56264608Y53489608D01*
X56046101Y53668932D01*
X55796808Y53802182D01*
X55526309Y53884236D01*
X55245000Y53911943D01*
X54963692Y53884236D01*
X54693193Y53802182D01*
X54443900Y53668932D01*
X54225393Y53489608D01*
X54046068Y53271101D01*
X53977735Y53143259D01*
X53827601Y53372839D01*
X53629895Y53574500D01*
X53396646Y53733715D01*
X53136818Y53844367D01*
X53054039Y53861904D01*
X52832000Y53739915D01*
X52832000Y52197000D01*
X52852000Y52197000D01*
X52852000Y51943000D01*
X52832000Y51943000D01*
X52832000Y50400085D01*
X53054039Y50278096D01*
X53136818Y50295633D01*
X53396646Y50406285D01*
X53629895Y50565500D01*
X53827601Y50767161D01*
X53977735Y50996742D01*
X54046068Y50868900D01*
X54225392Y50650393D01*
X54258816Y50622963D01*
X53311108Y49675254D01*
X53283062Y49652237D01*
X53191213Y49540319D01*
X53122963Y49412632D01*
X53102712Y49345872D01*
X53080935Y49274085D01*
X53066744Y49130000D01*
X53070300Y49093895D01*
X53070300Y46588450D01*
X52987633Y46632637D01*
X52849085Y46674665D01*
X52741105Y46685300D01*
X52705000Y46688856D01*
X52668895Y46685300D01*
X45280627Y46685300D01*
X45469607Y46840392D01*
X45648932Y47058899D01*
X45782182Y47308192D01*
X45864236Y47578691D01*
X45885000Y47789508D01*
X45885000Y48730491D01*
X45864236Y48941309D01*
X45782182Y49211808D01*
X45648932Y49461101D01*
X45469608Y49679608D01*
X45251101Y49858932D01*
X45001808Y49992182D01*
X44731309Y50074236D01*
X44450000Y50101943D01*
X44168692Y50074236D01*
X43898193Y49992182D01*
X43648900Y49858932D01*
X43430393Y49679608D01*
X43251068Y49461101D01*
X43180000Y49328142D01*
X43108932Y49461101D01*
X42929608Y49679608D01*
X42711101Y49858932D01*
X42461808Y49992182D01*
X42191309Y50074236D01*
X41910000Y50101943D01*
X41628692Y50074236D01*
X41358193Y49992182D01*
X41108900Y49858932D01*
X40890393Y49679608D01*
X40711068Y49461101D01*
X40640000Y49328142D01*
X40568932Y49461101D01*
X40389608Y49679608D01*
X40171101Y49858932D01*
X39921808Y49992182D01*
X39651309Y50074236D01*
X39370000Y50101943D01*
X39088692Y50074236D01*
X38818193Y49992182D01*
X38568900Y49858932D01*
X38350393Y49679608D01*
X38171068Y49461101D01*
X38100000Y49328142D01*
X38028932Y49461101D01*
X37849608Y49679608D01*
X37631101Y49858932D01*
X37381808Y49992182D01*
X37111309Y50074236D01*
X36830000Y50101943D01*
X36548692Y50074236D01*
X36278193Y49992182D01*
X36028900Y49858932D01*
X35810393Y49679608D01*
X35631068Y49461101D01*
X35560000Y49328142D01*
X35488932Y49461101D01*
X35309608Y49679608D01*
X35091101Y49858932D01*
X34841808Y49992182D01*
X34571309Y50074236D01*
X34290000Y50101943D01*
X34008692Y50074236D01*
X33738193Y49992182D01*
X33488900Y49858932D01*
X33270393Y49679608D01*
X33091068Y49461101D01*
X33020000Y49328142D01*
X32948932Y49461101D01*
X32769608Y49679608D01*
X32551101Y49858932D01*
X32301808Y49992182D01*
X32031309Y50074236D01*
X31750000Y50101943D01*
X31468692Y50074236D01*
X31198193Y49992182D01*
X30948900Y49858932D01*
X30730393Y49679608D01*
X30551068Y49461101D01*
X30480000Y49328142D01*
X30408932Y49461101D01*
X30229608Y49679608D01*
X30011101Y49858932D01*
X29761808Y49992182D01*
X29491309Y50074236D01*
X29210000Y50101943D01*
X28928692Y50074236D01*
X28658193Y49992182D01*
X28408900Y49858932D01*
X28190393Y49679608D01*
X28011068Y49461101D01*
X27940000Y49328142D01*
X27868932Y49461101D01*
X27689608Y49679608D01*
X27471101Y49858932D01*
X27221808Y49992182D01*
X26951309Y50074236D01*
X26670000Y50101943D01*
X26388692Y50074236D01*
X26118193Y49992182D01*
X25868900Y49858932D01*
X25650393Y49679608D01*
X25471068Y49461101D01*
X25400000Y49328142D01*
X25328932Y49461101D01*
X25149608Y49679608D01*
X24931101Y49858932D01*
X24681808Y49992182D01*
X24411309Y50074236D01*
X24130000Y50101943D01*
X23848692Y50074236D01*
X23578193Y49992182D01*
X23328900Y49858932D01*
X23110393Y49679608D01*
X22931068Y49461101D01*
X22860000Y49328142D01*
X22788932Y49461101D01*
X22609608Y49679608D01*
X22391101Y49858932D01*
X22141808Y49992182D01*
X21871309Y50074236D01*
X21590000Y50101943D01*
X21308692Y50074236D01*
X21038193Y49992182D01*
X20788900Y49858932D01*
X20570393Y49679608D01*
X20391068Y49461101D01*
X20320000Y49328142D01*
X20248932Y49461101D01*
X20069608Y49679608D01*
X19851101Y49858932D01*
X19601808Y49992182D01*
X19331309Y50074236D01*
X19050000Y50101943D01*
X18768692Y50074236D01*
X18498193Y49992182D01*
X18248900Y49858932D01*
X18030393Y49679608D01*
X17851068Y49461101D01*
X17780000Y49328142D01*
X17708932Y49461101D01*
X17529608Y49679608D01*
X17311101Y49858932D01*
X17061808Y49992182D01*
X16791309Y50074236D01*
X16510000Y50101943D01*
X16228692Y50074236D01*
X15958193Y49992182D01*
X15708900Y49858932D01*
X15490393Y49679608D01*
X15311068Y49461101D01*
X15240000Y49328142D01*
X15168932Y49461101D01*
X14989608Y49679608D01*
X14771101Y49858932D01*
X14521808Y49992182D01*
X14251309Y50074236D01*
X13970000Y50101943D01*
X13688692Y50074236D01*
X13418193Y49992182D01*
X13168900Y49858932D01*
X12950393Y49679608D01*
X12771068Y49461101D01*
X12700000Y49328142D01*
X12628932Y49461101D01*
X12449608Y49679608D01*
X12231101Y49858932D01*
X11981808Y49992182D01*
X11711309Y50074236D01*
X11430000Y50101943D01*
X11148692Y50074236D01*
X10878193Y49992182D01*
X10628900Y49858932D01*
X10410393Y49679608D01*
X10231068Y49461101D01*
X10097818Y49211808D01*
X10015764Y48941309D01*
X9995000Y48730492D01*
X9995000Y47789509D01*
X10015764Y47578692D01*
X10097818Y47308193D01*
X10231068Y47058900D01*
X10410392Y46840393D01*
X10628899Y46661068D01*
X10878192Y46527818D01*
X11148691Y46445764D01*
X11430000Y46418057D01*
X11711308Y46445764D01*
X11981807Y46527818D01*
X12231100Y46661068D01*
X12449607Y46840392D01*
X12628932Y47058899D01*
X12700000Y47191858D01*
X12771068Y47058900D01*
X12950392Y46840393D01*
X13168899Y46661068D01*
X13418192Y46527818D01*
X13688691Y46445764D01*
X13970000Y46418057D01*
X14251308Y46445764D01*
X14521807Y46527818D01*
X14771100Y46661068D01*
X14989607Y46840392D01*
X15168932Y47058899D01*
X15240000Y47191858D01*
X15311068Y47058900D01*
X15490392Y46840393D01*
X15708899Y46661068D01*
X15958192Y46527818D01*
X16228691Y46445764D01*
X16510000Y46418057D01*
X16791308Y46445764D01*
X17061807Y46527818D01*
X17311100Y46661068D01*
X17529607Y46840392D01*
X17708932Y47058899D01*
X17780000Y47191858D01*
X17851068Y47058900D01*
X18030392Y46840393D01*
X18248899Y46661068D01*
X18325174Y46620298D01*
X18325635Y46615615D01*
X18352269Y46527818D01*
X18367664Y46477067D01*
X18435914Y46349380D01*
X18527763Y46237462D01*
X18555808Y46214446D01*
X19484600Y45285653D01*
X19484600Y44947736D01*
X19331309Y44994236D01*
X19050000Y45021943D01*
X18768692Y44994236D01*
X18498193Y44912182D01*
X18248900Y44778932D01*
X18030393Y44599608D01*
X17851068Y44381101D01*
X17780000Y44248142D01*
X17708932Y44381101D01*
X17529608Y44599608D01*
X17311101Y44778932D01*
X17061808Y44912182D01*
X16791309Y44994236D01*
X16510000Y45021943D01*
X16228692Y44994236D01*
X15958193Y44912182D01*
X15708900Y44778932D01*
X15490393Y44599608D01*
X15311068Y44381101D01*
X15240000Y44248142D01*
X15168932Y44381101D01*
X14989608Y44599608D01*
X14771101Y44778932D01*
X14521808Y44912182D01*
X14251309Y44994236D01*
X13970000Y45021943D01*
X13688692Y44994236D01*
X13418193Y44912182D01*
X13168900Y44778932D01*
X12950393Y44599608D01*
X12771068Y44381101D01*
X12702735Y44253259D01*
X12552601Y44482839D01*
X12354895Y44684500D01*
X12121646Y44843715D01*
X11861818Y44954367D01*
X11779039Y44971904D01*
X11557000Y44849915D01*
X11557000Y43307000D01*
X11577000Y43307000D01*
X11577000Y43053000D01*
X11557000Y43053000D01*
X11557000Y41510085D01*
X11779039Y41388096D01*
X11861818Y41405633D01*
X12121646Y41516285D01*
X12354895Y41675500D01*
X12552601Y41877161D01*
X12702735Y42106742D01*
X12771068Y41978900D01*
X12950392Y41760393D01*
X13168899Y41581068D01*
X13418192Y41447818D01*
X13688691Y41365764D01*
X13970000Y41338057D01*
X14251308Y41365764D01*
X14521807Y41447818D01*
X14771100Y41581068D01*
X14989607Y41760392D01*
X15168932Y41978899D01*
X15240000Y42111858D01*
X15311068Y41978900D01*
X15490392Y41760393D01*
X15523816Y41732963D01*
X14865908Y41075054D01*
X14837862Y41052037D01*
X14746013Y40940119D01*
X14677763Y40812432D01*
X14663934Y40766844D01*
X14635735Y40673885D01*
X14621544Y40529800D01*
X14625100Y40493695D01*
X14625101Y29616971D01*
X14521808Y29672182D01*
X14251309Y29754236D01*
X13970000Y29781943D01*
X13688692Y29754236D01*
X13418193Y29672182D01*
X13168900Y29538932D01*
X12950393Y29359608D01*
X12771068Y29141101D01*
X12700000Y29008142D01*
X12628932Y29141101D01*
X12449608Y29359608D01*
X12231101Y29538932D01*
X11981808Y29672182D01*
X11711309Y29754236D01*
X11430000Y29781943D01*
X11148692Y29754236D01*
X10878193Y29672182D01*
X10628900Y29538932D01*
X10410393Y29359608D01*
X10231068Y29141101D01*
X10097818Y28891808D01*
X10015764Y28621309D01*
X9995000Y28410492D01*
X9995000Y27469509D01*
X10015764Y27258692D01*
X10097818Y26988193D01*
X10231068Y26738900D01*
X10410392Y26520393D01*
X10628899Y26341068D01*
X10705174Y26300298D01*
X10705635Y26295615D01*
X10738837Y26186165D01*
X10747664Y26157067D01*
X10815914Y26029380D01*
X10907763Y25917462D01*
X10935808Y25894446D01*
X11806100Y25024153D01*
X11806100Y24646171D01*
X11779039Y24651904D01*
X11557000Y24529915D01*
X11557000Y22987000D01*
X11577000Y22987000D01*
X11577000Y22733000D01*
X11557000Y22733000D01*
X11557000Y21190085D01*
X11779039Y21068096D01*
X11806100Y21073829D01*
X11806101Y10535848D01*
X10935808Y9665554D01*
X10907763Y9642538D01*
X10815914Y9530620D01*
X10747665Y9402934D01*
X10747664Y9402933D01*
X10705635Y9264385D01*
X10705174Y9259701D01*
X10628900Y9218932D01*
X10410393Y9039608D01*
X10231068Y8821101D01*
X10097818Y8571808D01*
X10015764Y8301309D01*
X9995000Y8090492D01*
X9995000Y7149509D01*
X10015764Y6938692D01*
X10097818Y6668193D01*
X10231068Y6418900D01*
X10410392Y6200393D01*
X10628899Y6021068D01*
X10878192Y5887818D01*
X11148691Y5805764D01*
X11430000Y5778057D01*
X11711308Y5805764D01*
X11981807Y5887818D01*
X12231100Y6021068D01*
X12449607Y6200392D01*
X12628932Y6418899D01*
X12700000Y6551858D01*
X12771068Y6418900D01*
X12950392Y6200393D01*
X13168899Y6021068D01*
X13418192Y5887818D01*
X13688691Y5805764D01*
X13970000Y5778057D01*
X14251308Y5805764D01*
X14521807Y5887818D01*
X14771100Y6021068D01*
X14989607Y6200392D01*
X15168932Y6418899D01*
X15240000Y6551858D01*
X15311068Y6418900D01*
X15490392Y6200393D01*
X15708899Y6021068D01*
X15958192Y5887818D01*
X16228691Y5805764D01*
X16510000Y5778057D01*
X16791308Y5805764D01*
X17061807Y5887818D01*
X17311100Y6021068D01*
X17529607Y6200392D01*
X17708932Y6418899D01*
X17780000Y6551858D01*
X17851068Y6418900D01*
X18030392Y6200393D01*
X18248899Y6021068D01*
X18498192Y5887818D01*
X18768691Y5805764D01*
X19050000Y5778057D01*
X19331308Y5805764D01*
X19601807Y5887818D01*
X19851100Y6021068D01*
X20069607Y6200392D01*
X20248932Y6418899D01*
X20320000Y6551858D01*
X20391068Y6418900D01*
X20570392Y6200393D01*
X20788899Y6021068D01*
X21038192Y5887818D01*
X21308691Y5805764D01*
X21590000Y5778057D01*
X21871308Y5805764D01*
X22141807Y5887818D01*
X22391100Y6021068D01*
X22609607Y6200392D01*
X22788932Y6418899D01*
X22860000Y6551858D01*
X22931068Y6418900D01*
X23110392Y6200393D01*
X23328899Y6021068D01*
X23578192Y5887818D01*
X23848691Y5805764D01*
X24130000Y5778057D01*
X24411308Y5805764D01*
X24681807Y5887818D01*
X24931100Y6021068D01*
X25149607Y6200392D01*
X25328932Y6418899D01*
X25400000Y6551858D01*
X25471068Y6418900D01*
X25650392Y6200393D01*
X25868899Y6021068D01*
X26118192Y5887818D01*
X26388691Y5805764D01*
X26670000Y5778057D01*
X26951308Y5805764D01*
X27221807Y5887818D01*
X27471100Y6021068D01*
X27689607Y6200392D01*
X27868932Y6418899D01*
X27940000Y6551858D01*
X28011068Y6418900D01*
X28190392Y6200393D01*
X28408899Y6021068D01*
X28658192Y5887818D01*
X28928691Y5805764D01*
X29210000Y5778057D01*
X29491308Y5805764D01*
X29761807Y5887818D01*
X30011100Y6021068D01*
X30229607Y6200392D01*
X30408932Y6418899D01*
X30480000Y6551858D01*
X30551068Y6418900D01*
X30730392Y6200393D01*
X30948899Y6021068D01*
X31198192Y5887818D01*
X31468691Y5805764D01*
X31750000Y5778057D01*
X32031308Y5805764D01*
X32301807Y5887818D01*
X32551100Y6021068D01*
X32769607Y6200392D01*
X32948932Y6418899D01*
X33020000Y6551858D01*
X33091068Y6418900D01*
X33270392Y6200393D01*
X33488899Y6021068D01*
X33738192Y5887818D01*
X34008691Y5805764D01*
X34290000Y5778057D01*
X34571308Y5805764D01*
X34841807Y5887818D01*
X35091100Y6021068D01*
X35309607Y6200392D01*
X35488932Y6418899D01*
X35560000Y6551858D01*
X35631068Y6418900D01*
X35810392Y6200393D01*
X36028899Y6021068D01*
X36278192Y5887818D01*
X36548691Y5805764D01*
X36830000Y5778057D01*
X37111308Y5805764D01*
X37381807Y5887818D01*
X37631100Y6021068D01*
X37849607Y6200392D01*
X38028932Y6418899D01*
X38100000Y6551858D01*
X38171068Y6418900D01*
X38350392Y6200393D01*
X38568899Y6021068D01*
X38818192Y5887818D01*
X39088691Y5805764D01*
X39370000Y5778057D01*
X39651308Y5805764D01*
X39921807Y5887818D01*
X40171100Y6021068D01*
X40389607Y6200392D01*
X40568932Y6418899D01*
X40640000Y6551858D01*
X40711068Y6418900D01*
X40890392Y6200393D01*
X41108899Y6021068D01*
X41358192Y5887818D01*
X41628691Y5805764D01*
X41910000Y5778057D01*
X42191308Y5805764D01*
X42461807Y5887818D01*
X42711100Y6021068D01*
X42929607Y6200392D01*
X43108932Y6418899D01*
X43180000Y6551858D01*
X43251068Y6418900D01*
X43430392Y6200393D01*
X43648899Y6021068D01*
X43898192Y5887818D01*
X44168691Y5805764D01*
X44450000Y5778057D01*
X44731308Y5805764D01*
X45001807Y5887818D01*
X45251100Y6021068D01*
X45469607Y6200392D01*
X45648932Y6418899D01*
X45782182Y6668192D01*
X45864236Y6938691D01*
X45885000Y7149508D01*
X45885000Y8090491D01*
X45864236Y8301309D01*
X45782182Y8571808D01*
X45648932Y8821101D01*
X45469608Y9039608D01*
X45251101Y9218932D01*
X45001808Y9352182D01*
X44731309Y9434236D01*
X44450000Y9461943D01*
X44168692Y9434236D01*
X43898193Y9352182D01*
X43648900Y9218932D01*
X43430393Y9039608D01*
X43251068Y8821101D01*
X43180000Y8688142D01*
X43108932Y8821101D01*
X42929608Y9039608D01*
X42711101Y9218932D01*
X42634826Y9259702D01*
X42634365Y9264385D01*
X42592337Y9402933D01*
X42524087Y9530620D01*
X42432238Y9642538D01*
X42404193Y9665554D01*
X41533800Y10535946D01*
X41533800Y16439488D01*
X46184783Y16439488D01*
X46226213Y16159870D01*
X46321397Y15893708D01*
X46388329Y15768486D01*
X46632298Y15696903D01*
X47445395Y16510000D01*
X47804605Y16510000D01*
X48617702Y15696903D01*
X48861671Y15768486D01*
X48982571Y16023996D01*
X49051300Y16298184D01*
X49065217Y16580512D01*
X49023787Y16860130D01*
X48928603Y17126292D01*
X48861671Y17251514D01*
X48617702Y17323097D01*
X47804605Y16510000D01*
X47445395Y16510000D01*
X46632298Y17323097D01*
X46388329Y17251514D01*
X46267429Y16996004D01*
X46198700Y16721816D01*
X46184783Y16439488D01*
X41533800Y16439488D01*
X41533800Y17502702D01*
X46811903Y17502702D01*
X47625000Y16689605D01*
X48438097Y17502702D01*
X48366514Y17746671D01*
X48111004Y17867571D01*
X47836816Y17936300D01*
X47554488Y17950217D01*
X47274870Y17908787D01*
X47008708Y17813603D01*
X46883486Y17746671D01*
X46811903Y17502702D01*
X41533800Y17502702D01*
X41533800Y21074549D01*
X41628691Y21045764D01*
X41910000Y21018057D01*
X42191308Y21045764D01*
X42461807Y21127818D01*
X42711100Y21261068D01*
X42929607Y21440392D01*
X43022419Y21553483D01*
X43024188Y21535518D01*
X43060498Y21415820D01*
X43119463Y21305506D01*
X43198815Y21208815D01*
X43295506Y21129463D01*
X43405820Y21070498D01*
X43525518Y21034188D01*
X43650000Y21021928D01*
X43797136Y21021928D01*
X43835914Y20949380D01*
X43927763Y20837462D01*
X43955808Y20814446D01*
X46082646Y18687607D01*
X46105662Y18659562D01*
X46133706Y18636547D01*
X46217580Y18567713D01*
X46345266Y18499463D01*
X46483815Y18457435D01*
X46627900Y18443244D01*
X46664005Y18446800D01*
X63865401Y18446800D01*
X63865401Y16678072D01*
X62700000Y16678072D01*
X62575518Y16665812D01*
X62455820Y16629502D01*
X62345506Y16570537D01*
X62248815Y16491185D01*
X62169463Y16394494D01*
X62110498Y16284180D01*
X62074188Y16164482D01*
X62073357Y16156039D01*
X61874759Y16354637D01*
X61639727Y16511680D01*
X61378574Y16619853D01*
X61101335Y16675000D01*
X60818665Y16675000D01*
X60541426Y16619853D01*
X60280273Y16511680D01*
X60045241Y16354637D01*
X59845363Y16154759D01*
X59792070Y16075000D01*
X59587930Y16075000D01*
X59534637Y16154759D01*
X59334759Y16354637D01*
X59099727Y16511680D01*
X58838574Y16619853D01*
X58561335Y16675000D01*
X58278665Y16675000D01*
X58001426Y16619853D01*
X57740273Y16511680D01*
X57505241Y16354637D01*
X57305363Y16154759D01*
X57252070Y16075000D01*
X57047930Y16075000D01*
X56994637Y16154759D01*
X56794759Y16354637D01*
X56559727Y16511680D01*
X56298574Y16619853D01*
X56021335Y16675000D01*
X55738665Y16675000D01*
X55461426Y16619853D01*
X55200273Y16511680D01*
X54965241Y16354637D01*
X54765363Y16154759D01*
X54712604Y16075799D01*
X54679700Y16079040D01*
X54638682Y16075000D01*
X54638681Y16075000D01*
X54516011Y16062918D01*
X54358613Y16015172D01*
X54213554Y15937636D01*
X54086409Y15833291D01*
X54060263Y15801432D01*
X53103833Y14845000D01*
X48792930Y14845000D01*
X48739637Y14924759D01*
X48539759Y15124637D01*
X48339131Y15258692D01*
X48366514Y15273329D01*
X48438097Y15517298D01*
X47625000Y16330395D01*
X46811903Y15517298D01*
X46883486Y15273329D01*
X46912341Y15259676D01*
X46710241Y15124637D01*
X46510363Y14924759D01*
X46353320Y14689727D01*
X46245147Y14428574D01*
X46190000Y14151335D01*
X46190000Y13868665D01*
X46245147Y13591426D01*
X46353320Y13330273D01*
X46510363Y13095241D01*
X46710241Y12895363D01*
X46945273Y12738320D01*
X47206426Y12630147D01*
X47483665Y12575000D01*
X47766335Y12575000D01*
X48043574Y12630147D01*
X48304727Y12738320D01*
X48539759Y12895363D01*
X48739637Y13095241D01*
X48792930Y13175000D01*
X53408682Y13175000D01*
X53449700Y13170960D01*
X53490718Y13175000D01*
X53490719Y13175000D01*
X53613389Y13187082D01*
X53770787Y13234828D01*
X53915846Y13312364D01*
X54042991Y13416709D01*
X54069145Y13448578D01*
X54855586Y14235018D01*
X54965241Y14125363D01*
X55200273Y13968320D01*
X55461426Y13860147D01*
X55738665Y13805000D01*
X56021335Y13805000D01*
X56298574Y13860147D01*
X56559727Y13968320D01*
X56794759Y14125363D01*
X56994637Y14325241D01*
X57047930Y14405000D01*
X57252070Y14405000D01*
X57305363Y14325241D01*
X57505241Y14125363D01*
X57740273Y13968320D01*
X58001426Y13860147D01*
X58278665Y13805000D01*
X58561335Y13805000D01*
X58838574Y13860147D01*
X59099727Y13968320D01*
X59334759Y14125363D01*
X59534637Y14325241D01*
X59587930Y14405000D01*
X59792070Y14405000D01*
X59845363Y14325241D01*
X60045241Y14125363D01*
X60280273Y13968320D01*
X60541426Y13860147D01*
X60818665Y13805000D01*
X61101335Y13805000D01*
X61378574Y13860147D01*
X61639727Y13968320D01*
X61874759Y14125363D01*
X62073357Y14323961D01*
X62074188Y14315518D01*
X62110498Y14195820D01*
X62169463Y14085506D01*
X62248815Y13988815D01*
X62345506Y13909463D01*
X62455820Y13850498D01*
X62575518Y13814188D01*
X62700000Y13801928D01*
X63865400Y13801928D01*
X63865400Y10125147D01*
X63005808Y9265554D01*
X62977763Y9242538D01*
X62885914Y9130620D01*
X62837267Y9039608D01*
X62817664Y9002933D01*
X62775635Y8864385D01*
X62775368Y8861676D01*
X62585241Y8734637D01*
X62385363Y8534759D01*
X62230000Y8302241D01*
X62074637Y8534759D01*
X61874759Y8734637D01*
X61639727Y8891680D01*
X61378574Y8999853D01*
X61101335Y9055000D01*
X60818665Y9055000D01*
X60541426Y8999853D01*
X60280273Y8891680D01*
X60045241Y8734637D01*
X59845363Y8534759D01*
X59690000Y8302241D01*
X59534637Y8534759D01*
X59334759Y8734637D01*
X59099727Y8891680D01*
X58838574Y8999853D01*
X58561335Y9055000D01*
X58278665Y9055000D01*
X58001426Y8999853D01*
X57740273Y8891680D01*
X57505241Y8734637D01*
X57305363Y8534759D01*
X57150000Y8302241D01*
X56994637Y8534759D01*
X56794759Y8734637D01*
X56559727Y8891680D01*
X56298574Y8999853D01*
X56021335Y9055000D01*
X55738665Y9055000D01*
X55461426Y8999853D01*
X55200273Y8891680D01*
X54965241Y8734637D01*
X54765363Y8534759D01*
X54608320Y8299727D01*
X54500147Y8038574D01*
X54445000Y7761335D01*
X54445000Y7478665D01*
X54500147Y7201426D01*
X54608320Y6940273D01*
X54765363Y6705241D01*
X54965241Y6505363D01*
X55200273Y6348320D01*
X55461426Y6240147D01*
X55738665Y6185000D01*
X56021335Y6185000D01*
X56298574Y6240147D01*
X56559727Y6348320D01*
X56794759Y6505363D01*
X56994637Y6705241D01*
X57150000Y6937759D01*
X57305363Y6705241D01*
X57505241Y6505363D01*
X57740273Y6348320D01*
X58001426Y6240147D01*
X58278665Y6185000D01*
X58561335Y6185000D01*
X58838574Y6240147D01*
X59099727Y6348320D01*
X59334759Y6505363D01*
X59534637Y6705241D01*
X59690000Y6937759D01*
X59845363Y6705241D01*
X60045241Y6505363D01*
X60280273Y6348320D01*
X60541426Y6240147D01*
X60818665Y6185000D01*
X61101335Y6185000D01*
X61378574Y6240147D01*
X61639727Y6348320D01*
X61874759Y6505363D01*
X62074637Y6705241D01*
X62230000Y6937759D01*
X62385363Y6705241D01*
X62585241Y6505363D01*
X62820273Y6348320D01*
X63081426Y6240147D01*
X63358665Y6185000D01*
X63641335Y6185000D01*
X63918574Y6240147D01*
X64179727Y6348320D01*
X64414759Y6505363D01*
X64614637Y6705241D01*
X64771680Y6940273D01*
X64879853Y7201426D01*
X64935000Y7478665D01*
X64935000Y7761335D01*
X64879853Y8038574D01*
X64771680Y8299727D01*
X64614637Y8534759D01*
X64484271Y8665125D01*
X65094597Y9275450D01*
X65122637Y9298462D01*
X65145650Y9326503D01*
X65145653Y9326506D01*
X65214487Y9410380D01*
X65282737Y9538066D01*
X65324765Y9676615D01*
X65338956Y9820700D01*
X65335400Y9856805D01*
X65335400Y18812095D01*
X65338956Y18848200D01*
X65335332Y18885000D01*
X65546335Y18885000D01*
X65823574Y18940147D01*
X66084727Y19048320D01*
X66319759Y19205363D01*
X66519637Y19405241D01*
X66676680Y19640273D01*
X66784853Y19901426D01*
X66840000Y20178665D01*
X66840000Y20461335D01*
X66784853Y20738574D01*
X66676680Y20999727D01*
X66519637Y21234759D01*
X66319759Y21434637D01*
X66084727Y21591680D01*
X65823574Y21699853D01*
X65546335Y21755000D01*
X65263665Y21755000D01*
X64986426Y21699853D01*
X64725273Y21591680D01*
X64490241Y21434637D01*
X64290363Y21234759D01*
X64133320Y20999727D01*
X64025147Y20738574D01*
X63970000Y20461335D01*
X63970000Y20178665D01*
X64012178Y19966624D01*
X63962354Y19916800D01*
X61707911Y19916800D01*
X61760000Y20178665D01*
X61760000Y20461335D01*
X61704853Y20738574D01*
X61596680Y20999727D01*
X61439637Y21234759D01*
X61239759Y21434637D01*
X61004727Y21591680D01*
X60743574Y21699853D01*
X60466335Y21755000D01*
X60183665Y21755000D01*
X59906426Y21699853D01*
X59645273Y21591680D01*
X59410241Y21434637D01*
X59210363Y21234759D01*
X59053320Y20999727D01*
X58945147Y20738574D01*
X58890000Y20461335D01*
X58890000Y20178665D01*
X58942089Y19916800D01*
X56627911Y19916800D01*
X56680000Y20178665D01*
X56680000Y20461335D01*
X56624853Y20738574D01*
X56516680Y20999727D01*
X56359637Y21234759D01*
X56159759Y21434637D01*
X55924727Y21591680D01*
X55663574Y21699853D01*
X55386335Y21755000D01*
X55103665Y21755000D01*
X54826426Y21699853D01*
X54565273Y21591680D01*
X54330241Y21434637D01*
X54130363Y21234759D01*
X53973320Y20999727D01*
X53865147Y20738574D01*
X53810000Y20461335D01*
X53810000Y20178665D01*
X53862089Y19916800D01*
X46932347Y19916800D01*
X45667761Y21181385D01*
X45701185Y21208815D01*
X45780537Y21305506D01*
X45839502Y21415820D01*
X45875812Y21535518D01*
X45888072Y21660000D01*
X45888072Y24060000D01*
X45875812Y24184482D01*
X45839502Y24304180D01*
X45780537Y24414494D01*
X45701185Y24511185D01*
X45604494Y24590537D01*
X45494180Y24649502D01*
X45374482Y24685812D01*
X45250000Y24698072D01*
X43650000Y24698072D01*
X43525518Y24685812D01*
X43405820Y24649502D01*
X43295506Y24590537D01*
X43198815Y24511185D01*
X43119463Y24414494D01*
X43060498Y24304180D01*
X43024188Y24184482D01*
X43022419Y24166518D01*
X42929608Y24279608D01*
X42711101Y24458932D01*
X42461808Y24592182D01*
X42191309Y24674236D01*
X41910000Y24701943D01*
X41628692Y24674236D01*
X41533800Y24645451D01*
X41533800Y25024054D01*
X42404193Y25894446D01*
X42432238Y25917462D01*
X42524087Y26029380D01*
X42592337Y26157067D01*
X42634365Y26295615D01*
X42634826Y26300299D01*
X42711100Y26341068D01*
X42929607Y26520392D01*
X43108932Y26738899D01*
X43180000Y26871858D01*
X43251068Y26738900D01*
X43430392Y26520393D01*
X43648899Y26341068D01*
X43898192Y26207818D01*
X44168691Y26125764D01*
X44450000Y26098057D01*
X44731308Y26125764D01*
X45001807Y26207818D01*
X45251100Y26341068D01*
X45469607Y26520392D01*
X45648932Y26738899D01*
X45782182Y26988192D01*
X45864236Y27258691D01*
X45885000Y27469508D01*
X45885000Y27590960D01*
X53853091Y27590960D01*
X53947930Y27326119D01*
X54092615Y27084869D01*
X54281586Y26876481D01*
X54507580Y26708963D01*
X54761913Y26588754D01*
X54895961Y26548096D01*
X55118000Y26670085D01*
X55118000Y27813000D01*
X55372000Y27813000D01*
X55372000Y26670085D01*
X55594039Y26548096D01*
X55728087Y26588754D01*
X55982420Y26708963D01*
X56208414Y26876481D01*
X56397385Y27084869D01*
X56542070Y27326119D01*
X56636909Y27590960D01*
X58933091Y27590960D01*
X59027930Y27326119D01*
X59172615Y27084869D01*
X59361586Y26876481D01*
X59587580Y26708963D01*
X59841913Y26588754D01*
X59975961Y26548096D01*
X60198000Y26670085D01*
X60198000Y27813000D01*
X60452000Y27813000D01*
X60452000Y26670085D01*
X60674039Y26548096D01*
X60808087Y26588754D01*
X61062420Y26708963D01*
X61288414Y26876481D01*
X61477385Y27084869D01*
X61622070Y27326119D01*
X61716909Y27590960D01*
X64013091Y27590960D01*
X64107930Y27326119D01*
X64252615Y27084869D01*
X64441586Y26876481D01*
X64667580Y26708963D01*
X64921913Y26588754D01*
X65055961Y26548096D01*
X65278000Y26670085D01*
X65278000Y27813000D01*
X65532000Y27813000D01*
X65532000Y26670085D01*
X65754039Y26548096D01*
X65888087Y26588754D01*
X66142420Y26708963D01*
X66368414Y26876481D01*
X66557385Y27084869D01*
X66702070Y27326119D01*
X66796909Y27590960D01*
X66675624Y27813000D01*
X65532000Y27813000D01*
X65278000Y27813000D01*
X64134376Y27813000D01*
X64013091Y27590960D01*
X61716909Y27590960D01*
X61595624Y27813000D01*
X60452000Y27813000D01*
X60198000Y27813000D01*
X59054376Y27813000D01*
X58933091Y27590960D01*
X56636909Y27590960D01*
X56515624Y27813000D01*
X55372000Y27813000D01*
X55118000Y27813000D01*
X53974376Y27813000D01*
X53853091Y27590960D01*
X45885000Y27590960D01*
X45885000Y28289040D01*
X53853091Y28289040D01*
X53974376Y28067000D01*
X55118000Y28067000D01*
X55118000Y29209915D01*
X55372000Y29209915D01*
X55372000Y28067000D01*
X56515624Y28067000D01*
X56636909Y28289040D01*
X58933091Y28289040D01*
X59054376Y28067000D01*
X60198000Y28067000D01*
X60198000Y29209915D01*
X60452000Y29209915D01*
X60452000Y28067000D01*
X61595624Y28067000D01*
X61716909Y28289040D01*
X64013091Y28289040D01*
X64134376Y28067000D01*
X65278000Y28067000D01*
X65278000Y29209915D01*
X65532000Y29209915D01*
X65532000Y28067000D01*
X66675624Y28067000D01*
X66796909Y28289040D01*
X66702070Y28553881D01*
X66557385Y28795131D01*
X66368414Y29003519D01*
X66142420Y29171037D01*
X65888087Y29291246D01*
X65754039Y29331904D01*
X65532000Y29209915D01*
X65278000Y29209915D01*
X65055961Y29331904D01*
X64921913Y29291246D01*
X64667580Y29171037D01*
X64441586Y29003519D01*
X64252615Y28795131D01*
X64107930Y28553881D01*
X64013091Y28289040D01*
X61716909Y28289040D01*
X61622070Y28553881D01*
X61477385Y28795131D01*
X61288414Y29003519D01*
X61062420Y29171037D01*
X60808087Y29291246D01*
X60674039Y29331904D01*
X60452000Y29209915D01*
X60198000Y29209915D01*
X59975961Y29331904D01*
X59841913Y29291246D01*
X59587580Y29171037D01*
X59361586Y29003519D01*
X59172615Y28795131D01*
X59027930Y28553881D01*
X58933091Y28289040D01*
X56636909Y28289040D01*
X56542070Y28553881D01*
X56397385Y28795131D01*
X56208414Y29003519D01*
X55982420Y29171037D01*
X55728087Y29291246D01*
X55594039Y29331904D01*
X55372000Y29209915D01*
X55118000Y29209915D01*
X54895961Y29331904D01*
X54761913Y29291246D01*
X54507580Y29171037D01*
X54281586Y29003519D01*
X54092615Y28795131D01*
X53947930Y28553881D01*
X53853091Y28289040D01*
X45885000Y28289040D01*
X45885000Y28410491D01*
X45864236Y28621309D01*
X45782182Y28891808D01*
X45648932Y29141101D01*
X45469608Y29359608D01*
X45251101Y29538932D01*
X45001808Y29672182D01*
X44731309Y29754236D01*
X44450000Y29781943D01*
X44168692Y29754236D01*
X43898193Y29672182D01*
X43648900Y29538932D01*
X43430393Y29359608D01*
X43251068Y29141101D01*
X43180000Y29008142D01*
X43108932Y29141101D01*
X42929608Y29359608D01*
X42711101Y29538932D01*
X42461808Y29672182D01*
X42191309Y29754236D01*
X41910000Y29781943D01*
X41628692Y29754236D01*
X41358193Y29672182D01*
X41108900Y29538932D01*
X40890393Y29359608D01*
X40711068Y29141101D01*
X40640000Y29008142D01*
X40568932Y29141101D01*
X40389608Y29359608D01*
X40171101Y29538932D01*
X39931270Y29667124D01*
X46375895Y36111748D01*
X46388329Y36088486D01*
X46632298Y36016903D01*
X47445395Y36830000D01*
X47804605Y36830000D01*
X48617702Y36016903D01*
X48861671Y36088486D01*
X48982571Y36343996D01*
X49051300Y36618184D01*
X49065217Y36900512D01*
X49023787Y37180130D01*
X48928603Y37446292D01*
X48861671Y37571514D01*
X48617702Y37643097D01*
X47804605Y36830000D01*
X47445395Y36830000D01*
X47431253Y36844142D01*
X47610858Y37023747D01*
X47625000Y37009605D01*
X48438097Y37822702D01*
X48414801Y37902100D01*
X49344895Y37902100D01*
X49381000Y37898544D01*
X49417105Y37902100D01*
X49525085Y37912735D01*
X49663633Y37954763D01*
X49791320Y38023013D01*
X49903238Y38114862D01*
X49926259Y38142913D01*
X51270000Y39486654D01*
X51270000Y39478000D01*
X51322350Y39200486D01*
X51427834Y38938517D01*
X51582399Y38702161D01*
X51780105Y38500500D01*
X52013354Y38341285D01*
X52273182Y38230633D01*
X52355961Y38213096D01*
X52578000Y38335085D01*
X52578000Y39878000D01*
X52558000Y39878000D01*
X52558000Y40132000D01*
X52578000Y40132000D01*
X52578000Y40152000D01*
X52832000Y40152000D01*
X52832000Y40132000D01*
X52852000Y40132000D01*
X52852000Y39878000D01*
X52832000Y39878000D01*
X52832000Y38335085D01*
X53054039Y38213096D01*
X53136818Y38230633D01*
X53396646Y38341285D01*
X53629895Y38500500D01*
X53827601Y38702161D01*
X53977735Y38931742D01*
X54046068Y38803900D01*
X54225392Y38585393D01*
X54443899Y38406068D01*
X54693192Y38272818D01*
X54963691Y38190764D01*
X55245000Y38163057D01*
X55526308Y38190764D01*
X55796807Y38272818D01*
X56046100Y38406068D01*
X56264607Y38585392D01*
X56443932Y38803899D01*
X56515000Y38936858D01*
X56586068Y38803900D01*
X56765392Y38585393D01*
X56776066Y38576633D01*
X53364433Y35165000D01*
X48792930Y35165000D01*
X48739637Y35244759D01*
X48539759Y35444637D01*
X48339131Y35578692D01*
X48366514Y35593329D01*
X48438097Y35837298D01*
X47625000Y36650395D01*
X46811903Y35837298D01*
X46883486Y35593329D01*
X46912341Y35579676D01*
X46710241Y35444637D01*
X46510363Y35244759D01*
X46353320Y35009727D01*
X46245147Y34748574D01*
X46190000Y34471335D01*
X46190000Y34188665D01*
X46245147Y33911426D01*
X46353320Y33650273D01*
X46510363Y33415241D01*
X46710241Y33215363D01*
X46945273Y33058320D01*
X47206426Y32950147D01*
X47483665Y32895000D01*
X47766335Y32895000D01*
X48043574Y32950147D01*
X48304727Y33058320D01*
X48539759Y33215363D01*
X48739637Y33415241D01*
X48792930Y33495000D01*
X51457373Y33495000D01*
X51372818Y33336808D01*
X51290764Y33066309D01*
X51270000Y32855492D01*
X51270000Y31914509D01*
X51290764Y31703692D01*
X51372818Y31433193D01*
X51506068Y31183900D01*
X51685392Y30965393D01*
X51903899Y30786068D01*
X52153192Y30652818D01*
X52423691Y30570764D01*
X52705000Y30543057D01*
X52986308Y30570764D01*
X53256807Y30652818D01*
X53506100Y30786068D01*
X53724607Y30965392D01*
X53903932Y31183899D01*
X53975000Y31316858D01*
X54046068Y31183900D01*
X54225392Y30965393D01*
X54443899Y30786068D01*
X54693192Y30652818D01*
X54963691Y30570764D01*
X55245000Y30543057D01*
X55526308Y30570764D01*
X55796807Y30652818D01*
X56046100Y30786068D01*
X56264607Y30965392D01*
X56443932Y31183899D01*
X56515000Y31316858D01*
X56586068Y31183900D01*
X56765392Y30965393D01*
X56983899Y30786068D01*
X57233192Y30652818D01*
X57503691Y30570764D01*
X57785000Y30543057D01*
X58066308Y30570764D01*
X58336807Y30652818D01*
X58586100Y30786068D01*
X58804607Y30965392D01*
X58983932Y31183899D01*
X59055000Y31316858D01*
X59126068Y31183900D01*
X59305392Y30965393D01*
X59523899Y30786068D01*
X59773192Y30652818D01*
X60043691Y30570764D01*
X60325000Y30543057D01*
X60606308Y30570764D01*
X60876807Y30652818D01*
X61126100Y30786068D01*
X61344607Y30965392D01*
X61523932Y31183899D01*
X61595000Y31316858D01*
X61666068Y31183900D01*
X61845392Y30965393D01*
X62063899Y30786068D01*
X62313192Y30652818D01*
X62583691Y30570764D01*
X62865000Y30543057D01*
X63146308Y30570764D01*
X63416807Y30652818D01*
X63666100Y30786068D01*
X63884607Y30965392D01*
X64063932Y31183899D01*
X64135000Y31316858D01*
X64206068Y31183900D01*
X64385392Y30965393D01*
X64603899Y30786068D01*
X64853192Y30652818D01*
X65123691Y30570764D01*
X65405000Y30543057D01*
X65686308Y30570764D01*
X65956807Y30652818D01*
X66206100Y30786068D01*
X66424607Y30965392D01*
X66603932Y31183899D01*
X66675000Y31316858D01*
X66746068Y31183900D01*
X66925392Y30965393D01*
X67143899Y30786068D01*
X67393192Y30652818D01*
X67663691Y30570764D01*
X67945000Y30543057D01*
X68226308Y30570764D01*
X68496807Y30652818D01*
X68746100Y30786068D01*
X68964607Y30965392D01*
X69143932Y31183899D01*
X69215000Y31316858D01*
X69286068Y31183900D01*
X69465392Y30965393D01*
X69683899Y30786068D01*
X69933192Y30652818D01*
X70203691Y30570764D01*
X70485000Y30543057D01*
X70766308Y30570764D01*
X71036807Y30652818D01*
X71286100Y30786068D01*
X71504607Y30965392D01*
X71683932Y31183899D01*
X71817182Y31433192D01*
X71899236Y31703691D01*
X71920000Y31914508D01*
X71920000Y32855491D01*
X71899236Y33066309D01*
X71817182Y33336808D01*
X71683932Y33586101D01*
X71504608Y33804608D01*
X71286101Y33983932D01*
X71036808Y34117182D01*
X70766309Y34199236D01*
X70485000Y34226943D01*
X70203692Y34199236D01*
X69933193Y34117182D01*
X69683900Y33983932D01*
X69465393Y33804608D01*
X69286068Y33586101D01*
X69215000Y33453142D01*
X69143932Y33586101D01*
X68964608Y33804608D01*
X68931184Y33832038D01*
X70679747Y35580600D01*
X72361758Y35580600D01*
X72280147Y35383574D01*
X72225000Y35106335D01*
X72225000Y34823665D01*
X72280147Y34546426D01*
X72388320Y34285273D01*
X72545363Y34050241D01*
X72745241Y33850363D01*
X72980273Y33693320D01*
X73241426Y33585147D01*
X73518665Y33530000D01*
X73801335Y33530000D01*
X74078574Y33585147D01*
X74339727Y33693320D01*
X74574759Y33850363D01*
X74774637Y34050241D01*
X74931680Y34285273D01*
X75039853Y34546426D01*
X75095000Y34823665D01*
X75095000Y35106335D01*
X75039853Y35383574D01*
X74931680Y35644727D01*
X74774637Y35879759D01*
X74726521Y35927875D01*
X75255193Y36456546D01*
X75283238Y36479562D01*
X75375087Y36591480D01*
X75443337Y36719167D01*
X75485365Y36857715D01*
X75496000Y36965695D01*
X75496000Y36965704D01*
X75499555Y37001799D01*
X75496000Y37037894D01*
X75496000Y39958795D01*
X75499556Y39994900D01*
X75485365Y40138985D01*
X75443337Y40277534D01*
X75375087Y40405220D01*
X75306253Y40489094D01*
X75306250Y40489097D01*
X75283237Y40517138D01*
X75255198Y40540149D01*
X68680000Y47115346D01*
X68680000Y50231928D01*
X68704300Y50231928D01*
X68704300Y48611719D01*
X68700260Y48570700D01*
X68704300Y48529682D01*
X68716382Y48407012D01*
X68764128Y48249614D01*
X68841664Y48104555D01*
X68946009Y47977409D01*
X68977879Y47951254D01*
X69703715Y47225418D01*
X69685000Y47131335D01*
X69685000Y46848665D01*
X69740147Y46571426D01*
X69848320Y46310273D01*
X70005363Y46075241D01*
X70205241Y45875363D01*
X70440273Y45718320D01*
X70701426Y45610147D01*
X70978665Y45555000D01*
X71261335Y45555000D01*
X71538574Y45610147D01*
X71799727Y45718320D01*
X72034759Y45875363D01*
X72234637Y46075241D01*
X72391680Y46310273D01*
X72499853Y46571426D01*
X72555000Y46848665D01*
X72555000Y47131335D01*
X72499853Y47408574D01*
X72391680Y47669727D01*
X72234637Y47904759D01*
X72034759Y48104637D01*
X71834131Y48238692D01*
X71861514Y48253329D01*
X71933097Y48497298D01*
X71120000Y49310395D01*
X71105858Y49296252D01*
X70926253Y49475857D01*
X70940395Y49490000D01*
X71299605Y49490000D01*
X72112702Y48676903D01*
X72356671Y48748486D01*
X72477571Y49003996D01*
X72546300Y49278184D01*
X72560217Y49560512D01*
X72518787Y49840130D01*
X72423603Y50106292D01*
X72356671Y50231514D01*
X72112702Y50303097D01*
X71299605Y49490000D01*
X70940395Y49490000D01*
X70926253Y49504142D01*
X71105858Y49683747D01*
X71120000Y49669605D01*
X71933097Y50482702D01*
X71861514Y50726671D01*
X71606004Y50847571D01*
X71331816Y50916300D01*
X71049488Y50930217D01*
X70769870Y50888787D01*
X70503708Y50793603D01*
X70378486Y50726671D01*
X70374300Y50712404D01*
X70374300Y53253382D01*
X70378340Y53294401D01*
X70362218Y53458089D01*
X70314472Y53615487D01*
X70236936Y53760546D01*
X70202766Y53802182D01*
X70132591Y53887691D01*
X70100726Y53913841D01*
X69007934Y55006633D01*
X69018607Y55015392D01*
X69197932Y55233899D01*
X69331182Y55483192D01*
X69413236Y55753691D01*
X69434000Y55964508D01*
X69434000Y56905491D01*
X69413236Y57116309D01*
X69331182Y57386808D01*
X69197932Y57636101D01*
X69018608Y57854608D01*
X68800101Y58033932D01*
X68550808Y58167182D01*
X68280309Y58249236D01*
X67999000Y58276943D01*
X67717692Y58249236D01*
X67447193Y58167182D01*
X67197900Y58033932D01*
X66979393Y57854608D01*
X66800068Y57636101D01*
X66729000Y57503142D01*
X66657932Y57636101D01*
X66478608Y57854608D01*
X66260101Y58033932D01*
X66010808Y58167182D01*
X65740309Y58249236D01*
X65459000Y58276943D01*
X65177692Y58249236D01*
X64907193Y58167182D01*
X64657900Y58033932D01*
X64439393Y57854608D01*
X64260068Y57636101D01*
X64189000Y57503142D01*
X64117932Y57636101D01*
X63938608Y57854608D01*
X63720101Y58033932D01*
X63470808Y58167182D01*
X63200309Y58249236D01*
X62919000Y58276943D01*
X62637692Y58249236D01*
X62367193Y58167182D01*
X62117900Y58033932D01*
X61899393Y57854608D01*
X61720068Y57636101D01*
X61649000Y57503142D01*
X61577932Y57636101D01*
X61398608Y57854608D01*
X61180101Y58033932D01*
X60930808Y58167182D01*
X60660309Y58249236D01*
X60379000Y58276943D01*
X60097692Y58249236D01*
X59844000Y58172280D01*
X59844000Y59196335D01*
X69939000Y59196335D01*
X69939000Y58913665D01*
X69994147Y58636426D01*
X70102320Y58375273D01*
X70259363Y58140241D01*
X70459241Y57940363D01*
X70694273Y57783320D01*
X70955426Y57675147D01*
X71232665Y57620000D01*
X71515335Y57620000D01*
X71792574Y57675147D01*
X72053727Y57783320D01*
X72288759Y57940363D01*
X72488637Y58140241D01*
X72645680Y58375273D01*
X72753853Y58636426D01*
X72809000Y58913665D01*
X72809000Y59196335D01*
X72753853Y59473574D01*
X72645680Y59734727D01*
X72488637Y59969759D01*
X72288759Y60169637D01*
X72088131Y60303692D01*
X72115514Y60318329D01*
X72187097Y60562298D01*
X71374000Y61375395D01*
X70560903Y60562298D01*
X70632486Y60318329D01*
X70661341Y60304676D01*
X70459241Y60169637D01*
X70259363Y59969759D01*
X70102320Y59734727D01*
X69994147Y59473574D01*
X69939000Y59196335D01*
X59844000Y59196335D01*
X59844000Y59256895D01*
X59847556Y59293000D01*
X59833365Y59437085D01*
X59791337Y59575634D01*
X59723087Y59703320D01*
X59654253Y59787194D01*
X59654250Y59787197D01*
X59631237Y59815238D01*
X59603197Y59838250D01*
X57956959Y61484488D01*
X69933783Y61484488D01*
X69975213Y61204870D01*
X70070397Y60938708D01*
X70137329Y60813486D01*
X70381298Y60741903D01*
X71194395Y61555000D01*
X71553605Y61555000D01*
X72366702Y60741903D01*
X72610671Y60813486D01*
X72731571Y61068996D01*
X72800300Y61343184D01*
X72814217Y61625512D01*
X72772787Y61905130D01*
X72677603Y62171292D01*
X72610671Y62296514D01*
X72366702Y62368097D01*
X71553605Y61555000D01*
X71194395Y61555000D01*
X70381298Y62368097D01*
X70137329Y62296514D01*
X70016429Y62041004D01*
X69947700Y61766816D01*
X69933783Y61484488D01*
X57956959Y61484488D01*
X57217600Y62223846D01*
X57217600Y62360016D01*
X57287192Y62322818D01*
X57557691Y62240764D01*
X57839000Y62213057D01*
X58120308Y62240764D01*
X58390807Y62322818D01*
X58640100Y62456068D01*
X58858607Y62635392D01*
X59037932Y62853899D01*
X59109000Y62986858D01*
X59180068Y62853900D01*
X59359392Y62635393D01*
X59577899Y62456068D01*
X59827192Y62322818D01*
X60097691Y62240764D01*
X60379000Y62213057D01*
X60660308Y62240764D01*
X60930807Y62322818D01*
X61180100Y62456068D01*
X61398607Y62635392D01*
X61577932Y62853899D01*
X61649000Y62986858D01*
X61720068Y62853900D01*
X61899392Y62635393D01*
X62117899Y62456068D01*
X62367192Y62322818D01*
X62637691Y62240764D01*
X62919000Y62213057D01*
X63200308Y62240764D01*
X63470807Y62322818D01*
X63720100Y62456068D01*
X63938607Y62635392D01*
X64117932Y62853899D01*
X64189000Y62986858D01*
X64260068Y62853900D01*
X64439392Y62635393D01*
X64657899Y62456068D01*
X64907192Y62322818D01*
X65177691Y62240764D01*
X65459000Y62213057D01*
X65740308Y62240764D01*
X66010807Y62322818D01*
X66260100Y62456068D01*
X66478607Y62635392D01*
X66571419Y62748483D01*
X66573188Y62730518D01*
X66609498Y62610820D01*
X66668463Y62500506D01*
X66747815Y62403815D01*
X66844506Y62324463D01*
X66954820Y62265498D01*
X67074518Y62229188D01*
X67199000Y62216928D01*
X68799000Y62216928D01*
X68923482Y62229188D01*
X69043180Y62265498D01*
X69153494Y62324463D01*
X69250185Y62403815D01*
X69329537Y62500506D01*
X69354764Y62547702D01*
X70560903Y62547702D01*
X71374000Y61734605D01*
X72187097Y62547702D01*
X72115514Y62791671D01*
X71860004Y62912571D01*
X71585816Y62981300D01*
X71303488Y62995217D01*
X71023870Y62953787D01*
X70757708Y62858603D01*
X70632486Y62791671D01*
X70560903Y62547702D01*
X69354764Y62547702D01*
X69388502Y62610820D01*
X69424812Y62730518D01*
X69437072Y62855000D01*
X69437072Y65255000D01*
X69424812Y65379482D01*
X69388502Y65499180D01*
X69329537Y65609494D01*
X69250185Y65706185D01*
X69153494Y65785537D01*
X69043180Y65844502D01*
X68923482Y65880812D01*
X68799000Y65893072D01*
X68651865Y65893072D01*
X68613087Y65965620D01*
X68544253Y66049494D01*
X68521238Y66077538D01*
X68493193Y66100554D01*
X67845932Y66747815D01*
X67945000Y66738057D01*
X68226308Y66765764D01*
X68496807Y66847818D01*
X68746100Y66981068D01*
X68964607Y67160392D01*
X69143932Y67378899D01*
X69277182Y67628192D01*
X69359236Y67898691D01*
X69380000Y68109508D01*
X69380000Y69050491D01*
X69359236Y69261309D01*
X69277182Y69531808D01*
X69143932Y69781101D01*
X68964608Y69999608D01*
X68746101Y70178932D01*
X68496808Y70312182D01*
X68226309Y70394236D01*
X67945000Y70421943D01*
X67663692Y70394236D01*
X67579700Y70368758D01*
X67579700Y71261335D01*
X69685000Y71261335D01*
X69685000Y70978665D01*
X69740147Y70701426D01*
X69848320Y70440273D01*
X70005363Y70205241D01*
X70205241Y70005363D01*
X70440273Y69848320D01*
X70701426Y69740147D01*
X70978665Y69685000D01*
X71261335Y69685000D01*
X71538574Y69740147D01*
X71799727Y69848320D01*
X72034759Y70005363D01*
X72234637Y70205241D01*
X72391680Y70440273D01*
X72499853Y70701426D01*
X72555000Y70978665D01*
X72555000Y71261335D01*
X72499853Y71538574D01*
X72391680Y71799727D01*
X72234637Y72034759D01*
X72034759Y72234637D01*
X71834131Y72368692D01*
X71861514Y72383329D01*
X71933097Y72627298D01*
X71120000Y73440395D01*
X70306903Y72627298D01*
X70378486Y72383329D01*
X70407341Y72369676D01*
X70205241Y72234637D01*
X70005363Y72034759D01*
X69848320Y71799727D01*
X69740147Y71538574D01*
X69685000Y71261335D01*
X67579700Y71261335D01*
X67579700Y73294954D01*
X67834234Y73549488D01*
X69679783Y73549488D01*
X69721213Y73269870D01*
X69816397Y73003708D01*
X69883329Y72878486D01*
X70127298Y72806903D01*
X70940395Y73620000D01*
X71299605Y73620000D01*
X72112702Y72806903D01*
X72356671Y72878486D01*
X72477571Y73133996D01*
X72546300Y73408184D01*
X72560217Y73690512D01*
X72518787Y73970130D01*
X72423603Y74236292D01*
X72356671Y74361514D01*
X72112702Y74433097D01*
X71299605Y73620000D01*
X70940395Y73620000D01*
X70127298Y74433097D01*
X69883329Y74361514D01*
X69762429Y74106004D01*
X69693700Y73831816D01*
X69679783Y73549488D01*
X67834234Y73549488D01*
X68439193Y74154446D01*
X68467238Y74177462D01*
X68559087Y74289380D01*
X68597865Y74361928D01*
X68745000Y74361928D01*
X68869482Y74374188D01*
X68989180Y74410498D01*
X69099494Y74469463D01*
X69196185Y74548815D01*
X69248615Y74612702D01*
X70306903Y74612702D01*
X71120000Y73799605D01*
X71933097Y74612702D01*
X71861514Y74856671D01*
X71606004Y74977571D01*
X71331816Y75046300D01*
X71049488Y75060217D01*
X70769870Y75018787D01*
X70503708Y74923603D01*
X70378486Y74856671D01*
X70306903Y74612702D01*
X69248615Y74612702D01*
X69275537Y74645506D01*
X69334502Y74755820D01*
X69370812Y74875518D01*
X69383072Y75000000D01*
X69383072Y77400000D01*
X69370812Y77524482D01*
X69334502Y77644180D01*
X69275537Y77754494D01*
X69196185Y77851185D01*
X69099494Y77930537D01*
X68989180Y77989502D01*
X68869482Y78025812D01*
X68745000Y78038072D01*
X68597865Y78038072D01*
X68559087Y78110620D01*
X68467238Y78222538D01*
X68439193Y78245554D01*
X63464619Y83220128D01*
X71765000Y83220128D01*
X71765000Y82779872D01*
X71850890Y82348075D01*
X72019369Y81941331D01*
X72263962Y81575271D01*
X72575271Y81263962D01*
X72941331Y81019369D01*
X73348075Y80850890D01*
X73779872Y80765000D01*
X74220128Y80765000D01*
X74651925Y80850890D01*
X75058669Y81019369D01*
X75424729Y81263962D01*
X75736038Y81575271D01*
X75980631Y81941331D01*
X76149110Y82348075D01*
X76235000Y82779872D01*
X76235000Y83220128D01*
X76149110Y83651925D01*
X75980631Y84058669D01*
X75736038Y84424729D01*
X75424729Y84736038D01*
X75058669Y84980631D01*
X74651925Y85149110D01*
X74220128Y85235000D01*
X73779872Y85235000D01*
X73348075Y85149110D01*
X72941331Y84980631D01*
X72575271Y84736038D01*
X72263962Y84424729D01*
X72019369Y84058669D01*
X71850890Y83651925D01*
X71765000Y83220128D01*
X63464619Y83220128D01*
X57822818Y88861928D01*
X59310000Y88861928D01*
X59422420Y88873000D01*
X59957580Y88873000D01*
X60070000Y88861928D01*
X61850000Y88861928D01*
X61962420Y88873000D01*
X62854033Y88873000D01*
X62904052Y88812052D01*
X63004550Y88729575D01*
X63119207Y88668290D01*
X63243617Y88630550D01*
X63340581Y88621000D01*
X63373000Y88617807D01*
X63405419Y88621000D01*
X78334045Y88621000D01*
X78339956Y660000D01*
X660000Y660000D01*
X660000Y5220128D01*
X2765000Y5220128D01*
X2765000Y4779872D01*
X2850890Y4348075D01*
X3019369Y3941331D01*
X3263962Y3575271D01*
X3575271Y3263962D01*
X3941331Y3019369D01*
X4348075Y2850890D01*
X4779872Y2765000D01*
X5220128Y2765000D01*
X5651925Y2850890D01*
X6058669Y3019369D01*
X6424729Y3263962D01*
X6736038Y3575271D01*
X6980631Y3941331D01*
X7149110Y4348075D01*
X7235000Y4779872D01*
X7235000Y5220128D01*
X71765000Y5220128D01*
X71765000Y4779872D01*
X71850890Y4348075D01*
X72019369Y3941331D01*
X72263962Y3575271D01*
X72575271Y3263962D01*
X72941331Y3019369D01*
X73348075Y2850890D01*
X73779872Y2765000D01*
X74220128Y2765000D01*
X74651925Y2850890D01*
X75058669Y3019369D01*
X75424729Y3263962D01*
X75736038Y3575271D01*
X75980631Y3941331D01*
X76149110Y4348075D01*
X76235000Y4779872D01*
X76235000Y5220128D01*
X76149110Y5651925D01*
X75980631Y6058669D01*
X75736038Y6424729D01*
X75424729Y6736038D01*
X75058669Y6980631D01*
X74651925Y7149110D01*
X74220128Y7235000D01*
X73779872Y7235000D01*
X73348075Y7149110D01*
X72941331Y6980631D01*
X72575271Y6736038D01*
X72263962Y6424729D01*
X72019369Y6058669D01*
X71850890Y5651925D01*
X71765000Y5220128D01*
X7235000Y5220128D01*
X7149110Y5651925D01*
X6980631Y6058669D01*
X6736038Y6424729D01*
X6424729Y6736038D01*
X6058669Y6980631D01*
X5651925Y7149110D01*
X5220128Y7235000D01*
X4779872Y7235000D01*
X4348075Y7149110D01*
X3941331Y6980631D01*
X3575271Y6736038D01*
X3263962Y6424729D01*
X3019369Y6058669D01*
X2850890Y5651925D01*
X2765000Y5220128D01*
X660000Y5220128D01*
X660000Y22733000D01*
X9995000Y22733000D01*
X9995000Y22333000D01*
X10047350Y22055486D01*
X10152834Y21793517D01*
X10307399Y21557161D01*
X10505105Y21355500D01*
X10738354Y21196285D01*
X10998182Y21085633D01*
X11080961Y21068096D01*
X11303000Y21190085D01*
X11303000Y22733000D01*
X9995000Y22733000D01*
X660000Y22733000D01*
X660000Y23387000D01*
X9995000Y23387000D01*
X9995000Y22987000D01*
X11303000Y22987000D01*
X11303000Y24529915D01*
X11080961Y24651904D01*
X10998182Y24634367D01*
X10738354Y24523715D01*
X10505105Y24364500D01*
X10307399Y24162839D01*
X10152834Y23926483D01*
X10047350Y23664514D01*
X9995000Y23387000D01*
X660000Y23387000D01*
X660000Y43053000D01*
X9995000Y43053000D01*
X9995000Y42653000D01*
X10047350Y42375486D01*
X10152834Y42113517D01*
X10307399Y41877161D01*
X10505105Y41675500D01*
X10738354Y41516285D01*
X10998182Y41405633D01*
X11080961Y41388096D01*
X11303000Y41510085D01*
X11303000Y43053000D01*
X9995000Y43053000D01*
X660000Y43053000D01*
X660000Y43707000D01*
X9995000Y43707000D01*
X9995000Y43307000D01*
X11303000Y43307000D01*
X11303000Y44849915D01*
X11080961Y44971904D01*
X10998182Y44954367D01*
X10738354Y44843715D01*
X10505105Y44684500D01*
X10307399Y44482839D01*
X10152834Y44246483D01*
X10047350Y43984514D01*
X9995000Y43707000D01*
X660000Y43707000D01*
X660000Y51943000D01*
X51270000Y51943000D01*
X51270000Y51543000D01*
X51322350Y51265486D01*
X51427834Y51003517D01*
X51582399Y50767161D01*
X51780105Y50565500D01*
X52013354Y50406285D01*
X52273182Y50295633D01*
X52355961Y50278096D01*
X52578000Y50400085D01*
X52578000Y51943000D01*
X51270000Y51943000D01*
X660000Y51943000D01*
X660000Y52597000D01*
X51270000Y52597000D01*
X51270000Y52197000D01*
X52578000Y52197000D01*
X52578000Y53739915D01*
X52355961Y53861904D01*
X52273182Y53844367D01*
X52013354Y53733715D01*
X51780105Y53574500D01*
X51582399Y53372839D01*
X51427834Y53136483D01*
X51322350Y52874514D01*
X51270000Y52597000D01*
X660000Y52597000D01*
X660000Y54791335D01*
X46190000Y54791335D01*
X46190000Y54508665D01*
X46245147Y54231426D01*
X46353320Y53970273D01*
X46510363Y53735241D01*
X46710241Y53535363D01*
X46945273Y53378320D01*
X47206426Y53270147D01*
X47483665Y53215000D01*
X47766335Y53215000D01*
X48043574Y53270147D01*
X48304727Y53378320D01*
X48539759Y53535363D01*
X48739637Y53735241D01*
X48896680Y53970273D01*
X49004853Y54231426D01*
X49060000Y54508665D01*
X49060000Y54791335D01*
X49004853Y55068574D01*
X48896680Y55329727D01*
X48739637Y55564759D01*
X48539759Y55764637D01*
X48339131Y55898692D01*
X48366514Y55913329D01*
X48438097Y56157298D01*
X47625000Y56970395D01*
X46811903Y56157298D01*
X46883486Y55913329D01*
X46912341Y55899676D01*
X46710241Y55764637D01*
X46510363Y55564759D01*
X46353320Y55329727D01*
X46245147Y55068574D01*
X46190000Y54791335D01*
X660000Y54791335D01*
X660000Y57079488D01*
X46184783Y57079488D01*
X46226213Y56799870D01*
X46321397Y56533708D01*
X46388329Y56408486D01*
X46632298Y56336903D01*
X47445395Y57150000D01*
X47804605Y57150000D01*
X48617702Y56336903D01*
X48861671Y56408486D01*
X48982571Y56663996D01*
X49043105Y56905492D01*
X51324000Y56905492D01*
X51324000Y55964509D01*
X51344764Y55753692D01*
X51426818Y55483193D01*
X51560068Y55233900D01*
X51739392Y55015393D01*
X51957899Y54836068D01*
X52207192Y54702818D01*
X52477691Y54620764D01*
X52759000Y54593057D01*
X53040308Y54620764D01*
X53310807Y54702818D01*
X53560100Y54836068D01*
X53778607Y55015392D01*
X53957932Y55233899D01*
X54026265Y55361741D01*
X54176399Y55132161D01*
X54374105Y54930500D01*
X54607354Y54771285D01*
X54867182Y54660633D01*
X54949961Y54643096D01*
X55172000Y54765085D01*
X55172000Y56308000D01*
X55426000Y56308000D01*
X55426000Y54765085D01*
X55648039Y54643096D01*
X55730818Y54660633D01*
X55990646Y54771285D01*
X56223895Y54930500D01*
X56421601Y55132161D01*
X56569000Y55357559D01*
X56716399Y55132161D01*
X56914105Y54930500D01*
X57147354Y54771285D01*
X57407182Y54660633D01*
X57489961Y54643096D01*
X57712000Y54765085D01*
X57712000Y56308000D01*
X55426000Y56308000D01*
X55172000Y56308000D01*
X55152000Y56308000D01*
X55152000Y56562000D01*
X55172000Y56562000D01*
X55172000Y58104915D01*
X55426000Y58104915D01*
X55426000Y56562000D01*
X57712000Y56562000D01*
X57712000Y58104915D01*
X57489961Y58226904D01*
X57407182Y58209367D01*
X57147354Y58098715D01*
X56914105Y57939500D01*
X56716399Y57737839D01*
X56569000Y57512441D01*
X56421601Y57737839D01*
X56223895Y57939500D01*
X55990646Y58098715D01*
X55730818Y58209367D01*
X55648039Y58226904D01*
X55426000Y58104915D01*
X55172000Y58104915D01*
X54949961Y58226904D01*
X54867182Y58209367D01*
X54607354Y58098715D01*
X54374105Y57939500D01*
X54176399Y57737839D01*
X54026265Y57508259D01*
X53957932Y57636101D01*
X53778608Y57854608D01*
X53560101Y58033932D01*
X53310808Y58167182D01*
X53040309Y58249236D01*
X52759000Y58276943D01*
X52477692Y58249236D01*
X52207193Y58167182D01*
X51957900Y58033932D01*
X51739393Y57854608D01*
X51560068Y57636101D01*
X51426818Y57386808D01*
X51344764Y57116309D01*
X51324000Y56905492D01*
X49043105Y56905492D01*
X49051300Y56938184D01*
X49065217Y57220512D01*
X49023787Y57500130D01*
X48928603Y57766292D01*
X48861671Y57891514D01*
X48617702Y57963097D01*
X47804605Y57150000D01*
X47445395Y57150000D01*
X46632298Y57963097D01*
X46388329Y57891514D01*
X46267429Y57636004D01*
X46198700Y57361816D01*
X46184783Y57079488D01*
X660000Y57079488D01*
X660000Y58142702D01*
X46811903Y58142702D01*
X47625000Y57329605D01*
X48438097Y58142702D01*
X48366514Y58386671D01*
X48111004Y58507571D01*
X47836816Y58576300D01*
X47554488Y58590217D01*
X47274870Y58548787D01*
X47008708Y58453603D01*
X46883486Y58386671D01*
X46811903Y58142702D01*
X660000Y58142702D01*
X660000Y63373000D01*
X9995000Y63373000D01*
X9995000Y62973000D01*
X10047350Y62695486D01*
X10152834Y62433517D01*
X10307399Y62197161D01*
X10505105Y61995500D01*
X10738354Y61836285D01*
X10998182Y61725633D01*
X11080961Y61708096D01*
X11303000Y61830085D01*
X11303000Y63373000D01*
X9995000Y63373000D01*
X660000Y63373000D01*
X660000Y64027000D01*
X9995000Y64027000D01*
X9995000Y63627000D01*
X11303000Y63627000D01*
X11303000Y65169915D01*
X11080961Y65291904D01*
X10998182Y65274367D01*
X10738354Y65163715D01*
X10505105Y65004500D01*
X10307399Y64802839D01*
X10152834Y64566483D01*
X10047350Y64304514D01*
X9995000Y64027000D01*
X660000Y64027000D01*
X660000Y83220128D01*
X2765000Y83220128D01*
X2765000Y82779872D01*
X2850890Y82348075D01*
X3019369Y81941331D01*
X3263962Y81575271D01*
X3575271Y81263962D01*
X3941331Y81019369D01*
X4348075Y80850890D01*
X4779872Y80765000D01*
X5220128Y80765000D01*
X5651925Y80850890D01*
X6058669Y81019369D01*
X6424729Y81263962D01*
X6736038Y81575271D01*
X6980631Y81941331D01*
X7149110Y82348075D01*
X7235000Y82779872D01*
X7235000Y83220128D01*
X7149110Y83651925D01*
X7132097Y83693000D01*
X9995000Y83693000D01*
X9995000Y83293000D01*
X10047350Y83015486D01*
X10152834Y82753517D01*
X10307399Y82517161D01*
X10505105Y82315500D01*
X10738354Y82156285D01*
X10998182Y82045633D01*
X11080961Y82028096D01*
X11303000Y82150085D01*
X11303000Y83693000D01*
X9995000Y83693000D01*
X7132097Y83693000D01*
X6980631Y84058669D01*
X6787975Y84347000D01*
X9995000Y84347000D01*
X9995000Y83947000D01*
X11303000Y83947000D01*
X11303000Y85489915D01*
X11080961Y85611904D01*
X10998182Y85594367D01*
X10738354Y85483715D01*
X10505105Y85324500D01*
X10307399Y85122839D01*
X10152834Y84886483D01*
X10047350Y84624514D01*
X9995000Y84347000D01*
X6787975Y84347000D01*
X6736038Y84424729D01*
X6424729Y84736038D01*
X6058669Y84980631D01*
X5651925Y85149110D01*
X5220128Y85235000D01*
X4779872Y85235000D01*
X4348075Y85149110D01*
X3941331Y84980631D01*
X3575271Y84736038D01*
X3263962Y84424729D01*
X3019369Y84058669D01*
X2850890Y83651925D01*
X2765000Y83220128D01*
X660000Y83220128D01*
X660000Y88621000D01*
X15334581Y88621000D01*
X15367000Y88617807D01*
X15399419Y88621000D01*
X15496383Y88630550D01*
X15620793Y88668290D01*
X15735450Y88729575D01*
X15835948Y88812052D01*
X15885967Y88873000D01*
X16777580Y88873000D01*
X16890000Y88861928D01*
G37*
G04 #@! TD.AperFunction*
D19*
X74026000Y39690453D02*
X74026000Y38852652D01*
X73871816Y38891300D01*
X73589488Y38905217D01*
X73309870Y38863787D01*
X73043708Y38768603D01*
X72918486Y38701671D01*
X72846903Y38457702D01*
X73660000Y37644605D01*
X73674143Y37658747D01*
X73853748Y37479142D01*
X73839605Y37465000D01*
X73853748Y37450857D01*
X73674143Y37271252D01*
X73660000Y37285395D01*
X73645858Y37271252D01*
X73466253Y37450857D01*
X73480395Y37465000D01*
X72667298Y38278097D01*
X72423329Y38206514D01*
X72302429Y37951004D01*
X72233700Y37676816D01*
X72219783Y37394488D01*
X72261213Y37114870D01*
X72284197Y37050600D01*
X70411394Y37050600D01*
X70375299Y37054155D01*
X70339204Y37050600D01*
X70339195Y37050600D01*
X70231215Y37039965D01*
X70092667Y36997937D01*
X69964980Y36929687D01*
X69853062Y36837838D01*
X69830046Y36809793D01*
X67450808Y34430554D01*
X67422763Y34407538D01*
X67330914Y34295620D01*
X67262664Y34167933D01*
X67220635Y34029385D01*
X67220174Y34024701D01*
X67143900Y33983932D01*
X66925393Y33804608D01*
X66746068Y33586101D01*
X66675000Y33453142D01*
X66603932Y33586101D01*
X66424608Y33804608D01*
X66206101Y33983932D01*
X65956808Y34117182D01*
X65686309Y34199236D01*
X65405000Y34226943D01*
X65123692Y34199236D01*
X64853193Y34117182D01*
X64603900Y33983932D01*
X64385393Y33804608D01*
X64206068Y33586101D01*
X64135000Y33453142D01*
X64063932Y33586101D01*
X63884608Y33804608D01*
X63666101Y33983932D01*
X63416808Y34117182D01*
X63146309Y34199236D01*
X62865000Y34226943D01*
X62583692Y34199236D01*
X62313193Y34117182D01*
X62063900Y33983932D01*
X61845393Y33804608D01*
X61666068Y33586101D01*
X61595000Y33453142D01*
X61523932Y33586101D01*
X61344608Y33804608D01*
X61126101Y33983932D01*
X60876808Y34117182D01*
X60606309Y34199236D01*
X60325000Y34226943D01*
X60043692Y34199236D01*
X59773193Y34117182D01*
X59523900Y33983932D01*
X59305393Y33804608D01*
X59126068Y33586101D01*
X59055000Y33453142D01*
X58983932Y33586101D01*
X58804608Y33804608D01*
X58586101Y33983932D01*
X58336808Y34117182D01*
X58066309Y34199236D01*
X57785000Y34226943D01*
X57503692Y34199236D01*
X57233193Y34117182D01*
X56983900Y33983932D01*
X56765393Y33804608D01*
X56586068Y33586101D01*
X56515000Y33453142D01*
X56443932Y33586101D01*
X56264608Y33804608D01*
X56046101Y33983932D01*
X55796808Y34117182D01*
X55526309Y34199236D01*
X55245000Y34226943D01*
X54963692Y34199236D01*
X54693193Y34117182D01*
X54661304Y34100137D01*
X58346427Y37785259D01*
X58378291Y37811409D01*
X58482636Y37938554D01*
X58560172Y38083613D01*
X58607918Y38241011D01*
X58619092Y38354466D01*
X58624040Y38404699D01*
X58621078Y38434774D01*
X58804607Y38585392D01*
X58983932Y38803899D01*
X59052265Y38931741D01*
X59202399Y38702161D01*
X59400105Y38500500D01*
X59633354Y38341285D01*
X59893182Y38230633D01*
X59975961Y38213096D01*
X60198000Y38335085D01*
X60198000Y39878000D01*
X60452000Y39878000D01*
X60452000Y38335085D01*
X60674039Y38213096D01*
X60756818Y38230633D01*
X61016646Y38341285D01*
X61249895Y38500500D01*
X61447601Y38702161D01*
X61595000Y38927559D01*
X61742399Y38702161D01*
X61940105Y38500500D01*
X62173354Y38341285D01*
X62433182Y38230633D01*
X62515961Y38213096D01*
X62738000Y38335085D01*
X62738000Y39878000D01*
X62992000Y39878000D01*
X62992000Y38335085D01*
X63214039Y38213096D01*
X63296818Y38230633D01*
X63556646Y38341285D01*
X63789895Y38500500D01*
X63987601Y38702161D01*
X64135000Y38927559D01*
X64282399Y38702161D01*
X64480105Y38500500D01*
X64713354Y38341285D01*
X64973182Y38230633D01*
X65055961Y38213096D01*
X65278000Y38335085D01*
X65278000Y39878000D01*
X62992000Y39878000D01*
X62738000Y39878000D01*
X60452000Y39878000D01*
X60198000Y39878000D01*
X60178000Y39878000D01*
X60178000Y40132000D01*
X60198000Y40132000D01*
X60198000Y41674915D01*
X60452000Y41674915D01*
X60452000Y40132000D01*
X62738000Y40132000D01*
X62738000Y41674915D01*
X62992000Y41674915D01*
X62992000Y40132000D01*
X65278000Y40132000D01*
X65278000Y41674915D01*
X65532000Y41674915D01*
X65532000Y40132000D01*
X65552000Y40132000D01*
X65552000Y39878000D01*
X65532000Y39878000D01*
X65532000Y38335085D01*
X65754039Y38213096D01*
X65836818Y38230633D01*
X66096646Y38341285D01*
X66329895Y38500500D01*
X66527601Y38702161D01*
X66677735Y38931742D01*
X66746068Y38803900D01*
X66925392Y38585393D01*
X67143899Y38406068D01*
X67393192Y38272818D01*
X67663691Y38190764D01*
X67945000Y38163057D01*
X68226308Y38190764D01*
X68496807Y38272818D01*
X68746100Y38406068D01*
X68964607Y38585392D01*
X69057419Y38698483D01*
X69059188Y38680518D01*
X69095498Y38560820D01*
X69154463Y38450506D01*
X69233815Y38353815D01*
X69330506Y38274463D01*
X69440820Y38215498D01*
X69560518Y38179188D01*
X69685000Y38166928D01*
X71285000Y38166928D01*
X71409482Y38179188D01*
X71529180Y38215498D01*
X71639494Y38274463D01*
X71736185Y38353815D01*
X71815537Y38450506D01*
X71874502Y38560820D01*
X71910812Y38680518D01*
X71923072Y38805000D01*
X71923072Y41205000D01*
X71910812Y41329482D01*
X71874502Y41449180D01*
X71815537Y41559494D01*
X71736185Y41656185D01*
X71639494Y41735537D01*
X71529180Y41794502D01*
X71409482Y41830812D01*
X71285000Y41843072D01*
X69685000Y41843072D01*
X69560518Y41830812D01*
X69440820Y41794502D01*
X69330506Y41735537D01*
X69233815Y41656185D01*
X69154463Y41559494D01*
X69095498Y41449180D01*
X69059188Y41329482D01*
X69057419Y41311518D01*
X68964608Y41424608D01*
X68746101Y41603932D01*
X68496808Y41737182D01*
X68226309Y41819236D01*
X67945000Y41846943D01*
X67663692Y41819236D01*
X67393193Y41737182D01*
X67143900Y41603932D01*
X66925393Y41424608D01*
X66746068Y41206101D01*
X66677735Y41078259D01*
X66527601Y41307839D01*
X66329895Y41509500D01*
X66096646Y41668715D01*
X65836818Y41779367D01*
X65754039Y41796904D01*
X65532000Y41674915D01*
X65278000Y41674915D01*
X65055961Y41796904D01*
X64973182Y41779367D01*
X64713354Y41668715D01*
X64480105Y41509500D01*
X64282399Y41307839D01*
X64135000Y41082441D01*
X63987601Y41307839D01*
X63789895Y41509500D01*
X63556646Y41668715D01*
X63296818Y41779367D01*
X63214039Y41796904D01*
X62992000Y41674915D01*
X62738000Y41674915D01*
X62515961Y41796904D01*
X62433182Y41779367D01*
X62173354Y41668715D01*
X61940105Y41509500D01*
X61742399Y41307839D01*
X61595000Y41082441D01*
X61447601Y41307839D01*
X61249895Y41509500D01*
X61016646Y41668715D01*
X60756818Y41779367D01*
X60674039Y41796904D01*
X60452000Y41674915D01*
X60198000Y41674915D01*
X59975961Y41796904D01*
X59893182Y41779367D01*
X59633354Y41668715D01*
X59400105Y41509500D01*
X59202399Y41307839D01*
X59052265Y41078259D01*
X58983932Y41206101D01*
X58804608Y41424608D01*
X58793935Y41433367D01*
X59375268Y42014700D01*
X67903982Y42014700D01*
X67945000Y42010660D01*
X68108689Y42026782D01*
X68266087Y42074528D01*
X68411146Y42152064D01*
X68538291Y42256409D01*
X68642636Y42383554D01*
X68720172Y42528613D01*
X68767918Y42686011D01*
X68780000Y42808681D01*
X68784040Y42849700D01*
X68781078Y42879774D01*
X68964607Y43030392D01*
X69143932Y43248899D01*
X69277182Y43498192D01*
X69359236Y43768691D01*
X69380000Y43979508D01*
X69380000Y44336454D01*
X74026000Y39690453D01*
G04 #@! TA.AperFunction,Conductor*
D20*
G36*
X74026000Y39690453D02*
G01*
X74026000Y38852652D01*
X73871816Y38891300D01*
X73589488Y38905217D01*
X73309870Y38863787D01*
X73043708Y38768603D01*
X72918486Y38701671D01*
X72846903Y38457702D01*
X73660000Y37644605D01*
X73674143Y37658747D01*
X73853748Y37479142D01*
X73839605Y37465000D01*
X73853748Y37450857D01*
X73674143Y37271252D01*
X73660000Y37285395D01*
X73645858Y37271252D01*
X73466253Y37450857D01*
X73480395Y37465000D01*
X72667298Y38278097D01*
X72423329Y38206514D01*
X72302429Y37951004D01*
X72233700Y37676816D01*
X72219783Y37394488D01*
X72261213Y37114870D01*
X72284197Y37050600D01*
X70411394Y37050600D01*
X70375299Y37054155D01*
X70339204Y37050600D01*
X70339195Y37050600D01*
X70231215Y37039965D01*
X70092667Y36997937D01*
X69964980Y36929687D01*
X69853062Y36837838D01*
X69830046Y36809793D01*
X67450808Y34430554D01*
X67422763Y34407538D01*
X67330914Y34295620D01*
X67262664Y34167933D01*
X67220635Y34029385D01*
X67220174Y34024701D01*
X67143900Y33983932D01*
X66925393Y33804608D01*
X66746068Y33586101D01*
X66675000Y33453142D01*
X66603932Y33586101D01*
X66424608Y33804608D01*
X66206101Y33983932D01*
X65956808Y34117182D01*
X65686309Y34199236D01*
X65405000Y34226943D01*
X65123692Y34199236D01*
X64853193Y34117182D01*
X64603900Y33983932D01*
X64385393Y33804608D01*
X64206068Y33586101D01*
X64135000Y33453142D01*
X64063932Y33586101D01*
X63884608Y33804608D01*
X63666101Y33983932D01*
X63416808Y34117182D01*
X63146309Y34199236D01*
X62865000Y34226943D01*
X62583692Y34199236D01*
X62313193Y34117182D01*
X62063900Y33983932D01*
X61845393Y33804608D01*
X61666068Y33586101D01*
X61595000Y33453142D01*
X61523932Y33586101D01*
X61344608Y33804608D01*
X61126101Y33983932D01*
X60876808Y34117182D01*
X60606309Y34199236D01*
X60325000Y34226943D01*
X60043692Y34199236D01*
X59773193Y34117182D01*
X59523900Y33983932D01*
X59305393Y33804608D01*
X59126068Y33586101D01*
X59055000Y33453142D01*
X58983932Y33586101D01*
X58804608Y33804608D01*
X58586101Y33983932D01*
X58336808Y34117182D01*
X58066309Y34199236D01*
X57785000Y34226943D01*
X57503692Y34199236D01*
X57233193Y34117182D01*
X56983900Y33983932D01*
X56765393Y33804608D01*
X56586068Y33586101D01*
X56515000Y33453142D01*
X56443932Y33586101D01*
X56264608Y33804608D01*
X56046101Y33983932D01*
X55796808Y34117182D01*
X55526309Y34199236D01*
X55245000Y34226943D01*
X54963692Y34199236D01*
X54693193Y34117182D01*
X54661304Y34100137D01*
X58346427Y37785259D01*
X58378291Y37811409D01*
X58482636Y37938554D01*
X58560172Y38083613D01*
X58607918Y38241011D01*
X58619092Y38354466D01*
X58624040Y38404699D01*
X58621078Y38434774D01*
X58804607Y38585392D01*
X58983932Y38803899D01*
X59052265Y38931741D01*
X59202399Y38702161D01*
X59400105Y38500500D01*
X59633354Y38341285D01*
X59893182Y38230633D01*
X59975961Y38213096D01*
X60198000Y38335085D01*
X60198000Y39878000D01*
X60452000Y39878000D01*
X60452000Y38335085D01*
X60674039Y38213096D01*
X60756818Y38230633D01*
X61016646Y38341285D01*
X61249895Y38500500D01*
X61447601Y38702161D01*
X61595000Y38927559D01*
X61742399Y38702161D01*
X61940105Y38500500D01*
X62173354Y38341285D01*
X62433182Y38230633D01*
X62515961Y38213096D01*
X62738000Y38335085D01*
X62738000Y39878000D01*
X62992000Y39878000D01*
X62992000Y38335085D01*
X63214039Y38213096D01*
X63296818Y38230633D01*
X63556646Y38341285D01*
X63789895Y38500500D01*
X63987601Y38702161D01*
X64135000Y38927559D01*
X64282399Y38702161D01*
X64480105Y38500500D01*
X64713354Y38341285D01*
X64973182Y38230633D01*
X65055961Y38213096D01*
X65278000Y38335085D01*
X65278000Y39878000D01*
X62992000Y39878000D01*
X62738000Y39878000D01*
X60452000Y39878000D01*
X60198000Y39878000D01*
X60178000Y39878000D01*
X60178000Y40132000D01*
X60198000Y40132000D01*
X60198000Y41674915D01*
X60452000Y41674915D01*
X60452000Y40132000D01*
X62738000Y40132000D01*
X62738000Y41674915D01*
X62992000Y41674915D01*
X62992000Y40132000D01*
X65278000Y40132000D01*
X65278000Y41674915D01*
X65532000Y41674915D01*
X65532000Y40132000D01*
X65552000Y40132000D01*
X65552000Y39878000D01*
X65532000Y39878000D01*
X65532000Y38335085D01*
X65754039Y38213096D01*
X65836818Y38230633D01*
X66096646Y38341285D01*
X66329895Y38500500D01*
X66527601Y38702161D01*
X66677735Y38931742D01*
X66746068Y38803900D01*
X66925392Y38585393D01*
X67143899Y38406068D01*
X67393192Y38272818D01*
X67663691Y38190764D01*
X67945000Y38163057D01*
X68226308Y38190764D01*
X68496807Y38272818D01*
X68746100Y38406068D01*
X68964607Y38585392D01*
X69057419Y38698483D01*
X69059188Y38680518D01*
X69095498Y38560820D01*
X69154463Y38450506D01*
X69233815Y38353815D01*
X69330506Y38274463D01*
X69440820Y38215498D01*
X69560518Y38179188D01*
X69685000Y38166928D01*
X71285000Y38166928D01*
X71409482Y38179188D01*
X71529180Y38215498D01*
X71639494Y38274463D01*
X71736185Y38353815D01*
X71815537Y38450506D01*
X71874502Y38560820D01*
X71910812Y38680518D01*
X71923072Y38805000D01*
X71923072Y41205000D01*
X71910812Y41329482D01*
X71874502Y41449180D01*
X71815537Y41559494D01*
X71736185Y41656185D01*
X71639494Y41735537D01*
X71529180Y41794502D01*
X71409482Y41830812D01*
X71285000Y41843072D01*
X69685000Y41843072D01*
X69560518Y41830812D01*
X69440820Y41794502D01*
X69330506Y41735537D01*
X69233815Y41656185D01*
X69154463Y41559494D01*
X69095498Y41449180D01*
X69059188Y41329482D01*
X69057419Y41311518D01*
X68964608Y41424608D01*
X68746101Y41603932D01*
X68496808Y41737182D01*
X68226309Y41819236D01*
X67945000Y41846943D01*
X67663692Y41819236D01*
X67393193Y41737182D01*
X67143900Y41603932D01*
X66925393Y41424608D01*
X66746068Y41206101D01*
X66677735Y41078259D01*
X66527601Y41307839D01*
X66329895Y41509500D01*
X66096646Y41668715D01*
X65836818Y41779367D01*
X65754039Y41796904D01*
X65532000Y41674915D01*
X65278000Y41674915D01*
X65055961Y41796904D01*
X64973182Y41779367D01*
X64713354Y41668715D01*
X64480105Y41509500D01*
X64282399Y41307839D01*
X64135000Y41082441D01*
X63987601Y41307839D01*
X63789895Y41509500D01*
X63556646Y41668715D01*
X63296818Y41779367D01*
X63214039Y41796904D01*
X62992000Y41674915D01*
X62738000Y41674915D01*
X62515961Y41796904D01*
X62433182Y41779367D01*
X62173354Y41668715D01*
X61940105Y41509500D01*
X61742399Y41307839D01*
X61595000Y41082441D01*
X61447601Y41307839D01*
X61249895Y41509500D01*
X61016646Y41668715D01*
X60756818Y41779367D01*
X60674039Y41796904D01*
X60452000Y41674915D01*
X60198000Y41674915D01*
X59975961Y41796904D01*
X59893182Y41779367D01*
X59633354Y41668715D01*
X59400105Y41509500D01*
X59202399Y41307839D01*
X59052265Y41078259D01*
X58983932Y41206101D01*
X58804608Y41424608D01*
X58793935Y41433367D01*
X59375268Y42014700D01*
X67903982Y42014700D01*
X67945000Y42010660D01*
X68108689Y42026782D01*
X68266087Y42074528D01*
X68411146Y42152064D01*
X68538291Y42256409D01*
X68642636Y42383554D01*
X68720172Y42528613D01*
X68767918Y42686011D01*
X68780000Y42808681D01*
X68784040Y42849700D01*
X68781078Y42879774D01*
X68964607Y43030392D01*
X69143932Y43248899D01*
X69277182Y43498192D01*
X69359236Y43768691D01*
X69380000Y43979508D01*
X69380000Y44336454D01*
X74026000Y39690453D01*
G37*
G04 #@! TD.AperFunction*
D19*
X60860001Y79801552D02*
X60860001Y77937280D01*
X60606309Y78014236D01*
X60325000Y78041943D01*
X60043692Y78014236D01*
X59773193Y77932182D01*
X59523900Y77798932D01*
X59305393Y77619608D01*
X59126068Y77401101D01*
X59057735Y77273259D01*
X58907601Y77502839D01*
X58709895Y77704500D01*
X58476646Y77863715D01*
X58216818Y77974367D01*
X58134039Y77991904D01*
X57912000Y77869915D01*
X57912000Y76327000D01*
X57932000Y76327000D01*
X57932000Y76073000D01*
X57912000Y76073000D01*
X57912000Y74530085D01*
X58134039Y74408096D01*
X58216818Y74425633D01*
X58476646Y74536285D01*
X58709895Y74695500D01*
X58907601Y74897161D01*
X59057735Y75126742D01*
X59126068Y74998900D01*
X59305392Y74780393D01*
X59523899Y74601068D01*
X59773192Y74467818D01*
X60043691Y74385764D01*
X60325000Y74358057D01*
X60606308Y74385764D01*
X60860000Y74462720D01*
X60860000Y73926405D01*
X60856444Y73890300D01*
X60860000Y73854196D01*
X60870635Y73746216D01*
X60912663Y73607668D01*
X60980913Y73479981D01*
X61072762Y73368063D01*
X61100808Y73345046D01*
X63293781Y71152073D01*
X63198433Y71203037D01*
X63059885Y71245065D01*
X62951905Y71255700D01*
X62915800Y71259256D01*
X62879695Y71255700D01*
X48874505Y71255700D01*
X48838400Y71259256D01*
X48802295Y71255700D01*
X48694315Y71245065D01*
X48555767Y71203037D01*
X48428080Y71134787D01*
X48316162Y71042938D01*
X48293146Y71014893D01*
X45885000Y68606746D01*
X45885000Y69050491D01*
X45864236Y69261309D01*
X45782182Y69531808D01*
X45648932Y69781101D01*
X45503345Y69958499D01*
X51270000Y75725153D01*
X51270000Y75673000D01*
X51322350Y75395486D01*
X51427834Y75133517D01*
X51582399Y74897161D01*
X51780105Y74695500D01*
X52013354Y74536285D01*
X52273182Y74425633D01*
X52355961Y74408096D01*
X52578000Y74530085D01*
X52578000Y76073000D01*
X52558000Y76073000D01*
X52558000Y76327000D01*
X52578000Y76327000D01*
X52578000Y76347000D01*
X52832000Y76347000D01*
X52832000Y76327000D01*
X52852000Y76327000D01*
X52852000Y76073000D01*
X52832000Y76073000D01*
X52832000Y74530085D01*
X53054039Y74408096D01*
X53136818Y74425633D01*
X53396646Y74536285D01*
X53629895Y74695500D01*
X53827601Y74897161D01*
X53977735Y75126742D01*
X54046068Y74998900D01*
X54225392Y74780393D01*
X54443899Y74601068D01*
X54693192Y74467818D01*
X54963691Y74385764D01*
X55245000Y74358057D01*
X55526308Y74385764D01*
X55796807Y74467818D01*
X56046100Y74601068D01*
X56264607Y74780392D01*
X56443932Y74998899D01*
X56512265Y75126741D01*
X56662399Y74897161D01*
X56860105Y74695500D01*
X57093354Y74536285D01*
X57353182Y74425633D01*
X57435961Y74408096D01*
X57658000Y74530085D01*
X57658000Y76073000D01*
X57638000Y76073000D01*
X57638000Y76327000D01*
X57658000Y76327000D01*
X57658000Y77869915D01*
X57435961Y77991904D01*
X57353182Y77974367D01*
X57093354Y77863715D01*
X56860105Y77704500D01*
X56662399Y77502839D01*
X56512265Y77273259D01*
X56443932Y77401101D01*
X56264608Y77619608D01*
X56046101Y77798932D01*
X55796808Y77932182D01*
X55526309Y78014236D01*
X55245000Y78041943D01*
X54963692Y78014236D01*
X54693193Y77932182D01*
X54443900Y77798932D01*
X54225393Y77619608D01*
X54046068Y77401101D01*
X53977735Y77273259D01*
X53891474Y77405166D01*
X53973320Y77448913D01*
X54085238Y77540762D01*
X54108259Y77568813D01*
X56839593Y80300146D01*
X56867638Y80323162D01*
X56959487Y80435080D01*
X57027737Y80562767D01*
X57069765Y80701315D01*
X57080400Y80809295D01*
X57083956Y80845400D01*
X57080400Y80881505D01*
X57080400Y83581153D01*
X60860001Y79801552D01*
G04 #@! TA.AperFunction,Conductor*
D20*
G36*
X60860001Y79801552D02*
G01*
X60860001Y77937280D01*
X60606309Y78014236D01*
X60325000Y78041943D01*
X60043692Y78014236D01*
X59773193Y77932182D01*
X59523900Y77798932D01*
X59305393Y77619608D01*
X59126068Y77401101D01*
X59057735Y77273259D01*
X58907601Y77502839D01*
X58709895Y77704500D01*
X58476646Y77863715D01*
X58216818Y77974367D01*
X58134039Y77991904D01*
X57912000Y77869915D01*
X57912000Y76327000D01*
X57932000Y76327000D01*
X57932000Y76073000D01*
X57912000Y76073000D01*
X57912000Y74530085D01*
X58134039Y74408096D01*
X58216818Y74425633D01*
X58476646Y74536285D01*
X58709895Y74695500D01*
X58907601Y74897161D01*
X59057735Y75126742D01*
X59126068Y74998900D01*
X59305392Y74780393D01*
X59523899Y74601068D01*
X59773192Y74467818D01*
X60043691Y74385764D01*
X60325000Y74358057D01*
X60606308Y74385764D01*
X60860000Y74462720D01*
X60860000Y73926405D01*
X60856444Y73890300D01*
X60860000Y73854196D01*
X60870635Y73746216D01*
X60912663Y73607668D01*
X60980913Y73479981D01*
X61072762Y73368063D01*
X61100808Y73345046D01*
X63293781Y71152073D01*
X63198433Y71203037D01*
X63059885Y71245065D01*
X62951905Y71255700D01*
X62915800Y71259256D01*
X62879695Y71255700D01*
X48874505Y71255700D01*
X48838400Y71259256D01*
X48802295Y71255700D01*
X48694315Y71245065D01*
X48555767Y71203037D01*
X48428080Y71134787D01*
X48316162Y71042938D01*
X48293146Y71014893D01*
X45885000Y68606746D01*
X45885000Y69050491D01*
X45864236Y69261309D01*
X45782182Y69531808D01*
X45648932Y69781101D01*
X45503345Y69958499D01*
X51270000Y75725153D01*
X51270000Y75673000D01*
X51322350Y75395486D01*
X51427834Y75133517D01*
X51582399Y74897161D01*
X51780105Y74695500D01*
X52013354Y74536285D01*
X52273182Y74425633D01*
X52355961Y74408096D01*
X52578000Y74530085D01*
X52578000Y76073000D01*
X52558000Y76073000D01*
X52558000Y76327000D01*
X52578000Y76327000D01*
X52578000Y76347000D01*
X52832000Y76347000D01*
X52832000Y76327000D01*
X52852000Y76327000D01*
X52852000Y76073000D01*
X52832000Y76073000D01*
X52832000Y74530085D01*
X53054039Y74408096D01*
X53136818Y74425633D01*
X53396646Y74536285D01*
X53629895Y74695500D01*
X53827601Y74897161D01*
X53977735Y75126742D01*
X54046068Y74998900D01*
X54225392Y74780393D01*
X54443899Y74601068D01*
X54693192Y74467818D01*
X54963691Y74385764D01*
X55245000Y74358057D01*
X55526308Y74385764D01*
X55796807Y74467818D01*
X56046100Y74601068D01*
X56264607Y74780392D01*
X56443932Y74998899D01*
X56512265Y75126741D01*
X56662399Y74897161D01*
X56860105Y74695500D01*
X57093354Y74536285D01*
X57353182Y74425633D01*
X57435961Y74408096D01*
X57658000Y74530085D01*
X57658000Y76073000D01*
X57638000Y76073000D01*
X57638000Y76327000D01*
X57658000Y76327000D01*
X57658000Y77869915D01*
X57435961Y77991904D01*
X57353182Y77974367D01*
X57093354Y77863715D01*
X56860105Y77704500D01*
X56662399Y77502839D01*
X56512265Y77273259D01*
X56443932Y77401101D01*
X56264608Y77619608D01*
X56046101Y77798932D01*
X55796808Y77932182D01*
X55526309Y78014236D01*
X55245000Y78041943D01*
X54963692Y78014236D01*
X54693193Y77932182D01*
X54443900Y77798932D01*
X54225393Y77619608D01*
X54046068Y77401101D01*
X53977735Y77273259D01*
X53891474Y77405166D01*
X53973320Y77448913D01*
X54085238Y77540762D01*
X54108259Y77568813D01*
X56839593Y80300146D01*
X56867638Y80323162D01*
X56959487Y80435080D01*
X57027737Y80562767D01*
X57069765Y80701315D01*
X57080400Y80809295D01*
X57083956Y80845400D01*
X57080400Y80881505D01*
X57080400Y83581153D01*
X60860001Y79801552D01*
G37*
G04 #@! TD.AperFunction*
D19*
X53806928Y84077203D02*
X53806928Y83020000D01*
X53819188Y82895518D01*
X53847783Y82801252D01*
X48982398Y77935866D01*
X48928603Y78086292D01*
X48861671Y78211514D01*
X48617702Y78283097D01*
X47804605Y77470000D01*
X47818748Y77455857D01*
X47639143Y77276252D01*
X47625000Y77290395D01*
X46811903Y76477298D01*
X46883486Y76233329D01*
X46912341Y76219676D01*
X46710241Y76084637D01*
X46510363Y75884759D01*
X46353320Y75649727D01*
X46245147Y75388574D01*
X46190000Y75111335D01*
X46190000Y74828665D01*
X46245147Y74551426D01*
X46353320Y74290273D01*
X46510363Y74055241D01*
X46710241Y73855363D01*
X46945273Y73698320D01*
X47100130Y73634176D01*
X44281254Y70815300D01*
X39406105Y70815300D01*
X39370000Y70818856D01*
X39333895Y70815300D01*
X39225915Y70804665D01*
X39087367Y70762637D01*
X38959680Y70694387D01*
X38847762Y70602538D01*
X38755913Y70490620D01*
X38687663Y70362933D01*
X38645635Y70224385D01*
X38645174Y70219701D01*
X38568900Y70178932D01*
X38350393Y69999608D01*
X38171068Y69781101D01*
X38100000Y69648142D01*
X38028932Y69781101D01*
X37849608Y69999608D01*
X37631101Y70178932D01*
X37600197Y70195451D01*
X44804234Y77399488D01*
X46184783Y77399488D01*
X46226213Y77119870D01*
X46321397Y76853708D01*
X46388329Y76728486D01*
X46632298Y76656903D01*
X47445395Y77470000D01*
X46632298Y78283097D01*
X46388329Y78211514D01*
X46267429Y77956004D01*
X46198700Y77681816D01*
X46184783Y77399488D01*
X44804234Y77399488D01*
X45867448Y78462702D01*
X46811903Y78462702D01*
X47625000Y77649605D01*
X48438097Y78462702D01*
X48366514Y78706671D01*
X48111004Y78827571D01*
X47836816Y78896300D01*
X47554488Y78910217D01*
X47274870Y78868787D01*
X47008708Y78773603D01*
X46883486Y78706671D01*
X46811903Y78462702D01*
X45867448Y78462702D01*
X47235653Y79830906D01*
X47322645Y79848210D01*
X47483705Y79914923D01*
X47628655Y80011776D01*
X47751924Y80135045D01*
X47848777Y80279995D01*
X47915490Y80441055D01*
X47949500Y80612035D01*
X47949500Y80786365D01*
X47915490Y80957345D01*
X47848777Y81118405D01*
X47751924Y81263355D01*
X47632113Y81383166D01*
X51345253Y85096306D01*
X51345257Y85096311D01*
X51733153Y85484206D01*
X51820145Y85501510D01*
X51981205Y85568223D01*
X52126155Y85665076D01*
X52172606Y85711527D01*
X53806928Y84077203D01*
G04 #@! TA.AperFunction,Conductor*
D20*
G36*
X53806928Y84077203D02*
G01*
X53806928Y83020000D01*
X53819188Y82895518D01*
X53847783Y82801252D01*
X48982398Y77935866D01*
X48928603Y78086292D01*
X48861671Y78211514D01*
X48617702Y78283097D01*
X47804605Y77470000D01*
X47818748Y77455857D01*
X47639143Y77276252D01*
X47625000Y77290395D01*
X46811903Y76477298D01*
X46883486Y76233329D01*
X46912341Y76219676D01*
X46710241Y76084637D01*
X46510363Y75884759D01*
X46353320Y75649727D01*
X46245147Y75388574D01*
X46190000Y75111335D01*
X46190000Y74828665D01*
X46245147Y74551426D01*
X46353320Y74290273D01*
X46510363Y74055241D01*
X46710241Y73855363D01*
X46945273Y73698320D01*
X47100130Y73634176D01*
X44281254Y70815300D01*
X39406105Y70815300D01*
X39370000Y70818856D01*
X39333895Y70815300D01*
X39225915Y70804665D01*
X39087367Y70762637D01*
X38959680Y70694387D01*
X38847762Y70602538D01*
X38755913Y70490620D01*
X38687663Y70362933D01*
X38645635Y70224385D01*
X38645174Y70219701D01*
X38568900Y70178932D01*
X38350393Y69999608D01*
X38171068Y69781101D01*
X38100000Y69648142D01*
X38028932Y69781101D01*
X37849608Y69999608D01*
X37631101Y70178932D01*
X37600197Y70195451D01*
X44804234Y77399488D01*
X46184783Y77399488D01*
X46226213Y77119870D01*
X46321397Y76853708D01*
X46388329Y76728486D01*
X46632298Y76656903D01*
X47445395Y77470000D01*
X46632298Y78283097D01*
X46388329Y78211514D01*
X46267429Y77956004D01*
X46198700Y77681816D01*
X46184783Y77399488D01*
X44804234Y77399488D01*
X45867448Y78462702D01*
X46811903Y78462702D01*
X47625000Y77649605D01*
X48438097Y78462702D01*
X48366514Y78706671D01*
X48111004Y78827571D01*
X47836816Y78896300D01*
X47554488Y78910217D01*
X47274870Y78868787D01*
X47008708Y78773603D01*
X46883486Y78706671D01*
X46811903Y78462702D01*
X45867448Y78462702D01*
X47235653Y79830906D01*
X47322645Y79848210D01*
X47483705Y79914923D01*
X47628655Y80011776D01*
X47751924Y80135045D01*
X47848777Y80279995D01*
X47915490Y80441055D01*
X47949500Y80612035D01*
X47949500Y80786365D01*
X47915490Y80957345D01*
X47848777Y81118405D01*
X47751924Y81263355D01*
X47632113Y81383166D01*
X51345253Y85096306D01*
X51345257Y85096311D01*
X51733153Y85484206D01*
X51820145Y85501510D01*
X51981205Y85568223D01*
X52126155Y85665076D01*
X52172606Y85711527D01*
X53806928Y84077203D01*
G37*
G04 #@! TD.AperFunction*
D19*
X55438748Y81334142D02*
X55424605Y81320000D01*
X55438748Y81305857D01*
X55259143Y81126252D01*
X55245000Y81140395D01*
X54431903Y80327298D01*
X54503486Y80083329D01*
X54530907Y80070354D01*
X53258554Y78798000D01*
X52604505Y78798000D01*
X52568400Y78801556D01*
X52424315Y78787365D01*
X52285766Y78745337D01*
X52158080Y78677087D01*
X52046162Y78585238D01*
X52023146Y78557193D01*
X48960824Y75494870D01*
X48943928Y75535661D01*
X54000814Y80592546D01*
X54008329Y80578486D01*
X54252298Y80506903D01*
X55065395Y81320000D01*
X55051253Y81334142D01*
X55230858Y81513747D01*
X55245000Y81499605D01*
X55259143Y81513747D01*
X55438748Y81334142D01*
G04 #@! TA.AperFunction,Conductor*
D20*
G36*
X55438748Y81334142D02*
G01*
X55424605Y81320000D01*
X55438748Y81305857D01*
X55259143Y81126252D01*
X55245000Y81140395D01*
X54431903Y80327298D01*
X54503486Y80083329D01*
X54530907Y80070354D01*
X53258554Y78798000D01*
X52604505Y78798000D01*
X52568400Y78801556D01*
X52424315Y78787365D01*
X52285766Y78745337D01*
X52158080Y78677087D01*
X52046162Y78585238D01*
X52023146Y78557193D01*
X48960824Y75494870D01*
X48943928Y75535661D01*
X54000814Y80592546D01*
X54008329Y80578486D01*
X54252298Y80506903D01*
X55065395Y81320000D01*
X55051253Y81334142D01*
X55230858Y81513747D01*
X55245000Y81499605D01*
X55259143Y81513747D01*
X55438748Y81334142D01*
G37*
G04 #@! TD.AperFunction*
M02*
