M48
; DRILL file {KiCad (5.1.9)-1} date 03/23/25 14:15:09
; FORMAT={-:-/ absolute / metric / decimal}
; #@! TF.CreationDate,2025-03-23T14:15:09+09:00
; #@! TF.GenerationSoftware,Kicad,Pcbnew,(5.1.9)-1
FMAT,2
METRIC
T1C0.300
T2C0.800
T3C3.200
%
G90
G05
T1
X24.277Y88.203
X25.054Y70.158
X39.953Y87.053
X40.64Y84.152
X44.889Y88.897
X47.064Y80.699
X50.598Y86.174
X51.562Y86.352
X58.886Y83.734
T2
X11.43Y83.82
X11.43Y68.58
X11.43Y63.5
X11.43Y48.26
X11.43Y43.18
X11.43Y27.94
X11.43Y22.86
X11.43Y7.62
X13.97Y83.82
X13.97Y68.58
X13.97Y63.5
X13.97Y48.26
X13.97Y43.18
X13.97Y27.94
X13.97Y22.86
X13.97Y7.62
X16.51Y83.82
X16.51Y68.58
X16.51Y63.5
X16.51Y48.26
X16.51Y43.18
X16.51Y27.94
X16.51Y22.86
X16.51Y7.62
X19.05Y83.82
X19.05Y68.58
X19.05Y63.5
X19.05Y48.26
X19.05Y43.18
X19.05Y27.94
X19.05Y22.86
X19.05Y7.62
X21.59Y83.82
X21.59Y68.58
X21.59Y63.5
X21.59Y48.26
X21.59Y43.18
X21.59Y27.94
X21.59Y22.86
X21.59Y7.62
X24.13Y83.82
X24.13Y68.58
X24.13Y63.5
X24.13Y48.26
X24.13Y43.18
X24.13Y27.94
X24.13Y22.86
X24.13Y7.62
X26.67Y83.82
X26.67Y68.58
X26.67Y63.5
X26.67Y48.26
X26.67Y43.18
X26.67Y27.94
X26.67Y22.86
X26.67Y7.62
X29.21Y83.82
X29.21Y68.58
X29.21Y63.5
X29.21Y48.26
X29.21Y43.18
X29.21Y27.94
X29.21Y22.86
X29.21Y7.62
X31.75Y83.82
X31.75Y68.58
X31.75Y63.5
X31.75Y48.26
X31.75Y43.18
X31.75Y27.94
X31.75Y22.86
X31.75Y7.62
X34.29Y83.82
X34.29Y68.58
X34.29Y63.5
X34.29Y48.26
X34.29Y43.18
X34.29Y27.94
X34.29Y22.86
X34.29Y7.62
X36.83Y83.82
X36.83Y68.58
X36.83Y63.5
X36.83Y48.26
X36.83Y43.18
X36.83Y27.94
X36.83Y22.86
X36.83Y7.62
X39.37Y83.82
X39.37Y68.58
X39.37Y63.5
X39.37Y48.26
X39.37Y43.18
X39.37Y27.94
X39.37Y22.86
X39.37Y7.62
X41.91Y83.82
X41.91Y68.58
X41.91Y63.5
X41.91Y48.26
X41.91Y43.18
X41.91Y27.94
X41.91Y22.86
X41.91Y7.62
X44.45Y83.82
X44.45Y68.58
X44.45Y63.5
X44.45Y48.26
X44.45Y43.18
X44.45Y27.94
X44.45Y22.86
X44.45Y7.62
X47.625Y77.47
X47.625Y74.97
X47.625Y57.15
X47.625Y54.65
X47.625Y36.83
X47.625Y34.33
X47.625Y16.51
X47.625Y14.01
X52.705Y76.2
X52.705Y68.58
X52.705Y52.07
X52.705Y44.45
X52.705Y40.005
X52.705Y32.385
X52.759Y64.055
X52.759Y56.435
X55.245Y83.82
X55.245Y81.32
X55.245Y76.2
X55.245Y68.58
X55.245Y52.07
X55.245Y44.45
X55.245Y40.005
X55.245Y32.385
X55.245Y27.94
X55.245Y20.32
X55.299Y64.055
X55.299Y56.435
X55.88Y15.24
X55.88Y7.62
X57.785Y76.2
X57.785Y68.58
X57.785Y52.07
X57.785Y44.45
X57.785Y40.005
X57.785Y32.385
X57.839Y64.055
X57.839Y56.435
X58.42Y15.24
X58.42Y7.62
X60.325Y76.2
X60.325Y68.58
X60.325Y52.07
X60.325Y44.45
X60.325Y40.005
X60.325Y32.385
X60.325Y27.94
X60.325Y20.32
X60.379Y64.055
X60.379Y56.435
X60.96Y15.24
X60.96Y7.62
X62.865Y76.2
X62.865Y68.58
X62.865Y52.07
X62.865Y44.45
X62.865Y40.005
X62.865Y32.385
X62.919Y64.055
X62.919Y56.435
X63.5Y15.24
X63.5Y7.62
X65.405Y76.2
X65.405Y68.58
X65.405Y52.07
X65.405Y44.45
X65.405Y40.005
X65.405Y32.385
X65.405Y27.94
X65.405Y20.32
X65.459Y64.055
X65.459Y56.435
X67.945Y76.2
X67.945Y68.58
X67.945Y52.07
X67.945Y44.45
X67.945Y40.005
X67.945Y32.385
X67.999Y64.055
X67.999Y56.435
X70.485Y40.005
X70.485Y32.385
X71.12Y73.62
X71.12Y71.12
X71.12Y49.49
X71.12Y46.99
X71.374Y61.555
X71.374Y59.055
X73.66Y37.465
X73.66Y34.965
T3
X5.0Y83.0
X5.0Y5.0
X74.0Y83.0
X74.0Y5.0
T0
M30
