G04 #@! TF.GenerationSoftware,KiCad,Pcbnew,(5.1.9)-1*
G04 #@! TF.CreationDate,2025-03-23T14:15:07+09:00*
G04 #@! TF.ProjectId,PYUUTA32k,50595555-5441-4333-926b-2e6b69636164,rev?*
G04 #@! TF.SameCoordinates,PX53920b0PY93c3260*
G04 #@! TF.FileFunction,Copper,L1,Top*
G04 #@! TF.FilePolarity,Positive*
%FSLAX46Y46*%
G04 Gerber Fmt 4.6, Leading zero omitted, Abs format (unit mm)*
G04 Created by KiCad (PCBNEW (5.1.9)-1) date 2025-03-23 14:15:07*
%MOMM*%
%LPD*%
G01*
G04 APERTURE LIST*
G04 #@! TA.AperFunction,ComponentPad*
%ADD10C,1.600000*%
G04 #@! TD*
G04 #@! TA.AperFunction,ConnectorPad*
%ADD11R,1.780000X10.000000*%
G04 #@! TD*
G04 #@! TA.AperFunction,ComponentPad*
%ADD12O,1.600000X1.600000*%
G04 #@! TD*
G04 #@! TA.AperFunction,ComponentPad*
%ADD13R,1.600000X1.600000*%
G04 #@! TD*
G04 #@! TA.AperFunction,ComponentPad*
%ADD14R,1.600000X2.400000*%
G04 #@! TD*
G04 #@! TA.AperFunction,ComponentPad*
%ADD15O,1.600000X2.400000*%
G04 #@! TD*
G04 #@! TA.AperFunction,ViaPad*
%ADD16C,0.500000*%
G04 #@! TD*
G04 #@! TA.AperFunction,Conductor*
%ADD17C,0.400000*%
G04 #@! TD*
G04 #@! TA.AperFunction,Conductor*
%ADD18C,0.200000*%
G04 #@! TD*
G04 #@! TA.AperFunction,Conductor*
%ADD19C,0.254000*%
G04 #@! TD*
G04 #@! TA.AperFunction,Conductor*
%ADD20C,0.100000*%
G04 #@! TD*
G04 APERTURE END LIST*
D10*
X71120000Y49490000D03*
X71120000Y46990000D03*
X73660000Y37465000D03*
X73660000Y34965000D03*
X47625000Y14010000D03*
X47625000Y16510000D03*
X47625000Y36830000D03*
X47625000Y34330000D03*
X47625000Y57150000D03*
X47625000Y54650000D03*
X47625000Y74970000D03*
X47625000Y77470000D03*
D11*
X17780000Y94500000D03*
X20320000Y94500000D03*
X22860000Y94500000D03*
X25400000Y94500000D03*
X27940000Y94500000D03*
X30480000Y94500000D03*
X33020000Y94500000D03*
X35560000Y94500000D03*
X38100000Y94500000D03*
X40640000Y94500000D03*
X43180000Y94500000D03*
X45720000Y94500000D03*
X48260000Y94500000D03*
X50800000Y94500000D03*
X53340000Y94500000D03*
X55880000Y94500000D03*
X58420000Y94500000D03*
X60960000Y94500000D03*
D12*
X65405000Y27940000D03*
D10*
X65405000Y20320000D03*
X60325000Y20320000D03*
D12*
X60325000Y27940000D03*
X55245000Y27940000D03*
D10*
X55245000Y20320000D03*
D13*
X63500000Y15240000D03*
D12*
X55880000Y7620000D03*
X60960000Y15240000D03*
X58420000Y7620000D03*
X58420000Y15240000D03*
X60960000Y7620000D03*
X55880000Y15240000D03*
X63500000Y7620000D03*
D14*
X44450000Y22860000D03*
D15*
X11430000Y7620000D03*
X41910000Y22860000D03*
X13970000Y7620000D03*
X39370000Y22860000D03*
X16510000Y7620000D03*
X36830000Y22860000D03*
X19050000Y7620000D03*
X34290000Y22860000D03*
X21590000Y7620000D03*
X31750000Y22860000D03*
X24130000Y7620000D03*
X29210000Y22860000D03*
X26670000Y7620000D03*
X26670000Y22860000D03*
X29210000Y7620000D03*
X24130000Y22860000D03*
X31750000Y7620000D03*
X21590000Y22860000D03*
X34290000Y7620000D03*
X19050000Y22860000D03*
X36830000Y7620000D03*
X16510000Y22860000D03*
X39370000Y7620000D03*
X13970000Y22860000D03*
X41910000Y7620000D03*
X11430000Y22860000D03*
X44450000Y7620000D03*
D14*
X44450000Y43180000D03*
D15*
X11430000Y27940000D03*
X41910000Y43180000D03*
X13970000Y27940000D03*
X39370000Y43180000D03*
X16510000Y27940000D03*
X36830000Y43180000D03*
X19050000Y27940000D03*
X34290000Y43180000D03*
X21590000Y27940000D03*
X31750000Y43180000D03*
X24130000Y27940000D03*
X29210000Y43180000D03*
X26670000Y27940000D03*
X26670000Y43180000D03*
X29210000Y27940000D03*
X24130000Y43180000D03*
X31750000Y27940000D03*
X21590000Y43180000D03*
X34290000Y27940000D03*
X19050000Y43180000D03*
X36830000Y27940000D03*
X16510000Y43180000D03*
X39370000Y27940000D03*
X13970000Y43180000D03*
X41910000Y27940000D03*
X11430000Y43180000D03*
X44450000Y27940000D03*
X44450000Y48260000D03*
X11430000Y63500000D03*
X41910000Y48260000D03*
X13970000Y63500000D03*
X39370000Y48260000D03*
X16510000Y63500000D03*
X36830000Y48260000D03*
X19050000Y63500000D03*
X34290000Y48260000D03*
X21590000Y63500000D03*
X31750000Y48260000D03*
X24130000Y63500000D03*
X29210000Y48260000D03*
X26670000Y63500000D03*
X26670000Y48260000D03*
X29210000Y63500000D03*
X24130000Y48260000D03*
X31750000Y63500000D03*
X21590000Y48260000D03*
X34290000Y63500000D03*
X19050000Y48260000D03*
X36830000Y63500000D03*
X16510000Y48260000D03*
X39370000Y63500000D03*
X13970000Y48260000D03*
X41910000Y63500000D03*
X11430000Y48260000D03*
D14*
X44450000Y63500000D03*
D15*
X44450000Y68580000D03*
X11430000Y83820000D03*
X41910000Y68580000D03*
X13970000Y83820000D03*
X39370000Y68580000D03*
X16510000Y83820000D03*
X36830000Y68580000D03*
X19050000Y83820000D03*
X34290000Y68580000D03*
X21590000Y83820000D03*
X31750000Y68580000D03*
X24130000Y83820000D03*
X29210000Y68580000D03*
X26670000Y83820000D03*
X26670000Y68580000D03*
X29210000Y83820000D03*
X24130000Y68580000D03*
X31750000Y83820000D03*
X21590000Y68580000D03*
X34290000Y83820000D03*
X19050000Y68580000D03*
X36830000Y83820000D03*
X16510000Y68580000D03*
X39370000Y83820000D03*
X13970000Y68580000D03*
X41910000Y83820000D03*
X11430000Y68580000D03*
D14*
X44450000Y83820000D03*
X70485000Y40005000D03*
D15*
X52705000Y32385000D03*
X67945000Y40005000D03*
X55245000Y32385000D03*
X65405000Y40005000D03*
X57785000Y32385000D03*
X62865000Y40005000D03*
X60325000Y32385000D03*
X60325000Y40005000D03*
X62865000Y32385000D03*
X57785000Y40005000D03*
X65405000Y32385000D03*
X55245000Y40005000D03*
X67945000Y32385000D03*
X52705000Y40005000D03*
X70485000Y32385000D03*
D14*
X67945000Y52070000D03*
D15*
X52705000Y44450000D03*
X65405000Y52070000D03*
X55245000Y44450000D03*
X62865000Y52070000D03*
X57785000Y44450000D03*
X60325000Y52070000D03*
X60325000Y44450000D03*
X57785000Y52070000D03*
X62865000Y44450000D03*
X55245000Y52070000D03*
X65405000Y44450000D03*
X52705000Y52070000D03*
X67945000Y44450000D03*
D13*
X55245000Y83820000D03*
D10*
X55245000Y81320000D03*
X71120000Y73620000D03*
X71120000Y71120000D03*
X71374000Y59055000D03*
X71374000Y61555000D03*
D15*
X67945000Y68580000D03*
X52705000Y76200000D03*
X65405000Y68580000D03*
X55245000Y76200000D03*
X62865000Y68580000D03*
X57785000Y76200000D03*
X60325000Y68580000D03*
X60325000Y76200000D03*
X57785000Y68580000D03*
X62865000Y76200000D03*
X55245000Y68580000D03*
X65405000Y76200000D03*
X52705000Y68580000D03*
D14*
X67945000Y76200000D03*
X67999000Y64055000D03*
D15*
X52759000Y56435000D03*
X65459000Y64055000D03*
X55299000Y56435000D03*
X62919000Y64055000D03*
X57839000Y56435000D03*
X60379000Y64055000D03*
X60379000Y56435000D03*
X57839000Y64055000D03*
X62919000Y56435000D03*
X55299000Y64055000D03*
X65459000Y56435000D03*
X52759000Y64055000D03*
X67999000Y56435000D03*
D16*
X39953200Y87052600D03*
X51562000Y86352500D03*
X50597900Y86173600D03*
X47064500Y80699200D03*
X24277300Y88203300D03*
X44888800Y88897100D03*
X40640000Y84152500D03*
X58885500Y83733600D03*
X25054400Y70158000D03*
D17*
X68580000Y44450000D02*
X67945000Y44450000D01*
X71120000Y46990000D02*
X68580000Y44450000D01*
X72072500Y33377500D02*
X72072500Y41064300D01*
X72072500Y41064300D02*
X68686800Y44450000D01*
X68686800Y44450000D02*
X68580000Y44450000D01*
X72072500Y33377500D02*
X71080000Y32385000D01*
X71080000Y32385000D02*
X70485000Y32385000D01*
X73660000Y34965000D02*
X72072500Y33377500D01*
X45876100Y29366100D02*
X45876100Y15758900D01*
X45876100Y15758900D02*
X47625000Y14010000D01*
X45876100Y29366100D02*
X44450000Y27940000D01*
X47625000Y32722500D02*
X47625000Y31115000D01*
X47625000Y31115000D02*
X45876100Y29366100D01*
X44450000Y48260000D02*
X44450000Y46659700D01*
X47625000Y32722500D02*
X47505900Y32722500D01*
X47505900Y32722500D02*
X45650300Y34578100D01*
X45650300Y34578100D02*
X45650300Y45459400D01*
X45650300Y45459400D02*
X44450000Y46659700D01*
X47625000Y34330000D02*
X47625000Y32722500D01*
X68580000Y68580000D02*
X67945000Y68580000D01*
X71120000Y71120000D02*
X68580000Y68580000D01*
X70425700Y58106700D02*
X69912600Y58619800D01*
X69912600Y58619800D02*
X69912600Y67247400D01*
X69912600Y67247400D02*
X68580000Y68580000D01*
X70425700Y58106700D02*
X68754000Y56435000D01*
X68754000Y56435000D02*
X67999000Y56435000D01*
X71374000Y59055000D02*
X70425700Y58106700D01*
X44905600Y69035600D02*
X45650400Y68290800D01*
X45650400Y68290800D02*
X45650400Y56624600D01*
X45650400Y56624600D02*
X47625000Y54650000D01*
X44905600Y69035600D02*
X44450000Y68580000D01*
X47625000Y74970000D02*
X47625000Y71755000D01*
X47625000Y71755000D02*
X44905600Y69035600D01*
X47625000Y54650000D02*
X47625000Y51435000D01*
X47625000Y51435000D02*
X44450000Y48260000D01*
X47625000Y14010000D02*
X47625000Y10795000D01*
X47625000Y10795000D02*
X44450000Y7620000D01*
X52705000Y40005000D02*
X52705000Y41605300D01*
X52705000Y52070000D02*
X52705000Y50469700D01*
X52705000Y50469700D02*
X53905300Y49269400D01*
X53905300Y49269400D02*
X53905300Y42805600D01*
X53905300Y42805600D02*
X52705000Y41605300D01*
X55245000Y27940000D02*
X55245000Y29140300D01*
X55245000Y27940000D02*
X55245000Y26739700D01*
X47625000Y16510000D02*
X47625000Y19119700D01*
X47625000Y19119700D02*
X55245000Y26739700D01*
X55245000Y29140300D02*
X54044700Y30340600D01*
X54044700Y30340600D02*
X54044700Y36395200D01*
X54044700Y36395200D02*
X52705000Y37734900D01*
X11430000Y83820000D02*
X11430000Y82219700D01*
X11430000Y63500000D02*
X11430000Y65100300D01*
X11430000Y65100300D02*
X10184300Y66346000D01*
X10184300Y66346000D02*
X10184300Y80974000D01*
X10184300Y80974000D02*
X11430000Y82219700D01*
X11430000Y22860000D02*
X11430000Y24460300D01*
X11430000Y43180000D02*
X11430000Y41579700D01*
X11430000Y41579700D02*
X10207700Y40357400D01*
X10207700Y40357400D02*
X10207700Y25682600D01*
X10207700Y25682600D02*
X11430000Y24460300D01*
X52705000Y76200000D02*
X52705000Y74599700D01*
X52759000Y64055000D02*
X52759000Y65655300D01*
X52759000Y65655300D02*
X53964100Y66860400D01*
X53964100Y66860400D02*
X53964100Y73340600D01*
X53964100Y73340600D02*
X52705000Y74599700D01*
X55299000Y58035300D02*
X52759000Y60575300D01*
X52759000Y60575300D02*
X52759000Y64055000D01*
X52705000Y77000200D02*
X48094800Y77000200D01*
X48094800Y77000200D02*
X47625000Y77470000D01*
X52705000Y77000200D02*
X52705000Y77800300D01*
X52705000Y76200000D02*
X52705000Y77000200D01*
X55245000Y80340300D02*
X57785000Y77800300D01*
X55245000Y81320000D02*
X55245000Y80340300D01*
X52705000Y77800300D02*
X55245000Y80340300D01*
X52705000Y37734900D02*
X48529900Y37734900D01*
X48529900Y37734900D02*
X47625000Y36830000D01*
X52705000Y37734900D02*
X52705000Y38404700D01*
X57785000Y76200000D02*
X57785000Y77800300D01*
X73660000Y37465000D02*
X73660000Y46950000D01*
X73660000Y46950000D02*
X71120000Y49490000D01*
X52705000Y40005000D02*
X52705000Y38404700D01*
X17780000Y94500000D02*
X17780000Y89099700D01*
X11430000Y83820000D02*
X11430000Y85420300D01*
X11430000Y85420300D02*
X14100600Y85420300D01*
X14100600Y85420300D02*
X17780000Y89099700D01*
X71374000Y61555000D02*
X72354200Y62535200D01*
X72354200Y62535200D02*
X72354200Y72385800D01*
X72354200Y72385800D02*
X71120000Y73620000D01*
X55299000Y56435000D02*
X55299000Y58035300D01*
D18*
X21590000Y7620000D02*
X21590000Y9120300D01*
X21590000Y27940000D02*
X21590000Y26439700D01*
X21590000Y26439700D02*
X22701100Y25328600D01*
X22701100Y25328600D02*
X22701100Y10231400D01*
X22701100Y10231400D02*
X21590000Y9120300D01*
X21590000Y48260000D02*
X21590000Y49760300D01*
X21590000Y68580000D02*
X21590000Y67079700D01*
X21590000Y67079700D02*
X22694200Y65975500D01*
X22694200Y65975500D02*
X22694200Y60846900D01*
X22694200Y60846900D02*
X21590000Y59742700D01*
X21590000Y59742700D02*
X21590000Y49760300D01*
X19050000Y48260000D02*
X19050000Y49760300D01*
X19050000Y68580000D02*
X19050000Y66415500D01*
X19050000Y66415500D02*
X20178600Y65286900D01*
X20178600Y65286900D02*
X20178600Y60871300D01*
X20178600Y60871300D02*
X19505900Y60198600D01*
X19505900Y60198600D02*
X19505900Y50216200D01*
X19505900Y50216200D02*
X19050000Y49760300D01*
X16510000Y27940000D02*
X16510000Y29440300D01*
X16510000Y48260000D02*
X16510000Y46759700D01*
X16510000Y46759700D02*
X17679600Y45590100D01*
X17679600Y45590100D02*
X17679600Y30609900D01*
X17679600Y30609900D02*
X16510000Y29440300D01*
X16510000Y49010200D02*
X16510000Y48260000D01*
X16510000Y7620000D02*
X16510000Y9120300D01*
X16510000Y27940000D02*
X16510000Y26439700D01*
X16510000Y26439700D02*
X17621100Y25328600D01*
X17621100Y25328600D02*
X17621100Y10231400D01*
X17621100Y10231400D02*
X16510000Y9120300D01*
X16510000Y49010200D02*
X16510000Y49760300D01*
X16510000Y68580000D02*
X16510000Y67079700D01*
X16510000Y67079700D02*
X17679600Y65910100D01*
X17679600Y65910100D02*
X17679600Y50929900D01*
X17679600Y50929900D02*
X16510000Y49760300D01*
X13970000Y48260000D02*
X13970000Y49760300D01*
X13970000Y68580000D02*
X13970000Y67079700D01*
X13970000Y67079700D02*
X14426100Y66623600D01*
X14426100Y66623600D02*
X14426100Y65959400D01*
X14426100Y65959400D02*
X15074200Y65311300D01*
X15074200Y65311300D02*
X15074200Y60280800D01*
X15074200Y60280800D02*
X14425900Y59632500D01*
X14425900Y59632500D02*
X14425900Y50216200D01*
X14425900Y50216200D02*
X13970000Y49760300D01*
X13970000Y27940000D02*
X13970000Y29440300D01*
X13970000Y48260000D02*
X13970000Y46759700D01*
X13970000Y46759700D02*
X15106200Y45623500D01*
X15106200Y45623500D02*
X15106200Y30576500D01*
X15106200Y30576500D02*
X13970000Y29440300D01*
X13970000Y7620000D02*
X13970000Y9120300D01*
X13970000Y27940000D02*
X13970000Y26439700D01*
X13970000Y26439700D02*
X15081100Y25328600D01*
X15081100Y25328600D02*
X15081100Y10231400D01*
X15081100Y10231400D02*
X13970000Y9120300D01*
X11430000Y28690200D02*
X11430000Y27940000D01*
X11430000Y28690200D02*
X11430000Y29440300D01*
X11430000Y46759700D02*
X12541100Y45648600D01*
X12541100Y45648600D02*
X12541100Y30551400D01*
X12541100Y30551400D02*
X11430000Y29440300D01*
X11430000Y67079700D02*
X12541100Y65968600D01*
X12541100Y65968600D02*
X12541100Y50871400D01*
X12541100Y50871400D02*
X11430000Y49760300D01*
X11430000Y48260000D02*
X11430000Y46759700D01*
X11430000Y49010200D02*
X11430000Y48260000D01*
X11430000Y49010200D02*
X11430000Y49760300D01*
X11430000Y68580000D02*
X11430000Y67079700D01*
X13970000Y43180000D02*
X13970000Y31414100D01*
X13970000Y31414100D02*
X12858800Y30302900D01*
X12858800Y30302900D02*
X12858800Y25471500D01*
X12858800Y25471500D02*
X13970000Y24360300D01*
X13970000Y63500000D02*
X13970000Y51734000D01*
X13970000Y51734000D02*
X12845700Y50609700D01*
X12845700Y50609700D02*
X12845700Y47317700D01*
X12845700Y47317700D02*
X13970000Y46193400D01*
X13970000Y46193400D02*
X13970000Y43180000D01*
X13970000Y22860000D02*
X13970000Y24360300D01*
X13970000Y82319700D02*
X12845700Y81195400D01*
X12845700Y81195400D02*
X12845700Y67637700D01*
X12845700Y67637700D02*
X13970000Y66513400D01*
X13970000Y66513400D02*
X13970000Y63500000D01*
X13970000Y83820000D02*
X13970000Y82319700D01*
X16510000Y43180000D02*
X16510000Y46193400D01*
X16510000Y46193400D02*
X15374400Y47329000D01*
X15374400Y47329000D02*
X15374400Y59731900D01*
X15374400Y59731900D02*
X16510000Y60867500D01*
X16510000Y60867500D02*
X16510000Y61999700D01*
X16510000Y63500000D02*
X16510000Y65000300D01*
X16510000Y63500000D02*
X16510000Y61999700D01*
X16510000Y82319700D02*
X15374500Y81184200D01*
X15374500Y81184200D02*
X15374500Y66135800D01*
X15374500Y66135800D02*
X16510000Y65000300D01*
X16510000Y83820000D02*
X16510000Y82319700D01*
X19050000Y83820000D02*
X19050000Y82319700D01*
X19050000Y57365300D02*
X19050000Y62673200D01*
X19050000Y62673200D02*
X18649600Y63073600D01*
X18649600Y63073600D02*
X18649600Y66064900D01*
X18649600Y66064900D02*
X17935200Y66779300D01*
X17935200Y66779300D02*
X17935200Y81204900D01*
X17935200Y81204900D02*
X19050000Y82319700D01*
X19050000Y57365300D02*
X19050000Y51230600D01*
X19050000Y51230600D02*
X17914400Y50095000D01*
X17914400Y50095000D02*
X17914400Y47329000D01*
X17914400Y47329000D02*
X19050000Y46193400D01*
X19050000Y46193400D02*
X19050000Y43180000D01*
X19050000Y63500000D02*
X19050000Y57365300D01*
X39370000Y83820000D02*
X39370000Y82319700D01*
X39370000Y82319700D02*
X38255500Y81205200D01*
X38255500Y81205200D02*
X38255500Y67627900D01*
X38255500Y67627900D02*
X39370000Y66513400D01*
X39370000Y66513400D02*
X39370000Y63500000D01*
X40640000Y89199700D02*
X39953200Y88512900D01*
X39953200Y88512900D02*
X39953200Y87052600D01*
X40640000Y94500000D02*
X40640000Y89199700D01*
X39370000Y22860000D02*
X39370000Y25024500D01*
X39370000Y25024500D02*
X38225300Y26169200D01*
X38225300Y26169200D02*
X38225300Y28861900D01*
X38225300Y28861900D02*
X39370000Y30006600D01*
X39370000Y30006600D02*
X39370000Y43180000D01*
X39370000Y63500000D02*
X39370000Y51230600D01*
X39370000Y51230600D02*
X38258800Y50119400D01*
X38258800Y50119400D02*
X38258800Y45791500D01*
X38258800Y45791500D02*
X39370000Y44680300D01*
X39370000Y43180000D02*
X39370000Y44680300D01*
X38100000Y94500000D02*
X38100000Y89199700D01*
X38100000Y89199700D02*
X36830000Y87929700D01*
X36830000Y87929700D02*
X36830000Y85320300D01*
X36830000Y22860000D02*
X36830000Y25024500D01*
X36830000Y25024500D02*
X35709700Y26144800D01*
X35709700Y26144800D02*
X35709700Y30577000D01*
X35709700Y30577000D02*
X36830000Y31697300D01*
X36830000Y31697300D02*
X36830000Y43180000D01*
X36830000Y43180000D02*
X36830000Y45344500D01*
X36830000Y45344500D02*
X35709700Y46464800D01*
X35709700Y46464800D02*
X35709700Y50897000D01*
X35709700Y50897000D02*
X36830000Y52017300D01*
X36830000Y52017300D02*
X36830000Y63500000D01*
X36830000Y83820000D02*
X36830000Y82319700D01*
X36830000Y63500000D02*
X36830000Y65664500D01*
X36830000Y65664500D02*
X35718800Y66775700D01*
X35718800Y66775700D02*
X35718800Y81208500D01*
X35718800Y81208500D02*
X36830000Y82319700D01*
X36830000Y83820000D02*
X36830000Y85320300D01*
X39370000Y48260000D02*
X39370000Y49760300D01*
X39370000Y68580000D02*
X39370000Y67079700D01*
X39370000Y67079700D02*
X39826100Y66623600D01*
X39826100Y66623600D02*
X39826100Y65959400D01*
X39826100Y65959400D02*
X40475200Y65310300D01*
X40475200Y65310300D02*
X40475200Y60847900D01*
X40475200Y60847900D02*
X39825900Y60198600D01*
X39825900Y60198600D02*
X39825900Y50216200D01*
X39825900Y50216200D02*
X39370000Y49760300D01*
X39370000Y27940000D02*
X39370000Y29440300D01*
X39370000Y48260000D02*
X39370000Y46427600D01*
X39370000Y46427600D02*
X40510500Y45287100D01*
X40510500Y45287100D02*
X40510500Y40563200D01*
X40510500Y40563200D02*
X39825900Y39878600D01*
X39825900Y39878600D02*
X39825900Y29896200D01*
X39825900Y29896200D02*
X39370000Y29440300D01*
X39370000Y7620000D02*
X39370000Y9120300D01*
X39370000Y27940000D02*
X39370000Y26439700D01*
X39370000Y26439700D02*
X40481100Y25328600D01*
X40481100Y25328600D02*
X40481100Y10231400D01*
X40481100Y10231400D02*
X39370000Y9120300D01*
X34290000Y22860000D02*
X34290000Y25873400D01*
X34290000Y25873400D02*
X33165700Y26997700D01*
X33165700Y26997700D02*
X33165700Y40555400D01*
X33165700Y40555400D02*
X34290000Y41679700D01*
X34290000Y63500000D02*
X34290000Y51734000D01*
X34290000Y51734000D02*
X33173400Y50617400D01*
X33173400Y50617400D02*
X33173400Y47310000D01*
X33173400Y47310000D02*
X34290000Y46193400D01*
X34290000Y46193400D02*
X34290000Y43180000D01*
X34290000Y84570200D02*
X33165700Y83445900D01*
X33165700Y83445900D02*
X33165700Y67637700D01*
X33165700Y67637700D02*
X34290000Y66513400D01*
X34290000Y66513400D02*
X34290000Y63500000D01*
X34290000Y43180000D02*
X34290000Y41679700D01*
X34290000Y84570200D02*
X34290000Y87929700D01*
X34290000Y87929700D02*
X35560000Y89199700D01*
X35560000Y94500000D02*
X35560000Y89199700D01*
X34290000Y83820000D02*
X34290000Y84570200D01*
X41910000Y43180000D02*
X41910000Y45153400D01*
X41910000Y45153400D02*
X40775400Y46288000D01*
X40775400Y46288000D02*
X40775400Y60299000D01*
X40775400Y60299000D02*
X41910000Y61433600D01*
X41910000Y61433600D02*
X41910000Y61999700D01*
X41910000Y63500000D02*
X41910000Y65000300D01*
X41910000Y63500000D02*
X41910000Y61999700D01*
X41910000Y82319700D02*
X40740500Y81150200D01*
X40740500Y81150200D02*
X40740500Y66169800D01*
X40740500Y66169800D02*
X41910000Y65000300D01*
X41910000Y22860000D02*
X41910000Y25411100D01*
X41910000Y25411100D02*
X40809100Y26512000D01*
X40809100Y26512000D02*
X40809100Y40012700D01*
X40809100Y40012700D02*
X41910000Y41113600D01*
X41910000Y41113600D02*
X41910000Y41679700D01*
X41910000Y43180000D02*
X41910000Y41679700D01*
X41910000Y85320300D02*
X42122300Y85320300D01*
X42122300Y85320300D02*
X45720000Y88918000D01*
X45720000Y88918000D02*
X45720000Y94500000D01*
X41910000Y83820000D02*
X41910000Y82319700D01*
X41910000Y83820000D02*
X41910000Y85320300D01*
X33020000Y94500000D02*
X33020000Y89199700D01*
X31750000Y83820000D02*
X31750000Y87929700D01*
X31750000Y87929700D02*
X33020000Y89199700D01*
X31750000Y83386500D02*
X31750000Y83820000D01*
X31750000Y83386500D02*
X31750000Y82319700D01*
X31750000Y43180000D02*
X31750000Y41679700D01*
X31750000Y22860000D02*
X31750000Y24360300D01*
X31750000Y24360300D02*
X30621400Y25488900D01*
X30621400Y25488900D02*
X30621400Y40551100D01*
X30621400Y40551100D02*
X31750000Y41679700D01*
X31750000Y63500000D02*
X31750000Y61999700D01*
X31750000Y43180000D02*
X31750000Y44680300D01*
X31750000Y44680300D02*
X30621400Y45808900D01*
X30621400Y45808900D02*
X30621400Y60871100D01*
X30621400Y60871100D02*
X31750000Y61999700D01*
X31750000Y63500000D02*
X31750000Y65000300D01*
X31750000Y65000300D02*
X30638800Y66111500D01*
X30638800Y66111500D02*
X30638800Y81208500D01*
X30638800Y81208500D02*
X31750000Y82319700D01*
X26670000Y67079700D02*
X27806300Y65943400D01*
X27806300Y65943400D02*
X27806300Y50896600D01*
X27806300Y50896600D02*
X26670000Y49760300D01*
X26670000Y48260000D02*
X26670000Y49760300D01*
X26670000Y68580000D02*
X26670000Y67079700D01*
X26670000Y7620000D02*
X26670000Y9120300D01*
X26670000Y27940000D02*
X26670000Y26439700D01*
X26670000Y26439700D02*
X27781100Y25328600D01*
X27781100Y25328600D02*
X27781100Y10231400D01*
X27781100Y10231400D02*
X26670000Y9120300D01*
X29210000Y83820000D02*
X29210000Y82319700D01*
X29210000Y63500000D02*
X29210000Y65664500D01*
X29210000Y65664500D02*
X28040400Y66834100D01*
X28040400Y66834100D02*
X28040400Y81150100D01*
X28040400Y81150100D02*
X29210000Y82319700D01*
X29210000Y44680300D02*
X28109700Y45780600D01*
X28109700Y45780600D02*
X28109700Y50633700D01*
X28109700Y50633700D02*
X29210000Y51734000D01*
X29210000Y51734000D02*
X29210000Y63500000D01*
X30480000Y94500000D02*
X30480000Y89199700D01*
X29210000Y83820000D02*
X29210000Y87929700D01*
X29210000Y87929700D02*
X30480000Y89199700D01*
X29210000Y43180000D02*
X29210000Y44680300D01*
X29210000Y22860000D02*
X29210000Y25411100D01*
X29210000Y25411100D02*
X28109100Y26512000D01*
X28109100Y26512000D02*
X28109100Y39446600D01*
X28109100Y39446600D02*
X29210000Y40547500D01*
X29210000Y40547500D02*
X29210000Y41679700D01*
X29210000Y43180000D02*
X29210000Y41679700D01*
X31750000Y48260000D02*
X31750000Y46759700D01*
X31750000Y46759700D02*
X32864400Y45645300D01*
X32864400Y45645300D02*
X32864400Y42227800D01*
X32864400Y42227800D02*
X31750000Y41113400D01*
X31750000Y41113400D02*
X31750000Y27940000D01*
X31750000Y49010200D02*
X31750000Y48260000D01*
X31750000Y67079700D02*
X32861100Y65968600D01*
X32861100Y65968600D02*
X32861100Y50871400D01*
X32861100Y50871400D02*
X31750000Y49760300D01*
X31750000Y7620000D02*
X31750000Y9120300D01*
X31750000Y27940000D02*
X31750000Y26439700D01*
X31750000Y26439700D02*
X32861100Y25328600D01*
X32861100Y25328600D02*
X32861100Y10231400D01*
X32861100Y10231400D02*
X31750000Y9120300D01*
X31750000Y49010200D02*
X31750000Y49760300D01*
X31750000Y68580000D02*
X31750000Y67079700D01*
X53340000Y94500000D02*
X53340000Y88130500D01*
X51562000Y86352500D02*
X53340000Y88130500D01*
X50800000Y86375700D02*
X50597900Y86173600D01*
X50800000Y94500000D02*
X50800000Y86375700D01*
X48260000Y89199700D02*
X47064500Y88004200D01*
X47064500Y88004200D02*
X47064500Y80699200D01*
X48260000Y94500000D02*
X48260000Y89199700D01*
X34290000Y46759700D02*
X35411200Y45638500D01*
X35411200Y45638500D02*
X35411200Y31127600D01*
X35411200Y31127600D02*
X34290000Y30006400D01*
X34290000Y30006400D02*
X34290000Y29440300D01*
X34290000Y67079700D02*
X35411200Y65958500D01*
X35411200Y65958500D02*
X35411200Y51447600D01*
X35411200Y51447600D02*
X34290000Y50326400D01*
X34290000Y50326400D02*
X34290000Y49760300D01*
X34290000Y7620000D02*
X34290000Y9120300D01*
X34290000Y27940000D02*
X34290000Y26439700D01*
X34290000Y26439700D02*
X35401100Y25328600D01*
X35401100Y25328600D02*
X35401100Y10231400D01*
X35401100Y10231400D02*
X34290000Y9120300D01*
X34290000Y28690200D02*
X34290000Y27940000D01*
X34290000Y28690200D02*
X34290000Y29440300D01*
X34290000Y48260000D02*
X34290000Y46759700D01*
X34290000Y49010200D02*
X34290000Y48260000D01*
X34290000Y49010200D02*
X34290000Y49760300D01*
X34290000Y68580000D02*
X34290000Y67079700D01*
X43180000Y89199700D02*
X40460600Y86480300D01*
X40460600Y86480300D02*
X40062000Y86480300D01*
X40062000Y86480300D02*
X37930400Y84348700D01*
X37930400Y84348700D02*
X37930400Y82720200D01*
X37930400Y82720200D02*
X36830000Y81619800D01*
X36830000Y81619800D02*
X36830000Y68580000D01*
X36830000Y68580000D02*
X36830000Y67079700D01*
X36830000Y67079700D02*
X37954200Y65955500D01*
X37954200Y65955500D02*
X37954200Y52458000D01*
X37954200Y52458000D02*
X36830000Y51333800D01*
X36830000Y51333800D02*
X36830000Y48260000D01*
X43180000Y94500000D02*
X43180000Y89199700D01*
X36830000Y7620000D02*
X36830000Y9120300D01*
X36830000Y27940000D02*
X36830000Y26439700D01*
X36830000Y26439700D02*
X37941100Y25328600D01*
X37941100Y25328600D02*
X37941100Y10231400D01*
X37941100Y10231400D02*
X36830000Y9120300D01*
X36830000Y28690200D02*
X36830000Y27940000D01*
X36830000Y28690200D02*
X36830000Y29440300D01*
X36830000Y48260000D02*
X36830000Y46095500D01*
X36830000Y46095500D02*
X37999600Y44925900D01*
X37999600Y44925900D02*
X37999600Y30609900D01*
X37999600Y30609900D02*
X36830000Y29440300D01*
X26670000Y63500000D02*
X26670000Y52300100D01*
X26670000Y52300100D02*
X25537500Y51167600D01*
X25537500Y51167600D02*
X25537500Y46897100D01*
X25537500Y46897100D02*
X26670000Y45764600D01*
X26670000Y45764600D02*
X26670000Y43180000D01*
X26670000Y82319700D02*
X26670000Y70995300D01*
X26670000Y70995300D02*
X25558800Y69884100D01*
X25558800Y69884100D02*
X25558800Y66775700D01*
X25558800Y66775700D02*
X26670000Y65664500D01*
X26670000Y65664500D02*
X26670000Y63500000D01*
X26670000Y22860000D02*
X26670000Y24360300D01*
X26670000Y43180000D02*
X26670000Y31414000D01*
X26670000Y31414000D02*
X25525000Y30269000D01*
X25525000Y30269000D02*
X25525000Y25505300D01*
X25525000Y25505300D02*
X26670000Y24360300D01*
X27940000Y94500000D02*
X27940000Y89199700D01*
X26670000Y83820000D02*
X26670000Y87929700D01*
X26670000Y87929700D02*
X27940000Y89199700D01*
X26670000Y83386500D02*
X26670000Y83820000D01*
X26670000Y83386500D02*
X26670000Y82319700D01*
X21590000Y44680300D02*
X20478800Y45791500D01*
X20478800Y45791500D02*
X20478800Y60322400D01*
X20478800Y60322400D02*
X21590000Y61433600D01*
X21590000Y61433600D02*
X21590000Y61999700D01*
X21590000Y22860000D02*
X21590000Y24360300D01*
X21590000Y43180000D02*
X21590000Y41679700D01*
X21590000Y41679700D02*
X20420400Y40510100D01*
X20420400Y40510100D02*
X20420400Y25529900D01*
X20420400Y25529900D02*
X21590000Y24360300D01*
X21590000Y43930200D02*
X21590000Y43180000D01*
X21590000Y43930200D02*
X21590000Y44680300D01*
X21590000Y63500000D02*
X21590000Y65000300D01*
X21590000Y63500000D02*
X21590000Y61999700D01*
X21590000Y82319700D02*
X20487400Y81217100D01*
X20487400Y81217100D02*
X20487400Y66102900D01*
X20487400Y66102900D02*
X21590000Y65000300D01*
X25400000Y94500000D02*
X25400000Y89199700D01*
X24277300Y88203300D02*
X25273700Y89199700D01*
X25273700Y89199700D02*
X25400000Y89199700D01*
X21590000Y83820000D02*
X21590000Y82319700D01*
X40640000Y84152500D02*
X40640000Y84648300D01*
X40640000Y84648300D02*
X44888800Y88897100D01*
X24130000Y43180000D02*
X24130000Y44680300D01*
X24130000Y83820000D02*
X24130000Y82319700D01*
X24130000Y82319700D02*
X22978200Y81167900D01*
X22978200Y81167900D02*
X22978200Y67220500D01*
X22978200Y67220500D02*
X24130000Y66068700D01*
X24130000Y66068700D02*
X24130000Y63500000D01*
X24130000Y44680300D02*
X22994400Y45815900D01*
X22994400Y45815900D02*
X22994400Y60298000D01*
X22994400Y60298000D02*
X24130000Y61433600D01*
X24130000Y61433600D02*
X24130000Y61999700D01*
X24130000Y63500000D02*
X24130000Y61999700D01*
X57785000Y53570300D02*
X56676800Y54678500D01*
X56676800Y54678500D02*
X56676800Y71599800D01*
X56676800Y71599800D02*
X58885500Y73808500D01*
X58885500Y73808500D02*
X58885500Y83733600D01*
X65405000Y52070000D02*
X65405000Y53570300D01*
X65405000Y53570300D02*
X57785000Y53570300D01*
X65405000Y44450000D02*
X65405000Y52070000D01*
X57785000Y52070000D02*
X57785000Y53570300D01*
X57785000Y44450000D02*
X57785000Y52070000D01*
X44450000Y22860000D02*
X44450000Y24360300D01*
X44450000Y43180000D02*
X44450000Y41679700D01*
X44450000Y41679700D02*
X43349700Y40579400D01*
X43349700Y40579400D02*
X43349700Y25460600D01*
X43349700Y25460600D02*
X44450000Y24360300D01*
X44450000Y43930200D02*
X44450000Y43180000D01*
X44450000Y82319700D02*
X43342200Y81211900D01*
X43342200Y81211900D02*
X43342200Y66108100D01*
X43342200Y66108100D02*
X44450000Y65000300D01*
X44450000Y43930200D02*
X44450000Y44680300D01*
X44450000Y44680300D02*
X43349700Y45780600D01*
X43349700Y45780600D02*
X43349700Y60899400D01*
X43349700Y60899400D02*
X44450000Y61999700D01*
X44450000Y63500000D02*
X44450000Y61999700D01*
X44450000Y64250200D02*
X44450000Y63500000D01*
X44450000Y64250200D02*
X44450000Y65000300D01*
X44450000Y83820000D02*
X44450000Y82319700D01*
X70485000Y40005000D02*
X70485000Y38504700D01*
X70485000Y38504700D02*
X69384700Y37404400D01*
X69384700Y37404400D02*
X69384700Y29379700D01*
X69384700Y29379700D02*
X60325000Y20320000D01*
X60325000Y20320000D02*
X59854000Y19849000D01*
X59854000Y19849000D02*
X59854000Y9826300D01*
X59854000Y9826300D02*
X60960000Y8720300D01*
X60960000Y7620000D02*
X60960000Y8720300D01*
X55349500Y20320000D02*
X66675000Y31645500D01*
X66675000Y31645500D02*
X66675000Y37234700D01*
X66675000Y37234700D02*
X67945000Y38504700D01*
X55245000Y20320000D02*
X55349500Y20320000D01*
X55349500Y20320000D02*
X56980400Y18689100D01*
X56980400Y18689100D02*
X56980400Y10159900D01*
X56980400Y10159900D02*
X58420000Y8720300D01*
X58420000Y7620000D02*
X58420000Y8720300D01*
X67945000Y40005000D02*
X67945000Y38504700D01*
X60325000Y32385000D02*
X60325000Y33885300D01*
X62865000Y44450000D02*
X62865000Y42949700D01*
X62865000Y42949700D02*
X61595000Y41679700D01*
X61595000Y41679700D02*
X61595000Y35155300D01*
X61595000Y35155300D02*
X60325000Y33885300D01*
X62865000Y32385000D02*
X62865000Y30884700D01*
X55245000Y44450000D02*
X55245000Y42949700D01*
X55245000Y42949700D02*
X56515000Y41679700D01*
X56515000Y41679700D02*
X56515000Y39258500D01*
X56515000Y39258500D02*
X59055000Y36718500D01*
X59055000Y36718500D02*
X59055000Y31691400D01*
X59055000Y31691400D02*
X59861700Y30884700D01*
X59861700Y30884700D02*
X62865000Y30884700D01*
X65405000Y32385000D02*
X65405000Y33885300D01*
X60325000Y52070000D02*
X60325000Y50569700D01*
X60325000Y50569700D02*
X64135000Y46759700D01*
X64135000Y46759700D02*
X64135000Y35155300D01*
X64135000Y35155300D02*
X65405000Y33885300D01*
X22860000Y89199700D02*
X22860000Y88842400D01*
X22860000Y88842400D02*
X25248800Y86453600D01*
X25248800Y86453600D02*
X25248800Y70352400D01*
X25248800Y70352400D02*
X25054400Y70158000D01*
X22860000Y94500000D02*
X22860000Y89199700D01*
X65459000Y57935300D02*
X64357000Y59037300D01*
X64357000Y59037300D02*
X64357000Y65527200D01*
X64357000Y65527200D02*
X65405000Y66575200D01*
X65405000Y66575200D02*
X65405000Y68580000D01*
X65459000Y56435000D02*
X65459000Y57935300D01*
X41910000Y48260000D02*
X41910000Y45719700D01*
X41910000Y45719700D02*
X43042400Y44587300D01*
X43042400Y44587300D02*
X43042400Y40838400D01*
X43042400Y40838400D02*
X41910000Y39706000D01*
X41910000Y39706000D02*
X41910000Y29440300D01*
X41910000Y28690200D02*
X41910000Y27940000D01*
X41910000Y28690200D02*
X41910000Y29440300D01*
X41910000Y48260000D02*
X41910000Y60026000D01*
X41910000Y60026000D02*
X43042400Y61158400D01*
X43042400Y61158400D02*
X43042400Y65098400D01*
X43042400Y65098400D02*
X41910000Y66230800D01*
X41910000Y66230800D02*
X41910000Y68580000D01*
X24130000Y67079700D02*
X25251200Y65958500D01*
X25251200Y65958500D02*
X25251200Y51447600D01*
X25251200Y51447600D02*
X24130000Y50326400D01*
X24130000Y50326400D02*
X24130000Y49760300D01*
X24130000Y46759700D02*
X25274600Y45615100D01*
X25274600Y45615100D02*
X25274600Y30584900D01*
X25274600Y30584900D02*
X24130000Y29440300D01*
X24130000Y48260000D02*
X24130000Y46759700D01*
X24130000Y27940000D02*
X24130000Y29440300D01*
X24130000Y49010200D02*
X24130000Y48260000D01*
X24130000Y49010200D02*
X24130000Y49760300D01*
X24130000Y68580000D02*
X24130000Y67079700D01*
X55299000Y64055000D02*
X55299000Y65555300D01*
X55299000Y65555300D02*
X55245000Y65609300D01*
X55245000Y65609300D02*
X55245000Y68580000D01*
X60325000Y68580000D02*
X60325000Y67079700D01*
X60379000Y56435000D02*
X60379000Y57935300D01*
X60379000Y57935300D02*
X59268100Y59046200D01*
X59268100Y59046200D02*
X59268100Y66022800D01*
X59268100Y66022800D02*
X60325000Y67079700D01*
X60325000Y76200000D02*
X60325000Y74699700D01*
X60379000Y64055000D02*
X60379000Y65555300D01*
X60379000Y65555300D02*
X61442900Y66619200D01*
X61442900Y66619200D02*
X61442900Y73581800D01*
X61442900Y73581800D02*
X60325000Y74699700D01*
X57839000Y64055000D02*
X57839000Y65555300D01*
X57839000Y65555300D02*
X57785000Y65609300D01*
X57785000Y65609300D02*
X57785000Y68580000D01*
X62865000Y76200000D02*
X62865000Y74699700D01*
X62919000Y64055000D02*
X62919000Y65555300D01*
X62919000Y65555300D02*
X63973800Y66610100D01*
X63973800Y66610100D02*
X63973800Y73590900D01*
X63973800Y73590900D02*
X62865000Y74699700D01*
X65405000Y76200000D02*
X65405000Y74699700D01*
X62919000Y56435000D02*
X62919000Y54934700D01*
X62919000Y54934700D02*
X66000400Y54934700D01*
X66000400Y54934700D02*
X66566100Y55500400D01*
X66566100Y55500400D02*
X66566100Y73538600D01*
X66566100Y73538600D02*
X65405000Y74699700D01*
D19*
X16890000Y88861928D02*
X17494250Y88865000D01*
X17502250Y88873000D01*
X18057750Y88873000D01*
X18065750Y88865000D01*
X18670000Y88861928D01*
X18782420Y88873000D01*
X19317580Y88873000D01*
X19430000Y88861928D01*
X21210000Y88861928D01*
X21322420Y88873000D01*
X21857580Y88873000D01*
X21970000Y88861928D01*
X22123367Y88861928D01*
X22121444Y88842400D01*
X22125000Y88806296D01*
X22125000Y88806295D01*
X22135635Y88698315D01*
X22177663Y88559767D01*
X22245913Y88432080D01*
X22337763Y88320162D01*
X22365808Y88297146D01*
X24513800Y86149153D01*
X24513800Y85603146D01*
X24411309Y85634236D01*
X24130000Y85661943D01*
X23848692Y85634236D01*
X23578193Y85552182D01*
X23328900Y85418932D01*
X23110393Y85239608D01*
X22931068Y85021101D01*
X22860000Y84888142D01*
X22788932Y85021101D01*
X22609608Y85239608D01*
X22391101Y85418932D01*
X22141808Y85552182D01*
X21871309Y85634236D01*
X21590000Y85661943D01*
X21308692Y85634236D01*
X21038193Y85552182D01*
X20788900Y85418932D01*
X20570393Y85239608D01*
X20391068Y85021101D01*
X20320000Y84888142D01*
X20248932Y85021101D01*
X20069608Y85239608D01*
X19851101Y85418932D01*
X19601808Y85552182D01*
X19331309Y85634236D01*
X19050000Y85661943D01*
X18768692Y85634236D01*
X18498193Y85552182D01*
X18248900Y85418932D01*
X18030393Y85239608D01*
X17851068Y85021101D01*
X17780000Y84888142D01*
X17708932Y85021101D01*
X17529608Y85239608D01*
X17311101Y85418932D01*
X17061808Y85552182D01*
X16791309Y85634236D01*
X16510000Y85661943D01*
X16228692Y85634236D01*
X15958193Y85552182D01*
X15708900Y85418932D01*
X15490393Y85239608D01*
X15311068Y85021101D01*
X15240000Y84888142D01*
X15168932Y85021101D01*
X14989608Y85239608D01*
X14771101Y85418932D01*
X14521808Y85552182D01*
X14251309Y85634236D01*
X13970000Y85661943D01*
X13688692Y85634236D01*
X13418193Y85552182D01*
X13168900Y85418932D01*
X12950393Y85239608D01*
X12771068Y85021101D01*
X12702735Y84893259D01*
X12552601Y85122839D01*
X12354895Y85324500D01*
X12121646Y85483715D01*
X11861818Y85594367D01*
X11779039Y85611904D01*
X11557000Y85489915D01*
X11557000Y83947000D01*
X11577000Y83947000D01*
X11577000Y83693000D01*
X11557000Y83693000D01*
X11557000Y82150085D01*
X11779039Y82028096D01*
X11861818Y82045633D01*
X12121646Y82156285D01*
X12354895Y82315500D01*
X12552601Y82517161D01*
X12702735Y82746742D01*
X12771068Y82618900D01*
X12950392Y82400393D01*
X12983816Y82372963D01*
X12351508Y81740654D01*
X12323462Y81717637D01*
X12231613Y81605719D01*
X12163363Y81478032D01*
X12155021Y81450532D01*
X12121335Y81339485D01*
X12107144Y81195400D01*
X12110700Y81159295D01*
X12110701Y70243287D01*
X11981808Y70312182D01*
X11711309Y70394236D01*
X11430000Y70421943D01*
X11148692Y70394236D01*
X10878193Y70312182D01*
X10628900Y70178932D01*
X10410393Y69999608D01*
X10231068Y69781101D01*
X10097818Y69531808D01*
X10015764Y69261309D01*
X9995000Y69050492D01*
X9995000Y68109509D01*
X10015764Y67898692D01*
X10097818Y67628193D01*
X10231068Y67378900D01*
X10410392Y67160393D01*
X10628899Y66981068D01*
X10705174Y66940298D01*
X10705635Y66935615D01*
X10738942Y66825819D01*
X10747664Y66797067D01*
X10815914Y66669380D01*
X10907763Y66557462D01*
X10935808Y66534446D01*
X11806100Y65664153D01*
X11806100Y65286171D01*
X11779039Y65291904D01*
X11557000Y65169915D01*
X11557000Y63627000D01*
X11577000Y63627000D01*
X11577000Y63373000D01*
X11557000Y63373000D01*
X11557000Y61830085D01*
X11779039Y61708096D01*
X11806100Y61713829D01*
X11806101Y51175848D01*
X10935808Y50305554D01*
X10907763Y50282538D01*
X10815914Y50170620D01*
X10750085Y50047462D01*
X10747664Y50042933D01*
X10705635Y49904385D01*
X10705174Y49899701D01*
X10628900Y49858932D01*
X10410393Y49679608D01*
X10231068Y49461101D01*
X10097818Y49211808D01*
X10015764Y48941309D01*
X9995000Y48730492D01*
X9995000Y47789509D01*
X10015764Y47578692D01*
X10097818Y47308193D01*
X10231068Y47058900D01*
X10410392Y46840393D01*
X10628899Y46661068D01*
X10705174Y46620298D01*
X10705635Y46615615D01*
X10738942Y46505819D01*
X10747664Y46477067D01*
X10815914Y46349380D01*
X10907763Y46237462D01*
X10935807Y46214447D01*
X11806100Y45344153D01*
X11806100Y44966171D01*
X11779039Y44971904D01*
X11557000Y44849915D01*
X11557000Y43307000D01*
X11577000Y43307000D01*
X11577000Y43053000D01*
X11557000Y43053000D01*
X11557000Y41510085D01*
X11779039Y41388096D01*
X11806100Y41393829D01*
X11806101Y30855848D01*
X10935808Y29985554D01*
X10907763Y29962538D01*
X10815914Y29850620D01*
X10766219Y29757647D01*
X10747664Y29722933D01*
X10705635Y29584385D01*
X10705174Y29579701D01*
X10628900Y29538932D01*
X10410393Y29359608D01*
X10231068Y29141101D01*
X10097818Y28891808D01*
X10015764Y28621309D01*
X9995000Y28410492D01*
X9995000Y27469509D01*
X10015764Y27258692D01*
X10097818Y26988193D01*
X10231068Y26738900D01*
X10410392Y26520393D01*
X10628899Y26341068D01*
X10878192Y26207818D01*
X11148691Y26125764D01*
X11430000Y26098057D01*
X11711308Y26125764D01*
X11981807Y26207818D01*
X12123801Y26283715D01*
X12123801Y25507615D01*
X12120244Y25471500D01*
X12134435Y25327415D01*
X12166211Y25222667D01*
X12176464Y25188867D01*
X12244714Y25061180D01*
X12336563Y24949262D01*
X12364608Y24926246D01*
X12983816Y24307037D01*
X12950393Y24279608D01*
X12771068Y24061101D01*
X12702735Y23933259D01*
X12552601Y24162839D01*
X12354895Y24364500D01*
X12121646Y24523715D01*
X11861818Y24634367D01*
X11779039Y24651904D01*
X11557000Y24529915D01*
X11557000Y22987000D01*
X11577000Y22987000D01*
X11577000Y22733000D01*
X11557000Y22733000D01*
X11557000Y21190085D01*
X11779039Y21068096D01*
X11861818Y21085633D01*
X12121646Y21196285D01*
X12354895Y21355500D01*
X12552601Y21557161D01*
X12702735Y21786742D01*
X12771068Y21658900D01*
X12950392Y21440393D01*
X13168899Y21261068D01*
X13418192Y21127818D01*
X13688691Y21045764D01*
X13970000Y21018057D01*
X14251308Y21045764D01*
X14346100Y21074519D01*
X14346101Y10535848D01*
X13475808Y9665554D01*
X13447763Y9642538D01*
X13355914Y9530620D01*
X13309970Y9444665D01*
X13287664Y9402933D01*
X13245635Y9264385D01*
X13245174Y9259701D01*
X13168900Y9218932D01*
X12950393Y9039608D01*
X12771068Y8821101D01*
X12700000Y8688142D01*
X12628932Y8821101D01*
X12449608Y9039608D01*
X12231101Y9218932D01*
X11981808Y9352182D01*
X11711309Y9434236D01*
X11430000Y9461943D01*
X11148692Y9434236D01*
X10878193Y9352182D01*
X10628900Y9218932D01*
X10410393Y9039608D01*
X10231068Y8821101D01*
X10097818Y8571808D01*
X10015764Y8301309D01*
X9995000Y8090492D01*
X9995000Y7149509D01*
X10015764Y6938692D01*
X10097818Y6668193D01*
X10231068Y6418900D01*
X10410392Y6200393D01*
X10628899Y6021068D01*
X10878192Y5887818D01*
X11148691Y5805764D01*
X11430000Y5778057D01*
X11711308Y5805764D01*
X11981807Y5887818D01*
X12231100Y6021068D01*
X12449607Y6200392D01*
X12628932Y6418899D01*
X12700000Y6551858D01*
X12771068Y6418900D01*
X12950392Y6200393D01*
X13168899Y6021068D01*
X13418192Y5887818D01*
X13688691Y5805764D01*
X13970000Y5778057D01*
X14251308Y5805764D01*
X14521807Y5887818D01*
X14771100Y6021068D01*
X14989607Y6200392D01*
X15168932Y6418899D01*
X15240000Y6551858D01*
X15311068Y6418900D01*
X15490392Y6200393D01*
X15708899Y6021068D01*
X15958192Y5887818D01*
X16228691Y5805764D01*
X16510000Y5778057D01*
X16791308Y5805764D01*
X17061807Y5887818D01*
X17311100Y6021068D01*
X17529607Y6200392D01*
X17708932Y6418899D01*
X17780000Y6551858D01*
X17851068Y6418900D01*
X18030392Y6200393D01*
X18248899Y6021068D01*
X18498192Y5887818D01*
X18768691Y5805764D01*
X19050000Y5778057D01*
X19331308Y5805764D01*
X19601807Y5887818D01*
X19851100Y6021068D01*
X20069607Y6200392D01*
X20248932Y6418899D01*
X20320000Y6551858D01*
X20391068Y6418900D01*
X20570392Y6200393D01*
X20788899Y6021068D01*
X21038192Y5887818D01*
X21308691Y5805764D01*
X21590000Y5778057D01*
X21871308Y5805764D01*
X22141807Y5887818D01*
X22391100Y6021068D01*
X22609607Y6200392D01*
X22788932Y6418899D01*
X22860000Y6551858D01*
X22931068Y6418900D01*
X23110392Y6200393D01*
X23328899Y6021068D01*
X23578192Y5887818D01*
X23848691Y5805764D01*
X24130000Y5778057D01*
X24411308Y5805764D01*
X24681807Y5887818D01*
X24931100Y6021068D01*
X25149607Y6200392D01*
X25328932Y6418899D01*
X25400000Y6551858D01*
X25471068Y6418900D01*
X25650392Y6200393D01*
X25868899Y6021068D01*
X26118192Y5887818D01*
X26388691Y5805764D01*
X26670000Y5778057D01*
X26951308Y5805764D01*
X27221807Y5887818D01*
X27471100Y6021068D01*
X27689607Y6200392D01*
X27868932Y6418899D01*
X27940000Y6551858D01*
X28011068Y6418900D01*
X28190392Y6200393D01*
X28408899Y6021068D01*
X28658192Y5887818D01*
X28928691Y5805764D01*
X29210000Y5778057D01*
X29491308Y5805764D01*
X29761807Y5887818D01*
X30011100Y6021068D01*
X30229607Y6200392D01*
X30408932Y6418899D01*
X30480000Y6551858D01*
X30551068Y6418900D01*
X30730392Y6200393D01*
X30948899Y6021068D01*
X31198192Y5887818D01*
X31468691Y5805764D01*
X31750000Y5778057D01*
X32031308Y5805764D01*
X32301807Y5887818D01*
X32551100Y6021068D01*
X32769607Y6200392D01*
X32948932Y6418899D01*
X33020000Y6551858D01*
X33091068Y6418900D01*
X33270392Y6200393D01*
X33488899Y6021068D01*
X33738192Y5887818D01*
X34008691Y5805764D01*
X34290000Y5778057D01*
X34571308Y5805764D01*
X34841807Y5887818D01*
X35091100Y6021068D01*
X35309607Y6200392D01*
X35488932Y6418899D01*
X35560000Y6551858D01*
X35631068Y6418900D01*
X35810392Y6200393D01*
X36028899Y6021068D01*
X36278192Y5887818D01*
X36548691Y5805764D01*
X36830000Y5778057D01*
X37111308Y5805764D01*
X37381807Y5887818D01*
X37631100Y6021068D01*
X37849607Y6200392D01*
X38028932Y6418899D01*
X38100000Y6551858D01*
X38171068Y6418900D01*
X38350392Y6200393D01*
X38568899Y6021068D01*
X38818192Y5887818D01*
X39088691Y5805764D01*
X39370000Y5778057D01*
X39651308Y5805764D01*
X39921807Y5887818D01*
X40171100Y6021068D01*
X40389607Y6200392D01*
X40568932Y6418899D01*
X40640000Y6551858D01*
X40711068Y6418900D01*
X40890392Y6200393D01*
X41108899Y6021068D01*
X41358192Y5887818D01*
X41628691Y5805764D01*
X41910000Y5778057D01*
X42191308Y5805764D01*
X42461807Y5887818D01*
X42711100Y6021068D01*
X42929607Y6200392D01*
X43108932Y6418899D01*
X43180000Y6551858D01*
X43251068Y6418900D01*
X43430392Y6200393D01*
X43648899Y6021068D01*
X43898192Y5887818D01*
X44168691Y5805764D01*
X44450000Y5778057D01*
X44731308Y5805764D01*
X45001807Y5887818D01*
X45251100Y6021068D01*
X45469607Y6200392D01*
X45648932Y6418899D01*
X45782182Y6668192D01*
X45864236Y6938691D01*
X45885000Y7149508D01*
X45885000Y7874133D01*
X48186427Y10175559D01*
X48218291Y10201709D01*
X48322636Y10328854D01*
X48400172Y10473913D01*
X48447918Y10631311D01*
X48460000Y10753981D01*
X48464040Y10794999D01*
X48460000Y10836018D01*
X48460000Y12842070D01*
X48539759Y12895363D01*
X48739637Y13095241D01*
X48896680Y13330273D01*
X49004853Y13591426D01*
X49060000Y13868665D01*
X49060000Y14151335D01*
X49004853Y14428574D01*
X48896680Y14689727D01*
X48739637Y14924759D01*
X48539759Y15124637D01*
X48339131Y15258692D01*
X48366514Y15273329D01*
X48438097Y15517298D01*
X47625000Y16330395D01*
X47610858Y16316252D01*
X47431253Y16495857D01*
X47445395Y16510000D01*
X47804605Y16510000D01*
X48617702Y15696903D01*
X48861671Y15768486D01*
X48982571Y16023996D01*
X49051300Y16298184D01*
X49065217Y16580512D01*
X49023787Y16860130D01*
X48928603Y17126292D01*
X48861671Y17251514D01*
X48617702Y17323097D01*
X47804605Y16510000D01*
X47445395Y16510000D01*
X47431253Y16524142D01*
X47610858Y16703747D01*
X47625000Y16689605D01*
X48438097Y17502702D01*
X48366514Y17746671D01*
X48111004Y17867571D01*
X47836816Y17936300D01*
X47554488Y17950217D01*
X47274870Y17908787D01*
X47008708Y17813603D01*
X46883486Y17746671D01*
X46811903Y17502704D01*
X46711100Y17603507D01*
X46711100Y27590960D01*
X53853091Y27590960D01*
X53947930Y27326119D01*
X54092615Y27084869D01*
X54281586Y26876481D01*
X54507580Y26708963D01*
X54761913Y26588754D01*
X54895961Y26548096D01*
X55118000Y26670085D01*
X55118000Y27813000D01*
X55372000Y27813000D01*
X55372000Y26670085D01*
X55594039Y26548096D01*
X55728087Y26588754D01*
X55982420Y26708963D01*
X56208414Y26876481D01*
X56397385Y27084869D01*
X56542070Y27326119D01*
X56636909Y27590960D01*
X58933091Y27590960D01*
X59027930Y27326119D01*
X59172615Y27084869D01*
X59361586Y26876481D01*
X59587580Y26708963D01*
X59841913Y26588754D01*
X59975961Y26548096D01*
X60198000Y26670085D01*
X60198000Y27813000D01*
X59054376Y27813000D01*
X58933091Y27590960D01*
X56636909Y27590960D01*
X56515624Y27813000D01*
X55372000Y27813000D01*
X55118000Y27813000D01*
X53974376Y27813000D01*
X53853091Y27590960D01*
X46711100Y27590960D01*
X46711100Y28289040D01*
X53853091Y28289040D01*
X53974376Y28067000D01*
X55118000Y28067000D01*
X55118000Y29209915D01*
X55372000Y29209915D01*
X55372000Y28067000D01*
X56515624Y28067000D01*
X56636909Y28289040D01*
X58933091Y28289040D01*
X59054376Y28067000D01*
X60198000Y28067000D01*
X60198000Y29209915D01*
X60452000Y29209915D01*
X60452000Y28067000D01*
X61595624Y28067000D01*
X61716909Y28289040D01*
X61622070Y28553881D01*
X61477385Y28795131D01*
X61288414Y29003519D01*
X61062420Y29171037D01*
X60808087Y29291246D01*
X60674039Y29331904D01*
X60452000Y29209915D01*
X60198000Y29209915D01*
X59975961Y29331904D01*
X59841913Y29291246D01*
X59587580Y29171037D01*
X59361586Y29003519D01*
X59172615Y28795131D01*
X59027930Y28553881D01*
X58933091Y28289040D01*
X56636909Y28289040D01*
X56542070Y28553881D01*
X56397385Y28795131D01*
X56208414Y29003519D01*
X55982420Y29171037D01*
X55728087Y29291246D01*
X55594039Y29331904D01*
X55372000Y29209915D01*
X55118000Y29209915D01*
X54895961Y29331904D01*
X54761913Y29291246D01*
X54507580Y29171037D01*
X54281586Y29003519D01*
X54092615Y28795131D01*
X53947930Y28553881D01*
X53853091Y28289040D01*
X46711100Y28289040D01*
X46711100Y29020233D01*
X48186426Y30495559D01*
X48218291Y30521709D01*
X48322636Y30648854D01*
X48400172Y30793913D01*
X48447918Y30951311D01*
X48451415Y30986819D01*
X48464040Y31114999D01*
X48460000Y31156018D01*
X48460000Y32681481D01*
X48464040Y32722500D01*
X48460000Y32763519D01*
X48460000Y33162070D01*
X48539759Y33215363D01*
X48739637Y33415241D01*
X48896680Y33650273D01*
X49004853Y33911426D01*
X49060000Y34188665D01*
X49060000Y34471335D01*
X49004853Y34748574D01*
X48896680Y35009727D01*
X48739637Y35244759D01*
X48539759Y35444637D01*
X48339131Y35578692D01*
X48366514Y35593329D01*
X48438097Y35837298D01*
X47625000Y36650395D01*
X46811903Y35837298D01*
X46883486Y35593329D01*
X46912341Y35579676D01*
X46710241Y35444637D01*
X46510363Y35244759D01*
X46485300Y35207249D01*
X46485300Y36060034D01*
X46632298Y36016903D01*
X47445395Y36830000D01*
X47804605Y36830000D01*
X48617702Y36016903D01*
X48861671Y36088486D01*
X48982571Y36343996D01*
X49051300Y36618184D01*
X49065217Y36900512D01*
X49023787Y37180130D01*
X48928603Y37446292D01*
X48861671Y37571514D01*
X48617702Y37643097D01*
X47804605Y36830000D01*
X47445395Y36830000D01*
X46632298Y37643097D01*
X46485300Y37599966D01*
X46485300Y37822702D01*
X46811903Y37822702D01*
X47625000Y37009605D01*
X48438097Y37822702D01*
X48366514Y38066671D01*
X48111004Y38187571D01*
X47836816Y38256300D01*
X47554488Y38270217D01*
X47274870Y38228787D01*
X47008708Y38133603D01*
X46883486Y38066671D01*
X46811903Y37822702D01*
X46485300Y37822702D01*
X46485300Y39878000D01*
X51270000Y39878000D01*
X51270000Y39478000D01*
X51322350Y39200486D01*
X51427834Y38938517D01*
X51582399Y38702161D01*
X51780105Y38500500D01*
X52013354Y38341285D01*
X52273182Y38230633D01*
X52355961Y38213096D01*
X52578000Y38335085D01*
X52578000Y39878000D01*
X51270000Y39878000D01*
X46485300Y39878000D01*
X46485300Y40532000D01*
X51270000Y40532000D01*
X51270000Y40132000D01*
X52578000Y40132000D01*
X52578000Y41674915D01*
X52355961Y41796904D01*
X52273182Y41779367D01*
X52013354Y41668715D01*
X51780105Y41509500D01*
X51582399Y41307839D01*
X51427834Y41071483D01*
X51322350Y40809514D01*
X51270000Y40532000D01*
X46485300Y40532000D01*
X46485300Y45418382D01*
X46489340Y45459400D01*
X46484468Y45508868D01*
X46473218Y45623089D01*
X46425472Y45780487D01*
X46347936Y45925546D01*
X46295551Y45989377D01*
X46269739Y46020830D01*
X46269737Y46020832D01*
X46243591Y46052691D01*
X46211732Y46078837D01*
X45458934Y46831633D01*
X45469607Y46840392D01*
X45648932Y47058899D01*
X45782182Y47308192D01*
X45864236Y47578691D01*
X45885000Y47789508D01*
X45885000Y48514133D01*
X48186427Y50815559D01*
X48218291Y50841709D01*
X48322636Y50968854D01*
X48400172Y51113913D01*
X48447918Y51271311D01*
X48451425Y51306920D01*
X48464040Y51434999D01*
X48460000Y51476018D01*
X48460000Y51943000D01*
X51270000Y51943000D01*
X51270000Y51543000D01*
X51322350Y51265486D01*
X51427834Y51003517D01*
X51582399Y50767161D01*
X51780105Y50565500D01*
X52013354Y50406285D01*
X52273182Y50295633D01*
X52355961Y50278096D01*
X52578000Y50400085D01*
X52578000Y51943000D01*
X51270000Y51943000D01*
X48460000Y51943000D01*
X48460000Y52597000D01*
X51270000Y52597000D01*
X51270000Y52197000D01*
X52578000Y52197000D01*
X52578000Y53739915D01*
X52355961Y53861904D01*
X52273182Y53844367D01*
X52013354Y53733715D01*
X51780105Y53574500D01*
X51582399Y53372839D01*
X51427834Y53136483D01*
X51322350Y52874514D01*
X51270000Y52597000D01*
X48460000Y52597000D01*
X48460000Y53482070D01*
X48539759Y53535363D01*
X48739637Y53735241D01*
X48896680Y53970273D01*
X49004853Y54231426D01*
X49060000Y54508665D01*
X49060000Y54791335D01*
X49004853Y55068574D01*
X48896680Y55329727D01*
X48739637Y55564759D01*
X48539759Y55764637D01*
X48339131Y55898692D01*
X48366514Y55913329D01*
X48438097Y56157298D01*
X47625000Y56970395D01*
X47610858Y56956252D01*
X47431253Y57135857D01*
X47445395Y57150000D01*
X47804605Y57150000D01*
X48617702Y56336903D01*
X48861671Y56408486D01*
X48982571Y56663996D01*
X49043105Y56905492D01*
X51324000Y56905492D01*
X51324000Y55964509D01*
X51344764Y55753692D01*
X51426818Y55483193D01*
X51560068Y55233900D01*
X51739392Y55015393D01*
X51957899Y54836068D01*
X52207192Y54702818D01*
X52477691Y54620764D01*
X52759000Y54593057D01*
X53040308Y54620764D01*
X53310807Y54702818D01*
X53560100Y54836068D01*
X53778607Y55015392D01*
X53957932Y55233899D01*
X54026265Y55361741D01*
X54176399Y55132161D01*
X54374105Y54930500D01*
X54607354Y54771285D01*
X54867182Y54660633D01*
X54949961Y54643096D01*
X55172000Y54765085D01*
X55172000Y56308000D01*
X55152000Y56308000D01*
X55152000Y56562000D01*
X55172000Y56562000D01*
X55172000Y58104915D01*
X54949961Y58226904D01*
X54867182Y58209367D01*
X54607354Y58098715D01*
X54374105Y57939500D01*
X54176399Y57737839D01*
X54026265Y57508259D01*
X53957932Y57636101D01*
X53778608Y57854608D01*
X53560101Y58033932D01*
X53310808Y58167182D01*
X53040309Y58249236D01*
X52759000Y58276943D01*
X52477692Y58249236D01*
X52207193Y58167182D01*
X51957900Y58033932D01*
X51739393Y57854608D01*
X51560068Y57636101D01*
X51426818Y57386808D01*
X51344764Y57116309D01*
X51324000Y56905492D01*
X49043105Y56905492D01*
X49051300Y56938184D01*
X49065217Y57220512D01*
X49023787Y57500130D01*
X48928603Y57766292D01*
X48861671Y57891514D01*
X48617702Y57963097D01*
X47804605Y57150000D01*
X47445395Y57150000D01*
X46632298Y57963097D01*
X46485400Y57919996D01*
X46485400Y58142702D01*
X46811903Y58142702D01*
X47625000Y57329605D01*
X48438097Y58142702D01*
X48366514Y58386671D01*
X48111004Y58507571D01*
X47836816Y58576300D01*
X47554488Y58590217D01*
X47274870Y58548787D01*
X47008708Y58453603D01*
X46883486Y58386671D01*
X46811903Y58142702D01*
X46485400Y58142702D01*
X46485400Y63928000D01*
X51324000Y63928000D01*
X51324000Y63528000D01*
X51376350Y63250486D01*
X51481834Y62988517D01*
X51636399Y62752161D01*
X51834105Y62550500D01*
X52067354Y62391285D01*
X52327182Y62280633D01*
X52409961Y62263096D01*
X52632000Y62385085D01*
X52632000Y63928000D01*
X51324000Y63928000D01*
X46485400Y63928000D01*
X46485400Y64582000D01*
X51324000Y64582000D01*
X51324000Y64182000D01*
X52632000Y64182000D01*
X52632000Y65724915D01*
X52409961Y65846904D01*
X52327182Y65829367D01*
X52067354Y65718715D01*
X51834105Y65559500D01*
X51636399Y65357839D01*
X51481834Y65121483D01*
X51376350Y64859514D01*
X51324000Y64582000D01*
X46485400Y64582000D01*
X46485400Y68249793D01*
X46489439Y68290801D01*
X46485400Y68331809D01*
X46485400Y68331819D01*
X46473318Y68454489D01*
X46425572Y68611887D01*
X46348036Y68756946D01*
X46243691Y68884091D01*
X46211827Y68910241D01*
X46086467Y69035600D01*
X46101359Y69050492D01*
X51270000Y69050492D01*
X51270000Y68109509D01*
X51290764Y67898692D01*
X51372818Y67628193D01*
X51506068Y67378900D01*
X51685392Y67160393D01*
X51903899Y66981068D01*
X52153192Y66847818D01*
X52423691Y66765764D01*
X52705000Y66738057D01*
X52986308Y66765764D01*
X53256807Y66847818D01*
X53506100Y66981068D01*
X53724607Y67160392D01*
X53903932Y67378899D01*
X53975000Y67511858D01*
X54046068Y67378900D01*
X54225392Y67160393D01*
X54443899Y66981068D01*
X54510000Y66945736D01*
X54510000Y65660400D01*
X54497900Y65653932D01*
X54279393Y65474608D01*
X54100068Y65256101D01*
X54031735Y65128259D01*
X53881601Y65357839D01*
X53683895Y65559500D01*
X53450646Y65718715D01*
X53190818Y65829367D01*
X53108039Y65846904D01*
X52886000Y65724915D01*
X52886000Y64182000D01*
X52906000Y64182000D01*
X52906000Y63928000D01*
X52886000Y63928000D01*
X52886000Y62385085D01*
X53108039Y62263096D01*
X53190818Y62280633D01*
X53450646Y62391285D01*
X53683895Y62550500D01*
X53881601Y62752161D01*
X54031735Y62981742D01*
X54100068Y62853900D01*
X54279392Y62635393D01*
X54497899Y62456068D01*
X54747192Y62322818D01*
X55017691Y62240764D01*
X55299000Y62213057D01*
X55580308Y62240764D01*
X55850807Y62322818D01*
X55941800Y62371455D01*
X55941800Y58119517D01*
X55730818Y58209367D01*
X55648039Y58226904D01*
X55426000Y58104915D01*
X55426000Y56562000D01*
X55446000Y56562000D01*
X55446000Y56308000D01*
X55426000Y56308000D01*
X55426000Y54765085D01*
X55648039Y54643096D01*
X55730818Y54660633D01*
X55941800Y54750483D01*
X55941800Y54714605D01*
X55938244Y54678500D01*
X55946659Y54593057D01*
X55952435Y54534416D01*
X55994463Y54395868D01*
X56062713Y54268181D01*
X56154562Y54156263D01*
X56182608Y54133246D01*
X56798816Y53517037D01*
X56765393Y53489608D01*
X56586068Y53271101D01*
X56515000Y53138142D01*
X56443932Y53271101D01*
X56264608Y53489608D01*
X56046101Y53668932D01*
X55796808Y53802182D01*
X55526309Y53884236D01*
X55245000Y53911943D01*
X54963692Y53884236D01*
X54693193Y53802182D01*
X54443900Y53668932D01*
X54225393Y53489608D01*
X54046068Y53271101D01*
X53977735Y53143259D01*
X53827601Y53372839D01*
X53629895Y53574500D01*
X53396646Y53733715D01*
X53136818Y53844367D01*
X53054039Y53861904D01*
X52832000Y53739915D01*
X52832000Y52197000D01*
X52852000Y52197000D01*
X52852000Y51943000D01*
X52832000Y51943000D01*
X52832000Y50400085D01*
X53054039Y50278096D01*
X53136818Y50295633D01*
X53396646Y50406285D01*
X53629895Y50565500D01*
X53827601Y50767161D01*
X53977735Y50996742D01*
X54046068Y50868900D01*
X54225392Y50650393D01*
X54443899Y50471068D01*
X54693192Y50337818D01*
X54963691Y50255764D01*
X55245000Y50228057D01*
X55526308Y50255764D01*
X55796807Y50337818D01*
X56046100Y50471068D01*
X56264607Y50650392D01*
X56443932Y50868899D01*
X56515000Y51001858D01*
X56586068Y50868900D01*
X56765392Y50650393D01*
X56983899Y50471068D01*
X57050001Y50435736D01*
X57050000Y46084263D01*
X56983900Y46048932D01*
X56765393Y45869608D01*
X56586068Y45651101D01*
X56515000Y45518142D01*
X56443932Y45651101D01*
X56264608Y45869608D01*
X56046101Y46048932D01*
X55796808Y46182182D01*
X55526309Y46264236D01*
X55245000Y46291943D01*
X54963692Y46264236D01*
X54693193Y46182182D01*
X54443900Y46048932D01*
X54225393Y45869608D01*
X54046068Y45651101D01*
X53975000Y45518142D01*
X53903932Y45651101D01*
X53724608Y45869608D01*
X53506101Y46048932D01*
X53256808Y46182182D01*
X52986309Y46264236D01*
X52705000Y46291943D01*
X52423692Y46264236D01*
X52153193Y46182182D01*
X51903900Y46048932D01*
X51685393Y45869608D01*
X51506068Y45651101D01*
X51372818Y45401808D01*
X51290764Y45131309D01*
X51270000Y44920492D01*
X51270000Y43979509D01*
X51290764Y43768692D01*
X51372818Y43498193D01*
X51506068Y43248900D01*
X51685392Y43030393D01*
X51903899Y42851068D01*
X52153192Y42717818D01*
X52423691Y42635764D01*
X52705000Y42608057D01*
X52986308Y42635764D01*
X53256807Y42717818D01*
X53506100Y42851068D01*
X53724607Y43030392D01*
X53903932Y43248899D01*
X53975000Y43381858D01*
X54046068Y43248900D01*
X54225392Y43030393D01*
X54443899Y42851068D01*
X54520174Y42810298D01*
X54520635Y42805615D01*
X54562664Y42667067D01*
X54630914Y42539380D01*
X54722763Y42427462D01*
X54750808Y42404446D01*
X55315227Y41840026D01*
X55245000Y41846943D01*
X54963692Y41819236D01*
X54693193Y41737182D01*
X54443900Y41603932D01*
X54225393Y41424608D01*
X54046068Y41206101D01*
X53977735Y41078259D01*
X53827601Y41307839D01*
X53629895Y41509500D01*
X53396646Y41668715D01*
X53136818Y41779367D01*
X53054039Y41796904D01*
X52832000Y41674915D01*
X52832000Y40132000D01*
X52852000Y40132000D01*
X52852000Y39878000D01*
X52832000Y39878000D01*
X52832000Y38335085D01*
X53054039Y38213096D01*
X53136818Y38230633D01*
X53396646Y38341285D01*
X53629895Y38500500D01*
X53827601Y38702161D01*
X53977735Y38931742D01*
X54046068Y38803900D01*
X54225392Y38585393D01*
X54443899Y38406068D01*
X54693192Y38272818D01*
X54963691Y38190764D01*
X55245000Y38163057D01*
X55526308Y38190764D01*
X55796807Y38272818D01*
X56046100Y38406068D01*
X56200925Y38533129D01*
X58320000Y36414053D01*
X58320001Y34122280D01*
X58066309Y34199236D01*
X57785000Y34226943D01*
X57503692Y34199236D01*
X57233193Y34117182D01*
X56983900Y33983932D01*
X56765393Y33804608D01*
X56586068Y33586101D01*
X56515000Y33453142D01*
X56443932Y33586101D01*
X56264608Y33804608D01*
X56046101Y33983932D01*
X55796808Y34117182D01*
X55526309Y34199236D01*
X55245000Y34226943D01*
X54963692Y34199236D01*
X54693193Y34117182D01*
X54443900Y33983932D01*
X54225393Y33804608D01*
X54046068Y33586101D01*
X53975000Y33453142D01*
X53903932Y33586101D01*
X53724608Y33804608D01*
X53506101Y33983932D01*
X53256808Y34117182D01*
X52986309Y34199236D01*
X52705000Y34226943D01*
X52423692Y34199236D01*
X52153193Y34117182D01*
X51903900Y33983932D01*
X51685393Y33804608D01*
X51506068Y33586101D01*
X51372818Y33336808D01*
X51290764Y33066309D01*
X51270000Y32855492D01*
X51270000Y31914509D01*
X51290764Y31703692D01*
X51372818Y31433193D01*
X51506068Y31183900D01*
X51685392Y30965393D01*
X51903899Y30786068D01*
X52153192Y30652818D01*
X52423691Y30570764D01*
X52705000Y30543057D01*
X52986308Y30570764D01*
X53256807Y30652818D01*
X53506100Y30786068D01*
X53724607Y30965392D01*
X53903932Y31183899D01*
X53975000Y31316858D01*
X54046068Y31183900D01*
X54225392Y30965393D01*
X54443899Y30786068D01*
X54693192Y30652818D01*
X54963691Y30570764D01*
X55245000Y30543057D01*
X55526308Y30570764D01*
X55796807Y30652818D01*
X56046100Y30786068D01*
X56264607Y30965392D01*
X56443932Y31183899D01*
X56515000Y31316858D01*
X56586068Y31183900D01*
X56765392Y30965393D01*
X56983899Y30786068D01*
X57233192Y30652818D01*
X57503691Y30570764D01*
X57785000Y30543057D01*
X58066308Y30570764D01*
X58336807Y30652818D01*
X58586100Y30786068D01*
X58769980Y30936974D01*
X59316446Y30390507D01*
X59339462Y30362462D01*
X59451380Y30270613D01*
X59579067Y30202363D01*
X59675586Y30173084D01*
X59717614Y30160335D01*
X59861699Y30146144D01*
X59897804Y30149700D01*
X62828895Y30149700D01*
X62865000Y30146144D01*
X62901105Y30149700D01*
X63009085Y30160335D01*
X63147633Y30202363D01*
X63275320Y30270613D01*
X63387238Y30362462D01*
X63479087Y30474380D01*
X63547337Y30602067D01*
X63589365Y30740615D01*
X63589826Y30745299D01*
X63666100Y30786068D01*
X63884607Y30965392D01*
X64063932Y31183899D01*
X64135000Y31316858D01*
X64206068Y31183900D01*
X64385392Y30965393D01*
X64603899Y30786068D01*
X64716132Y30726078D01*
X61668902Y27678848D01*
X61595624Y27813000D01*
X60452000Y27813000D01*
X60452000Y26670085D01*
X60586335Y26596281D01*
X55682194Y21692140D01*
X55663574Y21699853D01*
X55386335Y21755000D01*
X55103665Y21755000D01*
X54826426Y21699853D01*
X54565273Y21591680D01*
X54330241Y21434637D01*
X54130363Y21234759D01*
X53973320Y20999727D01*
X53865147Y20738574D01*
X53810000Y20461335D01*
X53810000Y20178665D01*
X53865147Y19901426D01*
X53973320Y19640273D01*
X54130363Y19405241D01*
X54330241Y19205363D01*
X54565273Y19048320D01*
X54826426Y18940147D01*
X55103665Y18885000D01*
X55386335Y18885000D01*
X55663574Y18940147D01*
X55682194Y18947860D01*
X56245400Y18384653D01*
X56245400Y16630430D01*
X56021335Y16675000D01*
X55738665Y16675000D01*
X55461426Y16619853D01*
X55200273Y16511680D01*
X54965241Y16354637D01*
X54765363Y16154759D01*
X54608320Y15919727D01*
X54500147Y15658574D01*
X54445000Y15381335D01*
X54445000Y15098665D01*
X54500147Y14821426D01*
X54608320Y14560273D01*
X54765363Y14325241D01*
X54965241Y14125363D01*
X55200273Y13968320D01*
X55461426Y13860147D01*
X55738665Y13805000D01*
X56021335Y13805000D01*
X56245401Y13849570D01*
X56245401Y10196015D01*
X56241844Y10159900D01*
X56256035Y10015815D01*
X56276375Y9948766D01*
X56298064Y9877267D01*
X56366314Y9749580D01*
X56458163Y9637662D01*
X56486208Y9614646D01*
X57435729Y8665125D01*
X57305363Y8534759D01*
X57150000Y8302241D01*
X56994637Y8534759D01*
X56794759Y8734637D01*
X56559727Y8891680D01*
X56298574Y8999853D01*
X56021335Y9055000D01*
X55738665Y9055000D01*
X55461426Y8999853D01*
X55200273Y8891680D01*
X54965241Y8734637D01*
X54765363Y8534759D01*
X54608320Y8299727D01*
X54500147Y8038574D01*
X54445000Y7761335D01*
X54445000Y7478665D01*
X54500147Y7201426D01*
X54608320Y6940273D01*
X54765363Y6705241D01*
X54965241Y6505363D01*
X55200273Y6348320D01*
X55461426Y6240147D01*
X55738665Y6185000D01*
X56021335Y6185000D01*
X56298574Y6240147D01*
X56559727Y6348320D01*
X56794759Y6505363D01*
X56994637Y6705241D01*
X57150000Y6937759D01*
X57305363Y6705241D01*
X57505241Y6505363D01*
X57740273Y6348320D01*
X58001426Y6240147D01*
X58278665Y6185000D01*
X58561335Y6185000D01*
X58838574Y6240147D01*
X59099727Y6348320D01*
X59334759Y6505363D01*
X59534637Y6705241D01*
X59690000Y6937759D01*
X59845363Y6705241D01*
X60045241Y6505363D01*
X60280273Y6348320D01*
X60541426Y6240147D01*
X60818665Y6185000D01*
X61101335Y6185000D01*
X61378574Y6240147D01*
X61639727Y6348320D01*
X61874759Y6505363D01*
X62074637Y6705241D01*
X62230000Y6937759D01*
X62385363Y6705241D01*
X62585241Y6505363D01*
X62820273Y6348320D01*
X63081426Y6240147D01*
X63358665Y6185000D01*
X63641335Y6185000D01*
X63918574Y6240147D01*
X64179727Y6348320D01*
X64414759Y6505363D01*
X64614637Y6705241D01*
X64771680Y6940273D01*
X64879853Y7201426D01*
X64935000Y7478665D01*
X64935000Y7761335D01*
X64879853Y8038574D01*
X64771680Y8299727D01*
X64614637Y8534759D01*
X64414759Y8734637D01*
X64179727Y8891680D01*
X63918574Y8999853D01*
X63641335Y9055000D01*
X63358665Y9055000D01*
X63081426Y8999853D01*
X62820273Y8891680D01*
X62585241Y8734637D01*
X62385363Y8534759D01*
X62230000Y8302241D01*
X62074637Y8534759D01*
X61874759Y8734637D01*
X61684632Y8861676D01*
X61684365Y8864385D01*
X61642337Y9002933D01*
X61574087Y9130620D01*
X61482238Y9242538D01*
X61454193Y9265554D01*
X60589000Y10130746D01*
X60589000Y13850684D01*
X60818665Y13805000D01*
X61101335Y13805000D01*
X61378574Y13860147D01*
X61639727Y13968320D01*
X61874759Y14125363D01*
X62073357Y14323961D01*
X62074188Y14315518D01*
X62110498Y14195820D01*
X62169463Y14085506D01*
X62248815Y13988815D01*
X62345506Y13909463D01*
X62455820Y13850498D01*
X62575518Y13814188D01*
X62700000Y13801928D01*
X64300000Y13801928D01*
X64424482Y13814188D01*
X64544180Y13850498D01*
X64654494Y13909463D01*
X64751185Y13988815D01*
X64830537Y14085506D01*
X64889502Y14195820D01*
X64925812Y14315518D01*
X64938072Y14440000D01*
X64938072Y16040000D01*
X64925812Y16164482D01*
X64889502Y16284180D01*
X64830537Y16394494D01*
X64751185Y16491185D01*
X64654494Y16570537D01*
X64544180Y16629502D01*
X64424482Y16665812D01*
X64300000Y16678072D01*
X62700000Y16678072D01*
X62575518Y16665812D01*
X62455820Y16629502D01*
X62345506Y16570537D01*
X62248815Y16491185D01*
X62169463Y16394494D01*
X62110498Y16284180D01*
X62074188Y16164482D01*
X62073357Y16156039D01*
X61874759Y16354637D01*
X61639727Y16511680D01*
X61378574Y16619853D01*
X61101335Y16675000D01*
X60818665Y16675000D01*
X60589000Y16629316D01*
X60589000Y18909400D01*
X60743574Y18940147D01*
X61004727Y19048320D01*
X61239759Y19205363D01*
X61439637Y19405241D01*
X61596680Y19640273D01*
X61704853Y19901426D01*
X61760000Y20178665D01*
X61760000Y20461335D01*
X63970000Y20461335D01*
X63970000Y20178665D01*
X64025147Y19901426D01*
X64133320Y19640273D01*
X64290363Y19405241D01*
X64490241Y19205363D01*
X64725273Y19048320D01*
X64986426Y18940147D01*
X65263665Y18885000D01*
X65546335Y18885000D01*
X65823574Y18940147D01*
X66084727Y19048320D01*
X66319759Y19205363D01*
X66519637Y19405241D01*
X66676680Y19640273D01*
X66784853Y19901426D01*
X66840000Y20178665D01*
X66840000Y20461335D01*
X66784853Y20738574D01*
X66676680Y20999727D01*
X66519637Y21234759D01*
X66319759Y21434637D01*
X66084727Y21591680D01*
X65823574Y21699853D01*
X65546335Y21755000D01*
X65263665Y21755000D01*
X64986426Y21699853D01*
X64725273Y21591680D01*
X64490241Y21434637D01*
X64290363Y21234759D01*
X64133320Y20999727D01*
X64025147Y20738574D01*
X63970000Y20461335D01*
X61760000Y20461335D01*
X61717822Y20673376D01*
X69878893Y28834446D01*
X69906938Y28857462D01*
X69998787Y28969380D01*
X70018353Y29005985D01*
X70067037Y29097066D01*
X70109065Y29235615D01*
X70123256Y29379700D01*
X70119700Y29415805D01*
X70119700Y30596242D01*
X70203691Y30570764D01*
X70485000Y30543057D01*
X70766308Y30570764D01*
X71036807Y30652818D01*
X71286100Y30786068D01*
X71504607Y30965392D01*
X71683932Y31183899D01*
X71817182Y31433192D01*
X71899236Y31703691D01*
X71920000Y31914508D01*
X71920000Y32044132D01*
X72633933Y32758064D01*
X72665791Y32784209D01*
X72691946Y32816079D01*
X73424582Y33548715D01*
X73518665Y33530000D01*
X73801335Y33530000D01*
X74078574Y33585147D01*
X74339727Y33693320D01*
X74574759Y33850363D01*
X74774637Y34050241D01*
X74931680Y34285273D01*
X75039853Y34546426D01*
X75095000Y34823665D01*
X75095000Y35106335D01*
X75039853Y35383574D01*
X74931680Y35644727D01*
X74774637Y35879759D01*
X74574759Y36079637D01*
X74374131Y36213692D01*
X74401514Y36228329D01*
X74473097Y36472298D01*
X73660000Y37285395D01*
X73645858Y37271252D01*
X73466253Y37450857D01*
X73480395Y37465000D01*
X73839605Y37465000D01*
X74652702Y36651903D01*
X74896671Y36723486D01*
X75017571Y36978996D01*
X75086300Y37253184D01*
X75100217Y37535512D01*
X75058787Y37815130D01*
X74963603Y38081292D01*
X74896671Y38206514D01*
X74652702Y38278097D01*
X73839605Y37465000D01*
X73480395Y37465000D01*
X73466253Y37479142D01*
X73645858Y37658747D01*
X73660000Y37644605D01*
X74473097Y38457702D01*
X74401514Y38701671D01*
X74146004Y38822571D01*
X73871816Y38891300D01*
X73589488Y38905217D01*
X73309870Y38863787D01*
X73043708Y38768603D01*
X72918486Y38701671D01*
X72907500Y38664229D01*
X72907500Y41023282D01*
X72911540Y41064300D01*
X72895418Y41227989D01*
X72847672Y41385387D01*
X72770136Y41530446D01*
X72691939Y41625730D01*
X72691937Y41625732D01*
X72665791Y41657591D01*
X72633932Y41683737D01*
X69814267Y44503400D01*
X70884582Y45573714D01*
X70978665Y45555000D01*
X71261335Y45555000D01*
X71538574Y45610147D01*
X71799727Y45718320D01*
X72034759Y45875363D01*
X72234637Y46075241D01*
X72391680Y46310273D01*
X72499853Y46571426D01*
X72555000Y46848665D01*
X72555000Y47131335D01*
X72499853Y47408574D01*
X72391680Y47669727D01*
X72234637Y47904759D01*
X72034759Y48104637D01*
X71834131Y48238692D01*
X71861514Y48253329D01*
X71933097Y48497298D01*
X71120000Y49310395D01*
X70306903Y48497298D01*
X70378486Y48253329D01*
X70407341Y48239676D01*
X70205241Y48104637D01*
X70005363Y47904759D01*
X69848320Y47669727D01*
X69740147Y47408574D01*
X69685000Y47131335D01*
X69685000Y46848665D01*
X69703714Y46754582D01*
X68884491Y45935358D01*
X68746101Y46048932D01*
X68496808Y46182182D01*
X68226309Y46264236D01*
X67945000Y46291943D01*
X67663692Y46264236D01*
X67393193Y46182182D01*
X67143900Y46048932D01*
X66925393Y45869608D01*
X66746068Y45651101D01*
X66675000Y45518142D01*
X66603932Y45651101D01*
X66424608Y45869608D01*
X66206101Y46048932D01*
X66140000Y46084264D01*
X66140000Y49419488D01*
X69679783Y49419488D01*
X69721213Y49139870D01*
X69816397Y48873708D01*
X69883329Y48748486D01*
X70127298Y48676903D01*
X70940395Y49490000D01*
X71299605Y49490000D01*
X72112702Y48676903D01*
X72356671Y48748486D01*
X72477571Y49003996D01*
X72546300Y49278184D01*
X72560217Y49560512D01*
X72518787Y49840130D01*
X72423603Y50106292D01*
X72356671Y50231514D01*
X72112702Y50303097D01*
X71299605Y49490000D01*
X70940395Y49490000D01*
X70127298Y50303097D01*
X69883329Y50231514D01*
X69762429Y49976004D01*
X69693700Y49701816D01*
X69679783Y49419488D01*
X66140000Y49419488D01*
X66140000Y50435737D01*
X66206100Y50471068D01*
X66424607Y50650392D01*
X66517419Y50763483D01*
X66519188Y50745518D01*
X66555498Y50625820D01*
X66614463Y50515506D01*
X66693815Y50418815D01*
X66790506Y50339463D01*
X66900820Y50280498D01*
X67020518Y50244188D01*
X67145000Y50231928D01*
X68745000Y50231928D01*
X68869482Y50244188D01*
X68989180Y50280498D01*
X69099494Y50339463D01*
X69196185Y50418815D01*
X69248615Y50482702D01*
X70306903Y50482702D01*
X71120000Y49669605D01*
X71933097Y50482702D01*
X71861514Y50726671D01*
X71606004Y50847571D01*
X71331816Y50916300D01*
X71049488Y50930217D01*
X70769870Y50888787D01*
X70503708Y50793603D01*
X70378486Y50726671D01*
X70306903Y50482702D01*
X69248615Y50482702D01*
X69275537Y50515506D01*
X69334502Y50625820D01*
X69370812Y50745518D01*
X69383072Y50870000D01*
X69383072Y53270000D01*
X69370812Y53394482D01*
X69334502Y53514180D01*
X69275537Y53624494D01*
X69196185Y53721185D01*
X69099494Y53800537D01*
X68989180Y53859502D01*
X68869482Y53895812D01*
X68745000Y53908072D01*
X67145000Y53908072D01*
X67020518Y53895812D01*
X66900820Y53859502D01*
X66790506Y53800537D01*
X66693815Y53721185D01*
X66614463Y53624494D01*
X66555498Y53514180D01*
X66519188Y53394482D01*
X66517419Y53376518D01*
X66424608Y53489608D01*
X66206101Y53668932D01*
X66129826Y53709702D01*
X66129365Y53714385D01*
X66087337Y53852933D01*
X66019087Y53980620D01*
X65927238Y54092538D01*
X65815320Y54184387D01*
X65786671Y54199700D01*
X65964295Y54199700D01*
X66000400Y54196144D01*
X66036505Y54199700D01*
X66144485Y54210335D01*
X66283033Y54252363D01*
X66410720Y54320613D01*
X66522638Y54412462D01*
X66545658Y54440512D01*
X67056917Y54951770D01*
X67197899Y54836068D01*
X67447192Y54702818D01*
X67717691Y54620764D01*
X67999000Y54593057D01*
X68280308Y54620764D01*
X68550807Y54702818D01*
X68800100Y54836068D01*
X69018607Y55015392D01*
X69197932Y55233899D01*
X69331182Y55483192D01*
X69413236Y55753691D01*
X69430681Y55930814D01*
X70987141Y57487272D01*
X71018990Y57513410D01*
X71045128Y57545259D01*
X71045139Y57545270D01*
X71045148Y57545281D01*
X71138582Y57638715D01*
X71232665Y57620000D01*
X71515335Y57620000D01*
X71792574Y57675147D01*
X72053727Y57783320D01*
X72288759Y57940363D01*
X72488637Y58140241D01*
X72645680Y58375273D01*
X72753853Y58636426D01*
X72809000Y58913665D01*
X72809000Y59196335D01*
X72753853Y59473574D01*
X72645680Y59734727D01*
X72488637Y59969759D01*
X72288759Y60169637D01*
X72088131Y60303692D01*
X72115514Y60318329D01*
X72187097Y60562298D01*
X71374000Y61375395D01*
X71359858Y61361252D01*
X71180253Y61540857D01*
X71194395Y61555000D01*
X71553605Y61555000D01*
X72366702Y60741903D01*
X72610671Y60813486D01*
X72731571Y61068996D01*
X72800300Y61343184D01*
X72814217Y61625512D01*
X72772787Y61905130D01*
X72677603Y62171292D01*
X72610671Y62296514D01*
X72366702Y62368097D01*
X71553605Y61555000D01*
X71194395Y61555000D01*
X71180253Y61569142D01*
X71359858Y61748747D01*
X71374000Y61734605D01*
X72187097Y62547702D01*
X72115514Y62791671D01*
X71860004Y62912571D01*
X71585816Y62981300D01*
X71303488Y62995217D01*
X71023870Y62953787D01*
X70757708Y62858603D01*
X70747600Y62853200D01*
X70747600Y67206382D01*
X70751640Y67247400D01*
X70745105Y67313756D01*
X70735518Y67411089D01*
X70687772Y67568487D01*
X70610236Y67713546D01*
X70505891Y67840691D01*
X70474026Y67866842D01*
X69760867Y68580000D01*
X70884582Y69703714D01*
X70978665Y69685000D01*
X71261335Y69685000D01*
X71538574Y69740147D01*
X71799727Y69848320D01*
X72034759Y70005363D01*
X72234637Y70205241D01*
X72391680Y70440273D01*
X72499853Y70701426D01*
X72555000Y70978665D01*
X72555000Y71261335D01*
X72499853Y71538574D01*
X72391680Y71799727D01*
X72234637Y72034759D01*
X72034759Y72234637D01*
X71834131Y72368692D01*
X71861514Y72383329D01*
X71933097Y72627298D01*
X71120000Y73440395D01*
X70306903Y72627298D01*
X70378486Y72383329D01*
X70407341Y72369676D01*
X70205241Y72234637D01*
X70005363Y72034759D01*
X69848320Y71799727D01*
X69740147Y71538574D01*
X69685000Y71261335D01*
X69685000Y70978665D01*
X69703714Y70884582D01*
X68884491Y70065358D01*
X68746101Y70178932D01*
X68496808Y70312182D01*
X68226309Y70394236D01*
X67945000Y70421943D01*
X67663692Y70394236D01*
X67393193Y70312182D01*
X67301100Y70262957D01*
X67301100Y73502506D01*
X67304655Y73538601D01*
X67303583Y73549488D01*
X69679783Y73549488D01*
X69721213Y73269870D01*
X69816397Y73003708D01*
X69883329Y72878486D01*
X70127298Y72806903D01*
X70940395Y73620000D01*
X71299605Y73620000D01*
X72112702Y72806903D01*
X72356671Y72878486D01*
X72477571Y73133996D01*
X72546300Y73408184D01*
X72560217Y73690512D01*
X72518787Y73970130D01*
X72423603Y74236292D01*
X72356671Y74361514D01*
X72112702Y74433097D01*
X71299605Y73620000D01*
X70940395Y73620000D01*
X70127298Y74433097D01*
X69883329Y74361514D01*
X69762429Y74106004D01*
X69693700Y73831816D01*
X69679783Y73549488D01*
X67303583Y73549488D01*
X67301100Y73574696D01*
X67301100Y73574705D01*
X67290465Y73682685D01*
X67248437Y73821233D01*
X67180187Y73948920D01*
X67088338Y74060838D01*
X67060293Y74083854D01*
X66391184Y74752962D01*
X66424607Y74780392D01*
X66517419Y74893483D01*
X66519188Y74875518D01*
X66555498Y74755820D01*
X66614463Y74645506D01*
X66693815Y74548815D01*
X66790506Y74469463D01*
X66900820Y74410498D01*
X67020518Y74374188D01*
X67145000Y74361928D01*
X68745000Y74361928D01*
X68869482Y74374188D01*
X68989180Y74410498D01*
X69099494Y74469463D01*
X69196185Y74548815D01*
X69248615Y74612702D01*
X70306903Y74612702D01*
X71120000Y73799605D01*
X71933097Y74612702D01*
X71861514Y74856671D01*
X71606004Y74977571D01*
X71331816Y75046300D01*
X71049488Y75060217D01*
X70769870Y75018787D01*
X70503708Y74923603D01*
X70378486Y74856671D01*
X70306903Y74612702D01*
X69248615Y74612702D01*
X69275537Y74645506D01*
X69334502Y74755820D01*
X69370812Y74875518D01*
X69383072Y75000000D01*
X69383072Y77400000D01*
X69370812Y77524482D01*
X69334502Y77644180D01*
X69275537Y77754494D01*
X69196185Y77851185D01*
X69099494Y77930537D01*
X68989180Y77989502D01*
X68869482Y78025812D01*
X68745000Y78038072D01*
X67145000Y78038072D01*
X67020518Y78025812D01*
X66900820Y77989502D01*
X66790506Y77930537D01*
X66693815Y77851185D01*
X66614463Y77754494D01*
X66555498Y77644180D01*
X66519188Y77524482D01*
X66517419Y77506518D01*
X66424608Y77619608D01*
X66206101Y77798932D01*
X65956808Y77932182D01*
X65686309Y78014236D01*
X65405000Y78041943D01*
X65123692Y78014236D01*
X64853193Y77932182D01*
X64603900Y77798932D01*
X64385393Y77619608D01*
X64206068Y77401101D01*
X64135000Y77268142D01*
X64063932Y77401101D01*
X63884608Y77619608D01*
X63666101Y77798932D01*
X63416808Y77932182D01*
X63146309Y78014236D01*
X62865000Y78041943D01*
X62583692Y78014236D01*
X62313193Y77932182D01*
X62063900Y77798932D01*
X61845393Y77619608D01*
X61666068Y77401101D01*
X61595000Y77268142D01*
X61523932Y77401101D01*
X61344608Y77619608D01*
X61126101Y77798932D01*
X60876808Y77932182D01*
X60606309Y78014236D01*
X60325000Y78041943D01*
X60043692Y78014236D01*
X59773193Y77932182D01*
X59620500Y77850566D01*
X59620500Y83220128D01*
X71765000Y83220128D01*
X71765000Y82779872D01*
X71850890Y82348075D01*
X72019369Y81941331D01*
X72263962Y81575271D01*
X72575271Y81263962D01*
X72941331Y81019369D01*
X73348075Y80850890D01*
X73779872Y80765000D01*
X74220128Y80765000D01*
X74651925Y80850890D01*
X75058669Y81019369D01*
X75424729Y81263962D01*
X75736038Y81575271D01*
X75980631Y81941331D01*
X76149110Y82348075D01*
X76235000Y82779872D01*
X76235000Y83220128D01*
X76149110Y83651925D01*
X75980631Y84058669D01*
X75736038Y84424729D01*
X75424729Y84736038D01*
X75058669Y84980631D01*
X74651925Y85149110D01*
X74220128Y85235000D01*
X73779872Y85235000D01*
X73348075Y85149110D01*
X72941331Y84980631D01*
X72575271Y84736038D01*
X72263962Y84424729D01*
X72019369Y84058669D01*
X71850890Y83651925D01*
X71765000Y83220128D01*
X59620500Y83220128D01*
X59620500Y83240647D01*
X59669777Y83314395D01*
X59736490Y83475455D01*
X59770500Y83646435D01*
X59770500Y83820765D01*
X59736490Y83991745D01*
X59669777Y84152805D01*
X59572924Y84297755D01*
X59449655Y84421024D01*
X59304705Y84517877D01*
X59143645Y84584590D01*
X58972665Y84618600D01*
X58798335Y84618600D01*
X58627355Y84584590D01*
X58466295Y84517877D01*
X58321345Y84421024D01*
X58198076Y84297755D01*
X58101223Y84152805D01*
X58034510Y83991745D01*
X58000500Y83820765D01*
X58000500Y83646435D01*
X58034510Y83475455D01*
X58101223Y83314395D01*
X58150501Y83240646D01*
X58150500Y77988417D01*
X58134039Y77991904D01*
X57912000Y77869915D01*
X57912000Y76327000D01*
X57932000Y76327000D01*
X57932000Y76073000D01*
X57912000Y76073000D01*
X57912000Y74530085D01*
X58134039Y74408096D01*
X58150500Y74411583D01*
X58150500Y74112947D01*
X56182608Y72145054D01*
X56154563Y72122038D01*
X56062714Y72010120D01*
X56013842Y71918687D01*
X55994464Y71882433D01*
X55952435Y71743885D01*
X55938244Y71599800D01*
X55941801Y71563685D01*
X55941801Y70234682D01*
X55796808Y70312182D01*
X55526309Y70394236D01*
X55245000Y70421943D01*
X54963692Y70394236D01*
X54693193Y70312182D01*
X54443900Y70178932D01*
X54225393Y69999608D01*
X54046068Y69781101D01*
X53975000Y69648142D01*
X53903932Y69781101D01*
X53724608Y69999608D01*
X53506101Y70178932D01*
X53256808Y70312182D01*
X52986309Y70394236D01*
X52705000Y70421943D01*
X52423692Y70394236D01*
X52153193Y70312182D01*
X51903900Y70178932D01*
X51685393Y69999608D01*
X51506068Y69781101D01*
X51372818Y69531808D01*
X51290764Y69261309D01*
X51270000Y69050492D01*
X46101359Y69050492D01*
X48186427Y71135559D01*
X48218291Y71161709D01*
X48322636Y71288854D01*
X48400172Y71433913D01*
X48447918Y71591311D01*
X48460000Y71713981D01*
X48460000Y71713991D01*
X48464039Y71754999D01*
X48460000Y71796007D01*
X48460000Y73802070D01*
X48539759Y73855363D01*
X48739637Y74055241D01*
X48896680Y74290273D01*
X49004853Y74551426D01*
X49060000Y74828665D01*
X49060000Y75111335D01*
X49004853Y75388574D01*
X48896680Y75649727D01*
X48739637Y75884759D01*
X48551396Y76073000D01*
X51270000Y76073000D01*
X51270000Y75673000D01*
X51322350Y75395486D01*
X51427834Y75133517D01*
X51582399Y74897161D01*
X51780105Y74695500D01*
X52013354Y74536285D01*
X52273182Y74425633D01*
X52355961Y74408096D01*
X52578000Y74530085D01*
X52578000Y76073000D01*
X51270000Y76073000D01*
X48551396Y76073000D01*
X48539759Y76084637D01*
X48339131Y76218692D01*
X48366514Y76233329D01*
X48438097Y76477298D01*
X47625000Y77290395D01*
X46811903Y76477298D01*
X46883486Y76233329D01*
X46912341Y76219676D01*
X46710241Y76084637D01*
X46510363Y75884759D01*
X46353320Y75649727D01*
X46245147Y75388574D01*
X46190000Y75111335D01*
X46190000Y74828665D01*
X46245147Y74551426D01*
X46353320Y74290273D01*
X46510363Y74055241D01*
X46710241Y73855363D01*
X46790000Y73802070D01*
X46790001Y72100869D01*
X45001430Y70312297D01*
X44731309Y70394236D01*
X44450000Y70421943D01*
X44168692Y70394236D01*
X44077200Y70366483D01*
X44077200Y77399488D01*
X46184783Y77399488D01*
X46226213Y77119870D01*
X46321397Y76853708D01*
X46388329Y76728486D01*
X46632298Y76656903D01*
X47445395Y77470000D01*
X47804605Y77470000D01*
X48617702Y76656903D01*
X48856606Y76727000D01*
X51270000Y76727000D01*
X51270000Y76327000D01*
X52578000Y76327000D01*
X52578000Y77869915D01*
X52832000Y77869915D01*
X52832000Y76327000D01*
X52852000Y76327000D01*
X52852000Y76073000D01*
X52832000Y76073000D01*
X52832000Y74530085D01*
X53054039Y74408096D01*
X53136818Y74425633D01*
X53396646Y74536285D01*
X53629895Y74695500D01*
X53827601Y74897161D01*
X53977735Y75126742D01*
X54046068Y74998900D01*
X54225392Y74780393D01*
X54443899Y74601068D01*
X54693192Y74467818D01*
X54963691Y74385764D01*
X55245000Y74358057D01*
X55526308Y74385764D01*
X55796807Y74467818D01*
X56046100Y74601068D01*
X56264607Y74780392D01*
X56443932Y74998899D01*
X56512265Y75126741D01*
X56662399Y74897161D01*
X56860105Y74695500D01*
X57093354Y74536285D01*
X57353182Y74425633D01*
X57435961Y74408096D01*
X57658000Y74530085D01*
X57658000Y76073000D01*
X57638000Y76073000D01*
X57638000Y76327000D01*
X57658000Y76327000D01*
X57658000Y77869915D01*
X57435961Y77991904D01*
X57353182Y77974367D01*
X57093354Y77863715D01*
X56860105Y77704500D01*
X56662399Y77502839D01*
X56512265Y77273259D01*
X56443932Y77401101D01*
X56264608Y77619608D01*
X56046101Y77798932D01*
X55796808Y77932182D01*
X55526309Y78014236D01*
X55245000Y78041943D01*
X54963692Y78014236D01*
X54693193Y77932182D01*
X54443900Y77798932D01*
X54225393Y77619608D01*
X54046068Y77401101D01*
X53977735Y77273259D01*
X53827601Y77502839D01*
X53629895Y77704500D01*
X53396646Y77863715D01*
X53136818Y77974367D01*
X53054039Y77991904D01*
X52832000Y77869915D01*
X52578000Y77869915D01*
X52355961Y77991904D01*
X52273182Y77974367D01*
X52013354Y77863715D01*
X51780105Y77704500D01*
X51582399Y77502839D01*
X51427834Y77266483D01*
X51322350Y77004514D01*
X51270000Y76727000D01*
X48856606Y76727000D01*
X48861671Y76728486D01*
X48982571Y76983996D01*
X49051300Y77258184D01*
X49065217Y77540512D01*
X49023787Y77820130D01*
X48928603Y78086292D01*
X48861671Y78211514D01*
X48617702Y78283097D01*
X47804605Y77470000D01*
X47445395Y77470000D01*
X46632298Y78283097D01*
X46388329Y78211514D01*
X46267429Y77956004D01*
X46198700Y77681816D01*
X46184783Y77399488D01*
X44077200Y77399488D01*
X44077200Y78462702D01*
X46811903Y78462702D01*
X47625000Y77649605D01*
X48438097Y78462702D01*
X48366514Y78706671D01*
X48111004Y78827571D01*
X47836816Y78896300D01*
X47554488Y78910217D01*
X47274870Y78868787D01*
X47008708Y78773603D01*
X46883486Y78706671D01*
X46811903Y78462702D01*
X44077200Y78462702D01*
X44077200Y80907454D01*
X44944193Y81774446D01*
X44972238Y81797462D01*
X45064087Y81909380D01*
X45102865Y81981928D01*
X45250000Y81981928D01*
X45374482Y81994188D01*
X45494180Y82030498D01*
X45604494Y82089463D01*
X45701185Y82168815D01*
X45780537Y82265506D01*
X45839502Y82375820D01*
X45875812Y82495518D01*
X45888072Y82620000D01*
X45888072Y85020000D01*
X45875812Y85144482D01*
X45839502Y85264180D01*
X45780537Y85374494D01*
X45701185Y85471185D01*
X45604494Y85550537D01*
X45494180Y85609502D01*
X45374482Y85645812D01*
X45250000Y85658072D01*
X43650000Y85658072D01*
X43525518Y85645812D01*
X43470599Y85629152D01*
X46214197Y88372750D01*
X46242237Y88395762D01*
X46265250Y88423803D01*
X46265253Y88423806D01*
X46334086Y88507679D01*
X46334087Y88507680D01*
X46402337Y88635367D01*
X46434913Y88742756D01*
X46444365Y88773914D01*
X46447554Y88806296D01*
X46453033Y88861928D01*
X46610000Y88861928D01*
X46722420Y88873000D01*
X46893854Y88873000D01*
X46570308Y88549454D01*
X46542262Y88526437D01*
X46450413Y88414519D01*
X46382163Y88286832D01*
X46359564Y88212333D01*
X46340135Y88148285D01*
X46325944Y88004200D01*
X46329500Y87968095D01*
X46329501Y81192154D01*
X46280223Y81118405D01*
X46213510Y80957345D01*
X46179500Y80786365D01*
X46179500Y80612035D01*
X46213510Y80441055D01*
X46280223Y80279995D01*
X46377076Y80135045D01*
X46500345Y80011776D01*
X46645295Y79914923D01*
X46806355Y79848210D01*
X46977335Y79814200D01*
X47151665Y79814200D01*
X47322645Y79848210D01*
X47483705Y79914923D01*
X47628655Y80011776D01*
X47751924Y80135045D01*
X47848777Y80279995D01*
X47868370Y80327298D01*
X54431903Y80327298D01*
X54503486Y80083329D01*
X54758996Y79962429D01*
X55033184Y79893700D01*
X55315512Y79879783D01*
X55595130Y79921213D01*
X55861292Y80016397D01*
X55986514Y80083329D01*
X56058097Y80327298D01*
X55245000Y81140395D01*
X54431903Y80327298D01*
X47868370Y80327298D01*
X47915490Y80441055D01*
X47949500Y80612035D01*
X47949500Y80786365D01*
X47915490Y80957345D01*
X47848777Y81118405D01*
X47799500Y81192153D01*
X47799500Y81249488D01*
X53804783Y81249488D01*
X53846213Y80969870D01*
X53941397Y80703708D01*
X54008329Y80578486D01*
X54252298Y80506903D01*
X55065395Y81320000D01*
X55424605Y81320000D01*
X56237702Y80506903D01*
X56481671Y80578486D01*
X56602571Y80833996D01*
X56671300Y81108184D01*
X56685217Y81390512D01*
X56643787Y81670130D01*
X56548603Y81936292D01*
X56481671Y82061514D01*
X56237702Y82133097D01*
X55424605Y81320000D01*
X55065395Y81320000D01*
X54252298Y82133097D01*
X54008329Y82061514D01*
X53887429Y81806004D01*
X53818700Y81531816D01*
X53804783Y81249488D01*
X47799500Y81249488D01*
X47799500Y84620000D01*
X53806928Y84620000D01*
X53806928Y83020000D01*
X53819188Y82895518D01*
X53855498Y82775820D01*
X53914463Y82665506D01*
X53993815Y82568815D01*
X54090506Y82489463D01*
X54200820Y82430498D01*
X54320518Y82394188D01*
X54445000Y82381928D01*
X54452215Y82381928D01*
X54431903Y82312702D01*
X55245000Y81499605D01*
X56058097Y82312702D01*
X56037785Y82381928D01*
X56045000Y82381928D01*
X56169482Y82394188D01*
X56289180Y82430498D01*
X56399494Y82489463D01*
X56496185Y82568815D01*
X56575537Y82665506D01*
X56634502Y82775820D01*
X56670812Y82895518D01*
X56683072Y83020000D01*
X56683072Y84620000D01*
X56670812Y84744482D01*
X56634502Y84864180D01*
X56575537Y84974494D01*
X56496185Y85071185D01*
X56399494Y85150537D01*
X56289180Y85209502D01*
X56169482Y85245812D01*
X56045000Y85258072D01*
X54445000Y85258072D01*
X54320518Y85245812D01*
X54200820Y85209502D01*
X54090506Y85150537D01*
X53993815Y85071185D01*
X53914463Y84974494D01*
X53855498Y84864180D01*
X53819188Y84744482D01*
X53806928Y84620000D01*
X47799500Y84620000D01*
X47799500Y87699754D01*
X48754193Y88654446D01*
X48782238Y88677462D01*
X48874087Y88789380D01*
X48912865Y88861928D01*
X49150000Y88861928D01*
X49262420Y88873000D01*
X49797580Y88873000D01*
X49910000Y88861928D01*
X50065001Y88861928D01*
X50065001Y86881909D01*
X50033745Y86861024D01*
X49910476Y86737755D01*
X49813623Y86592805D01*
X49746910Y86431745D01*
X49712900Y86260765D01*
X49712900Y86086435D01*
X49746910Y85915455D01*
X49813623Y85754395D01*
X49910476Y85609445D01*
X50033745Y85486176D01*
X50178695Y85389323D01*
X50339755Y85322610D01*
X50510735Y85288600D01*
X50685065Y85288600D01*
X50856045Y85322610D01*
X51017105Y85389323D01*
X51162055Y85486176D01*
X51214430Y85538551D01*
X51303855Y85501510D01*
X51474835Y85467500D01*
X51649165Y85467500D01*
X51820145Y85501510D01*
X51981205Y85568223D01*
X52126155Y85665076D01*
X52249424Y85788345D01*
X52346277Y85933295D01*
X52412990Y86094355D01*
X52430294Y86181348D01*
X53834193Y87585246D01*
X53862238Y87608262D01*
X53954087Y87720180D01*
X53989063Y87785615D01*
X54022337Y87847866D01*
X54064365Y87986415D01*
X54078556Y88130500D01*
X54075000Y88166605D01*
X54075000Y88861928D01*
X54230000Y88861928D01*
X54342420Y88873000D01*
X54877580Y88873000D01*
X54990000Y88861928D01*
X56770000Y88861928D01*
X56882420Y88873000D01*
X57417580Y88873000D01*
X57530000Y88861928D01*
X59310000Y88861928D01*
X59422420Y88873000D01*
X59957580Y88873000D01*
X60070000Y88861928D01*
X61850000Y88861928D01*
X61962420Y88873000D01*
X62854033Y88873000D01*
X62904052Y88812052D01*
X63004550Y88729575D01*
X63119207Y88668290D01*
X63243617Y88630550D01*
X63340581Y88621000D01*
X63373000Y88617807D01*
X63405419Y88621000D01*
X78334045Y88621000D01*
X78339956Y660000D01*
X660000Y660000D01*
X660000Y5220128D01*
X2765000Y5220128D01*
X2765000Y4779872D01*
X2850890Y4348075D01*
X3019369Y3941331D01*
X3263962Y3575271D01*
X3575271Y3263962D01*
X3941331Y3019369D01*
X4348075Y2850890D01*
X4779872Y2765000D01*
X5220128Y2765000D01*
X5651925Y2850890D01*
X6058669Y3019369D01*
X6424729Y3263962D01*
X6736038Y3575271D01*
X6980631Y3941331D01*
X7149110Y4348075D01*
X7235000Y4779872D01*
X7235000Y5220128D01*
X71765000Y5220128D01*
X71765000Y4779872D01*
X71850890Y4348075D01*
X72019369Y3941331D01*
X72263962Y3575271D01*
X72575271Y3263962D01*
X72941331Y3019369D01*
X73348075Y2850890D01*
X73779872Y2765000D01*
X74220128Y2765000D01*
X74651925Y2850890D01*
X75058669Y3019369D01*
X75424729Y3263962D01*
X75736038Y3575271D01*
X75980631Y3941331D01*
X76149110Y4348075D01*
X76235000Y4779872D01*
X76235000Y5220128D01*
X76149110Y5651925D01*
X75980631Y6058669D01*
X75736038Y6424729D01*
X75424729Y6736038D01*
X75058669Y6980631D01*
X74651925Y7149110D01*
X74220128Y7235000D01*
X73779872Y7235000D01*
X73348075Y7149110D01*
X72941331Y6980631D01*
X72575271Y6736038D01*
X72263962Y6424729D01*
X72019369Y6058669D01*
X71850890Y5651925D01*
X71765000Y5220128D01*
X7235000Y5220128D01*
X7149110Y5651925D01*
X6980631Y6058669D01*
X6736038Y6424729D01*
X6424729Y6736038D01*
X6058669Y6980631D01*
X5651925Y7149110D01*
X5220128Y7235000D01*
X4779872Y7235000D01*
X4348075Y7149110D01*
X3941331Y6980631D01*
X3575271Y6736038D01*
X3263962Y6424729D01*
X3019369Y6058669D01*
X2850890Y5651925D01*
X2765000Y5220128D01*
X660000Y5220128D01*
X660000Y22733000D01*
X9995000Y22733000D01*
X9995000Y22333000D01*
X10047350Y22055486D01*
X10152834Y21793517D01*
X10307399Y21557161D01*
X10505105Y21355500D01*
X10738354Y21196285D01*
X10998182Y21085633D01*
X11080961Y21068096D01*
X11303000Y21190085D01*
X11303000Y22733000D01*
X9995000Y22733000D01*
X660000Y22733000D01*
X660000Y23387000D01*
X9995000Y23387000D01*
X9995000Y22987000D01*
X11303000Y22987000D01*
X11303000Y24529915D01*
X11080961Y24651904D01*
X10998182Y24634367D01*
X10738354Y24523715D01*
X10505105Y24364500D01*
X10307399Y24162839D01*
X10152834Y23926483D01*
X10047350Y23664514D01*
X9995000Y23387000D01*
X660000Y23387000D01*
X660000Y43053000D01*
X9995000Y43053000D01*
X9995000Y42653000D01*
X10047350Y42375486D01*
X10152834Y42113517D01*
X10307399Y41877161D01*
X10505105Y41675500D01*
X10738354Y41516285D01*
X10998182Y41405633D01*
X11080961Y41388096D01*
X11303000Y41510085D01*
X11303000Y43053000D01*
X9995000Y43053000D01*
X660000Y43053000D01*
X660000Y43707000D01*
X9995000Y43707000D01*
X9995000Y43307000D01*
X11303000Y43307000D01*
X11303000Y44849915D01*
X11080961Y44971904D01*
X10998182Y44954367D01*
X10738354Y44843715D01*
X10505105Y44684500D01*
X10307399Y44482839D01*
X10152834Y44246483D01*
X10047350Y43984514D01*
X9995000Y43707000D01*
X660000Y43707000D01*
X660000Y63373000D01*
X9995000Y63373000D01*
X9995000Y62973000D01*
X10047350Y62695486D01*
X10152834Y62433517D01*
X10307399Y62197161D01*
X10505105Y61995500D01*
X10738354Y61836285D01*
X10998182Y61725633D01*
X11080961Y61708096D01*
X11303000Y61830085D01*
X11303000Y63373000D01*
X9995000Y63373000D01*
X660000Y63373000D01*
X660000Y64027000D01*
X9995000Y64027000D01*
X9995000Y63627000D01*
X11303000Y63627000D01*
X11303000Y65169915D01*
X11080961Y65291904D01*
X10998182Y65274367D01*
X10738354Y65163715D01*
X10505105Y65004500D01*
X10307399Y64802839D01*
X10152834Y64566483D01*
X10047350Y64304514D01*
X9995000Y64027000D01*
X660000Y64027000D01*
X660000Y83220128D01*
X2765000Y83220128D01*
X2765000Y82779872D01*
X2850890Y82348075D01*
X3019369Y81941331D01*
X3263962Y81575271D01*
X3575271Y81263962D01*
X3941331Y81019369D01*
X4348075Y80850890D01*
X4779872Y80765000D01*
X5220128Y80765000D01*
X5651925Y80850890D01*
X6058669Y81019369D01*
X6424729Y81263962D01*
X6736038Y81575271D01*
X6980631Y81941331D01*
X7149110Y82348075D01*
X7235000Y82779872D01*
X7235000Y83220128D01*
X7149110Y83651925D01*
X7132097Y83693000D01*
X9995000Y83693000D01*
X9995000Y83293000D01*
X10047350Y83015486D01*
X10152834Y82753517D01*
X10307399Y82517161D01*
X10505105Y82315500D01*
X10738354Y82156285D01*
X10998182Y82045633D01*
X11080961Y82028096D01*
X11303000Y82150085D01*
X11303000Y83693000D01*
X9995000Y83693000D01*
X7132097Y83693000D01*
X6980631Y84058669D01*
X6787975Y84347000D01*
X9995000Y84347000D01*
X9995000Y83947000D01*
X11303000Y83947000D01*
X11303000Y85489915D01*
X11080961Y85611904D01*
X10998182Y85594367D01*
X10738354Y85483715D01*
X10505105Y85324500D01*
X10307399Y85122839D01*
X10152834Y84886483D01*
X10047350Y84624514D01*
X9995000Y84347000D01*
X6787975Y84347000D01*
X6736038Y84424729D01*
X6424729Y84736038D01*
X6058669Y84980631D01*
X5651925Y85149110D01*
X5220128Y85235000D01*
X4779872Y85235000D01*
X4348075Y85149110D01*
X3941331Y84980631D01*
X3575271Y84736038D01*
X3263962Y84424729D01*
X3019369Y84058669D01*
X2850890Y83651925D01*
X2765000Y83220128D01*
X660000Y83220128D01*
X660000Y88621000D01*
X15334581Y88621000D01*
X15367000Y88617807D01*
X15399419Y88621000D01*
X15496383Y88630550D01*
X15620793Y88668290D01*
X15735450Y88729575D01*
X15835948Y88812052D01*
X15885967Y88873000D01*
X16777580Y88873000D01*
X16890000Y88861928D01*
G04 #@! TA.AperFunction,Conductor*
D20*
G36*
X16890000Y88861928D02*
G01*
X17494250Y88865000D01*
X17502250Y88873000D01*
X18057750Y88873000D01*
X18065750Y88865000D01*
X18670000Y88861928D01*
X18782420Y88873000D01*
X19317580Y88873000D01*
X19430000Y88861928D01*
X21210000Y88861928D01*
X21322420Y88873000D01*
X21857580Y88873000D01*
X21970000Y88861928D01*
X22123367Y88861928D01*
X22121444Y88842400D01*
X22125000Y88806296D01*
X22125000Y88806295D01*
X22135635Y88698315D01*
X22177663Y88559767D01*
X22245913Y88432080D01*
X22337763Y88320162D01*
X22365808Y88297146D01*
X24513800Y86149153D01*
X24513800Y85603146D01*
X24411309Y85634236D01*
X24130000Y85661943D01*
X23848692Y85634236D01*
X23578193Y85552182D01*
X23328900Y85418932D01*
X23110393Y85239608D01*
X22931068Y85021101D01*
X22860000Y84888142D01*
X22788932Y85021101D01*
X22609608Y85239608D01*
X22391101Y85418932D01*
X22141808Y85552182D01*
X21871309Y85634236D01*
X21590000Y85661943D01*
X21308692Y85634236D01*
X21038193Y85552182D01*
X20788900Y85418932D01*
X20570393Y85239608D01*
X20391068Y85021101D01*
X20320000Y84888142D01*
X20248932Y85021101D01*
X20069608Y85239608D01*
X19851101Y85418932D01*
X19601808Y85552182D01*
X19331309Y85634236D01*
X19050000Y85661943D01*
X18768692Y85634236D01*
X18498193Y85552182D01*
X18248900Y85418932D01*
X18030393Y85239608D01*
X17851068Y85021101D01*
X17780000Y84888142D01*
X17708932Y85021101D01*
X17529608Y85239608D01*
X17311101Y85418932D01*
X17061808Y85552182D01*
X16791309Y85634236D01*
X16510000Y85661943D01*
X16228692Y85634236D01*
X15958193Y85552182D01*
X15708900Y85418932D01*
X15490393Y85239608D01*
X15311068Y85021101D01*
X15240000Y84888142D01*
X15168932Y85021101D01*
X14989608Y85239608D01*
X14771101Y85418932D01*
X14521808Y85552182D01*
X14251309Y85634236D01*
X13970000Y85661943D01*
X13688692Y85634236D01*
X13418193Y85552182D01*
X13168900Y85418932D01*
X12950393Y85239608D01*
X12771068Y85021101D01*
X12702735Y84893259D01*
X12552601Y85122839D01*
X12354895Y85324500D01*
X12121646Y85483715D01*
X11861818Y85594367D01*
X11779039Y85611904D01*
X11557000Y85489915D01*
X11557000Y83947000D01*
X11577000Y83947000D01*
X11577000Y83693000D01*
X11557000Y83693000D01*
X11557000Y82150085D01*
X11779039Y82028096D01*
X11861818Y82045633D01*
X12121646Y82156285D01*
X12354895Y82315500D01*
X12552601Y82517161D01*
X12702735Y82746742D01*
X12771068Y82618900D01*
X12950392Y82400393D01*
X12983816Y82372963D01*
X12351508Y81740654D01*
X12323462Y81717637D01*
X12231613Y81605719D01*
X12163363Y81478032D01*
X12155021Y81450532D01*
X12121335Y81339485D01*
X12107144Y81195400D01*
X12110700Y81159295D01*
X12110701Y70243287D01*
X11981808Y70312182D01*
X11711309Y70394236D01*
X11430000Y70421943D01*
X11148692Y70394236D01*
X10878193Y70312182D01*
X10628900Y70178932D01*
X10410393Y69999608D01*
X10231068Y69781101D01*
X10097818Y69531808D01*
X10015764Y69261309D01*
X9995000Y69050492D01*
X9995000Y68109509D01*
X10015764Y67898692D01*
X10097818Y67628193D01*
X10231068Y67378900D01*
X10410392Y67160393D01*
X10628899Y66981068D01*
X10705174Y66940298D01*
X10705635Y66935615D01*
X10738942Y66825819D01*
X10747664Y66797067D01*
X10815914Y66669380D01*
X10907763Y66557462D01*
X10935808Y66534446D01*
X11806100Y65664153D01*
X11806100Y65286171D01*
X11779039Y65291904D01*
X11557000Y65169915D01*
X11557000Y63627000D01*
X11577000Y63627000D01*
X11577000Y63373000D01*
X11557000Y63373000D01*
X11557000Y61830085D01*
X11779039Y61708096D01*
X11806100Y61713829D01*
X11806101Y51175848D01*
X10935808Y50305554D01*
X10907763Y50282538D01*
X10815914Y50170620D01*
X10750085Y50047462D01*
X10747664Y50042933D01*
X10705635Y49904385D01*
X10705174Y49899701D01*
X10628900Y49858932D01*
X10410393Y49679608D01*
X10231068Y49461101D01*
X10097818Y49211808D01*
X10015764Y48941309D01*
X9995000Y48730492D01*
X9995000Y47789509D01*
X10015764Y47578692D01*
X10097818Y47308193D01*
X10231068Y47058900D01*
X10410392Y46840393D01*
X10628899Y46661068D01*
X10705174Y46620298D01*
X10705635Y46615615D01*
X10738942Y46505819D01*
X10747664Y46477067D01*
X10815914Y46349380D01*
X10907763Y46237462D01*
X10935807Y46214447D01*
X11806100Y45344153D01*
X11806100Y44966171D01*
X11779039Y44971904D01*
X11557000Y44849915D01*
X11557000Y43307000D01*
X11577000Y43307000D01*
X11577000Y43053000D01*
X11557000Y43053000D01*
X11557000Y41510085D01*
X11779039Y41388096D01*
X11806100Y41393829D01*
X11806101Y30855848D01*
X10935808Y29985554D01*
X10907763Y29962538D01*
X10815914Y29850620D01*
X10766219Y29757647D01*
X10747664Y29722933D01*
X10705635Y29584385D01*
X10705174Y29579701D01*
X10628900Y29538932D01*
X10410393Y29359608D01*
X10231068Y29141101D01*
X10097818Y28891808D01*
X10015764Y28621309D01*
X9995000Y28410492D01*
X9995000Y27469509D01*
X10015764Y27258692D01*
X10097818Y26988193D01*
X10231068Y26738900D01*
X10410392Y26520393D01*
X10628899Y26341068D01*
X10878192Y26207818D01*
X11148691Y26125764D01*
X11430000Y26098057D01*
X11711308Y26125764D01*
X11981807Y26207818D01*
X12123801Y26283715D01*
X12123801Y25507615D01*
X12120244Y25471500D01*
X12134435Y25327415D01*
X12166211Y25222667D01*
X12176464Y25188867D01*
X12244714Y25061180D01*
X12336563Y24949262D01*
X12364608Y24926246D01*
X12983816Y24307037D01*
X12950393Y24279608D01*
X12771068Y24061101D01*
X12702735Y23933259D01*
X12552601Y24162839D01*
X12354895Y24364500D01*
X12121646Y24523715D01*
X11861818Y24634367D01*
X11779039Y24651904D01*
X11557000Y24529915D01*
X11557000Y22987000D01*
X11577000Y22987000D01*
X11577000Y22733000D01*
X11557000Y22733000D01*
X11557000Y21190085D01*
X11779039Y21068096D01*
X11861818Y21085633D01*
X12121646Y21196285D01*
X12354895Y21355500D01*
X12552601Y21557161D01*
X12702735Y21786742D01*
X12771068Y21658900D01*
X12950392Y21440393D01*
X13168899Y21261068D01*
X13418192Y21127818D01*
X13688691Y21045764D01*
X13970000Y21018057D01*
X14251308Y21045764D01*
X14346100Y21074519D01*
X14346101Y10535848D01*
X13475808Y9665554D01*
X13447763Y9642538D01*
X13355914Y9530620D01*
X13309970Y9444665D01*
X13287664Y9402933D01*
X13245635Y9264385D01*
X13245174Y9259701D01*
X13168900Y9218932D01*
X12950393Y9039608D01*
X12771068Y8821101D01*
X12700000Y8688142D01*
X12628932Y8821101D01*
X12449608Y9039608D01*
X12231101Y9218932D01*
X11981808Y9352182D01*
X11711309Y9434236D01*
X11430000Y9461943D01*
X11148692Y9434236D01*
X10878193Y9352182D01*
X10628900Y9218932D01*
X10410393Y9039608D01*
X10231068Y8821101D01*
X10097818Y8571808D01*
X10015764Y8301309D01*
X9995000Y8090492D01*
X9995000Y7149509D01*
X10015764Y6938692D01*
X10097818Y6668193D01*
X10231068Y6418900D01*
X10410392Y6200393D01*
X10628899Y6021068D01*
X10878192Y5887818D01*
X11148691Y5805764D01*
X11430000Y5778057D01*
X11711308Y5805764D01*
X11981807Y5887818D01*
X12231100Y6021068D01*
X12449607Y6200392D01*
X12628932Y6418899D01*
X12700000Y6551858D01*
X12771068Y6418900D01*
X12950392Y6200393D01*
X13168899Y6021068D01*
X13418192Y5887818D01*
X13688691Y5805764D01*
X13970000Y5778057D01*
X14251308Y5805764D01*
X14521807Y5887818D01*
X14771100Y6021068D01*
X14989607Y6200392D01*
X15168932Y6418899D01*
X15240000Y6551858D01*
X15311068Y6418900D01*
X15490392Y6200393D01*
X15708899Y6021068D01*
X15958192Y5887818D01*
X16228691Y5805764D01*
X16510000Y5778057D01*
X16791308Y5805764D01*
X17061807Y5887818D01*
X17311100Y6021068D01*
X17529607Y6200392D01*
X17708932Y6418899D01*
X17780000Y6551858D01*
X17851068Y6418900D01*
X18030392Y6200393D01*
X18248899Y6021068D01*
X18498192Y5887818D01*
X18768691Y5805764D01*
X19050000Y5778057D01*
X19331308Y5805764D01*
X19601807Y5887818D01*
X19851100Y6021068D01*
X20069607Y6200392D01*
X20248932Y6418899D01*
X20320000Y6551858D01*
X20391068Y6418900D01*
X20570392Y6200393D01*
X20788899Y6021068D01*
X21038192Y5887818D01*
X21308691Y5805764D01*
X21590000Y5778057D01*
X21871308Y5805764D01*
X22141807Y5887818D01*
X22391100Y6021068D01*
X22609607Y6200392D01*
X22788932Y6418899D01*
X22860000Y6551858D01*
X22931068Y6418900D01*
X23110392Y6200393D01*
X23328899Y6021068D01*
X23578192Y5887818D01*
X23848691Y5805764D01*
X24130000Y5778057D01*
X24411308Y5805764D01*
X24681807Y5887818D01*
X24931100Y6021068D01*
X25149607Y6200392D01*
X25328932Y6418899D01*
X25400000Y6551858D01*
X25471068Y6418900D01*
X25650392Y6200393D01*
X25868899Y6021068D01*
X26118192Y5887818D01*
X26388691Y5805764D01*
X26670000Y5778057D01*
X26951308Y5805764D01*
X27221807Y5887818D01*
X27471100Y6021068D01*
X27689607Y6200392D01*
X27868932Y6418899D01*
X27940000Y6551858D01*
X28011068Y6418900D01*
X28190392Y6200393D01*
X28408899Y6021068D01*
X28658192Y5887818D01*
X28928691Y5805764D01*
X29210000Y5778057D01*
X29491308Y5805764D01*
X29761807Y5887818D01*
X30011100Y6021068D01*
X30229607Y6200392D01*
X30408932Y6418899D01*
X30480000Y6551858D01*
X30551068Y6418900D01*
X30730392Y6200393D01*
X30948899Y6021068D01*
X31198192Y5887818D01*
X31468691Y5805764D01*
X31750000Y5778057D01*
X32031308Y5805764D01*
X32301807Y5887818D01*
X32551100Y6021068D01*
X32769607Y6200392D01*
X32948932Y6418899D01*
X33020000Y6551858D01*
X33091068Y6418900D01*
X33270392Y6200393D01*
X33488899Y6021068D01*
X33738192Y5887818D01*
X34008691Y5805764D01*
X34290000Y5778057D01*
X34571308Y5805764D01*
X34841807Y5887818D01*
X35091100Y6021068D01*
X35309607Y6200392D01*
X35488932Y6418899D01*
X35560000Y6551858D01*
X35631068Y6418900D01*
X35810392Y6200393D01*
X36028899Y6021068D01*
X36278192Y5887818D01*
X36548691Y5805764D01*
X36830000Y5778057D01*
X37111308Y5805764D01*
X37381807Y5887818D01*
X37631100Y6021068D01*
X37849607Y6200392D01*
X38028932Y6418899D01*
X38100000Y6551858D01*
X38171068Y6418900D01*
X38350392Y6200393D01*
X38568899Y6021068D01*
X38818192Y5887818D01*
X39088691Y5805764D01*
X39370000Y5778057D01*
X39651308Y5805764D01*
X39921807Y5887818D01*
X40171100Y6021068D01*
X40389607Y6200392D01*
X40568932Y6418899D01*
X40640000Y6551858D01*
X40711068Y6418900D01*
X40890392Y6200393D01*
X41108899Y6021068D01*
X41358192Y5887818D01*
X41628691Y5805764D01*
X41910000Y5778057D01*
X42191308Y5805764D01*
X42461807Y5887818D01*
X42711100Y6021068D01*
X42929607Y6200392D01*
X43108932Y6418899D01*
X43180000Y6551858D01*
X43251068Y6418900D01*
X43430392Y6200393D01*
X43648899Y6021068D01*
X43898192Y5887818D01*
X44168691Y5805764D01*
X44450000Y5778057D01*
X44731308Y5805764D01*
X45001807Y5887818D01*
X45251100Y6021068D01*
X45469607Y6200392D01*
X45648932Y6418899D01*
X45782182Y6668192D01*
X45864236Y6938691D01*
X45885000Y7149508D01*
X45885000Y7874133D01*
X48186427Y10175559D01*
X48218291Y10201709D01*
X48322636Y10328854D01*
X48400172Y10473913D01*
X48447918Y10631311D01*
X48460000Y10753981D01*
X48464040Y10794999D01*
X48460000Y10836018D01*
X48460000Y12842070D01*
X48539759Y12895363D01*
X48739637Y13095241D01*
X48896680Y13330273D01*
X49004853Y13591426D01*
X49060000Y13868665D01*
X49060000Y14151335D01*
X49004853Y14428574D01*
X48896680Y14689727D01*
X48739637Y14924759D01*
X48539759Y15124637D01*
X48339131Y15258692D01*
X48366514Y15273329D01*
X48438097Y15517298D01*
X47625000Y16330395D01*
X47610858Y16316252D01*
X47431253Y16495857D01*
X47445395Y16510000D01*
X47804605Y16510000D01*
X48617702Y15696903D01*
X48861671Y15768486D01*
X48982571Y16023996D01*
X49051300Y16298184D01*
X49065217Y16580512D01*
X49023787Y16860130D01*
X48928603Y17126292D01*
X48861671Y17251514D01*
X48617702Y17323097D01*
X47804605Y16510000D01*
X47445395Y16510000D01*
X47431253Y16524142D01*
X47610858Y16703747D01*
X47625000Y16689605D01*
X48438097Y17502702D01*
X48366514Y17746671D01*
X48111004Y17867571D01*
X47836816Y17936300D01*
X47554488Y17950217D01*
X47274870Y17908787D01*
X47008708Y17813603D01*
X46883486Y17746671D01*
X46811903Y17502704D01*
X46711100Y17603507D01*
X46711100Y27590960D01*
X53853091Y27590960D01*
X53947930Y27326119D01*
X54092615Y27084869D01*
X54281586Y26876481D01*
X54507580Y26708963D01*
X54761913Y26588754D01*
X54895961Y26548096D01*
X55118000Y26670085D01*
X55118000Y27813000D01*
X55372000Y27813000D01*
X55372000Y26670085D01*
X55594039Y26548096D01*
X55728087Y26588754D01*
X55982420Y26708963D01*
X56208414Y26876481D01*
X56397385Y27084869D01*
X56542070Y27326119D01*
X56636909Y27590960D01*
X58933091Y27590960D01*
X59027930Y27326119D01*
X59172615Y27084869D01*
X59361586Y26876481D01*
X59587580Y26708963D01*
X59841913Y26588754D01*
X59975961Y26548096D01*
X60198000Y26670085D01*
X60198000Y27813000D01*
X59054376Y27813000D01*
X58933091Y27590960D01*
X56636909Y27590960D01*
X56515624Y27813000D01*
X55372000Y27813000D01*
X55118000Y27813000D01*
X53974376Y27813000D01*
X53853091Y27590960D01*
X46711100Y27590960D01*
X46711100Y28289040D01*
X53853091Y28289040D01*
X53974376Y28067000D01*
X55118000Y28067000D01*
X55118000Y29209915D01*
X55372000Y29209915D01*
X55372000Y28067000D01*
X56515624Y28067000D01*
X56636909Y28289040D01*
X58933091Y28289040D01*
X59054376Y28067000D01*
X60198000Y28067000D01*
X60198000Y29209915D01*
X60452000Y29209915D01*
X60452000Y28067000D01*
X61595624Y28067000D01*
X61716909Y28289040D01*
X61622070Y28553881D01*
X61477385Y28795131D01*
X61288414Y29003519D01*
X61062420Y29171037D01*
X60808087Y29291246D01*
X60674039Y29331904D01*
X60452000Y29209915D01*
X60198000Y29209915D01*
X59975961Y29331904D01*
X59841913Y29291246D01*
X59587580Y29171037D01*
X59361586Y29003519D01*
X59172615Y28795131D01*
X59027930Y28553881D01*
X58933091Y28289040D01*
X56636909Y28289040D01*
X56542070Y28553881D01*
X56397385Y28795131D01*
X56208414Y29003519D01*
X55982420Y29171037D01*
X55728087Y29291246D01*
X55594039Y29331904D01*
X55372000Y29209915D01*
X55118000Y29209915D01*
X54895961Y29331904D01*
X54761913Y29291246D01*
X54507580Y29171037D01*
X54281586Y29003519D01*
X54092615Y28795131D01*
X53947930Y28553881D01*
X53853091Y28289040D01*
X46711100Y28289040D01*
X46711100Y29020233D01*
X48186426Y30495559D01*
X48218291Y30521709D01*
X48322636Y30648854D01*
X48400172Y30793913D01*
X48447918Y30951311D01*
X48451415Y30986819D01*
X48464040Y31114999D01*
X48460000Y31156018D01*
X48460000Y32681481D01*
X48464040Y32722500D01*
X48460000Y32763519D01*
X48460000Y33162070D01*
X48539759Y33215363D01*
X48739637Y33415241D01*
X48896680Y33650273D01*
X49004853Y33911426D01*
X49060000Y34188665D01*
X49060000Y34471335D01*
X49004853Y34748574D01*
X48896680Y35009727D01*
X48739637Y35244759D01*
X48539759Y35444637D01*
X48339131Y35578692D01*
X48366514Y35593329D01*
X48438097Y35837298D01*
X47625000Y36650395D01*
X46811903Y35837298D01*
X46883486Y35593329D01*
X46912341Y35579676D01*
X46710241Y35444637D01*
X46510363Y35244759D01*
X46485300Y35207249D01*
X46485300Y36060034D01*
X46632298Y36016903D01*
X47445395Y36830000D01*
X47804605Y36830000D01*
X48617702Y36016903D01*
X48861671Y36088486D01*
X48982571Y36343996D01*
X49051300Y36618184D01*
X49065217Y36900512D01*
X49023787Y37180130D01*
X48928603Y37446292D01*
X48861671Y37571514D01*
X48617702Y37643097D01*
X47804605Y36830000D01*
X47445395Y36830000D01*
X46632298Y37643097D01*
X46485300Y37599966D01*
X46485300Y37822702D01*
X46811903Y37822702D01*
X47625000Y37009605D01*
X48438097Y37822702D01*
X48366514Y38066671D01*
X48111004Y38187571D01*
X47836816Y38256300D01*
X47554488Y38270217D01*
X47274870Y38228787D01*
X47008708Y38133603D01*
X46883486Y38066671D01*
X46811903Y37822702D01*
X46485300Y37822702D01*
X46485300Y39878000D01*
X51270000Y39878000D01*
X51270000Y39478000D01*
X51322350Y39200486D01*
X51427834Y38938517D01*
X51582399Y38702161D01*
X51780105Y38500500D01*
X52013354Y38341285D01*
X52273182Y38230633D01*
X52355961Y38213096D01*
X52578000Y38335085D01*
X52578000Y39878000D01*
X51270000Y39878000D01*
X46485300Y39878000D01*
X46485300Y40532000D01*
X51270000Y40532000D01*
X51270000Y40132000D01*
X52578000Y40132000D01*
X52578000Y41674915D01*
X52355961Y41796904D01*
X52273182Y41779367D01*
X52013354Y41668715D01*
X51780105Y41509500D01*
X51582399Y41307839D01*
X51427834Y41071483D01*
X51322350Y40809514D01*
X51270000Y40532000D01*
X46485300Y40532000D01*
X46485300Y45418382D01*
X46489340Y45459400D01*
X46484468Y45508868D01*
X46473218Y45623089D01*
X46425472Y45780487D01*
X46347936Y45925546D01*
X46295551Y45989377D01*
X46269739Y46020830D01*
X46269737Y46020832D01*
X46243591Y46052691D01*
X46211732Y46078837D01*
X45458934Y46831633D01*
X45469607Y46840392D01*
X45648932Y47058899D01*
X45782182Y47308192D01*
X45864236Y47578691D01*
X45885000Y47789508D01*
X45885000Y48514133D01*
X48186427Y50815559D01*
X48218291Y50841709D01*
X48322636Y50968854D01*
X48400172Y51113913D01*
X48447918Y51271311D01*
X48451425Y51306920D01*
X48464040Y51434999D01*
X48460000Y51476018D01*
X48460000Y51943000D01*
X51270000Y51943000D01*
X51270000Y51543000D01*
X51322350Y51265486D01*
X51427834Y51003517D01*
X51582399Y50767161D01*
X51780105Y50565500D01*
X52013354Y50406285D01*
X52273182Y50295633D01*
X52355961Y50278096D01*
X52578000Y50400085D01*
X52578000Y51943000D01*
X51270000Y51943000D01*
X48460000Y51943000D01*
X48460000Y52597000D01*
X51270000Y52597000D01*
X51270000Y52197000D01*
X52578000Y52197000D01*
X52578000Y53739915D01*
X52355961Y53861904D01*
X52273182Y53844367D01*
X52013354Y53733715D01*
X51780105Y53574500D01*
X51582399Y53372839D01*
X51427834Y53136483D01*
X51322350Y52874514D01*
X51270000Y52597000D01*
X48460000Y52597000D01*
X48460000Y53482070D01*
X48539759Y53535363D01*
X48739637Y53735241D01*
X48896680Y53970273D01*
X49004853Y54231426D01*
X49060000Y54508665D01*
X49060000Y54791335D01*
X49004853Y55068574D01*
X48896680Y55329727D01*
X48739637Y55564759D01*
X48539759Y55764637D01*
X48339131Y55898692D01*
X48366514Y55913329D01*
X48438097Y56157298D01*
X47625000Y56970395D01*
X47610858Y56956252D01*
X47431253Y57135857D01*
X47445395Y57150000D01*
X47804605Y57150000D01*
X48617702Y56336903D01*
X48861671Y56408486D01*
X48982571Y56663996D01*
X49043105Y56905492D01*
X51324000Y56905492D01*
X51324000Y55964509D01*
X51344764Y55753692D01*
X51426818Y55483193D01*
X51560068Y55233900D01*
X51739392Y55015393D01*
X51957899Y54836068D01*
X52207192Y54702818D01*
X52477691Y54620764D01*
X52759000Y54593057D01*
X53040308Y54620764D01*
X53310807Y54702818D01*
X53560100Y54836068D01*
X53778607Y55015392D01*
X53957932Y55233899D01*
X54026265Y55361741D01*
X54176399Y55132161D01*
X54374105Y54930500D01*
X54607354Y54771285D01*
X54867182Y54660633D01*
X54949961Y54643096D01*
X55172000Y54765085D01*
X55172000Y56308000D01*
X55152000Y56308000D01*
X55152000Y56562000D01*
X55172000Y56562000D01*
X55172000Y58104915D01*
X54949961Y58226904D01*
X54867182Y58209367D01*
X54607354Y58098715D01*
X54374105Y57939500D01*
X54176399Y57737839D01*
X54026265Y57508259D01*
X53957932Y57636101D01*
X53778608Y57854608D01*
X53560101Y58033932D01*
X53310808Y58167182D01*
X53040309Y58249236D01*
X52759000Y58276943D01*
X52477692Y58249236D01*
X52207193Y58167182D01*
X51957900Y58033932D01*
X51739393Y57854608D01*
X51560068Y57636101D01*
X51426818Y57386808D01*
X51344764Y57116309D01*
X51324000Y56905492D01*
X49043105Y56905492D01*
X49051300Y56938184D01*
X49065217Y57220512D01*
X49023787Y57500130D01*
X48928603Y57766292D01*
X48861671Y57891514D01*
X48617702Y57963097D01*
X47804605Y57150000D01*
X47445395Y57150000D01*
X46632298Y57963097D01*
X46485400Y57919996D01*
X46485400Y58142702D01*
X46811903Y58142702D01*
X47625000Y57329605D01*
X48438097Y58142702D01*
X48366514Y58386671D01*
X48111004Y58507571D01*
X47836816Y58576300D01*
X47554488Y58590217D01*
X47274870Y58548787D01*
X47008708Y58453603D01*
X46883486Y58386671D01*
X46811903Y58142702D01*
X46485400Y58142702D01*
X46485400Y63928000D01*
X51324000Y63928000D01*
X51324000Y63528000D01*
X51376350Y63250486D01*
X51481834Y62988517D01*
X51636399Y62752161D01*
X51834105Y62550500D01*
X52067354Y62391285D01*
X52327182Y62280633D01*
X52409961Y62263096D01*
X52632000Y62385085D01*
X52632000Y63928000D01*
X51324000Y63928000D01*
X46485400Y63928000D01*
X46485400Y64582000D01*
X51324000Y64582000D01*
X51324000Y64182000D01*
X52632000Y64182000D01*
X52632000Y65724915D01*
X52409961Y65846904D01*
X52327182Y65829367D01*
X52067354Y65718715D01*
X51834105Y65559500D01*
X51636399Y65357839D01*
X51481834Y65121483D01*
X51376350Y64859514D01*
X51324000Y64582000D01*
X46485400Y64582000D01*
X46485400Y68249793D01*
X46489439Y68290801D01*
X46485400Y68331809D01*
X46485400Y68331819D01*
X46473318Y68454489D01*
X46425572Y68611887D01*
X46348036Y68756946D01*
X46243691Y68884091D01*
X46211827Y68910241D01*
X46086467Y69035600D01*
X46101359Y69050492D01*
X51270000Y69050492D01*
X51270000Y68109509D01*
X51290764Y67898692D01*
X51372818Y67628193D01*
X51506068Y67378900D01*
X51685392Y67160393D01*
X51903899Y66981068D01*
X52153192Y66847818D01*
X52423691Y66765764D01*
X52705000Y66738057D01*
X52986308Y66765764D01*
X53256807Y66847818D01*
X53506100Y66981068D01*
X53724607Y67160392D01*
X53903932Y67378899D01*
X53975000Y67511858D01*
X54046068Y67378900D01*
X54225392Y67160393D01*
X54443899Y66981068D01*
X54510000Y66945736D01*
X54510000Y65660400D01*
X54497900Y65653932D01*
X54279393Y65474608D01*
X54100068Y65256101D01*
X54031735Y65128259D01*
X53881601Y65357839D01*
X53683895Y65559500D01*
X53450646Y65718715D01*
X53190818Y65829367D01*
X53108039Y65846904D01*
X52886000Y65724915D01*
X52886000Y64182000D01*
X52906000Y64182000D01*
X52906000Y63928000D01*
X52886000Y63928000D01*
X52886000Y62385085D01*
X53108039Y62263096D01*
X53190818Y62280633D01*
X53450646Y62391285D01*
X53683895Y62550500D01*
X53881601Y62752161D01*
X54031735Y62981742D01*
X54100068Y62853900D01*
X54279392Y62635393D01*
X54497899Y62456068D01*
X54747192Y62322818D01*
X55017691Y62240764D01*
X55299000Y62213057D01*
X55580308Y62240764D01*
X55850807Y62322818D01*
X55941800Y62371455D01*
X55941800Y58119517D01*
X55730818Y58209367D01*
X55648039Y58226904D01*
X55426000Y58104915D01*
X55426000Y56562000D01*
X55446000Y56562000D01*
X55446000Y56308000D01*
X55426000Y56308000D01*
X55426000Y54765085D01*
X55648039Y54643096D01*
X55730818Y54660633D01*
X55941800Y54750483D01*
X55941800Y54714605D01*
X55938244Y54678500D01*
X55946659Y54593057D01*
X55952435Y54534416D01*
X55994463Y54395868D01*
X56062713Y54268181D01*
X56154562Y54156263D01*
X56182608Y54133246D01*
X56798816Y53517037D01*
X56765393Y53489608D01*
X56586068Y53271101D01*
X56515000Y53138142D01*
X56443932Y53271101D01*
X56264608Y53489608D01*
X56046101Y53668932D01*
X55796808Y53802182D01*
X55526309Y53884236D01*
X55245000Y53911943D01*
X54963692Y53884236D01*
X54693193Y53802182D01*
X54443900Y53668932D01*
X54225393Y53489608D01*
X54046068Y53271101D01*
X53977735Y53143259D01*
X53827601Y53372839D01*
X53629895Y53574500D01*
X53396646Y53733715D01*
X53136818Y53844367D01*
X53054039Y53861904D01*
X52832000Y53739915D01*
X52832000Y52197000D01*
X52852000Y52197000D01*
X52852000Y51943000D01*
X52832000Y51943000D01*
X52832000Y50400085D01*
X53054039Y50278096D01*
X53136818Y50295633D01*
X53396646Y50406285D01*
X53629895Y50565500D01*
X53827601Y50767161D01*
X53977735Y50996742D01*
X54046068Y50868900D01*
X54225392Y50650393D01*
X54443899Y50471068D01*
X54693192Y50337818D01*
X54963691Y50255764D01*
X55245000Y50228057D01*
X55526308Y50255764D01*
X55796807Y50337818D01*
X56046100Y50471068D01*
X56264607Y50650392D01*
X56443932Y50868899D01*
X56515000Y51001858D01*
X56586068Y50868900D01*
X56765392Y50650393D01*
X56983899Y50471068D01*
X57050001Y50435736D01*
X57050000Y46084263D01*
X56983900Y46048932D01*
X56765393Y45869608D01*
X56586068Y45651101D01*
X56515000Y45518142D01*
X56443932Y45651101D01*
X56264608Y45869608D01*
X56046101Y46048932D01*
X55796808Y46182182D01*
X55526309Y46264236D01*
X55245000Y46291943D01*
X54963692Y46264236D01*
X54693193Y46182182D01*
X54443900Y46048932D01*
X54225393Y45869608D01*
X54046068Y45651101D01*
X53975000Y45518142D01*
X53903932Y45651101D01*
X53724608Y45869608D01*
X53506101Y46048932D01*
X53256808Y46182182D01*
X52986309Y46264236D01*
X52705000Y46291943D01*
X52423692Y46264236D01*
X52153193Y46182182D01*
X51903900Y46048932D01*
X51685393Y45869608D01*
X51506068Y45651101D01*
X51372818Y45401808D01*
X51290764Y45131309D01*
X51270000Y44920492D01*
X51270000Y43979509D01*
X51290764Y43768692D01*
X51372818Y43498193D01*
X51506068Y43248900D01*
X51685392Y43030393D01*
X51903899Y42851068D01*
X52153192Y42717818D01*
X52423691Y42635764D01*
X52705000Y42608057D01*
X52986308Y42635764D01*
X53256807Y42717818D01*
X53506100Y42851068D01*
X53724607Y43030392D01*
X53903932Y43248899D01*
X53975000Y43381858D01*
X54046068Y43248900D01*
X54225392Y43030393D01*
X54443899Y42851068D01*
X54520174Y42810298D01*
X54520635Y42805615D01*
X54562664Y42667067D01*
X54630914Y42539380D01*
X54722763Y42427462D01*
X54750808Y42404446D01*
X55315227Y41840026D01*
X55245000Y41846943D01*
X54963692Y41819236D01*
X54693193Y41737182D01*
X54443900Y41603932D01*
X54225393Y41424608D01*
X54046068Y41206101D01*
X53977735Y41078259D01*
X53827601Y41307839D01*
X53629895Y41509500D01*
X53396646Y41668715D01*
X53136818Y41779367D01*
X53054039Y41796904D01*
X52832000Y41674915D01*
X52832000Y40132000D01*
X52852000Y40132000D01*
X52852000Y39878000D01*
X52832000Y39878000D01*
X52832000Y38335085D01*
X53054039Y38213096D01*
X53136818Y38230633D01*
X53396646Y38341285D01*
X53629895Y38500500D01*
X53827601Y38702161D01*
X53977735Y38931742D01*
X54046068Y38803900D01*
X54225392Y38585393D01*
X54443899Y38406068D01*
X54693192Y38272818D01*
X54963691Y38190764D01*
X55245000Y38163057D01*
X55526308Y38190764D01*
X55796807Y38272818D01*
X56046100Y38406068D01*
X56200925Y38533129D01*
X58320000Y36414053D01*
X58320001Y34122280D01*
X58066309Y34199236D01*
X57785000Y34226943D01*
X57503692Y34199236D01*
X57233193Y34117182D01*
X56983900Y33983932D01*
X56765393Y33804608D01*
X56586068Y33586101D01*
X56515000Y33453142D01*
X56443932Y33586101D01*
X56264608Y33804608D01*
X56046101Y33983932D01*
X55796808Y34117182D01*
X55526309Y34199236D01*
X55245000Y34226943D01*
X54963692Y34199236D01*
X54693193Y34117182D01*
X54443900Y33983932D01*
X54225393Y33804608D01*
X54046068Y33586101D01*
X53975000Y33453142D01*
X53903932Y33586101D01*
X53724608Y33804608D01*
X53506101Y33983932D01*
X53256808Y34117182D01*
X52986309Y34199236D01*
X52705000Y34226943D01*
X52423692Y34199236D01*
X52153193Y34117182D01*
X51903900Y33983932D01*
X51685393Y33804608D01*
X51506068Y33586101D01*
X51372818Y33336808D01*
X51290764Y33066309D01*
X51270000Y32855492D01*
X51270000Y31914509D01*
X51290764Y31703692D01*
X51372818Y31433193D01*
X51506068Y31183900D01*
X51685392Y30965393D01*
X51903899Y30786068D01*
X52153192Y30652818D01*
X52423691Y30570764D01*
X52705000Y30543057D01*
X52986308Y30570764D01*
X53256807Y30652818D01*
X53506100Y30786068D01*
X53724607Y30965392D01*
X53903932Y31183899D01*
X53975000Y31316858D01*
X54046068Y31183900D01*
X54225392Y30965393D01*
X54443899Y30786068D01*
X54693192Y30652818D01*
X54963691Y30570764D01*
X55245000Y30543057D01*
X55526308Y30570764D01*
X55796807Y30652818D01*
X56046100Y30786068D01*
X56264607Y30965392D01*
X56443932Y31183899D01*
X56515000Y31316858D01*
X56586068Y31183900D01*
X56765392Y30965393D01*
X56983899Y30786068D01*
X57233192Y30652818D01*
X57503691Y30570764D01*
X57785000Y30543057D01*
X58066308Y30570764D01*
X58336807Y30652818D01*
X58586100Y30786068D01*
X58769980Y30936974D01*
X59316446Y30390507D01*
X59339462Y30362462D01*
X59451380Y30270613D01*
X59579067Y30202363D01*
X59675586Y30173084D01*
X59717614Y30160335D01*
X59861699Y30146144D01*
X59897804Y30149700D01*
X62828895Y30149700D01*
X62865000Y30146144D01*
X62901105Y30149700D01*
X63009085Y30160335D01*
X63147633Y30202363D01*
X63275320Y30270613D01*
X63387238Y30362462D01*
X63479087Y30474380D01*
X63547337Y30602067D01*
X63589365Y30740615D01*
X63589826Y30745299D01*
X63666100Y30786068D01*
X63884607Y30965392D01*
X64063932Y31183899D01*
X64135000Y31316858D01*
X64206068Y31183900D01*
X64385392Y30965393D01*
X64603899Y30786068D01*
X64716132Y30726078D01*
X61668902Y27678848D01*
X61595624Y27813000D01*
X60452000Y27813000D01*
X60452000Y26670085D01*
X60586335Y26596281D01*
X55682194Y21692140D01*
X55663574Y21699853D01*
X55386335Y21755000D01*
X55103665Y21755000D01*
X54826426Y21699853D01*
X54565273Y21591680D01*
X54330241Y21434637D01*
X54130363Y21234759D01*
X53973320Y20999727D01*
X53865147Y20738574D01*
X53810000Y20461335D01*
X53810000Y20178665D01*
X53865147Y19901426D01*
X53973320Y19640273D01*
X54130363Y19405241D01*
X54330241Y19205363D01*
X54565273Y19048320D01*
X54826426Y18940147D01*
X55103665Y18885000D01*
X55386335Y18885000D01*
X55663574Y18940147D01*
X55682194Y18947860D01*
X56245400Y18384653D01*
X56245400Y16630430D01*
X56021335Y16675000D01*
X55738665Y16675000D01*
X55461426Y16619853D01*
X55200273Y16511680D01*
X54965241Y16354637D01*
X54765363Y16154759D01*
X54608320Y15919727D01*
X54500147Y15658574D01*
X54445000Y15381335D01*
X54445000Y15098665D01*
X54500147Y14821426D01*
X54608320Y14560273D01*
X54765363Y14325241D01*
X54965241Y14125363D01*
X55200273Y13968320D01*
X55461426Y13860147D01*
X55738665Y13805000D01*
X56021335Y13805000D01*
X56245401Y13849570D01*
X56245401Y10196015D01*
X56241844Y10159900D01*
X56256035Y10015815D01*
X56276375Y9948766D01*
X56298064Y9877267D01*
X56366314Y9749580D01*
X56458163Y9637662D01*
X56486208Y9614646D01*
X57435729Y8665125D01*
X57305363Y8534759D01*
X57150000Y8302241D01*
X56994637Y8534759D01*
X56794759Y8734637D01*
X56559727Y8891680D01*
X56298574Y8999853D01*
X56021335Y9055000D01*
X55738665Y9055000D01*
X55461426Y8999853D01*
X55200273Y8891680D01*
X54965241Y8734637D01*
X54765363Y8534759D01*
X54608320Y8299727D01*
X54500147Y8038574D01*
X54445000Y7761335D01*
X54445000Y7478665D01*
X54500147Y7201426D01*
X54608320Y6940273D01*
X54765363Y6705241D01*
X54965241Y6505363D01*
X55200273Y6348320D01*
X55461426Y6240147D01*
X55738665Y6185000D01*
X56021335Y6185000D01*
X56298574Y6240147D01*
X56559727Y6348320D01*
X56794759Y6505363D01*
X56994637Y6705241D01*
X57150000Y6937759D01*
X57305363Y6705241D01*
X57505241Y6505363D01*
X57740273Y6348320D01*
X58001426Y6240147D01*
X58278665Y6185000D01*
X58561335Y6185000D01*
X58838574Y6240147D01*
X59099727Y6348320D01*
X59334759Y6505363D01*
X59534637Y6705241D01*
X59690000Y6937759D01*
X59845363Y6705241D01*
X60045241Y6505363D01*
X60280273Y6348320D01*
X60541426Y6240147D01*
X60818665Y6185000D01*
X61101335Y6185000D01*
X61378574Y6240147D01*
X61639727Y6348320D01*
X61874759Y6505363D01*
X62074637Y6705241D01*
X62230000Y6937759D01*
X62385363Y6705241D01*
X62585241Y6505363D01*
X62820273Y6348320D01*
X63081426Y6240147D01*
X63358665Y6185000D01*
X63641335Y6185000D01*
X63918574Y6240147D01*
X64179727Y6348320D01*
X64414759Y6505363D01*
X64614637Y6705241D01*
X64771680Y6940273D01*
X64879853Y7201426D01*
X64935000Y7478665D01*
X64935000Y7761335D01*
X64879853Y8038574D01*
X64771680Y8299727D01*
X64614637Y8534759D01*
X64414759Y8734637D01*
X64179727Y8891680D01*
X63918574Y8999853D01*
X63641335Y9055000D01*
X63358665Y9055000D01*
X63081426Y8999853D01*
X62820273Y8891680D01*
X62585241Y8734637D01*
X62385363Y8534759D01*
X62230000Y8302241D01*
X62074637Y8534759D01*
X61874759Y8734637D01*
X61684632Y8861676D01*
X61684365Y8864385D01*
X61642337Y9002933D01*
X61574087Y9130620D01*
X61482238Y9242538D01*
X61454193Y9265554D01*
X60589000Y10130746D01*
X60589000Y13850684D01*
X60818665Y13805000D01*
X61101335Y13805000D01*
X61378574Y13860147D01*
X61639727Y13968320D01*
X61874759Y14125363D01*
X62073357Y14323961D01*
X62074188Y14315518D01*
X62110498Y14195820D01*
X62169463Y14085506D01*
X62248815Y13988815D01*
X62345506Y13909463D01*
X62455820Y13850498D01*
X62575518Y13814188D01*
X62700000Y13801928D01*
X64300000Y13801928D01*
X64424482Y13814188D01*
X64544180Y13850498D01*
X64654494Y13909463D01*
X64751185Y13988815D01*
X64830537Y14085506D01*
X64889502Y14195820D01*
X64925812Y14315518D01*
X64938072Y14440000D01*
X64938072Y16040000D01*
X64925812Y16164482D01*
X64889502Y16284180D01*
X64830537Y16394494D01*
X64751185Y16491185D01*
X64654494Y16570537D01*
X64544180Y16629502D01*
X64424482Y16665812D01*
X64300000Y16678072D01*
X62700000Y16678072D01*
X62575518Y16665812D01*
X62455820Y16629502D01*
X62345506Y16570537D01*
X62248815Y16491185D01*
X62169463Y16394494D01*
X62110498Y16284180D01*
X62074188Y16164482D01*
X62073357Y16156039D01*
X61874759Y16354637D01*
X61639727Y16511680D01*
X61378574Y16619853D01*
X61101335Y16675000D01*
X60818665Y16675000D01*
X60589000Y16629316D01*
X60589000Y18909400D01*
X60743574Y18940147D01*
X61004727Y19048320D01*
X61239759Y19205363D01*
X61439637Y19405241D01*
X61596680Y19640273D01*
X61704853Y19901426D01*
X61760000Y20178665D01*
X61760000Y20461335D01*
X63970000Y20461335D01*
X63970000Y20178665D01*
X64025147Y19901426D01*
X64133320Y19640273D01*
X64290363Y19405241D01*
X64490241Y19205363D01*
X64725273Y19048320D01*
X64986426Y18940147D01*
X65263665Y18885000D01*
X65546335Y18885000D01*
X65823574Y18940147D01*
X66084727Y19048320D01*
X66319759Y19205363D01*
X66519637Y19405241D01*
X66676680Y19640273D01*
X66784853Y19901426D01*
X66840000Y20178665D01*
X66840000Y20461335D01*
X66784853Y20738574D01*
X66676680Y20999727D01*
X66519637Y21234759D01*
X66319759Y21434637D01*
X66084727Y21591680D01*
X65823574Y21699853D01*
X65546335Y21755000D01*
X65263665Y21755000D01*
X64986426Y21699853D01*
X64725273Y21591680D01*
X64490241Y21434637D01*
X64290363Y21234759D01*
X64133320Y20999727D01*
X64025147Y20738574D01*
X63970000Y20461335D01*
X61760000Y20461335D01*
X61717822Y20673376D01*
X69878893Y28834446D01*
X69906938Y28857462D01*
X69998787Y28969380D01*
X70018353Y29005985D01*
X70067037Y29097066D01*
X70109065Y29235615D01*
X70123256Y29379700D01*
X70119700Y29415805D01*
X70119700Y30596242D01*
X70203691Y30570764D01*
X70485000Y30543057D01*
X70766308Y30570764D01*
X71036807Y30652818D01*
X71286100Y30786068D01*
X71504607Y30965392D01*
X71683932Y31183899D01*
X71817182Y31433192D01*
X71899236Y31703691D01*
X71920000Y31914508D01*
X71920000Y32044132D01*
X72633933Y32758064D01*
X72665791Y32784209D01*
X72691946Y32816079D01*
X73424582Y33548715D01*
X73518665Y33530000D01*
X73801335Y33530000D01*
X74078574Y33585147D01*
X74339727Y33693320D01*
X74574759Y33850363D01*
X74774637Y34050241D01*
X74931680Y34285273D01*
X75039853Y34546426D01*
X75095000Y34823665D01*
X75095000Y35106335D01*
X75039853Y35383574D01*
X74931680Y35644727D01*
X74774637Y35879759D01*
X74574759Y36079637D01*
X74374131Y36213692D01*
X74401514Y36228329D01*
X74473097Y36472298D01*
X73660000Y37285395D01*
X73645858Y37271252D01*
X73466253Y37450857D01*
X73480395Y37465000D01*
X73839605Y37465000D01*
X74652702Y36651903D01*
X74896671Y36723486D01*
X75017571Y36978996D01*
X75086300Y37253184D01*
X75100217Y37535512D01*
X75058787Y37815130D01*
X74963603Y38081292D01*
X74896671Y38206514D01*
X74652702Y38278097D01*
X73839605Y37465000D01*
X73480395Y37465000D01*
X73466253Y37479142D01*
X73645858Y37658747D01*
X73660000Y37644605D01*
X74473097Y38457702D01*
X74401514Y38701671D01*
X74146004Y38822571D01*
X73871816Y38891300D01*
X73589488Y38905217D01*
X73309870Y38863787D01*
X73043708Y38768603D01*
X72918486Y38701671D01*
X72907500Y38664229D01*
X72907500Y41023282D01*
X72911540Y41064300D01*
X72895418Y41227989D01*
X72847672Y41385387D01*
X72770136Y41530446D01*
X72691939Y41625730D01*
X72691937Y41625732D01*
X72665791Y41657591D01*
X72633932Y41683737D01*
X69814267Y44503400D01*
X70884582Y45573714D01*
X70978665Y45555000D01*
X71261335Y45555000D01*
X71538574Y45610147D01*
X71799727Y45718320D01*
X72034759Y45875363D01*
X72234637Y46075241D01*
X72391680Y46310273D01*
X72499853Y46571426D01*
X72555000Y46848665D01*
X72555000Y47131335D01*
X72499853Y47408574D01*
X72391680Y47669727D01*
X72234637Y47904759D01*
X72034759Y48104637D01*
X71834131Y48238692D01*
X71861514Y48253329D01*
X71933097Y48497298D01*
X71120000Y49310395D01*
X70306903Y48497298D01*
X70378486Y48253329D01*
X70407341Y48239676D01*
X70205241Y48104637D01*
X70005363Y47904759D01*
X69848320Y47669727D01*
X69740147Y47408574D01*
X69685000Y47131335D01*
X69685000Y46848665D01*
X69703714Y46754582D01*
X68884491Y45935358D01*
X68746101Y46048932D01*
X68496808Y46182182D01*
X68226309Y46264236D01*
X67945000Y46291943D01*
X67663692Y46264236D01*
X67393193Y46182182D01*
X67143900Y46048932D01*
X66925393Y45869608D01*
X66746068Y45651101D01*
X66675000Y45518142D01*
X66603932Y45651101D01*
X66424608Y45869608D01*
X66206101Y46048932D01*
X66140000Y46084264D01*
X66140000Y49419488D01*
X69679783Y49419488D01*
X69721213Y49139870D01*
X69816397Y48873708D01*
X69883329Y48748486D01*
X70127298Y48676903D01*
X70940395Y49490000D01*
X71299605Y49490000D01*
X72112702Y48676903D01*
X72356671Y48748486D01*
X72477571Y49003996D01*
X72546300Y49278184D01*
X72560217Y49560512D01*
X72518787Y49840130D01*
X72423603Y50106292D01*
X72356671Y50231514D01*
X72112702Y50303097D01*
X71299605Y49490000D01*
X70940395Y49490000D01*
X70127298Y50303097D01*
X69883329Y50231514D01*
X69762429Y49976004D01*
X69693700Y49701816D01*
X69679783Y49419488D01*
X66140000Y49419488D01*
X66140000Y50435737D01*
X66206100Y50471068D01*
X66424607Y50650392D01*
X66517419Y50763483D01*
X66519188Y50745518D01*
X66555498Y50625820D01*
X66614463Y50515506D01*
X66693815Y50418815D01*
X66790506Y50339463D01*
X66900820Y50280498D01*
X67020518Y50244188D01*
X67145000Y50231928D01*
X68745000Y50231928D01*
X68869482Y50244188D01*
X68989180Y50280498D01*
X69099494Y50339463D01*
X69196185Y50418815D01*
X69248615Y50482702D01*
X70306903Y50482702D01*
X71120000Y49669605D01*
X71933097Y50482702D01*
X71861514Y50726671D01*
X71606004Y50847571D01*
X71331816Y50916300D01*
X71049488Y50930217D01*
X70769870Y50888787D01*
X70503708Y50793603D01*
X70378486Y50726671D01*
X70306903Y50482702D01*
X69248615Y50482702D01*
X69275537Y50515506D01*
X69334502Y50625820D01*
X69370812Y50745518D01*
X69383072Y50870000D01*
X69383072Y53270000D01*
X69370812Y53394482D01*
X69334502Y53514180D01*
X69275537Y53624494D01*
X69196185Y53721185D01*
X69099494Y53800537D01*
X68989180Y53859502D01*
X68869482Y53895812D01*
X68745000Y53908072D01*
X67145000Y53908072D01*
X67020518Y53895812D01*
X66900820Y53859502D01*
X66790506Y53800537D01*
X66693815Y53721185D01*
X66614463Y53624494D01*
X66555498Y53514180D01*
X66519188Y53394482D01*
X66517419Y53376518D01*
X66424608Y53489608D01*
X66206101Y53668932D01*
X66129826Y53709702D01*
X66129365Y53714385D01*
X66087337Y53852933D01*
X66019087Y53980620D01*
X65927238Y54092538D01*
X65815320Y54184387D01*
X65786671Y54199700D01*
X65964295Y54199700D01*
X66000400Y54196144D01*
X66036505Y54199700D01*
X66144485Y54210335D01*
X66283033Y54252363D01*
X66410720Y54320613D01*
X66522638Y54412462D01*
X66545658Y54440512D01*
X67056917Y54951770D01*
X67197899Y54836068D01*
X67447192Y54702818D01*
X67717691Y54620764D01*
X67999000Y54593057D01*
X68280308Y54620764D01*
X68550807Y54702818D01*
X68800100Y54836068D01*
X69018607Y55015392D01*
X69197932Y55233899D01*
X69331182Y55483192D01*
X69413236Y55753691D01*
X69430681Y55930814D01*
X70987141Y57487272D01*
X71018990Y57513410D01*
X71045128Y57545259D01*
X71045139Y57545270D01*
X71045148Y57545281D01*
X71138582Y57638715D01*
X71232665Y57620000D01*
X71515335Y57620000D01*
X71792574Y57675147D01*
X72053727Y57783320D01*
X72288759Y57940363D01*
X72488637Y58140241D01*
X72645680Y58375273D01*
X72753853Y58636426D01*
X72809000Y58913665D01*
X72809000Y59196335D01*
X72753853Y59473574D01*
X72645680Y59734727D01*
X72488637Y59969759D01*
X72288759Y60169637D01*
X72088131Y60303692D01*
X72115514Y60318329D01*
X72187097Y60562298D01*
X71374000Y61375395D01*
X71359858Y61361252D01*
X71180253Y61540857D01*
X71194395Y61555000D01*
X71553605Y61555000D01*
X72366702Y60741903D01*
X72610671Y60813486D01*
X72731571Y61068996D01*
X72800300Y61343184D01*
X72814217Y61625512D01*
X72772787Y61905130D01*
X72677603Y62171292D01*
X72610671Y62296514D01*
X72366702Y62368097D01*
X71553605Y61555000D01*
X71194395Y61555000D01*
X71180253Y61569142D01*
X71359858Y61748747D01*
X71374000Y61734605D01*
X72187097Y62547702D01*
X72115514Y62791671D01*
X71860004Y62912571D01*
X71585816Y62981300D01*
X71303488Y62995217D01*
X71023870Y62953787D01*
X70757708Y62858603D01*
X70747600Y62853200D01*
X70747600Y67206382D01*
X70751640Y67247400D01*
X70745105Y67313756D01*
X70735518Y67411089D01*
X70687772Y67568487D01*
X70610236Y67713546D01*
X70505891Y67840691D01*
X70474026Y67866842D01*
X69760867Y68580000D01*
X70884582Y69703714D01*
X70978665Y69685000D01*
X71261335Y69685000D01*
X71538574Y69740147D01*
X71799727Y69848320D01*
X72034759Y70005363D01*
X72234637Y70205241D01*
X72391680Y70440273D01*
X72499853Y70701426D01*
X72555000Y70978665D01*
X72555000Y71261335D01*
X72499853Y71538574D01*
X72391680Y71799727D01*
X72234637Y72034759D01*
X72034759Y72234637D01*
X71834131Y72368692D01*
X71861514Y72383329D01*
X71933097Y72627298D01*
X71120000Y73440395D01*
X70306903Y72627298D01*
X70378486Y72383329D01*
X70407341Y72369676D01*
X70205241Y72234637D01*
X70005363Y72034759D01*
X69848320Y71799727D01*
X69740147Y71538574D01*
X69685000Y71261335D01*
X69685000Y70978665D01*
X69703714Y70884582D01*
X68884491Y70065358D01*
X68746101Y70178932D01*
X68496808Y70312182D01*
X68226309Y70394236D01*
X67945000Y70421943D01*
X67663692Y70394236D01*
X67393193Y70312182D01*
X67301100Y70262957D01*
X67301100Y73502506D01*
X67304655Y73538601D01*
X67303583Y73549488D01*
X69679783Y73549488D01*
X69721213Y73269870D01*
X69816397Y73003708D01*
X69883329Y72878486D01*
X70127298Y72806903D01*
X70940395Y73620000D01*
X71299605Y73620000D01*
X72112702Y72806903D01*
X72356671Y72878486D01*
X72477571Y73133996D01*
X72546300Y73408184D01*
X72560217Y73690512D01*
X72518787Y73970130D01*
X72423603Y74236292D01*
X72356671Y74361514D01*
X72112702Y74433097D01*
X71299605Y73620000D01*
X70940395Y73620000D01*
X70127298Y74433097D01*
X69883329Y74361514D01*
X69762429Y74106004D01*
X69693700Y73831816D01*
X69679783Y73549488D01*
X67303583Y73549488D01*
X67301100Y73574696D01*
X67301100Y73574705D01*
X67290465Y73682685D01*
X67248437Y73821233D01*
X67180187Y73948920D01*
X67088338Y74060838D01*
X67060293Y74083854D01*
X66391184Y74752962D01*
X66424607Y74780392D01*
X66517419Y74893483D01*
X66519188Y74875518D01*
X66555498Y74755820D01*
X66614463Y74645506D01*
X66693815Y74548815D01*
X66790506Y74469463D01*
X66900820Y74410498D01*
X67020518Y74374188D01*
X67145000Y74361928D01*
X68745000Y74361928D01*
X68869482Y74374188D01*
X68989180Y74410498D01*
X69099494Y74469463D01*
X69196185Y74548815D01*
X69248615Y74612702D01*
X70306903Y74612702D01*
X71120000Y73799605D01*
X71933097Y74612702D01*
X71861514Y74856671D01*
X71606004Y74977571D01*
X71331816Y75046300D01*
X71049488Y75060217D01*
X70769870Y75018787D01*
X70503708Y74923603D01*
X70378486Y74856671D01*
X70306903Y74612702D01*
X69248615Y74612702D01*
X69275537Y74645506D01*
X69334502Y74755820D01*
X69370812Y74875518D01*
X69383072Y75000000D01*
X69383072Y77400000D01*
X69370812Y77524482D01*
X69334502Y77644180D01*
X69275537Y77754494D01*
X69196185Y77851185D01*
X69099494Y77930537D01*
X68989180Y77989502D01*
X68869482Y78025812D01*
X68745000Y78038072D01*
X67145000Y78038072D01*
X67020518Y78025812D01*
X66900820Y77989502D01*
X66790506Y77930537D01*
X66693815Y77851185D01*
X66614463Y77754494D01*
X66555498Y77644180D01*
X66519188Y77524482D01*
X66517419Y77506518D01*
X66424608Y77619608D01*
X66206101Y77798932D01*
X65956808Y77932182D01*
X65686309Y78014236D01*
X65405000Y78041943D01*
X65123692Y78014236D01*
X64853193Y77932182D01*
X64603900Y77798932D01*
X64385393Y77619608D01*
X64206068Y77401101D01*
X64135000Y77268142D01*
X64063932Y77401101D01*
X63884608Y77619608D01*
X63666101Y77798932D01*
X63416808Y77932182D01*
X63146309Y78014236D01*
X62865000Y78041943D01*
X62583692Y78014236D01*
X62313193Y77932182D01*
X62063900Y77798932D01*
X61845393Y77619608D01*
X61666068Y77401101D01*
X61595000Y77268142D01*
X61523932Y77401101D01*
X61344608Y77619608D01*
X61126101Y77798932D01*
X60876808Y77932182D01*
X60606309Y78014236D01*
X60325000Y78041943D01*
X60043692Y78014236D01*
X59773193Y77932182D01*
X59620500Y77850566D01*
X59620500Y83220128D01*
X71765000Y83220128D01*
X71765000Y82779872D01*
X71850890Y82348075D01*
X72019369Y81941331D01*
X72263962Y81575271D01*
X72575271Y81263962D01*
X72941331Y81019369D01*
X73348075Y80850890D01*
X73779872Y80765000D01*
X74220128Y80765000D01*
X74651925Y80850890D01*
X75058669Y81019369D01*
X75424729Y81263962D01*
X75736038Y81575271D01*
X75980631Y81941331D01*
X76149110Y82348075D01*
X76235000Y82779872D01*
X76235000Y83220128D01*
X76149110Y83651925D01*
X75980631Y84058669D01*
X75736038Y84424729D01*
X75424729Y84736038D01*
X75058669Y84980631D01*
X74651925Y85149110D01*
X74220128Y85235000D01*
X73779872Y85235000D01*
X73348075Y85149110D01*
X72941331Y84980631D01*
X72575271Y84736038D01*
X72263962Y84424729D01*
X72019369Y84058669D01*
X71850890Y83651925D01*
X71765000Y83220128D01*
X59620500Y83220128D01*
X59620500Y83240647D01*
X59669777Y83314395D01*
X59736490Y83475455D01*
X59770500Y83646435D01*
X59770500Y83820765D01*
X59736490Y83991745D01*
X59669777Y84152805D01*
X59572924Y84297755D01*
X59449655Y84421024D01*
X59304705Y84517877D01*
X59143645Y84584590D01*
X58972665Y84618600D01*
X58798335Y84618600D01*
X58627355Y84584590D01*
X58466295Y84517877D01*
X58321345Y84421024D01*
X58198076Y84297755D01*
X58101223Y84152805D01*
X58034510Y83991745D01*
X58000500Y83820765D01*
X58000500Y83646435D01*
X58034510Y83475455D01*
X58101223Y83314395D01*
X58150501Y83240646D01*
X58150500Y77988417D01*
X58134039Y77991904D01*
X57912000Y77869915D01*
X57912000Y76327000D01*
X57932000Y76327000D01*
X57932000Y76073000D01*
X57912000Y76073000D01*
X57912000Y74530085D01*
X58134039Y74408096D01*
X58150500Y74411583D01*
X58150500Y74112947D01*
X56182608Y72145054D01*
X56154563Y72122038D01*
X56062714Y72010120D01*
X56013842Y71918687D01*
X55994464Y71882433D01*
X55952435Y71743885D01*
X55938244Y71599800D01*
X55941801Y71563685D01*
X55941801Y70234682D01*
X55796808Y70312182D01*
X55526309Y70394236D01*
X55245000Y70421943D01*
X54963692Y70394236D01*
X54693193Y70312182D01*
X54443900Y70178932D01*
X54225393Y69999608D01*
X54046068Y69781101D01*
X53975000Y69648142D01*
X53903932Y69781101D01*
X53724608Y69999608D01*
X53506101Y70178932D01*
X53256808Y70312182D01*
X52986309Y70394236D01*
X52705000Y70421943D01*
X52423692Y70394236D01*
X52153193Y70312182D01*
X51903900Y70178932D01*
X51685393Y69999608D01*
X51506068Y69781101D01*
X51372818Y69531808D01*
X51290764Y69261309D01*
X51270000Y69050492D01*
X46101359Y69050492D01*
X48186427Y71135559D01*
X48218291Y71161709D01*
X48322636Y71288854D01*
X48400172Y71433913D01*
X48447918Y71591311D01*
X48460000Y71713981D01*
X48460000Y71713991D01*
X48464039Y71754999D01*
X48460000Y71796007D01*
X48460000Y73802070D01*
X48539759Y73855363D01*
X48739637Y74055241D01*
X48896680Y74290273D01*
X49004853Y74551426D01*
X49060000Y74828665D01*
X49060000Y75111335D01*
X49004853Y75388574D01*
X48896680Y75649727D01*
X48739637Y75884759D01*
X48551396Y76073000D01*
X51270000Y76073000D01*
X51270000Y75673000D01*
X51322350Y75395486D01*
X51427834Y75133517D01*
X51582399Y74897161D01*
X51780105Y74695500D01*
X52013354Y74536285D01*
X52273182Y74425633D01*
X52355961Y74408096D01*
X52578000Y74530085D01*
X52578000Y76073000D01*
X51270000Y76073000D01*
X48551396Y76073000D01*
X48539759Y76084637D01*
X48339131Y76218692D01*
X48366514Y76233329D01*
X48438097Y76477298D01*
X47625000Y77290395D01*
X46811903Y76477298D01*
X46883486Y76233329D01*
X46912341Y76219676D01*
X46710241Y76084637D01*
X46510363Y75884759D01*
X46353320Y75649727D01*
X46245147Y75388574D01*
X46190000Y75111335D01*
X46190000Y74828665D01*
X46245147Y74551426D01*
X46353320Y74290273D01*
X46510363Y74055241D01*
X46710241Y73855363D01*
X46790000Y73802070D01*
X46790001Y72100869D01*
X45001430Y70312297D01*
X44731309Y70394236D01*
X44450000Y70421943D01*
X44168692Y70394236D01*
X44077200Y70366483D01*
X44077200Y77399488D01*
X46184783Y77399488D01*
X46226213Y77119870D01*
X46321397Y76853708D01*
X46388329Y76728486D01*
X46632298Y76656903D01*
X47445395Y77470000D01*
X47804605Y77470000D01*
X48617702Y76656903D01*
X48856606Y76727000D01*
X51270000Y76727000D01*
X51270000Y76327000D01*
X52578000Y76327000D01*
X52578000Y77869915D01*
X52832000Y77869915D01*
X52832000Y76327000D01*
X52852000Y76327000D01*
X52852000Y76073000D01*
X52832000Y76073000D01*
X52832000Y74530085D01*
X53054039Y74408096D01*
X53136818Y74425633D01*
X53396646Y74536285D01*
X53629895Y74695500D01*
X53827601Y74897161D01*
X53977735Y75126742D01*
X54046068Y74998900D01*
X54225392Y74780393D01*
X54443899Y74601068D01*
X54693192Y74467818D01*
X54963691Y74385764D01*
X55245000Y74358057D01*
X55526308Y74385764D01*
X55796807Y74467818D01*
X56046100Y74601068D01*
X56264607Y74780392D01*
X56443932Y74998899D01*
X56512265Y75126741D01*
X56662399Y74897161D01*
X56860105Y74695500D01*
X57093354Y74536285D01*
X57353182Y74425633D01*
X57435961Y74408096D01*
X57658000Y74530085D01*
X57658000Y76073000D01*
X57638000Y76073000D01*
X57638000Y76327000D01*
X57658000Y76327000D01*
X57658000Y77869915D01*
X57435961Y77991904D01*
X57353182Y77974367D01*
X57093354Y77863715D01*
X56860105Y77704500D01*
X56662399Y77502839D01*
X56512265Y77273259D01*
X56443932Y77401101D01*
X56264608Y77619608D01*
X56046101Y77798932D01*
X55796808Y77932182D01*
X55526309Y78014236D01*
X55245000Y78041943D01*
X54963692Y78014236D01*
X54693193Y77932182D01*
X54443900Y77798932D01*
X54225393Y77619608D01*
X54046068Y77401101D01*
X53977735Y77273259D01*
X53827601Y77502839D01*
X53629895Y77704500D01*
X53396646Y77863715D01*
X53136818Y77974367D01*
X53054039Y77991904D01*
X52832000Y77869915D01*
X52578000Y77869915D01*
X52355961Y77991904D01*
X52273182Y77974367D01*
X52013354Y77863715D01*
X51780105Y77704500D01*
X51582399Y77502839D01*
X51427834Y77266483D01*
X51322350Y77004514D01*
X51270000Y76727000D01*
X48856606Y76727000D01*
X48861671Y76728486D01*
X48982571Y76983996D01*
X49051300Y77258184D01*
X49065217Y77540512D01*
X49023787Y77820130D01*
X48928603Y78086292D01*
X48861671Y78211514D01*
X48617702Y78283097D01*
X47804605Y77470000D01*
X47445395Y77470000D01*
X46632298Y78283097D01*
X46388329Y78211514D01*
X46267429Y77956004D01*
X46198700Y77681816D01*
X46184783Y77399488D01*
X44077200Y77399488D01*
X44077200Y78462702D01*
X46811903Y78462702D01*
X47625000Y77649605D01*
X48438097Y78462702D01*
X48366514Y78706671D01*
X48111004Y78827571D01*
X47836816Y78896300D01*
X47554488Y78910217D01*
X47274870Y78868787D01*
X47008708Y78773603D01*
X46883486Y78706671D01*
X46811903Y78462702D01*
X44077200Y78462702D01*
X44077200Y80907454D01*
X44944193Y81774446D01*
X44972238Y81797462D01*
X45064087Y81909380D01*
X45102865Y81981928D01*
X45250000Y81981928D01*
X45374482Y81994188D01*
X45494180Y82030498D01*
X45604494Y82089463D01*
X45701185Y82168815D01*
X45780537Y82265506D01*
X45839502Y82375820D01*
X45875812Y82495518D01*
X45888072Y82620000D01*
X45888072Y85020000D01*
X45875812Y85144482D01*
X45839502Y85264180D01*
X45780537Y85374494D01*
X45701185Y85471185D01*
X45604494Y85550537D01*
X45494180Y85609502D01*
X45374482Y85645812D01*
X45250000Y85658072D01*
X43650000Y85658072D01*
X43525518Y85645812D01*
X43470599Y85629152D01*
X46214197Y88372750D01*
X46242237Y88395762D01*
X46265250Y88423803D01*
X46265253Y88423806D01*
X46334086Y88507679D01*
X46334087Y88507680D01*
X46402337Y88635367D01*
X46434913Y88742756D01*
X46444365Y88773914D01*
X46447554Y88806296D01*
X46453033Y88861928D01*
X46610000Y88861928D01*
X46722420Y88873000D01*
X46893854Y88873000D01*
X46570308Y88549454D01*
X46542262Y88526437D01*
X46450413Y88414519D01*
X46382163Y88286832D01*
X46359564Y88212333D01*
X46340135Y88148285D01*
X46325944Y88004200D01*
X46329500Y87968095D01*
X46329501Y81192154D01*
X46280223Y81118405D01*
X46213510Y80957345D01*
X46179500Y80786365D01*
X46179500Y80612035D01*
X46213510Y80441055D01*
X46280223Y80279995D01*
X46377076Y80135045D01*
X46500345Y80011776D01*
X46645295Y79914923D01*
X46806355Y79848210D01*
X46977335Y79814200D01*
X47151665Y79814200D01*
X47322645Y79848210D01*
X47483705Y79914923D01*
X47628655Y80011776D01*
X47751924Y80135045D01*
X47848777Y80279995D01*
X47868370Y80327298D01*
X54431903Y80327298D01*
X54503486Y80083329D01*
X54758996Y79962429D01*
X55033184Y79893700D01*
X55315512Y79879783D01*
X55595130Y79921213D01*
X55861292Y80016397D01*
X55986514Y80083329D01*
X56058097Y80327298D01*
X55245000Y81140395D01*
X54431903Y80327298D01*
X47868370Y80327298D01*
X47915490Y80441055D01*
X47949500Y80612035D01*
X47949500Y80786365D01*
X47915490Y80957345D01*
X47848777Y81118405D01*
X47799500Y81192153D01*
X47799500Y81249488D01*
X53804783Y81249488D01*
X53846213Y80969870D01*
X53941397Y80703708D01*
X54008329Y80578486D01*
X54252298Y80506903D01*
X55065395Y81320000D01*
X55424605Y81320000D01*
X56237702Y80506903D01*
X56481671Y80578486D01*
X56602571Y80833996D01*
X56671300Y81108184D01*
X56685217Y81390512D01*
X56643787Y81670130D01*
X56548603Y81936292D01*
X56481671Y82061514D01*
X56237702Y82133097D01*
X55424605Y81320000D01*
X55065395Y81320000D01*
X54252298Y82133097D01*
X54008329Y82061514D01*
X53887429Y81806004D01*
X53818700Y81531816D01*
X53804783Y81249488D01*
X47799500Y81249488D01*
X47799500Y84620000D01*
X53806928Y84620000D01*
X53806928Y83020000D01*
X53819188Y82895518D01*
X53855498Y82775820D01*
X53914463Y82665506D01*
X53993815Y82568815D01*
X54090506Y82489463D01*
X54200820Y82430498D01*
X54320518Y82394188D01*
X54445000Y82381928D01*
X54452215Y82381928D01*
X54431903Y82312702D01*
X55245000Y81499605D01*
X56058097Y82312702D01*
X56037785Y82381928D01*
X56045000Y82381928D01*
X56169482Y82394188D01*
X56289180Y82430498D01*
X56399494Y82489463D01*
X56496185Y82568815D01*
X56575537Y82665506D01*
X56634502Y82775820D01*
X56670812Y82895518D01*
X56683072Y83020000D01*
X56683072Y84620000D01*
X56670812Y84744482D01*
X56634502Y84864180D01*
X56575537Y84974494D01*
X56496185Y85071185D01*
X56399494Y85150537D01*
X56289180Y85209502D01*
X56169482Y85245812D01*
X56045000Y85258072D01*
X54445000Y85258072D01*
X54320518Y85245812D01*
X54200820Y85209502D01*
X54090506Y85150537D01*
X53993815Y85071185D01*
X53914463Y84974494D01*
X53855498Y84864180D01*
X53819188Y84744482D01*
X53806928Y84620000D01*
X47799500Y84620000D01*
X47799500Y87699754D01*
X48754193Y88654446D01*
X48782238Y88677462D01*
X48874087Y88789380D01*
X48912865Y88861928D01*
X49150000Y88861928D01*
X49262420Y88873000D01*
X49797580Y88873000D01*
X49910000Y88861928D01*
X50065001Y88861928D01*
X50065001Y86881909D01*
X50033745Y86861024D01*
X49910476Y86737755D01*
X49813623Y86592805D01*
X49746910Y86431745D01*
X49712900Y86260765D01*
X49712900Y86086435D01*
X49746910Y85915455D01*
X49813623Y85754395D01*
X49910476Y85609445D01*
X50033745Y85486176D01*
X50178695Y85389323D01*
X50339755Y85322610D01*
X50510735Y85288600D01*
X50685065Y85288600D01*
X50856045Y85322610D01*
X51017105Y85389323D01*
X51162055Y85486176D01*
X51214430Y85538551D01*
X51303855Y85501510D01*
X51474835Y85467500D01*
X51649165Y85467500D01*
X51820145Y85501510D01*
X51981205Y85568223D01*
X52126155Y85665076D01*
X52249424Y85788345D01*
X52346277Y85933295D01*
X52412990Y86094355D01*
X52430294Y86181348D01*
X53834193Y87585246D01*
X53862238Y87608262D01*
X53954087Y87720180D01*
X53989063Y87785615D01*
X54022337Y87847866D01*
X54064365Y87986415D01*
X54078556Y88130500D01*
X54075000Y88166605D01*
X54075000Y88861928D01*
X54230000Y88861928D01*
X54342420Y88873000D01*
X54877580Y88873000D01*
X54990000Y88861928D01*
X56770000Y88861928D01*
X56882420Y88873000D01*
X57417580Y88873000D01*
X57530000Y88861928D01*
X59310000Y88861928D01*
X59422420Y88873000D01*
X59957580Y88873000D01*
X60070000Y88861928D01*
X61850000Y88861928D01*
X61962420Y88873000D01*
X62854033Y88873000D01*
X62904052Y88812052D01*
X63004550Y88729575D01*
X63119207Y88668290D01*
X63243617Y88630550D01*
X63340581Y88621000D01*
X63373000Y88617807D01*
X63405419Y88621000D01*
X78334045Y88621000D01*
X78339956Y660000D01*
X660000Y660000D01*
X660000Y5220128D01*
X2765000Y5220128D01*
X2765000Y4779872D01*
X2850890Y4348075D01*
X3019369Y3941331D01*
X3263962Y3575271D01*
X3575271Y3263962D01*
X3941331Y3019369D01*
X4348075Y2850890D01*
X4779872Y2765000D01*
X5220128Y2765000D01*
X5651925Y2850890D01*
X6058669Y3019369D01*
X6424729Y3263962D01*
X6736038Y3575271D01*
X6980631Y3941331D01*
X7149110Y4348075D01*
X7235000Y4779872D01*
X7235000Y5220128D01*
X71765000Y5220128D01*
X71765000Y4779872D01*
X71850890Y4348075D01*
X72019369Y3941331D01*
X72263962Y3575271D01*
X72575271Y3263962D01*
X72941331Y3019369D01*
X73348075Y2850890D01*
X73779872Y2765000D01*
X74220128Y2765000D01*
X74651925Y2850890D01*
X75058669Y3019369D01*
X75424729Y3263962D01*
X75736038Y3575271D01*
X75980631Y3941331D01*
X76149110Y4348075D01*
X76235000Y4779872D01*
X76235000Y5220128D01*
X76149110Y5651925D01*
X75980631Y6058669D01*
X75736038Y6424729D01*
X75424729Y6736038D01*
X75058669Y6980631D01*
X74651925Y7149110D01*
X74220128Y7235000D01*
X73779872Y7235000D01*
X73348075Y7149110D01*
X72941331Y6980631D01*
X72575271Y6736038D01*
X72263962Y6424729D01*
X72019369Y6058669D01*
X71850890Y5651925D01*
X71765000Y5220128D01*
X7235000Y5220128D01*
X7149110Y5651925D01*
X6980631Y6058669D01*
X6736038Y6424729D01*
X6424729Y6736038D01*
X6058669Y6980631D01*
X5651925Y7149110D01*
X5220128Y7235000D01*
X4779872Y7235000D01*
X4348075Y7149110D01*
X3941331Y6980631D01*
X3575271Y6736038D01*
X3263962Y6424729D01*
X3019369Y6058669D01*
X2850890Y5651925D01*
X2765000Y5220128D01*
X660000Y5220128D01*
X660000Y22733000D01*
X9995000Y22733000D01*
X9995000Y22333000D01*
X10047350Y22055486D01*
X10152834Y21793517D01*
X10307399Y21557161D01*
X10505105Y21355500D01*
X10738354Y21196285D01*
X10998182Y21085633D01*
X11080961Y21068096D01*
X11303000Y21190085D01*
X11303000Y22733000D01*
X9995000Y22733000D01*
X660000Y22733000D01*
X660000Y23387000D01*
X9995000Y23387000D01*
X9995000Y22987000D01*
X11303000Y22987000D01*
X11303000Y24529915D01*
X11080961Y24651904D01*
X10998182Y24634367D01*
X10738354Y24523715D01*
X10505105Y24364500D01*
X10307399Y24162839D01*
X10152834Y23926483D01*
X10047350Y23664514D01*
X9995000Y23387000D01*
X660000Y23387000D01*
X660000Y43053000D01*
X9995000Y43053000D01*
X9995000Y42653000D01*
X10047350Y42375486D01*
X10152834Y42113517D01*
X10307399Y41877161D01*
X10505105Y41675500D01*
X10738354Y41516285D01*
X10998182Y41405633D01*
X11080961Y41388096D01*
X11303000Y41510085D01*
X11303000Y43053000D01*
X9995000Y43053000D01*
X660000Y43053000D01*
X660000Y43707000D01*
X9995000Y43707000D01*
X9995000Y43307000D01*
X11303000Y43307000D01*
X11303000Y44849915D01*
X11080961Y44971904D01*
X10998182Y44954367D01*
X10738354Y44843715D01*
X10505105Y44684500D01*
X10307399Y44482839D01*
X10152834Y44246483D01*
X10047350Y43984514D01*
X9995000Y43707000D01*
X660000Y43707000D01*
X660000Y63373000D01*
X9995000Y63373000D01*
X9995000Y62973000D01*
X10047350Y62695486D01*
X10152834Y62433517D01*
X10307399Y62197161D01*
X10505105Y61995500D01*
X10738354Y61836285D01*
X10998182Y61725633D01*
X11080961Y61708096D01*
X11303000Y61830085D01*
X11303000Y63373000D01*
X9995000Y63373000D01*
X660000Y63373000D01*
X660000Y64027000D01*
X9995000Y64027000D01*
X9995000Y63627000D01*
X11303000Y63627000D01*
X11303000Y65169915D01*
X11080961Y65291904D01*
X10998182Y65274367D01*
X10738354Y65163715D01*
X10505105Y65004500D01*
X10307399Y64802839D01*
X10152834Y64566483D01*
X10047350Y64304514D01*
X9995000Y64027000D01*
X660000Y64027000D01*
X660000Y83220128D01*
X2765000Y83220128D01*
X2765000Y82779872D01*
X2850890Y82348075D01*
X3019369Y81941331D01*
X3263962Y81575271D01*
X3575271Y81263962D01*
X3941331Y81019369D01*
X4348075Y80850890D01*
X4779872Y80765000D01*
X5220128Y80765000D01*
X5651925Y80850890D01*
X6058669Y81019369D01*
X6424729Y81263962D01*
X6736038Y81575271D01*
X6980631Y81941331D01*
X7149110Y82348075D01*
X7235000Y82779872D01*
X7235000Y83220128D01*
X7149110Y83651925D01*
X7132097Y83693000D01*
X9995000Y83693000D01*
X9995000Y83293000D01*
X10047350Y83015486D01*
X10152834Y82753517D01*
X10307399Y82517161D01*
X10505105Y82315500D01*
X10738354Y82156285D01*
X10998182Y82045633D01*
X11080961Y82028096D01*
X11303000Y82150085D01*
X11303000Y83693000D01*
X9995000Y83693000D01*
X7132097Y83693000D01*
X6980631Y84058669D01*
X6787975Y84347000D01*
X9995000Y84347000D01*
X9995000Y83947000D01*
X11303000Y83947000D01*
X11303000Y85489915D01*
X11080961Y85611904D01*
X10998182Y85594367D01*
X10738354Y85483715D01*
X10505105Y85324500D01*
X10307399Y85122839D01*
X10152834Y84886483D01*
X10047350Y84624514D01*
X9995000Y84347000D01*
X6787975Y84347000D01*
X6736038Y84424729D01*
X6424729Y84736038D01*
X6058669Y84980631D01*
X5651925Y85149110D01*
X5220128Y85235000D01*
X4779872Y85235000D01*
X4348075Y85149110D01*
X3941331Y84980631D01*
X3575271Y84736038D01*
X3263962Y84424729D01*
X3019369Y84058669D01*
X2850890Y83651925D01*
X2765000Y83220128D01*
X660000Y83220128D01*
X660000Y88621000D01*
X15334581Y88621000D01*
X15367000Y88617807D01*
X15399419Y88621000D01*
X15496383Y88630550D01*
X15620793Y88668290D01*
X15735450Y88729575D01*
X15835948Y88812052D01*
X15885967Y88873000D01*
X16777580Y88873000D01*
X16890000Y88861928D01*
G37*
G04 #@! TD.AperFunction*
D19*
X67143899Y30786068D02*
X67393192Y30652818D01*
X67663691Y30570764D01*
X67945000Y30543057D01*
X68226308Y30570764D01*
X68496807Y30652818D01*
X68649701Y30734542D01*
X68649701Y29684148D01*
X66711985Y27746432D01*
X66675624Y27813000D01*
X65532000Y27813000D01*
X65532000Y26670085D01*
X65598889Y26633336D01*
X60678376Y21712822D01*
X60466335Y21755000D01*
X60183665Y21755000D01*
X59906426Y21699853D01*
X59645273Y21591680D01*
X59410241Y21434637D01*
X59210363Y21234759D01*
X59053320Y20999727D01*
X58945147Y20738574D01*
X58890000Y20461335D01*
X58890000Y20178665D01*
X58945147Y19901426D01*
X59053320Y19640273D01*
X59119000Y19541976D01*
X59119000Y16498802D01*
X59099727Y16511680D01*
X58838574Y16619853D01*
X58561335Y16675000D01*
X58278665Y16675000D01*
X58001426Y16619853D01*
X57740273Y16511680D01*
X57715400Y16495060D01*
X57715400Y18652995D01*
X57718956Y18689100D01*
X57704765Y18833185D01*
X57662737Y18971732D01*
X57662737Y18971733D01*
X57594487Y19099420D01*
X57539301Y19166664D01*
X57525653Y19183294D01*
X57525650Y19183297D01*
X57502637Y19211338D01*
X57474597Y19234350D01*
X56655160Y20053787D01*
X56680000Y20178665D01*
X56680000Y20461335D01*
X56655160Y20586214D01*
X63970000Y27901053D01*
X63970000Y27812998D01*
X64134375Y27812998D01*
X64013091Y27590960D01*
X64107930Y27326119D01*
X64252615Y27084869D01*
X64441586Y26876481D01*
X64667580Y26708963D01*
X64921913Y26588754D01*
X65055961Y26548096D01*
X65278000Y26670085D01*
X65278000Y27813000D01*
X65258000Y27813000D01*
X65258000Y28067000D01*
X65278000Y28067000D01*
X65278000Y28087000D01*
X65532000Y28087000D01*
X65532000Y28067000D01*
X66675624Y28067000D01*
X66796909Y28289040D01*
X66702070Y28553881D01*
X66557385Y28795131D01*
X66368414Y29003519D01*
X66142420Y29171037D01*
X65888087Y29291246D01*
X65754039Y29331904D01*
X65532002Y29209916D01*
X65532002Y29375000D01*
X65443947Y29375000D01*
X66985231Y30916284D01*
X67143899Y30786068D01*
G04 #@! TA.AperFunction,Conductor*
D20*
G36*
X67143899Y30786068D02*
G01*
X67393192Y30652818D01*
X67663691Y30570764D01*
X67945000Y30543057D01*
X68226308Y30570764D01*
X68496807Y30652818D01*
X68649701Y30734542D01*
X68649701Y29684148D01*
X66711985Y27746432D01*
X66675624Y27813000D01*
X65532000Y27813000D01*
X65532000Y26670085D01*
X65598889Y26633336D01*
X60678376Y21712822D01*
X60466335Y21755000D01*
X60183665Y21755000D01*
X59906426Y21699853D01*
X59645273Y21591680D01*
X59410241Y21434637D01*
X59210363Y21234759D01*
X59053320Y20999727D01*
X58945147Y20738574D01*
X58890000Y20461335D01*
X58890000Y20178665D01*
X58945147Y19901426D01*
X59053320Y19640273D01*
X59119000Y19541976D01*
X59119000Y16498802D01*
X59099727Y16511680D01*
X58838574Y16619853D01*
X58561335Y16675000D01*
X58278665Y16675000D01*
X58001426Y16619853D01*
X57740273Y16511680D01*
X57715400Y16495060D01*
X57715400Y18652995D01*
X57718956Y18689100D01*
X57704765Y18833185D01*
X57662737Y18971732D01*
X57662737Y18971733D01*
X57594487Y19099420D01*
X57539301Y19166664D01*
X57525653Y19183294D01*
X57525650Y19183297D01*
X57502637Y19211338D01*
X57474597Y19234350D01*
X56655160Y20053787D01*
X56680000Y20178665D01*
X56680000Y20461335D01*
X56655160Y20586214D01*
X63970000Y27901053D01*
X63970000Y27812998D01*
X64134375Y27812998D01*
X64013091Y27590960D01*
X64107930Y27326119D01*
X64252615Y27084869D01*
X64441586Y26876481D01*
X64667580Y26708963D01*
X64921913Y26588754D01*
X65055961Y26548096D01*
X65278000Y26670085D01*
X65278000Y27813000D01*
X65258000Y27813000D01*
X65258000Y28067000D01*
X65278000Y28067000D01*
X65278000Y28087000D01*
X65532000Y28087000D01*
X65532000Y28067000D01*
X66675624Y28067000D01*
X66796909Y28289040D01*
X66702070Y28553881D01*
X66557385Y28795131D01*
X66368414Y29003519D01*
X66142420Y29171037D01*
X65888087Y29291246D01*
X65754039Y29331904D01*
X65532002Y29209916D01*
X65532002Y29375000D01*
X65443947Y29375000D01*
X66985231Y30916284D01*
X67143899Y30786068D01*
G37*
G04 #@! TD.AperFunction*
D19*
X63400000Y41735425D02*
X63296818Y41779367D01*
X63214039Y41796904D01*
X62992000Y41674915D01*
X62992000Y40132000D01*
X63012000Y40132000D01*
X63012000Y39878000D01*
X62992000Y39878000D01*
X62992000Y38335085D01*
X63214039Y38213096D01*
X63296818Y38230633D01*
X63400001Y38274575D01*
X63400001Y35191415D01*
X63396444Y35155300D01*
X63410635Y35011215D01*
X63452664Y34872667D01*
X63520914Y34744980D01*
X63612763Y34633062D01*
X63640808Y34610046D01*
X64418816Y33832037D01*
X64385393Y33804608D01*
X64206068Y33586101D01*
X64135000Y33453142D01*
X64063932Y33586101D01*
X63884608Y33804608D01*
X63666101Y33983932D01*
X63416808Y34117182D01*
X63146309Y34199236D01*
X62865000Y34226943D01*
X62583692Y34199236D01*
X62313193Y34117182D01*
X62063900Y33983932D01*
X61845393Y33804608D01*
X61666068Y33586101D01*
X61595000Y33453142D01*
X61523932Y33586101D01*
X61344608Y33804608D01*
X61311184Y33832038D01*
X62089193Y34610046D01*
X62117238Y34633062D01*
X62209087Y34744980D01*
X62277337Y34872667D01*
X62319365Y35011215D01*
X62330000Y35119195D01*
X62330000Y35119204D01*
X62333555Y35155299D01*
X62330000Y35191394D01*
X62330000Y38274575D01*
X62433182Y38230633D01*
X62515961Y38213096D01*
X62738000Y38335085D01*
X62738000Y39878000D01*
X62718000Y39878000D01*
X62718000Y40132000D01*
X62738000Y40132000D01*
X62738000Y41674915D01*
X62668077Y41713331D01*
X63359193Y42404446D01*
X63387238Y42427462D01*
X63400000Y42443013D01*
X63400000Y41735425D01*
G04 #@! TA.AperFunction,Conductor*
D20*
G36*
X63400000Y41735425D02*
G01*
X63296818Y41779367D01*
X63214039Y41796904D01*
X62992000Y41674915D01*
X62992000Y40132000D01*
X63012000Y40132000D01*
X63012000Y39878000D01*
X62992000Y39878000D01*
X62992000Y38335085D01*
X63214039Y38213096D01*
X63296818Y38230633D01*
X63400001Y38274575D01*
X63400001Y35191415D01*
X63396444Y35155300D01*
X63410635Y35011215D01*
X63452664Y34872667D01*
X63520914Y34744980D01*
X63612763Y34633062D01*
X63640808Y34610046D01*
X64418816Y33832037D01*
X64385393Y33804608D01*
X64206068Y33586101D01*
X64135000Y33453142D01*
X64063932Y33586101D01*
X63884608Y33804608D01*
X63666101Y33983932D01*
X63416808Y34117182D01*
X63146309Y34199236D01*
X62865000Y34226943D01*
X62583692Y34199236D01*
X62313193Y34117182D01*
X62063900Y33983932D01*
X61845393Y33804608D01*
X61666068Y33586101D01*
X61595000Y33453142D01*
X61523932Y33586101D01*
X61344608Y33804608D01*
X61311184Y33832038D01*
X62089193Y34610046D01*
X62117238Y34633062D01*
X62209087Y34744980D01*
X62277337Y34872667D01*
X62319365Y35011215D01*
X62330000Y35119195D01*
X62330000Y35119204D01*
X62333555Y35155299D01*
X62330000Y35191394D01*
X62330000Y38274575D01*
X62433182Y38230633D01*
X62515961Y38213096D01*
X62738000Y38335085D01*
X62738000Y39878000D01*
X62718000Y39878000D01*
X62718000Y40132000D01*
X62738000Y40132000D01*
X62738000Y41674915D01*
X62668077Y41713331D01*
X63359193Y42404446D01*
X63387238Y42427462D01*
X63400000Y42443013D01*
X63400000Y41735425D01*
G37*
G04 #@! TD.AperFunction*
D19*
X61666068Y43248900D02*
X61845392Y43030393D01*
X61878816Y43002963D01*
X61100808Y42224954D01*
X61072762Y42201937D01*
X60980913Y42090019D01*
X60912663Y41962332D01*
X60886827Y41877161D01*
X60870635Y41823785D01*
X60861855Y41734635D01*
X60756818Y41779367D01*
X60674039Y41796904D01*
X60452000Y41674915D01*
X60452000Y40132000D01*
X60472000Y40132000D01*
X60472000Y39878000D01*
X60452000Y39878000D01*
X60452000Y38335085D01*
X60674039Y38213096D01*
X60756818Y38230633D01*
X60860001Y38274575D01*
X60860001Y35459748D01*
X59830808Y34430554D01*
X59802763Y34407538D01*
X59790000Y34391986D01*
X59790000Y36682406D01*
X59793555Y36718501D01*
X59790000Y36754596D01*
X59790000Y36754605D01*
X59779365Y36862585D01*
X59737337Y37001133D01*
X59669087Y37128820D01*
X59652514Y37149013D01*
X59600253Y37212694D01*
X59600250Y37212697D01*
X59577237Y37240738D01*
X59549197Y37263750D01*
X58469306Y38343640D01*
X58586100Y38406068D01*
X58804607Y38585392D01*
X58983932Y38803899D01*
X59052265Y38931741D01*
X59202399Y38702161D01*
X59400105Y38500500D01*
X59633354Y38341285D01*
X59893182Y38230633D01*
X59975961Y38213096D01*
X60198000Y38335085D01*
X60198000Y39878000D01*
X60178000Y39878000D01*
X60178000Y40132000D01*
X60198000Y40132000D01*
X60198000Y41674915D01*
X59975961Y41796904D01*
X59893182Y41779367D01*
X59633354Y41668715D01*
X59400105Y41509500D01*
X59202399Y41307839D01*
X59052265Y41078259D01*
X58983932Y41206101D01*
X58804608Y41424608D01*
X58586101Y41603932D01*
X58336808Y41737182D01*
X58066309Y41819236D01*
X57785000Y41846943D01*
X57503692Y41819236D01*
X57247468Y41741512D01*
X57239365Y41823785D01*
X57197337Y41962333D01*
X57129087Y42090020D01*
X57109803Y42113517D01*
X57060253Y42173894D01*
X57060250Y42173897D01*
X57037237Y42201938D01*
X57009197Y42224950D01*
X56231184Y43002962D01*
X56264607Y43030392D01*
X56443932Y43248899D01*
X56515000Y43381858D01*
X56586068Y43248900D01*
X56765392Y43030393D01*
X56983899Y42851068D01*
X57233192Y42717818D01*
X57503691Y42635764D01*
X57785000Y42608057D01*
X58066308Y42635764D01*
X58336807Y42717818D01*
X58586100Y42851068D01*
X58804607Y43030392D01*
X58983932Y43248899D01*
X59055000Y43381858D01*
X59126068Y43248900D01*
X59305392Y43030393D01*
X59523899Y42851068D01*
X59773192Y42717818D01*
X60043691Y42635764D01*
X60325000Y42608057D01*
X60606308Y42635764D01*
X60876807Y42717818D01*
X61126100Y42851068D01*
X61344607Y43030392D01*
X61523932Y43248899D01*
X61595000Y43381858D01*
X61666068Y43248900D01*
G04 #@! TA.AperFunction,Conductor*
D20*
G36*
X61666068Y43248900D02*
G01*
X61845392Y43030393D01*
X61878816Y43002963D01*
X61100808Y42224954D01*
X61072762Y42201937D01*
X60980913Y42090019D01*
X60912663Y41962332D01*
X60886827Y41877161D01*
X60870635Y41823785D01*
X60861855Y41734635D01*
X60756818Y41779367D01*
X60674039Y41796904D01*
X60452000Y41674915D01*
X60452000Y40132000D01*
X60472000Y40132000D01*
X60472000Y39878000D01*
X60452000Y39878000D01*
X60452000Y38335085D01*
X60674039Y38213096D01*
X60756818Y38230633D01*
X60860001Y38274575D01*
X60860001Y35459748D01*
X59830808Y34430554D01*
X59802763Y34407538D01*
X59790000Y34391986D01*
X59790000Y36682406D01*
X59793555Y36718501D01*
X59790000Y36754596D01*
X59790000Y36754605D01*
X59779365Y36862585D01*
X59737337Y37001133D01*
X59669087Y37128820D01*
X59652514Y37149013D01*
X59600253Y37212694D01*
X59600250Y37212697D01*
X59577237Y37240738D01*
X59549197Y37263750D01*
X58469306Y38343640D01*
X58586100Y38406068D01*
X58804607Y38585392D01*
X58983932Y38803899D01*
X59052265Y38931741D01*
X59202399Y38702161D01*
X59400105Y38500500D01*
X59633354Y38341285D01*
X59893182Y38230633D01*
X59975961Y38213096D01*
X60198000Y38335085D01*
X60198000Y39878000D01*
X60178000Y39878000D01*
X60178000Y40132000D01*
X60198000Y40132000D01*
X60198000Y41674915D01*
X59975961Y41796904D01*
X59893182Y41779367D01*
X59633354Y41668715D01*
X59400105Y41509500D01*
X59202399Y41307839D01*
X59052265Y41078259D01*
X58983932Y41206101D01*
X58804608Y41424608D01*
X58586101Y41603932D01*
X58336808Y41737182D01*
X58066309Y41819236D01*
X57785000Y41846943D01*
X57503692Y41819236D01*
X57247468Y41741512D01*
X57239365Y41823785D01*
X57197337Y41962333D01*
X57129087Y42090020D01*
X57109803Y42113517D01*
X57060253Y42173894D01*
X57060250Y42173897D01*
X57037237Y42201938D01*
X57009197Y42224950D01*
X56231184Y43002962D01*
X56264607Y43030392D01*
X56443932Y43248899D01*
X56515000Y43381858D01*
X56586068Y43248900D01*
X56765392Y43030393D01*
X56983899Y42851068D01*
X57233192Y42717818D01*
X57503691Y42635764D01*
X57785000Y42608057D01*
X58066308Y42635764D01*
X58336807Y42717818D01*
X58586100Y42851068D01*
X58804607Y43030392D01*
X58983932Y43248899D01*
X59055000Y43381858D01*
X59126068Y43248900D01*
X59305392Y43030393D01*
X59523899Y42851068D01*
X59773192Y42717818D01*
X60043691Y42635764D01*
X60325000Y42608057D01*
X60606308Y42635764D01*
X60876807Y42717818D01*
X61126100Y42851068D01*
X61344607Y43030392D01*
X61523932Y43248899D01*
X61595000Y43381858D01*
X61666068Y43248900D01*
G37*
G04 #@! TD.AperFunction*
D19*
X66746068Y43248900D02*
X66925392Y43030393D01*
X67143899Y42851068D01*
X67393192Y42717818D01*
X67663691Y42635764D01*
X67945000Y42608057D01*
X68226308Y42635764D01*
X68496807Y42717818D01*
X68746100Y42851068D01*
X68943150Y43012783D01*
X70112860Y41843072D01*
X69685000Y41843072D01*
X69560518Y41830812D01*
X69440820Y41794502D01*
X69330506Y41735537D01*
X69233815Y41656185D01*
X69154463Y41559494D01*
X69095498Y41449180D01*
X69059188Y41329482D01*
X69057419Y41311518D01*
X68964608Y41424608D01*
X68746101Y41603932D01*
X68496808Y41737182D01*
X68226309Y41819236D01*
X67945000Y41846943D01*
X67663692Y41819236D01*
X67393193Y41737182D01*
X67143900Y41603932D01*
X66925393Y41424608D01*
X66746068Y41206101D01*
X66677735Y41078259D01*
X66527601Y41307839D01*
X66329895Y41509500D01*
X66096646Y41668715D01*
X65836818Y41779367D01*
X65754039Y41796904D01*
X65532000Y41674915D01*
X65532000Y40132000D01*
X65552000Y40132000D01*
X65552000Y39878000D01*
X65532000Y39878000D01*
X65532000Y38335085D01*
X65754039Y38213096D01*
X65836818Y38230633D01*
X66096646Y38341285D01*
X66329895Y38500500D01*
X66527601Y38702161D01*
X66677735Y38931742D01*
X66746068Y38803900D01*
X66925392Y38585393D01*
X66958816Y38557963D01*
X66180808Y37779954D01*
X66152763Y37756938D01*
X66060914Y37645020D01*
X66009315Y37548485D01*
X65992664Y37517333D01*
X65950635Y37378785D01*
X65936444Y37234700D01*
X65940001Y37198585D01*
X65940000Y34391987D01*
X65927238Y34407538D01*
X65899193Y34430554D01*
X64870000Y35459746D01*
X64870000Y38274575D01*
X64973182Y38230633D01*
X65055961Y38213096D01*
X65278000Y38335085D01*
X65278000Y39878000D01*
X65258000Y39878000D01*
X65258000Y40132000D01*
X65278000Y40132000D01*
X65278000Y41674915D01*
X65055961Y41796904D01*
X64973182Y41779367D01*
X64870000Y41735425D01*
X64870000Y42712719D01*
X65123691Y42635764D01*
X65405000Y42608057D01*
X65686308Y42635764D01*
X65956807Y42717818D01*
X66206100Y42851068D01*
X66424607Y43030392D01*
X66603932Y43248899D01*
X66675000Y43381858D01*
X66746068Y43248900D01*
G04 #@! TA.AperFunction,Conductor*
D20*
G36*
X66746068Y43248900D02*
G01*
X66925392Y43030393D01*
X67143899Y42851068D01*
X67393192Y42717818D01*
X67663691Y42635764D01*
X67945000Y42608057D01*
X68226308Y42635764D01*
X68496807Y42717818D01*
X68746100Y42851068D01*
X68943150Y43012783D01*
X70112860Y41843072D01*
X69685000Y41843072D01*
X69560518Y41830812D01*
X69440820Y41794502D01*
X69330506Y41735537D01*
X69233815Y41656185D01*
X69154463Y41559494D01*
X69095498Y41449180D01*
X69059188Y41329482D01*
X69057419Y41311518D01*
X68964608Y41424608D01*
X68746101Y41603932D01*
X68496808Y41737182D01*
X68226309Y41819236D01*
X67945000Y41846943D01*
X67663692Y41819236D01*
X67393193Y41737182D01*
X67143900Y41603932D01*
X66925393Y41424608D01*
X66746068Y41206101D01*
X66677735Y41078259D01*
X66527601Y41307839D01*
X66329895Y41509500D01*
X66096646Y41668715D01*
X65836818Y41779367D01*
X65754039Y41796904D01*
X65532000Y41674915D01*
X65532000Y40132000D01*
X65552000Y40132000D01*
X65552000Y39878000D01*
X65532000Y39878000D01*
X65532000Y38335085D01*
X65754039Y38213096D01*
X65836818Y38230633D01*
X66096646Y38341285D01*
X66329895Y38500500D01*
X66527601Y38702161D01*
X66677735Y38931742D01*
X66746068Y38803900D01*
X66925392Y38585393D01*
X66958816Y38557963D01*
X66180808Y37779954D01*
X66152763Y37756938D01*
X66060914Y37645020D01*
X66009315Y37548485D01*
X65992664Y37517333D01*
X65950635Y37378785D01*
X65936444Y37234700D01*
X65940001Y37198585D01*
X65940000Y34391987D01*
X65927238Y34407538D01*
X65899193Y34430554D01*
X64870000Y35459746D01*
X64870000Y38274575D01*
X64973182Y38230633D01*
X65055961Y38213096D01*
X65278000Y38335085D01*
X65278000Y39878000D01*
X65258000Y39878000D01*
X65258000Y40132000D01*
X65278000Y40132000D01*
X65278000Y41674915D01*
X65055961Y41796904D01*
X64973182Y41779367D01*
X64870000Y41735425D01*
X64870000Y42712719D01*
X65123691Y42635764D01*
X65405000Y42608057D01*
X65686308Y42635764D01*
X65956807Y42717818D01*
X66206100Y42851068D01*
X66424607Y43030392D01*
X66603932Y43248899D01*
X66675000Y43381858D01*
X66746068Y43248900D01*
G37*
G04 #@! TD.AperFunction*
D19*
X58533100Y59082305D02*
X58529544Y59046200D01*
X58543142Y58908135D01*
X58543735Y58902116D01*
X58585763Y58763568D01*
X58654013Y58635881D01*
X58745862Y58523963D01*
X58773908Y58500946D01*
X59392816Y57882037D01*
X59359393Y57854608D01*
X59180068Y57636101D01*
X59111735Y57508259D01*
X58961601Y57737839D01*
X58763895Y57939500D01*
X58530646Y58098715D01*
X58270818Y58209367D01*
X58188039Y58226904D01*
X57966000Y58104915D01*
X57966000Y56562000D01*
X57986000Y56562000D01*
X57986000Y56308000D01*
X57966000Y56308000D01*
X57966000Y54765085D01*
X58188039Y54643096D01*
X58270818Y54660633D01*
X58530646Y54771285D01*
X58763895Y54930500D01*
X58961601Y55132161D01*
X59111735Y55361742D01*
X59180068Y55233900D01*
X59359392Y55015393D01*
X59577899Y54836068D01*
X59827192Y54702818D01*
X60097691Y54620764D01*
X60379000Y54593057D01*
X60660308Y54620764D01*
X60930807Y54702818D01*
X61180100Y54836068D01*
X61398607Y55015392D01*
X61577932Y55233899D01*
X61649000Y55366858D01*
X61720068Y55233900D01*
X61899392Y55015393D01*
X62117899Y54836068D01*
X62194174Y54795298D01*
X62194635Y54790615D01*
X62236663Y54652067D01*
X62304913Y54524380D01*
X62396762Y54412462D01*
X62508680Y54320613D01*
X62537329Y54305300D01*
X58089447Y54305300D01*
X57658858Y54735889D01*
X57712000Y54765085D01*
X57712000Y56308000D01*
X57692000Y56308000D01*
X57692000Y56562000D01*
X57712000Y56562000D01*
X57712000Y58104915D01*
X57489961Y58226904D01*
X57411800Y58210345D01*
X57411800Y62285019D01*
X57557691Y62240764D01*
X57839000Y62213057D01*
X58120308Y62240764D01*
X58390807Y62322818D01*
X58533100Y62398876D01*
X58533100Y59082305D01*
G04 #@! TA.AperFunction,Conductor*
D20*
G36*
X58533100Y59082305D02*
G01*
X58529544Y59046200D01*
X58543142Y58908135D01*
X58543735Y58902116D01*
X58585763Y58763568D01*
X58654013Y58635881D01*
X58745862Y58523963D01*
X58773908Y58500946D01*
X59392816Y57882037D01*
X59359393Y57854608D01*
X59180068Y57636101D01*
X59111735Y57508259D01*
X58961601Y57737839D01*
X58763895Y57939500D01*
X58530646Y58098715D01*
X58270818Y58209367D01*
X58188039Y58226904D01*
X57966000Y58104915D01*
X57966000Y56562000D01*
X57986000Y56562000D01*
X57986000Y56308000D01*
X57966000Y56308000D01*
X57966000Y54765085D01*
X58188039Y54643096D01*
X58270818Y54660633D01*
X58530646Y54771285D01*
X58763895Y54930500D01*
X58961601Y55132161D01*
X59111735Y55361742D01*
X59180068Y55233900D01*
X59359392Y55015393D01*
X59577899Y54836068D01*
X59827192Y54702818D01*
X60097691Y54620764D01*
X60379000Y54593057D01*
X60660308Y54620764D01*
X60930807Y54702818D01*
X61180100Y54836068D01*
X61398607Y55015392D01*
X61577932Y55233899D01*
X61649000Y55366858D01*
X61720068Y55233900D01*
X61899392Y55015393D01*
X62117899Y54836068D01*
X62194174Y54795298D01*
X62194635Y54790615D01*
X62236663Y54652067D01*
X62304913Y54524380D01*
X62396762Y54412462D01*
X62508680Y54320613D01*
X62537329Y54305300D01*
X58089447Y54305300D01*
X57658858Y54735889D01*
X57712000Y54765085D01*
X57712000Y56308000D01*
X57692000Y56308000D01*
X57692000Y56562000D01*
X57712000Y56562000D01*
X57712000Y58104915D01*
X57489961Y58226904D01*
X57411800Y58210345D01*
X57411800Y62285019D01*
X57557691Y62240764D01*
X57839000Y62213057D01*
X58120308Y62240764D01*
X58390807Y62322818D01*
X58533100Y62398876D01*
X58533100Y59082305D01*
G37*
G04 #@! TD.AperFunction*
M02*
