M48
; DRILL file {KiCad (5.1.9)-1} date 03/23/25 14:17:05
; FORMAT={-:-/ absolute / metric / decimal}
; #@! TF.CreationDate,2025-03-23T14:17:05+09:00
; #@! TF.GenerationSoftware,Kicad,Pcbnew,(5.1.9)-1
FMAT,2
METRIC
T1C0.300
T2C0.800
T3C3.200
%
G90
G05
T1
X39.97Y87.492
X41.408Y76.886
X42.876Y86.975
X44.075Y45.704
X44.737Y88.836
X45.458Y80.838
X48.38Y83.44
X53.895Y88.692
T2
X11.43Y83.82
X11.43Y68.58
X11.43Y63.5
X11.43Y48.26
X11.43Y43.18
X11.43Y27.94
X11.43Y22.86
X11.43Y7.62
X13.97Y83.82
X13.97Y68.58
X13.97Y63.5
X13.97Y48.26
X13.97Y43.18
X13.97Y27.94
X13.97Y22.86
X13.97Y7.62
X16.51Y83.82
X16.51Y68.58
X16.51Y63.5
X16.51Y48.26
X16.51Y43.18
X16.51Y27.94
X16.51Y22.86
X16.51Y7.62
X19.05Y83.82
X19.05Y68.58
X19.05Y63.5
X19.05Y48.26
X19.05Y43.18
X19.05Y27.94
X19.05Y22.86
X19.05Y7.62
X21.59Y83.82
X21.59Y68.58
X21.59Y63.5
X21.59Y48.26
X21.59Y43.18
X21.59Y27.94
X21.59Y22.86
X21.59Y7.62
X24.13Y83.82
X24.13Y68.58
X24.13Y63.5
X24.13Y48.26
X24.13Y43.18
X24.13Y27.94
X24.13Y22.86
X24.13Y7.62
X26.67Y83.82
X26.67Y68.58
X26.67Y63.5
X26.67Y48.26
X26.67Y43.18
X26.67Y27.94
X26.67Y22.86
X26.67Y7.62
X29.21Y83.82
X29.21Y68.58
X29.21Y63.5
X29.21Y48.26
X29.21Y43.18
X29.21Y27.94
X29.21Y22.86
X29.21Y7.62
X31.75Y83.82
X31.75Y68.58
X31.75Y63.5
X31.75Y48.26
X31.75Y43.18
X31.75Y27.94
X31.75Y22.86
X31.75Y7.62
X34.29Y83.82
X34.29Y68.58
X34.29Y63.5
X34.29Y48.26
X34.29Y43.18
X34.29Y27.94
X34.29Y22.86
X34.29Y7.62
X36.83Y83.82
X36.83Y68.58
X36.83Y63.5
X36.83Y48.26
X36.83Y43.18
X36.83Y27.94
X36.83Y22.86
X36.83Y7.62
X39.37Y83.82
X39.37Y68.58
X39.37Y63.5
X39.37Y48.26
X39.37Y43.18
X39.37Y27.94
X39.37Y22.86
X39.37Y7.62
X41.91Y83.82
X41.91Y68.58
X41.91Y63.5
X41.91Y48.26
X41.91Y43.18
X41.91Y27.94
X41.91Y22.86
X41.91Y7.62
X44.45Y83.82
X44.45Y68.58
X44.45Y63.5
X44.45Y48.26
X44.45Y43.18
X44.45Y27.94
X44.45Y22.86
X44.45Y7.62
X47.625Y77.47
X47.625Y74.97
X47.625Y57.15
X47.625Y54.65
X47.625Y36.83
X47.625Y34.33
X47.625Y16.51
X47.625Y14.01
X52.705Y55.88
X52.705Y48.26
X52.705Y43.18
X52.705Y35.56
X55.245Y83.82
X55.245Y81.32
X55.245Y55.88
X55.245Y48.26
X55.245Y43.18
X55.245Y35.56
X55.245Y29.21
X55.245Y21.59
X55.88Y15.24
X55.88Y7.62
X57.785Y55.88
X57.785Y48.26
X57.785Y43.18
X57.785Y35.56
X58.42Y15.24
X58.42Y7.62
X60.325Y55.88
X60.325Y48.26
X60.325Y43.18
X60.325Y35.56
X60.325Y29.21
X60.325Y21.59
X60.96Y15.24
X60.96Y7.62
X62.865Y55.88
X62.865Y48.26
X62.865Y43.18
X62.865Y35.56
X63.5Y15.24
X63.5Y7.62
X65.405Y55.88
X65.405Y48.26
X65.405Y43.18
X65.405Y35.56
X65.405Y29.21
X65.405Y21.59
X67.945Y55.88
X67.945Y48.26
X67.945Y43.18
X67.945Y35.56
X70.485Y43.18
X70.485Y35.56
X70.485Y29.21
X70.485Y21.59
X71.12Y53.3
X71.12Y50.8
X73.66Y40.64
X73.66Y38.14
T3
X5.0Y83.0
X5.0Y5.0
X74.0Y83.0
X74.0Y5.0
T0
M30
