G04 #@! TF.GenerationSoftware,KiCad,Pcbnew,(5.1.9)-1*
G04 #@! TF.CreationDate,2025-03-23T14:17:03+09:00*
G04 #@! TF.ProjectId,PYUUTA16k,50595555-5441-4313-966b-2e6b69636164,rev?*
G04 #@! TF.SameCoordinates,PX53920b0PY93c3260*
G04 #@! TF.FileFunction,Copper,L2,Bot*
G04 #@! TF.FilePolarity,Positive*
%FSLAX46Y46*%
G04 Gerber Fmt 4.6, Leading zero omitted, Abs format (unit mm)*
G04 Created by KiCad (PCBNEW (5.1.9)-1) date 2025-03-23 14:17:03*
%MOMM*%
%LPD*%
G01*
G04 APERTURE LIST*
G04 #@! TA.AperFunction,ComponentPad*
%ADD10C,1.600000*%
G04 #@! TD*
G04 #@! TA.AperFunction,ConnectorPad*
%ADD11R,1.780000X10.000000*%
G04 #@! TD*
G04 #@! TA.AperFunction,ComponentPad*
%ADD12O,1.600000X1.600000*%
G04 #@! TD*
G04 #@! TA.AperFunction,ComponentPad*
%ADD13R,1.600000X1.600000*%
G04 #@! TD*
G04 #@! TA.AperFunction,ComponentPad*
%ADD14R,1.600000X2.400000*%
G04 #@! TD*
G04 #@! TA.AperFunction,ComponentPad*
%ADD15O,1.600000X2.400000*%
G04 #@! TD*
G04 #@! TA.AperFunction,ViaPad*
%ADD16C,0.500000*%
G04 #@! TD*
G04 #@! TA.AperFunction,Conductor*
%ADD17C,0.400000*%
G04 #@! TD*
G04 #@! TA.AperFunction,Conductor*
%ADD18C,0.200000*%
G04 #@! TD*
G04 #@! TA.AperFunction,Conductor*
%ADD19C,0.254000*%
G04 #@! TD*
G04 #@! TA.AperFunction,Conductor*
%ADD20C,0.100000*%
G04 #@! TD*
G04 APERTURE END LIST*
D10*
X71120000Y53300000D03*
X71120000Y50800000D03*
X73660000Y40640000D03*
X73660000Y38140000D03*
X47625000Y14010000D03*
X47625000Y16510000D03*
X47625000Y36830000D03*
X47625000Y34330000D03*
X47625000Y57150000D03*
X47625000Y54650000D03*
X47625000Y74970000D03*
X47625000Y77470000D03*
D11*
X17780000Y94500000D03*
X20320000Y94500000D03*
X22860000Y94500000D03*
X25400000Y94500000D03*
X27940000Y94500000D03*
X30480000Y94500000D03*
X33020000Y94500000D03*
X35560000Y94500000D03*
X38100000Y94500000D03*
X40640000Y94500000D03*
X43180000Y94500000D03*
X45720000Y94500000D03*
X48260000Y94500000D03*
X50800000Y94500000D03*
X53340000Y94500000D03*
X55880000Y94500000D03*
X58420000Y94500000D03*
X60960000Y94500000D03*
D10*
X70485000Y21590000D03*
D12*
X70485000Y29210000D03*
X65405000Y29210000D03*
D10*
X65405000Y21590000D03*
X60325000Y21590000D03*
D12*
X60325000Y29210000D03*
X55245000Y29210000D03*
D10*
X55245000Y21590000D03*
D13*
X63500000Y15240000D03*
D12*
X55880000Y7620000D03*
X60960000Y15240000D03*
X58420000Y7620000D03*
X58420000Y15240000D03*
X60960000Y7620000D03*
X55880000Y15240000D03*
X63500000Y7620000D03*
D14*
X44450000Y22860000D03*
D15*
X11430000Y7620000D03*
X41910000Y22860000D03*
X13970000Y7620000D03*
X39370000Y22860000D03*
X16510000Y7620000D03*
X36830000Y22860000D03*
X19050000Y7620000D03*
X34290000Y22860000D03*
X21590000Y7620000D03*
X31750000Y22860000D03*
X24130000Y7620000D03*
X29210000Y22860000D03*
X26670000Y7620000D03*
X26670000Y22860000D03*
X29210000Y7620000D03*
X24130000Y22860000D03*
X31750000Y7620000D03*
X21590000Y22860000D03*
X34290000Y7620000D03*
X19050000Y22860000D03*
X36830000Y7620000D03*
X16510000Y22860000D03*
X39370000Y7620000D03*
X13970000Y22860000D03*
X41910000Y7620000D03*
X11430000Y22860000D03*
X44450000Y7620000D03*
D14*
X44450000Y43180000D03*
D15*
X11430000Y27940000D03*
X41910000Y43180000D03*
X13970000Y27940000D03*
X39370000Y43180000D03*
X16510000Y27940000D03*
X36830000Y43180000D03*
X19050000Y27940000D03*
X34290000Y43180000D03*
X21590000Y27940000D03*
X31750000Y43180000D03*
X24130000Y27940000D03*
X29210000Y43180000D03*
X26670000Y27940000D03*
X26670000Y43180000D03*
X29210000Y27940000D03*
X24130000Y43180000D03*
X31750000Y27940000D03*
X21590000Y43180000D03*
X34290000Y27940000D03*
X19050000Y43180000D03*
X36830000Y27940000D03*
X16510000Y43180000D03*
X39370000Y27940000D03*
X13970000Y43180000D03*
X41910000Y27940000D03*
X11430000Y43180000D03*
X44450000Y27940000D03*
X44450000Y48260000D03*
X11430000Y63500000D03*
X41910000Y48260000D03*
X13970000Y63500000D03*
X39370000Y48260000D03*
X16510000Y63500000D03*
X36830000Y48260000D03*
X19050000Y63500000D03*
X34290000Y48260000D03*
X21590000Y63500000D03*
X31750000Y48260000D03*
X24130000Y63500000D03*
X29210000Y48260000D03*
X26670000Y63500000D03*
X26670000Y48260000D03*
X29210000Y63500000D03*
X24130000Y48260000D03*
X31750000Y63500000D03*
X21590000Y48260000D03*
X34290000Y63500000D03*
X19050000Y48260000D03*
X36830000Y63500000D03*
X16510000Y48260000D03*
X39370000Y63500000D03*
X13970000Y48260000D03*
X41910000Y63500000D03*
X11430000Y48260000D03*
D14*
X44450000Y63500000D03*
D15*
X44450000Y68580000D03*
X11430000Y83820000D03*
X41910000Y68580000D03*
X13970000Y83820000D03*
X39370000Y68580000D03*
X16510000Y83820000D03*
X36830000Y68580000D03*
X19050000Y83820000D03*
X34290000Y68580000D03*
X21590000Y83820000D03*
X31750000Y68580000D03*
X24130000Y83820000D03*
X29210000Y68580000D03*
X26670000Y83820000D03*
X26670000Y68580000D03*
X29210000Y83820000D03*
X24130000Y68580000D03*
X31750000Y83820000D03*
X21590000Y68580000D03*
X34290000Y83820000D03*
X19050000Y68580000D03*
X36830000Y83820000D03*
X16510000Y68580000D03*
X39370000Y83820000D03*
X13970000Y68580000D03*
X41910000Y83820000D03*
X11430000Y68580000D03*
D14*
X44450000Y83820000D03*
X70485000Y43180000D03*
D15*
X52705000Y35560000D03*
X67945000Y43180000D03*
X55245000Y35560000D03*
X65405000Y43180000D03*
X57785000Y35560000D03*
X62865000Y43180000D03*
X60325000Y35560000D03*
X60325000Y43180000D03*
X62865000Y35560000D03*
X57785000Y43180000D03*
X65405000Y35560000D03*
X55245000Y43180000D03*
X67945000Y35560000D03*
X52705000Y43180000D03*
X70485000Y35560000D03*
D14*
X67945000Y55880000D03*
D15*
X52705000Y48260000D03*
X65405000Y55880000D03*
X55245000Y48260000D03*
X62865000Y55880000D03*
X57785000Y48260000D03*
X60325000Y55880000D03*
X60325000Y48260000D03*
X57785000Y55880000D03*
X62865000Y48260000D03*
X55245000Y55880000D03*
X65405000Y48260000D03*
X52705000Y55880000D03*
X67945000Y48260000D03*
D13*
X55245000Y83820000D03*
D10*
X55245000Y81320000D03*
D16*
X39970000Y87492000D03*
X45457800Y80837900D03*
X48379500Y83439900D03*
X41407700Y76886000D03*
X44737100Y88836100D03*
X42875800Y86974800D03*
X53895000Y88692000D03*
X44074900Y45703900D03*
D17*
X67945000Y48260000D02*
X67945000Y46659700D01*
X67945000Y46659700D02*
X59664400Y46659700D01*
X59664400Y46659700D02*
X57785000Y44780300D01*
X46382000Y44780300D02*
X46382000Y35573000D01*
X46382000Y35573000D02*
X47625000Y34330000D01*
X44450000Y46659700D02*
X44502600Y46659700D01*
X44502600Y46659700D02*
X46382000Y44780300D01*
X46382000Y44780300D02*
X57785000Y44780300D01*
X57785000Y43180000D02*
X57785000Y44780300D01*
X44450000Y48260000D02*
X44450000Y46659700D01*
X50206600Y83820000D02*
X55245000Y83820000D01*
X40640000Y94500000D02*
X40640000Y88900000D01*
X40640000Y88900000D02*
X41910000Y87630000D01*
X41910000Y87630000D02*
X45720000Y87630000D01*
X45720000Y87630000D02*
X49530000Y83820000D01*
X49530000Y83820000D02*
X50206600Y83820000D01*
X47625000Y74970000D02*
X50206600Y77551600D01*
X50206600Y77551600D02*
X50206600Y83820000D01*
X55880000Y15240000D02*
X54679700Y15240000D01*
X47625000Y14010000D02*
X53449700Y14010000D01*
X53449700Y14010000D02*
X54679700Y15240000D01*
X60960000Y15240000D02*
X63500000Y15240000D01*
X58420000Y15240000D02*
X60960000Y15240000D01*
X55880000Y15240000D02*
X58420000Y15240000D01*
X65405000Y29210000D02*
X69284700Y29210000D01*
X60325000Y29210000D02*
X65405000Y29210000D01*
X70485000Y29210000D02*
X69284700Y29210000D01*
X55245000Y29210000D02*
X60325000Y29210000D01*
X69215000Y41564300D02*
X69215000Y45331100D01*
X69215000Y45331100D02*
X69820300Y45936400D01*
X69820300Y45936400D02*
X69820300Y52000400D01*
X69820300Y52000400D02*
X69820400Y52000400D01*
X69820400Y52000400D02*
X71120000Y53300000D01*
X73660000Y40640000D02*
X70139300Y40640000D01*
X70139300Y40640000D02*
X69215000Y41564300D01*
X65405000Y42379900D02*
X66220600Y41564300D01*
X66220600Y41564300D02*
X69215000Y41564300D01*
X16179700Y57150000D02*
X11430000Y61899700D01*
X47625000Y57150000D02*
X16179700Y57150000D01*
X16179700Y57150000D02*
X10166000Y51136300D01*
X10166000Y51136300D02*
X10166000Y46044300D01*
X10166000Y46044300D02*
X11430000Y44780300D01*
X11430000Y43180000D02*
X11430000Y44780300D01*
X11430000Y63500000D02*
X11430000Y61899700D01*
X52705000Y57480300D02*
X47955300Y57480300D01*
X47955300Y57480300D02*
X47625000Y57150000D01*
X62865000Y42379900D02*
X65405000Y42379900D01*
X65405000Y43180000D02*
X65405000Y42379900D01*
X62865000Y42379900D02*
X62865000Y41579700D01*
X62865000Y43180000D02*
X62865000Y42379900D01*
X60325000Y43180000D02*
X60325000Y41579700D01*
X60325000Y41579700D02*
X62865000Y41579700D01*
X11430000Y83820000D02*
X11430000Y85420300D01*
X17780000Y94500000D02*
X17780000Y89099700D01*
X17780000Y89099700D02*
X14100600Y85420300D01*
X14100600Y85420300D02*
X11430000Y85420300D01*
X52705000Y43180000D02*
X52705000Y41579700D01*
X52705000Y41579700D02*
X52374700Y41579700D01*
X52374700Y41579700D02*
X47625000Y36830000D01*
X52705000Y55880000D02*
X52705000Y57480300D01*
D18*
X38100000Y94500000D02*
X38100000Y89199700D01*
X21590000Y68580000D02*
X21590000Y70080300D01*
X21590000Y70080300D02*
X22527700Y70080300D01*
X22527700Y70080300D02*
X35418400Y82971000D01*
X35418400Y82971000D02*
X35418400Y86518100D01*
X35418400Y86518100D02*
X38100000Y89199700D01*
X21590000Y27940000D02*
X21590000Y29440300D01*
X21590000Y48260000D02*
X21590000Y46759700D01*
X21590000Y46759700D02*
X20478800Y45648500D01*
X20478800Y45648500D02*
X20478800Y30551500D01*
X20478800Y30551500D02*
X21590000Y29440300D01*
X19050000Y7620000D02*
X19050000Y9120300D01*
X19050000Y27940000D02*
X19050000Y26439700D01*
X19050000Y26439700D02*
X20161100Y25328600D01*
X20161100Y25328600D02*
X20161100Y10231400D01*
X20161100Y10231400D02*
X19050000Y9120300D01*
X35560000Y94500000D02*
X35560000Y89199700D01*
X19050000Y68580000D02*
X19050000Y70080300D01*
X19050000Y70080300D02*
X19987700Y70080300D01*
X19987700Y70080300D02*
X33066100Y83158700D01*
X33066100Y83158700D02*
X33066100Y86705800D01*
X33066100Y86705800D02*
X35560000Y89199700D01*
X16510000Y68580000D02*
X16510000Y70080300D01*
X16510000Y70080300D02*
X17447700Y70080300D01*
X17447700Y70080300D02*
X30480000Y83112600D01*
X30480000Y83112600D02*
X30480000Y84686000D01*
X30480000Y84686000D02*
X33020000Y87226000D01*
X33020000Y87226000D02*
X33020000Y94500000D01*
X30480000Y94500000D02*
X30480000Y89199700D01*
X13970000Y68580000D02*
X13970000Y70080300D01*
X13970000Y70080300D02*
X14907700Y70080300D01*
X14907700Y70080300D02*
X27798400Y82971000D01*
X27798400Y82971000D02*
X27798400Y86518100D01*
X27798400Y86518100D02*
X30480000Y89199700D01*
X11430000Y27940000D02*
X11430000Y29440300D01*
X11430000Y48260000D02*
X11430000Y46759700D01*
X11430000Y46759700D02*
X12541100Y45648600D01*
X12541100Y45648600D02*
X12541100Y30551400D01*
X12541100Y30551400D02*
X11430000Y29440300D01*
X11430000Y7620000D02*
X11430000Y9120300D01*
X11430000Y27940000D02*
X11430000Y26439700D01*
X11430000Y26439700D02*
X12541100Y25328600D01*
X12541100Y25328600D02*
X12541100Y10231400D01*
X12541100Y10231400D02*
X11430000Y9120300D01*
X27940000Y94500000D02*
X27940000Y89199700D01*
X11430000Y68580000D02*
X11430000Y70080300D01*
X11430000Y70080300D02*
X12367700Y70080300D01*
X12367700Y70080300D02*
X25258400Y82971000D01*
X25258400Y82971000D02*
X25258400Y86518100D01*
X25258400Y86518100D02*
X27940000Y89199700D01*
X25400000Y94500000D02*
X25400000Y89199700D01*
X13970000Y83820000D02*
X13970000Y82319700D01*
X13970000Y82319700D02*
X14383900Y81905800D01*
X14383900Y81905800D02*
X21634700Y81905800D01*
X21634700Y81905800D02*
X22718400Y82989500D01*
X22718400Y82989500D02*
X22718400Y86518100D01*
X22718400Y86518100D02*
X25400000Y89199700D01*
X16510000Y22860000D02*
X16510000Y24360300D01*
X16510000Y43180000D02*
X16510000Y41679700D01*
X16510000Y41679700D02*
X15398800Y40568500D01*
X15398800Y40568500D02*
X15398800Y25471500D01*
X15398800Y25471500D02*
X16510000Y24360300D01*
X22860000Y94500000D02*
X22860000Y89199700D01*
X16510000Y83820000D02*
X16510000Y82319700D01*
X16510000Y82319700D02*
X19513200Y82319700D01*
X19513200Y82319700D02*
X20178400Y82984900D01*
X20178400Y82984900D02*
X20178400Y86518100D01*
X20178400Y86518100D02*
X22860000Y89199700D01*
X20320000Y94500000D02*
X20320000Y89199700D01*
X19050000Y83820000D02*
X19050000Y87929700D01*
X19050000Y87929700D02*
X20320000Y89199700D01*
X19050000Y22860000D02*
X19050000Y24360300D01*
X19050000Y43180000D02*
X19050000Y41679700D01*
X19050000Y41679700D02*
X17900100Y40529800D01*
X17900100Y40529800D02*
X17900100Y25510200D01*
X17900100Y25510200D02*
X19050000Y24360300D01*
X39370000Y83820000D02*
X39370000Y86892000D01*
X39370000Y86892000D02*
X39970000Y87492000D01*
X48260000Y89199700D02*
X51946300Y89199700D01*
X51946300Y89199700D02*
X56345400Y84800600D01*
X56345400Y84800600D02*
X56345400Y82870100D01*
X56345400Y82870100D02*
X56187000Y82711700D01*
X56187000Y82711700D02*
X55078100Y82711700D01*
X55078100Y82711700D02*
X53350300Y80983900D01*
X53350300Y80983900D02*
X53350300Y79116700D01*
X53350300Y79116700D02*
X44714200Y70480600D01*
X44714200Y70480600D02*
X39770300Y70480600D01*
X39770300Y70480600D02*
X39370000Y70080300D01*
X48260000Y94500000D02*
X48260000Y89199700D01*
X39370000Y68580000D02*
X39370000Y70080300D01*
X31750000Y70080300D02*
X42507600Y80837900D01*
X42507600Y80837900D02*
X45457800Y80837900D01*
X31750000Y68580000D02*
X31750000Y70080300D01*
X26670000Y68580000D02*
X26670000Y70080300D01*
X26670000Y70080300D02*
X38015300Y81425600D01*
X38015300Y81425600D02*
X46365200Y81425600D01*
X46365200Y81425600D02*
X48379500Y83439900D01*
X26670000Y27940000D02*
X26670000Y29440300D01*
X26670000Y48260000D02*
X26670000Y46759700D01*
X26670000Y46759700D02*
X27781100Y45648600D01*
X27781100Y45648600D02*
X27781100Y30551400D01*
X27781100Y30551400D02*
X26670000Y29440300D01*
X34290000Y68580000D02*
X34290000Y70080300D01*
X34290000Y70080300D02*
X34602000Y70080300D01*
X34602000Y70080300D02*
X41407700Y76886000D01*
X29210000Y68580000D02*
X29210000Y67079700D01*
X60325000Y48260000D02*
X60325000Y49760300D01*
X60325000Y49760300D02*
X59387300Y49760300D01*
X59387300Y49760300D02*
X53914200Y55233400D01*
X53914200Y55233400D02*
X53914200Y56995200D01*
X53914200Y56995200D02*
X44896400Y66013000D01*
X44896400Y66013000D02*
X30276700Y66013000D01*
X30276700Y66013000D02*
X29210000Y67079700D01*
X24130000Y65000300D02*
X23029400Y66100900D01*
X23029400Y66100900D02*
X23029400Y69436400D01*
X23029400Y69436400D02*
X35653900Y82060900D01*
X35653900Y82060900D02*
X39572800Y82060900D01*
X39572800Y82060900D02*
X40640000Y83128100D01*
X40640000Y83128100D02*
X40640000Y84739000D01*
X40640000Y84739000D02*
X42875800Y86974800D01*
X45720000Y89199700D02*
X45100700Y89199700D01*
X45100700Y89199700D02*
X44737100Y88836100D01*
X24130000Y63500000D02*
X24130000Y65000300D01*
X45720000Y94500000D02*
X45720000Y89199700D01*
X24130000Y24360300D02*
X23028500Y25461800D01*
X23028500Y25461800D02*
X23028500Y40578200D01*
X23028500Y40578200D02*
X24130000Y41679700D01*
X24130000Y22860000D02*
X24130000Y24360300D01*
X24130000Y43180000D02*
X24130000Y41679700D01*
X53340000Y94500000D02*
X53340000Y89199700D01*
X53895000Y88692000D02*
X53387300Y89199700D01*
X53387300Y89199700D02*
X53340000Y89199700D01*
X24130000Y68580000D02*
X24130000Y67079700D01*
X24130000Y67079700D02*
X27168600Y67079700D01*
X27168600Y67079700D02*
X27940000Y67851100D01*
X27940000Y67851100D02*
X27940000Y69273600D01*
X27940000Y69273600D02*
X28790400Y70124000D01*
X28790400Y70124000D02*
X29683900Y70124000D01*
X29683900Y70124000D02*
X30480000Y69327900D01*
X30480000Y69327900D02*
X30480000Y67878700D01*
X30480000Y67878700D02*
X31312300Y67046400D01*
X31312300Y67046400D02*
X39824400Y67046400D01*
X39824400Y67046400D02*
X40640000Y67862000D01*
X40640000Y67862000D02*
X40640000Y69291800D01*
X40640000Y69291800D02*
X41428500Y70080300D01*
X41428500Y70080300D02*
X45620100Y70080300D01*
X45620100Y70080300D02*
X60960000Y85420200D01*
X60960000Y85420200D02*
X60960000Y94500000D01*
X24130000Y7620000D02*
X24130000Y9120300D01*
X24130000Y27940000D02*
X24130000Y26439700D01*
X24130000Y26439700D02*
X25241100Y25328600D01*
X25241100Y25328600D02*
X25241100Y10231400D01*
X25241100Y10231400D02*
X24130000Y9120300D01*
X41910000Y7620000D02*
X41910000Y6119700D01*
X63500000Y7620000D02*
X62399700Y7620000D01*
X62399700Y7620000D02*
X62399700Y7482500D01*
X62399700Y7482500D02*
X61036900Y6119700D01*
X61036900Y6119700D02*
X41910000Y6119700D01*
X60960000Y7620000D02*
X60960000Y8720300D01*
X64272400Y20457400D02*
X65405000Y21590000D01*
X44450000Y21359700D02*
X45352300Y20457400D01*
X45352300Y20457400D02*
X64272400Y20457400D01*
X60960000Y8720300D02*
X64600400Y12360700D01*
X64600400Y12360700D02*
X64600400Y20129400D01*
X64600400Y20129400D02*
X64272400Y20457400D01*
X44450000Y22860000D02*
X44450000Y21359700D01*
X29210000Y7620000D02*
X29210000Y9120300D01*
X62865000Y55880000D02*
X62865000Y54379700D01*
X62865000Y54379700D02*
X63802700Y54379700D01*
X63802700Y54379700D02*
X69060000Y49122400D01*
X69060000Y49122400D02*
X69060000Y47037000D01*
X69060000Y47037000D02*
X66827800Y44804800D01*
X66827800Y44804800D02*
X59991400Y44804800D01*
X59991400Y44804800D02*
X59055000Y43868400D01*
X59055000Y43868400D02*
X59055000Y42456900D01*
X59055000Y42456900D02*
X54415300Y37817200D01*
X54415300Y37817200D02*
X52974000Y37817200D01*
X52974000Y37817200D02*
X46073300Y30916500D01*
X46073300Y30916500D02*
X46073300Y27084100D01*
X46073300Y27084100D02*
X43321700Y24332500D01*
X43321700Y24332500D02*
X43321700Y22253900D01*
X43321700Y22253900D02*
X30188100Y9120300D01*
X30188100Y9120300D02*
X29210000Y9120300D01*
X29210000Y27940000D02*
X29210000Y29440300D01*
X44074900Y45703900D02*
X43321700Y44950700D01*
X43321700Y44950700D02*
X43321700Y42573900D01*
X43321700Y42573900D02*
X30188100Y29440300D01*
X30188100Y29440300D02*
X29210000Y29440300D01*
X29210000Y48260000D02*
X29210000Y49760300D01*
X52705000Y48260000D02*
X52705000Y49760300D01*
X52705000Y49760300D02*
X29210000Y49760300D01*
D19*
X16890000Y88861928D02*
X17494250Y88865000D01*
X17502250Y88873000D01*
X18057750Y88873000D01*
X18065750Y88865000D01*
X18670000Y88861928D01*
X18782420Y88873000D01*
X18953854Y88873000D01*
X18555808Y88474954D01*
X18527763Y88451938D01*
X18435914Y88340020D01*
X18401843Y88276277D01*
X18367664Y88212333D01*
X18325635Y88073785D01*
X18311444Y87929700D01*
X18315001Y87893585D01*
X18315000Y85454263D01*
X18248900Y85418932D01*
X18030393Y85239608D01*
X17851068Y85021101D01*
X17780000Y84888142D01*
X17708932Y85021101D01*
X17529608Y85239608D01*
X17311101Y85418932D01*
X17061808Y85552182D01*
X16791309Y85634236D01*
X16510000Y85661943D01*
X16228692Y85634236D01*
X15958193Y85552182D01*
X15708900Y85418932D01*
X15490393Y85239608D01*
X15311068Y85021101D01*
X15240000Y84888142D01*
X15168932Y85021101D01*
X14989608Y85239608D01*
X14771101Y85418932D01*
X14521808Y85552182D01*
X14251309Y85634236D01*
X13970000Y85661943D01*
X13688692Y85634236D01*
X13418193Y85552182D01*
X13168900Y85418932D01*
X12950393Y85239608D01*
X12771068Y85021101D01*
X12702735Y84893259D01*
X12552601Y85122839D01*
X12354895Y85324500D01*
X12121646Y85483715D01*
X11861818Y85594367D01*
X11779039Y85611904D01*
X11557000Y85489915D01*
X11557000Y83947000D01*
X11577000Y83947000D01*
X11577000Y83693000D01*
X11557000Y83693000D01*
X11557000Y82150085D01*
X11779039Y82028096D01*
X11861818Y82045633D01*
X12121646Y82156285D01*
X12354895Y82315500D01*
X12552601Y82517161D01*
X12702735Y82746742D01*
X12771068Y82618900D01*
X12950392Y82400393D01*
X13168899Y82221068D01*
X13245174Y82180298D01*
X13245635Y82175615D01*
X13286869Y82039687D01*
X13287664Y82037067D01*
X13355914Y81909380D01*
X13447763Y81797462D01*
X13475807Y81774447D01*
X13838641Y81411613D01*
X13861662Y81383562D01*
X13973580Y81291713D01*
X14101267Y81223463D01*
X14197786Y81194184D01*
X14239814Y81181435D01*
X14383900Y81167244D01*
X14420005Y81170800D01*
X21598595Y81170800D01*
X21634700Y81167244D01*
X21670805Y81170800D01*
X21778785Y81181435D01*
X21917333Y81223463D01*
X22045020Y81291713D01*
X22156938Y81383562D01*
X22179958Y81411612D01*
X23142439Y82374092D01*
X23328899Y82221068D01*
X23420213Y82172260D01*
X12063254Y70815300D01*
X11466105Y70815300D01*
X11430000Y70818856D01*
X11393895Y70815300D01*
X11285915Y70804665D01*
X11147367Y70762637D01*
X11019680Y70694387D01*
X10907762Y70602538D01*
X10815913Y70490620D01*
X10747663Y70362933D01*
X10705635Y70224385D01*
X10705174Y70219701D01*
X10628900Y70178932D01*
X10410393Y69999608D01*
X10231068Y69781101D01*
X10097818Y69531808D01*
X10015764Y69261309D01*
X9995000Y69050492D01*
X9995000Y68109509D01*
X10015764Y67898692D01*
X10097818Y67628193D01*
X10231068Y67378900D01*
X10410392Y67160393D01*
X10628899Y66981068D01*
X10878192Y66847818D01*
X11148691Y66765764D01*
X11430000Y66738057D01*
X11711308Y66765764D01*
X11981807Y66847818D01*
X12231100Y66981068D01*
X12449607Y67160392D01*
X12628932Y67378899D01*
X12700000Y67511858D01*
X12771068Y67378900D01*
X12950392Y67160393D01*
X13168899Y66981068D01*
X13418192Y66847818D01*
X13688691Y66765764D01*
X13970000Y66738057D01*
X14251308Y66765764D01*
X14521807Y66847818D01*
X14771100Y66981068D01*
X14989607Y67160392D01*
X15168932Y67378899D01*
X15240000Y67511858D01*
X15311068Y67378900D01*
X15490392Y67160393D01*
X15708899Y66981068D01*
X15958192Y66847818D01*
X16228691Y66765764D01*
X16510000Y66738057D01*
X16791308Y66765764D01*
X17061807Y66847818D01*
X17311100Y66981068D01*
X17529607Y67160392D01*
X17708932Y67378899D01*
X17780000Y67511858D01*
X17851068Y67378900D01*
X18030392Y67160393D01*
X18248899Y66981068D01*
X18498192Y66847818D01*
X18768691Y66765764D01*
X19050000Y66738057D01*
X19331308Y66765764D01*
X19601807Y66847818D01*
X19851100Y66981068D01*
X20069607Y67160392D01*
X20248932Y67378899D01*
X20320000Y67511858D01*
X20391068Y67378900D01*
X20570392Y67160393D01*
X20788899Y66981068D01*
X21038192Y66847818D01*
X21308691Y66765764D01*
X21590000Y66738057D01*
X21871308Y66765764D01*
X22141807Y66847818D01*
X22294400Y66929381D01*
X22294400Y66137005D01*
X22290844Y66100900D01*
X22294400Y66064796D01*
X22305035Y65956816D01*
X22347063Y65818268D01*
X22415313Y65690581D01*
X22507162Y65578663D01*
X22535208Y65555646D01*
X23143816Y64947037D01*
X23110393Y64919608D01*
X22931068Y64701101D01*
X22860000Y64568142D01*
X22788932Y64701101D01*
X22609608Y64919608D01*
X22391101Y65098932D01*
X22141808Y65232182D01*
X21871309Y65314236D01*
X21590000Y65341943D01*
X21308692Y65314236D01*
X21038193Y65232182D01*
X20788900Y65098932D01*
X20570393Y64919608D01*
X20391068Y64701101D01*
X20320000Y64568142D01*
X20248932Y64701101D01*
X20069608Y64919608D01*
X19851101Y65098932D01*
X19601808Y65232182D01*
X19331309Y65314236D01*
X19050000Y65341943D01*
X18768692Y65314236D01*
X18498193Y65232182D01*
X18248900Y65098932D01*
X18030393Y64919608D01*
X17851068Y64701101D01*
X17780000Y64568142D01*
X17708932Y64701101D01*
X17529608Y64919608D01*
X17311101Y65098932D01*
X17061808Y65232182D01*
X16791309Y65314236D01*
X16510000Y65341943D01*
X16228692Y65314236D01*
X15958193Y65232182D01*
X15708900Y65098932D01*
X15490393Y64919608D01*
X15311068Y64701101D01*
X15240000Y64568142D01*
X15168932Y64701101D01*
X14989608Y64919608D01*
X14771101Y65098932D01*
X14521808Y65232182D01*
X14251309Y65314236D01*
X13970000Y65341943D01*
X13688692Y65314236D01*
X13418193Y65232182D01*
X13168900Y65098932D01*
X12950393Y64919608D01*
X12771068Y64701101D01*
X12702735Y64573259D01*
X12552601Y64802839D01*
X12354895Y65004500D01*
X12121646Y65163715D01*
X11861818Y65274367D01*
X11779039Y65291904D01*
X11557000Y65169915D01*
X11557000Y63627000D01*
X11577000Y63627000D01*
X11577000Y63373000D01*
X11557000Y63373000D01*
X11557000Y61830085D01*
X11779039Y61708096D01*
X11861818Y61725633D01*
X12121646Y61836285D01*
X12354895Y61995500D01*
X12552601Y62197161D01*
X12702735Y62426742D01*
X12771068Y62298900D01*
X12950392Y62080393D01*
X13168899Y61901068D01*
X13418192Y61767818D01*
X13688691Y61685764D01*
X13970000Y61658057D01*
X14251308Y61685764D01*
X14521807Y61767818D01*
X14771100Y61901068D01*
X14989607Y62080392D01*
X15168932Y62298899D01*
X15240000Y62431858D01*
X15311068Y62298900D01*
X15490392Y62080393D01*
X15708899Y61901068D01*
X15958192Y61767818D01*
X16228691Y61685764D01*
X16510000Y61658057D01*
X16791308Y61685764D01*
X17061807Y61767818D01*
X17311100Y61901068D01*
X17529607Y62080392D01*
X17708932Y62298899D01*
X17780000Y62431858D01*
X17851068Y62298900D01*
X18030392Y62080393D01*
X18248899Y61901068D01*
X18498192Y61767818D01*
X18768691Y61685764D01*
X19050000Y61658057D01*
X19331308Y61685764D01*
X19601807Y61767818D01*
X19851100Y61901068D01*
X20069607Y62080392D01*
X20248932Y62298899D01*
X20320000Y62431858D01*
X20391068Y62298900D01*
X20570392Y62080393D01*
X20788899Y61901068D01*
X21038192Y61767818D01*
X21308691Y61685764D01*
X21590000Y61658057D01*
X21871308Y61685764D01*
X22141807Y61767818D01*
X22391100Y61901068D01*
X22609607Y62080392D01*
X22788932Y62298899D01*
X22860000Y62431858D01*
X22931068Y62298900D01*
X23110392Y62080393D01*
X23328899Y61901068D01*
X23578192Y61767818D01*
X23848691Y61685764D01*
X24130000Y61658057D01*
X24411308Y61685764D01*
X24681807Y61767818D01*
X24931100Y61901068D01*
X25149607Y62080392D01*
X25328932Y62298899D01*
X25400000Y62431858D01*
X25471068Y62298900D01*
X25650392Y62080393D01*
X25868899Y61901068D01*
X26118192Y61767818D01*
X26388691Y61685764D01*
X26670000Y61658057D01*
X26951308Y61685764D01*
X27221807Y61767818D01*
X27471100Y61901068D01*
X27689607Y62080392D01*
X27868932Y62298899D01*
X27940000Y62431858D01*
X28011068Y62298900D01*
X28190392Y62080393D01*
X28408899Y61901068D01*
X28658192Y61767818D01*
X28928691Y61685764D01*
X29210000Y61658057D01*
X29491308Y61685764D01*
X29761807Y61767818D01*
X30011100Y61901068D01*
X30229607Y62080392D01*
X30408932Y62298899D01*
X30480000Y62431858D01*
X30551068Y62298900D01*
X30730392Y62080393D01*
X30948899Y61901068D01*
X31198192Y61767818D01*
X31468691Y61685764D01*
X31750000Y61658057D01*
X32031308Y61685764D01*
X32301807Y61767818D01*
X32551100Y61901068D01*
X32769607Y62080392D01*
X32948932Y62298899D01*
X33020000Y62431858D01*
X33091068Y62298900D01*
X33270392Y62080393D01*
X33488899Y61901068D01*
X33738192Y61767818D01*
X34008691Y61685764D01*
X34290000Y61658057D01*
X34571308Y61685764D01*
X34841807Y61767818D01*
X35091100Y61901068D01*
X35309607Y62080392D01*
X35488932Y62298899D01*
X35560000Y62431858D01*
X35631068Y62298900D01*
X35810392Y62080393D01*
X36028899Y61901068D01*
X36278192Y61767818D01*
X36548691Y61685764D01*
X36830000Y61658057D01*
X37111308Y61685764D01*
X37381807Y61767818D01*
X37631100Y61901068D01*
X37849607Y62080392D01*
X38028932Y62298899D01*
X38100000Y62431858D01*
X38171068Y62298900D01*
X38350392Y62080393D01*
X38568899Y61901068D01*
X38818192Y61767818D01*
X39088691Y61685764D01*
X39370000Y61658057D01*
X39651308Y61685764D01*
X39921807Y61767818D01*
X40171100Y61901068D01*
X40389607Y62080392D01*
X40568932Y62298899D01*
X40640000Y62431858D01*
X40711068Y62298900D01*
X40890392Y62080393D01*
X41108899Y61901068D01*
X41358192Y61767818D01*
X41628691Y61685764D01*
X41910000Y61658057D01*
X42191308Y61685764D01*
X42461807Y61767818D01*
X42711100Y61901068D01*
X42929607Y62080392D01*
X43022419Y62193483D01*
X43024188Y62175518D01*
X43060498Y62055820D01*
X43119463Y61945506D01*
X43198815Y61848815D01*
X43295506Y61769463D01*
X43405820Y61710498D01*
X43525518Y61674188D01*
X43650000Y61661928D01*
X45250000Y61661928D01*
X45374482Y61674188D01*
X45494180Y61710498D01*
X45604494Y61769463D01*
X45701185Y61848815D01*
X45780537Y61945506D01*
X45839502Y62055820D01*
X45875812Y62175518D01*
X45888072Y62300000D01*
X45888072Y63981882D01*
X52232788Y57637165D01*
X52013354Y57543715D01*
X51780105Y57384500D01*
X51582399Y57182839D01*
X51427834Y56946483D01*
X51322350Y56684514D01*
X51270000Y56407000D01*
X51270000Y56007000D01*
X52578000Y56007000D01*
X52578000Y56027000D01*
X52832000Y56027000D01*
X52832000Y56007000D01*
X52852000Y56007000D01*
X52852000Y55753000D01*
X52832000Y55753000D01*
X52832000Y54210085D01*
X53054039Y54088096D01*
X53136818Y54105633D01*
X53396646Y54216285D01*
X53629895Y54375500D01*
X53680766Y54427388D01*
X58030378Y50077775D01*
X57785000Y50101943D01*
X57503692Y50074236D01*
X57233193Y49992182D01*
X56983900Y49858932D01*
X56765393Y49679608D01*
X56586068Y49461101D01*
X56515000Y49328142D01*
X56443932Y49461101D01*
X56264608Y49679608D01*
X56046101Y49858932D01*
X55796808Y49992182D01*
X55526309Y50074236D01*
X55245000Y50101943D01*
X54963692Y50074236D01*
X54693193Y49992182D01*
X54443900Y49858932D01*
X54225393Y49679608D01*
X54046068Y49461101D01*
X53975000Y49328142D01*
X53903932Y49461101D01*
X53724608Y49679608D01*
X53506101Y49858932D01*
X53429826Y49899702D01*
X53429365Y49904385D01*
X53387337Y50042933D01*
X53319087Y50170620D01*
X53227238Y50282538D01*
X53115320Y50374387D01*
X52987633Y50442637D01*
X52849085Y50484665D01*
X52741105Y50495300D01*
X52705000Y50498856D01*
X52668895Y50495300D01*
X29246105Y50495300D01*
X29210000Y50498856D01*
X29173895Y50495300D01*
X29065915Y50484665D01*
X28927367Y50442637D01*
X28799680Y50374387D01*
X28687762Y50282538D01*
X28595913Y50170620D01*
X28527663Y50042933D01*
X28485635Y49904385D01*
X28485174Y49899701D01*
X28408900Y49858932D01*
X28190393Y49679608D01*
X28011068Y49461101D01*
X27940000Y49328142D01*
X27868932Y49461101D01*
X27689608Y49679608D01*
X27471101Y49858932D01*
X27221808Y49992182D01*
X26951309Y50074236D01*
X26670000Y50101943D01*
X26388692Y50074236D01*
X26118193Y49992182D01*
X25868900Y49858932D01*
X25650393Y49679608D01*
X25471068Y49461101D01*
X25400000Y49328142D01*
X25328932Y49461101D01*
X25149608Y49679608D01*
X24931101Y49858932D01*
X24681808Y49992182D01*
X24411309Y50074236D01*
X24130000Y50101943D01*
X23848692Y50074236D01*
X23578193Y49992182D01*
X23328900Y49858932D01*
X23110393Y49679608D01*
X22931068Y49461101D01*
X22860000Y49328142D01*
X22788932Y49461101D01*
X22609608Y49679608D01*
X22391101Y49858932D01*
X22141808Y49992182D01*
X21871309Y50074236D01*
X21590000Y50101943D01*
X21308692Y50074236D01*
X21038193Y49992182D01*
X20788900Y49858932D01*
X20570393Y49679608D01*
X20391068Y49461101D01*
X20320000Y49328142D01*
X20248932Y49461101D01*
X20069608Y49679608D01*
X19851101Y49858932D01*
X19601808Y49992182D01*
X19331309Y50074236D01*
X19050000Y50101943D01*
X18768692Y50074236D01*
X18498193Y49992182D01*
X18248900Y49858932D01*
X18030393Y49679608D01*
X17851068Y49461101D01*
X17780000Y49328142D01*
X17708932Y49461101D01*
X17529608Y49679608D01*
X17311101Y49858932D01*
X17061808Y49992182D01*
X16791309Y50074236D01*
X16510000Y50101943D01*
X16228692Y50074236D01*
X15958193Y49992182D01*
X15708900Y49858932D01*
X15490393Y49679608D01*
X15311068Y49461101D01*
X15240000Y49328142D01*
X15168932Y49461101D01*
X14989608Y49679608D01*
X14771101Y49858932D01*
X14521808Y49992182D01*
X14251309Y50074236D01*
X13970000Y50101943D01*
X13688692Y50074236D01*
X13418193Y49992182D01*
X13168900Y49858932D01*
X12950393Y49679608D01*
X12771068Y49461101D01*
X12700000Y49328142D01*
X12628932Y49461101D01*
X12449608Y49679608D01*
X12231101Y49858932D01*
X11981808Y49992182D01*
X11711309Y50074236D01*
X11430000Y50101943D01*
X11148692Y50074236D01*
X10878193Y49992182D01*
X10628900Y49858932D01*
X10410393Y49679608D01*
X10231068Y49461101D01*
X10097818Y49211808D01*
X10015764Y48941309D01*
X9995000Y48730492D01*
X9995000Y47789509D01*
X10015764Y47578692D01*
X10097818Y47308193D01*
X10231068Y47058900D01*
X10410392Y46840393D01*
X10628899Y46661068D01*
X10705174Y46620298D01*
X10705635Y46615615D01*
X10727722Y46542806D01*
X10747664Y46477067D01*
X10815914Y46349380D01*
X10907763Y46237462D01*
X10935808Y46214446D01*
X11806100Y45344153D01*
X11806100Y44966171D01*
X11779039Y44971904D01*
X11557000Y44849915D01*
X11557000Y43307000D01*
X11577000Y43307000D01*
X11577000Y43053000D01*
X11557000Y43053000D01*
X11557000Y41510085D01*
X11779039Y41388096D01*
X11806100Y41393829D01*
X11806101Y30855848D01*
X10935808Y29985554D01*
X10907763Y29962538D01*
X10815914Y29850620D01*
X10764396Y29754236D01*
X10747664Y29722933D01*
X10705635Y29584385D01*
X10705174Y29579701D01*
X10628900Y29538932D01*
X10410393Y29359608D01*
X10231068Y29141101D01*
X10097818Y28891808D01*
X10015764Y28621309D01*
X9995000Y28410492D01*
X9995000Y27469509D01*
X10015764Y27258692D01*
X10097818Y26988193D01*
X10231068Y26738900D01*
X10410392Y26520393D01*
X10628899Y26341068D01*
X10705174Y26300298D01*
X10705635Y26295615D01*
X10738837Y26186165D01*
X10747664Y26157067D01*
X10815914Y26029380D01*
X10907763Y25917462D01*
X10935808Y25894446D01*
X11806100Y25024153D01*
X11806100Y24646171D01*
X11779039Y24651904D01*
X11557000Y24529915D01*
X11557000Y22987000D01*
X11577000Y22987000D01*
X11577000Y22733000D01*
X11557000Y22733000D01*
X11557000Y21190085D01*
X11779039Y21068096D01*
X11806100Y21073829D01*
X11806101Y10535848D01*
X10935808Y9665554D01*
X10907763Y9642538D01*
X10815914Y9530620D01*
X10769970Y9444665D01*
X10747664Y9402933D01*
X10705635Y9264385D01*
X10705174Y9259701D01*
X10628900Y9218932D01*
X10410393Y9039608D01*
X10231068Y8821101D01*
X10097818Y8571808D01*
X10015764Y8301309D01*
X9995000Y8090492D01*
X9995000Y7149509D01*
X10015764Y6938692D01*
X10097818Y6668193D01*
X10231068Y6418900D01*
X10410392Y6200393D01*
X10628899Y6021068D01*
X10878192Y5887818D01*
X11148691Y5805764D01*
X11430000Y5778057D01*
X11711308Y5805764D01*
X11981807Y5887818D01*
X12231100Y6021068D01*
X12449607Y6200392D01*
X12628932Y6418899D01*
X12700000Y6551858D01*
X12771068Y6418900D01*
X12950392Y6200393D01*
X13168899Y6021068D01*
X13418192Y5887818D01*
X13688691Y5805764D01*
X13970000Y5778057D01*
X14251308Y5805764D01*
X14521807Y5887818D01*
X14771100Y6021068D01*
X14989607Y6200392D01*
X15168932Y6418899D01*
X15240000Y6551858D01*
X15311068Y6418900D01*
X15490392Y6200393D01*
X15708899Y6021068D01*
X15958192Y5887818D01*
X16228691Y5805764D01*
X16510000Y5778057D01*
X16791308Y5805764D01*
X17061807Y5887818D01*
X17311100Y6021068D01*
X17529607Y6200392D01*
X17708932Y6418899D01*
X17780000Y6551858D01*
X17851068Y6418900D01*
X18030392Y6200393D01*
X18248899Y6021068D01*
X18498192Y5887818D01*
X18768691Y5805764D01*
X19050000Y5778057D01*
X19331308Y5805764D01*
X19601807Y5887818D01*
X19851100Y6021068D01*
X20069607Y6200392D01*
X20248932Y6418899D01*
X20320000Y6551858D01*
X20391068Y6418900D01*
X20570392Y6200393D01*
X20788899Y6021068D01*
X21038192Y5887818D01*
X21308691Y5805764D01*
X21590000Y5778057D01*
X21871308Y5805764D01*
X22141807Y5887818D01*
X22391100Y6021068D01*
X22609607Y6200392D01*
X22788932Y6418899D01*
X22860000Y6551858D01*
X22931068Y6418900D01*
X23110392Y6200393D01*
X23328899Y6021068D01*
X23578192Y5887818D01*
X23848691Y5805764D01*
X24130000Y5778057D01*
X24411308Y5805764D01*
X24681807Y5887818D01*
X24931100Y6021068D01*
X25149607Y6200392D01*
X25328932Y6418899D01*
X25400000Y6551858D01*
X25471068Y6418900D01*
X25650392Y6200393D01*
X25868899Y6021068D01*
X26118192Y5887818D01*
X26388691Y5805764D01*
X26670000Y5778057D01*
X26951308Y5805764D01*
X27221807Y5887818D01*
X27471100Y6021068D01*
X27689607Y6200392D01*
X27868932Y6418899D01*
X27940000Y6551858D01*
X28011068Y6418900D01*
X28190392Y6200393D01*
X28408899Y6021068D01*
X28658192Y5887818D01*
X28928691Y5805764D01*
X29210000Y5778057D01*
X29491308Y5805764D01*
X29761807Y5887818D01*
X30011100Y6021068D01*
X30229607Y6200392D01*
X30408932Y6418899D01*
X30480000Y6551858D01*
X30551068Y6418900D01*
X30730392Y6200393D01*
X30948899Y6021068D01*
X31198192Y5887818D01*
X31468691Y5805764D01*
X31750000Y5778057D01*
X32031308Y5805764D01*
X32301807Y5887818D01*
X32551100Y6021068D01*
X32769607Y6200392D01*
X32948932Y6418899D01*
X33020000Y6551858D01*
X33091068Y6418900D01*
X33270392Y6200393D01*
X33488899Y6021068D01*
X33738192Y5887818D01*
X34008691Y5805764D01*
X34290000Y5778057D01*
X34571308Y5805764D01*
X34841807Y5887818D01*
X35091100Y6021068D01*
X35309607Y6200392D01*
X35488932Y6418899D01*
X35560000Y6551858D01*
X35631068Y6418900D01*
X35810392Y6200393D01*
X36028899Y6021068D01*
X36278192Y5887818D01*
X36548691Y5805764D01*
X36830000Y5778057D01*
X37111308Y5805764D01*
X37381807Y5887818D01*
X37631100Y6021068D01*
X37849607Y6200392D01*
X38028932Y6418899D01*
X38100000Y6551858D01*
X38171068Y6418900D01*
X38350392Y6200393D01*
X38568899Y6021068D01*
X38818192Y5887818D01*
X39088691Y5805764D01*
X39370000Y5778057D01*
X39651308Y5805764D01*
X39921807Y5887818D01*
X40171100Y6021068D01*
X40389607Y6200392D01*
X40568932Y6418899D01*
X40640000Y6551858D01*
X40711068Y6418900D01*
X40890392Y6200393D01*
X41108899Y6021068D01*
X41185174Y5980298D01*
X41185635Y5975615D01*
X41227663Y5837067D01*
X41295913Y5709380D01*
X41387762Y5597462D01*
X41499680Y5505613D01*
X41627367Y5437363D01*
X41765915Y5395335D01*
X41873895Y5384700D01*
X41910000Y5381144D01*
X41946105Y5384700D01*
X61000795Y5384700D01*
X61036900Y5381144D01*
X61073005Y5384700D01*
X61180985Y5395335D01*
X61319533Y5437363D01*
X61447220Y5505613D01*
X61559138Y5597462D01*
X61582158Y5625512D01*
X62523625Y6566979D01*
X62585241Y6505363D01*
X62820273Y6348320D01*
X63081426Y6240147D01*
X63358665Y6185000D01*
X63641335Y6185000D01*
X63918574Y6240147D01*
X64179727Y6348320D01*
X64414759Y6505363D01*
X64614637Y6705241D01*
X64771680Y6940273D01*
X64879853Y7201426D01*
X64935000Y7478665D01*
X64935000Y7761335D01*
X64879853Y8038574D01*
X64771680Y8299727D01*
X64614637Y8534759D01*
X64414759Y8734637D01*
X64179727Y8891680D01*
X63918574Y8999853D01*
X63641335Y9055000D01*
X63358665Y9055000D01*
X63081426Y8999853D01*
X62820273Y8891680D01*
X62585241Y8734637D01*
X62385363Y8534759D01*
X62258324Y8344632D01*
X62255615Y8344365D01*
X62210914Y8330805D01*
X62074637Y8534759D01*
X61944271Y8665125D01*
X65094597Y11815450D01*
X65122637Y11838462D01*
X65145650Y11866503D01*
X65145653Y11866506D01*
X65170517Y11896803D01*
X65214487Y11950380D01*
X65282737Y12078067D01*
X65324765Y12216615D01*
X65335400Y12324595D01*
X65335400Y12324596D01*
X65338956Y12360699D01*
X65335400Y12396804D01*
X65335400Y20093296D01*
X65338956Y20129401D01*
X65336435Y20155000D01*
X65546335Y20155000D01*
X65823574Y20210147D01*
X66084727Y20318320D01*
X66319759Y20475363D01*
X66519637Y20675241D01*
X66676680Y20910273D01*
X66784853Y21171426D01*
X66840000Y21448665D01*
X66840000Y21731335D01*
X69050000Y21731335D01*
X69050000Y21448665D01*
X69105147Y21171426D01*
X69213320Y20910273D01*
X69370363Y20675241D01*
X69570241Y20475363D01*
X69805273Y20318320D01*
X70066426Y20210147D01*
X70343665Y20155000D01*
X70626335Y20155000D01*
X70903574Y20210147D01*
X71164727Y20318320D01*
X71399759Y20475363D01*
X71599637Y20675241D01*
X71756680Y20910273D01*
X71864853Y21171426D01*
X71920000Y21448665D01*
X71920000Y21731335D01*
X71864853Y22008574D01*
X71756680Y22269727D01*
X71599637Y22504759D01*
X71399759Y22704637D01*
X71164727Y22861680D01*
X70903574Y22969853D01*
X70626335Y23025000D01*
X70343665Y23025000D01*
X70066426Y22969853D01*
X69805273Y22861680D01*
X69570241Y22704637D01*
X69370363Y22504759D01*
X69213320Y22269727D01*
X69105147Y22008574D01*
X69050000Y21731335D01*
X66840000Y21731335D01*
X66784853Y22008574D01*
X66676680Y22269727D01*
X66519637Y22504759D01*
X66319759Y22704637D01*
X66084727Y22861680D01*
X65823574Y22969853D01*
X65546335Y23025000D01*
X65263665Y23025000D01*
X64986426Y22969853D01*
X64725273Y22861680D01*
X64490241Y22704637D01*
X64290363Y22504759D01*
X64133320Y22269727D01*
X64025147Y22008574D01*
X63970000Y21731335D01*
X63970000Y21448665D01*
X64012178Y21236624D01*
X63967954Y21192400D01*
X61709025Y21192400D01*
X61760000Y21448665D01*
X61760000Y21731335D01*
X61704853Y22008574D01*
X61596680Y22269727D01*
X61439637Y22504759D01*
X61239759Y22704637D01*
X61004727Y22861680D01*
X60743574Y22969853D01*
X60466335Y23025000D01*
X60183665Y23025000D01*
X59906426Y22969853D01*
X59645273Y22861680D01*
X59410241Y22704637D01*
X59210363Y22504759D01*
X59053320Y22269727D01*
X58945147Y22008574D01*
X58890000Y21731335D01*
X58890000Y21448665D01*
X58940975Y21192400D01*
X56629025Y21192400D01*
X56680000Y21448665D01*
X56680000Y21731335D01*
X56624853Y22008574D01*
X56516680Y22269727D01*
X56359637Y22504759D01*
X56159759Y22704637D01*
X55924727Y22861680D01*
X55663574Y22969853D01*
X55386335Y23025000D01*
X55103665Y23025000D01*
X54826426Y22969853D01*
X54565273Y22861680D01*
X54330241Y22704637D01*
X54130363Y22504759D01*
X53973320Y22269727D01*
X53865147Y22008574D01*
X53810000Y21731335D01*
X53810000Y21448665D01*
X53860975Y21192400D01*
X45681183Y21192400D01*
X45701185Y21208815D01*
X45780537Y21305506D01*
X45839502Y21415820D01*
X45875812Y21535518D01*
X45888072Y21660000D01*
X45888072Y24060000D01*
X45875812Y24184482D01*
X45839502Y24304180D01*
X45780537Y24414494D01*
X45701185Y24511185D01*
X45604494Y24590537D01*
X45494180Y24649502D01*
X45374482Y24685812D01*
X45250000Y24698072D01*
X44726718Y24698072D01*
X46567493Y26538846D01*
X46595538Y26561862D01*
X46687387Y26673780D01*
X46755637Y26801467D01*
X46797665Y26940015D01*
X46808300Y27047995D01*
X46811856Y27084099D01*
X46808300Y27120204D01*
X46808300Y28860960D01*
X53853091Y28860960D01*
X53947930Y28596119D01*
X54092615Y28354869D01*
X54281586Y28146481D01*
X54507580Y27978963D01*
X54761913Y27858754D01*
X54895961Y27818096D01*
X55118000Y27940085D01*
X55118000Y29083000D01*
X55372000Y29083000D01*
X55372000Y27940085D01*
X55594039Y27818096D01*
X55728087Y27858754D01*
X55982420Y27978963D01*
X56208414Y28146481D01*
X56397385Y28354869D01*
X56542070Y28596119D01*
X56636909Y28860960D01*
X58933091Y28860960D01*
X59027930Y28596119D01*
X59172615Y28354869D01*
X59361586Y28146481D01*
X59587580Y27978963D01*
X59841913Y27858754D01*
X59975961Y27818096D01*
X60198000Y27940085D01*
X60198000Y29083000D01*
X60452000Y29083000D01*
X60452000Y27940085D01*
X60674039Y27818096D01*
X60808087Y27858754D01*
X61062420Y27978963D01*
X61288414Y28146481D01*
X61477385Y28354869D01*
X61622070Y28596119D01*
X61716909Y28860960D01*
X64013091Y28860960D01*
X64107930Y28596119D01*
X64252615Y28354869D01*
X64441586Y28146481D01*
X64667580Y27978963D01*
X64921913Y27858754D01*
X65055961Y27818096D01*
X65278000Y27940085D01*
X65278000Y29083000D01*
X65532000Y29083000D01*
X65532000Y27940085D01*
X65754039Y27818096D01*
X65888087Y27858754D01*
X66142420Y27978963D01*
X66368414Y28146481D01*
X66557385Y28354869D01*
X66702070Y28596119D01*
X66796909Y28860960D01*
X69093091Y28860960D01*
X69187930Y28596119D01*
X69332615Y28354869D01*
X69521586Y28146481D01*
X69747580Y27978963D01*
X70001913Y27858754D01*
X70135961Y27818096D01*
X70358000Y27940085D01*
X70358000Y29083000D01*
X70612000Y29083000D01*
X70612000Y27940085D01*
X70834039Y27818096D01*
X70968087Y27858754D01*
X71222420Y27978963D01*
X71448414Y28146481D01*
X71637385Y28354869D01*
X71782070Y28596119D01*
X71876909Y28860960D01*
X71755624Y29083000D01*
X70612000Y29083000D01*
X70358000Y29083000D01*
X69214376Y29083000D01*
X69093091Y28860960D01*
X66796909Y28860960D01*
X66675624Y29083000D01*
X65532000Y29083000D01*
X65278000Y29083000D01*
X64134376Y29083000D01*
X64013091Y28860960D01*
X61716909Y28860960D01*
X61595624Y29083000D01*
X60452000Y29083000D01*
X60198000Y29083000D01*
X59054376Y29083000D01*
X58933091Y28860960D01*
X56636909Y28860960D01*
X56515624Y29083000D01*
X55372000Y29083000D01*
X55118000Y29083000D01*
X53974376Y29083000D01*
X53853091Y28860960D01*
X46808300Y28860960D01*
X46808300Y29559040D01*
X53853091Y29559040D01*
X53974376Y29337000D01*
X55118000Y29337000D01*
X55118000Y30479915D01*
X55372000Y30479915D01*
X55372000Y29337000D01*
X56515624Y29337000D01*
X56636909Y29559040D01*
X58933091Y29559040D01*
X59054376Y29337000D01*
X60198000Y29337000D01*
X60198000Y30479915D01*
X60452000Y30479915D01*
X60452000Y29337000D01*
X61595624Y29337000D01*
X61716909Y29559040D01*
X64013091Y29559040D01*
X64134376Y29337000D01*
X65278000Y29337000D01*
X65278000Y30479915D01*
X65532000Y30479915D01*
X65532000Y29337000D01*
X66675624Y29337000D01*
X66796909Y29559040D01*
X69093091Y29559040D01*
X69214376Y29337000D01*
X70358000Y29337000D01*
X70358000Y30479915D01*
X70612000Y30479915D01*
X70612000Y29337000D01*
X71755624Y29337000D01*
X71876909Y29559040D01*
X71782070Y29823881D01*
X71637385Y30065131D01*
X71448414Y30273519D01*
X71222420Y30441037D01*
X70968087Y30561246D01*
X70834039Y30601904D01*
X70612000Y30479915D01*
X70358000Y30479915D01*
X70135961Y30601904D01*
X70001913Y30561246D01*
X69747580Y30441037D01*
X69521586Y30273519D01*
X69332615Y30065131D01*
X69187930Y29823881D01*
X69093091Y29559040D01*
X66796909Y29559040D01*
X66702070Y29823881D01*
X66557385Y30065131D01*
X66368414Y30273519D01*
X66142420Y30441037D01*
X65888087Y30561246D01*
X65754039Y30601904D01*
X65532000Y30479915D01*
X65278000Y30479915D01*
X65055961Y30601904D01*
X64921913Y30561246D01*
X64667580Y30441037D01*
X64441586Y30273519D01*
X64252615Y30065131D01*
X64107930Y29823881D01*
X64013091Y29559040D01*
X61716909Y29559040D01*
X61622070Y29823881D01*
X61477385Y30065131D01*
X61288414Y30273519D01*
X61062420Y30441037D01*
X60808087Y30561246D01*
X60674039Y30601904D01*
X60452000Y30479915D01*
X60198000Y30479915D01*
X59975961Y30601904D01*
X59841913Y30561246D01*
X59587580Y30441037D01*
X59361586Y30273519D01*
X59172615Y30065131D01*
X59027930Y29823881D01*
X58933091Y29559040D01*
X56636909Y29559040D01*
X56542070Y29823881D01*
X56397385Y30065131D01*
X56208414Y30273519D01*
X55982420Y30441037D01*
X55728087Y30561246D01*
X55594039Y30601904D01*
X55372000Y30479915D01*
X55118000Y30479915D01*
X54895961Y30601904D01*
X54761913Y30561246D01*
X54507580Y30441037D01*
X54281586Y30273519D01*
X54092615Y30065131D01*
X53947930Y29823881D01*
X53853091Y29559040D01*
X46808300Y29559040D01*
X46808300Y30612054D01*
X51271413Y35075166D01*
X51290764Y34878692D01*
X51372818Y34608193D01*
X51506068Y34358900D01*
X51685392Y34140393D01*
X51903899Y33961068D01*
X52153192Y33827818D01*
X52423691Y33745764D01*
X52705000Y33718057D01*
X52986308Y33745764D01*
X53256807Y33827818D01*
X53506100Y33961068D01*
X53724607Y34140392D01*
X53903932Y34358899D01*
X53975000Y34491858D01*
X54046068Y34358900D01*
X54225392Y34140393D01*
X54443899Y33961068D01*
X54693192Y33827818D01*
X54963691Y33745764D01*
X55245000Y33718057D01*
X55526308Y33745764D01*
X55796807Y33827818D01*
X56046100Y33961068D01*
X56264607Y34140392D01*
X56443932Y34358899D01*
X56515000Y34491858D01*
X56586068Y34358900D01*
X56765392Y34140393D01*
X56983899Y33961068D01*
X57233192Y33827818D01*
X57503691Y33745764D01*
X57785000Y33718057D01*
X58066308Y33745764D01*
X58336807Y33827818D01*
X58586100Y33961068D01*
X58804607Y34140392D01*
X58983932Y34358899D01*
X59055000Y34491858D01*
X59126068Y34358900D01*
X59305392Y34140393D01*
X59523899Y33961068D01*
X59773192Y33827818D01*
X60043691Y33745764D01*
X60325000Y33718057D01*
X60606308Y33745764D01*
X60876807Y33827818D01*
X61126100Y33961068D01*
X61344607Y34140392D01*
X61523932Y34358899D01*
X61595000Y34491858D01*
X61666068Y34358900D01*
X61845392Y34140393D01*
X62063899Y33961068D01*
X62313192Y33827818D01*
X62583691Y33745764D01*
X62865000Y33718057D01*
X63146308Y33745764D01*
X63416807Y33827818D01*
X63666100Y33961068D01*
X63884607Y34140392D01*
X64063932Y34358899D01*
X64135000Y34491858D01*
X64206068Y34358900D01*
X64385392Y34140393D01*
X64603899Y33961068D01*
X64853192Y33827818D01*
X65123691Y33745764D01*
X65405000Y33718057D01*
X65686308Y33745764D01*
X65956807Y33827818D01*
X66206100Y33961068D01*
X66424607Y34140392D01*
X66603932Y34358899D01*
X66675000Y34491858D01*
X66746068Y34358900D01*
X66925392Y34140393D01*
X67143899Y33961068D01*
X67393192Y33827818D01*
X67663691Y33745764D01*
X67945000Y33718057D01*
X68226308Y33745764D01*
X68496807Y33827818D01*
X68746100Y33961068D01*
X68964607Y34140392D01*
X69143932Y34358899D01*
X69215000Y34491858D01*
X69286068Y34358900D01*
X69465392Y34140393D01*
X69683899Y33961068D01*
X69933192Y33827818D01*
X70203691Y33745764D01*
X70485000Y33718057D01*
X70766308Y33745764D01*
X71036807Y33827818D01*
X71286100Y33961068D01*
X71504607Y34140392D01*
X71683932Y34358899D01*
X71817182Y34608192D01*
X71899236Y34878691D01*
X71920000Y35089508D01*
X71920000Y36030491D01*
X71899236Y36241309D01*
X71817182Y36511808D01*
X71683932Y36761101D01*
X71504608Y36979608D01*
X71286101Y37158932D01*
X71036808Y37292182D01*
X70766309Y37374236D01*
X70485000Y37401943D01*
X70203692Y37374236D01*
X69933193Y37292182D01*
X69683900Y37158932D01*
X69465393Y36979608D01*
X69286068Y36761101D01*
X69215000Y36628142D01*
X69143932Y36761101D01*
X68964608Y36979608D01*
X68746101Y37158932D01*
X68496808Y37292182D01*
X68226309Y37374236D01*
X67945000Y37401943D01*
X67663692Y37374236D01*
X67393193Y37292182D01*
X67143900Y37158932D01*
X66925393Y36979608D01*
X66746068Y36761101D01*
X66675000Y36628142D01*
X66603932Y36761101D01*
X66424608Y36979608D01*
X66206101Y37158932D01*
X65956808Y37292182D01*
X65686309Y37374236D01*
X65405000Y37401943D01*
X65123692Y37374236D01*
X64853193Y37292182D01*
X64603900Y37158932D01*
X64385393Y36979608D01*
X64206068Y36761101D01*
X64135000Y36628142D01*
X64063932Y36761101D01*
X63884608Y36979608D01*
X63666101Y37158932D01*
X63416808Y37292182D01*
X63146309Y37374236D01*
X62865000Y37401943D01*
X62583692Y37374236D01*
X62313193Y37292182D01*
X62063900Y37158932D01*
X61845393Y36979608D01*
X61666068Y36761101D01*
X61595000Y36628142D01*
X61523932Y36761101D01*
X61344608Y36979608D01*
X61126101Y37158932D01*
X60876808Y37292182D01*
X60606309Y37374236D01*
X60325000Y37401943D01*
X60043692Y37374236D01*
X59773193Y37292182D01*
X59523900Y37158932D01*
X59305393Y36979608D01*
X59126068Y36761101D01*
X59055000Y36628142D01*
X58983932Y36761101D01*
X58804608Y36979608D01*
X58586101Y37158932D01*
X58336808Y37292182D01*
X58066309Y37374236D01*
X57785000Y37401943D01*
X57503692Y37374236D01*
X57233193Y37292182D01*
X56983900Y37158932D01*
X56765393Y36979608D01*
X56586068Y36761101D01*
X56515000Y36628142D01*
X56443932Y36761101D01*
X56264608Y36979608D01*
X56046101Y37158932D01*
X55796808Y37292182D01*
X55526309Y37374236D01*
X55245000Y37401943D01*
X55017036Y37379490D01*
X55918881Y38281335D01*
X72225000Y38281335D01*
X72225000Y37998665D01*
X72280147Y37721426D01*
X72388320Y37460273D01*
X72545363Y37225241D01*
X72745241Y37025363D01*
X72980273Y36868320D01*
X73241426Y36760147D01*
X73518665Y36705000D01*
X73801335Y36705000D01*
X74078574Y36760147D01*
X74339727Y36868320D01*
X74574759Y37025363D01*
X74774637Y37225241D01*
X74931680Y37460273D01*
X75039853Y37721426D01*
X75095000Y37998665D01*
X75095000Y38281335D01*
X75039853Y38558574D01*
X74931680Y38819727D01*
X74774637Y39054759D01*
X74574759Y39254637D01*
X74374131Y39388692D01*
X74401514Y39403329D01*
X74473097Y39647298D01*
X73660000Y40460395D01*
X72846903Y39647298D01*
X72918486Y39403329D01*
X72947341Y39389676D01*
X72745241Y39254637D01*
X72545363Y39054759D01*
X72388320Y38819727D01*
X72280147Y38558574D01*
X72225000Y38281335D01*
X55918881Y38281335D01*
X58207034Y40569488D01*
X72219783Y40569488D01*
X72261213Y40289870D01*
X72356397Y40023708D01*
X72423329Y39898486D01*
X72667298Y39826903D01*
X73480395Y40640000D01*
X73839605Y40640000D01*
X74652702Y39826903D01*
X74896671Y39898486D01*
X75017571Y40153996D01*
X75086300Y40428184D01*
X75100217Y40710512D01*
X75058787Y40990130D01*
X74963603Y41256292D01*
X74896671Y41381514D01*
X74652702Y41453097D01*
X73839605Y40640000D01*
X73480395Y40640000D01*
X72667298Y41453097D01*
X72423329Y41381514D01*
X72302429Y41126004D01*
X72233700Y40851816D01*
X72219783Y40569488D01*
X58207034Y40569488D01*
X59357007Y41719460D01*
X59400105Y41675500D01*
X59633354Y41516285D01*
X59893182Y41405633D01*
X59975961Y41388096D01*
X60198000Y41510085D01*
X60198000Y43053000D01*
X60452000Y43053000D01*
X60452000Y41510085D01*
X60674039Y41388096D01*
X60756818Y41405633D01*
X61016646Y41516285D01*
X61249895Y41675500D01*
X61447601Y41877161D01*
X61595000Y42102559D01*
X61742399Y41877161D01*
X61940105Y41675500D01*
X62173354Y41516285D01*
X62433182Y41405633D01*
X62515961Y41388096D01*
X62738000Y41510085D01*
X62738000Y43053000D01*
X62992000Y43053000D01*
X62992000Y41510085D01*
X63214039Y41388096D01*
X63296818Y41405633D01*
X63556646Y41516285D01*
X63789895Y41675500D01*
X63987601Y41877161D01*
X64135000Y42102559D01*
X64282399Y41877161D01*
X64480105Y41675500D01*
X64713354Y41516285D01*
X64973182Y41405633D01*
X65055961Y41388096D01*
X65278000Y41510085D01*
X65278000Y43053000D01*
X62992000Y43053000D01*
X62738000Y43053000D01*
X60452000Y43053000D01*
X60198000Y43053000D01*
X60178000Y43053000D01*
X60178000Y43307000D01*
X60198000Y43307000D01*
X60198000Y43327000D01*
X60452000Y43327000D01*
X60452000Y43307000D01*
X62738000Y43307000D01*
X62738000Y43327000D01*
X62992000Y43327000D01*
X62992000Y43307000D01*
X65278000Y43307000D01*
X65278000Y43327000D01*
X65532000Y43327000D01*
X65532000Y43307000D01*
X65552000Y43307000D01*
X65552000Y43053000D01*
X65532000Y43053000D01*
X65532000Y41510085D01*
X65754039Y41388096D01*
X65836818Y41405633D01*
X66096646Y41516285D01*
X66329895Y41675500D01*
X66527601Y41877161D01*
X66677735Y42106742D01*
X66746068Y41978900D01*
X66925392Y41760393D01*
X67143899Y41581068D01*
X67393192Y41447818D01*
X67663691Y41365764D01*
X67945000Y41338057D01*
X68226308Y41365764D01*
X68496807Y41447818D01*
X68746100Y41581068D01*
X68964607Y41760392D01*
X69057419Y41873483D01*
X69059188Y41855518D01*
X69095498Y41735820D01*
X69154463Y41625506D01*
X69233815Y41528815D01*
X69330506Y41449463D01*
X69440820Y41390498D01*
X69560518Y41354188D01*
X69685000Y41341928D01*
X71285000Y41341928D01*
X71409482Y41354188D01*
X71529180Y41390498D01*
X71639494Y41449463D01*
X71736185Y41528815D01*
X71815537Y41625506D01*
X71819383Y41632702D01*
X72846903Y41632702D01*
X73660000Y40819605D01*
X74473097Y41632702D01*
X74401514Y41876671D01*
X74146004Y41997571D01*
X73871816Y42066300D01*
X73589488Y42080217D01*
X73309870Y42038787D01*
X73043708Y41943603D01*
X72918486Y41876671D01*
X72846903Y41632702D01*
X71819383Y41632702D01*
X71874502Y41735820D01*
X71910812Y41855518D01*
X71923072Y41980000D01*
X71923072Y44380000D01*
X71910812Y44504482D01*
X71874502Y44624180D01*
X71815537Y44734494D01*
X71736185Y44831185D01*
X71639494Y44910537D01*
X71529180Y44969502D01*
X71409482Y45005812D01*
X71285000Y45018072D01*
X69685000Y45018072D01*
X69560518Y45005812D01*
X69440820Y44969502D01*
X69330506Y44910537D01*
X69233815Y44831185D01*
X69154463Y44734494D01*
X69095498Y44624180D01*
X69059188Y44504482D01*
X69057419Y44486518D01*
X68964608Y44599608D01*
X68746101Y44778932D01*
X68496808Y44912182D01*
X68226309Y44994236D01*
X68071891Y45009445D01*
X69554193Y46491746D01*
X69582238Y46514762D01*
X69674087Y46626680D01*
X69725889Y46723595D01*
X69742337Y46754366D01*
X69784365Y46892915D01*
X69798556Y47037000D01*
X69795000Y47073105D01*
X69795000Y49086295D01*
X69798556Y49122400D01*
X69784365Y49266486D01*
X69759037Y49349981D01*
X69742337Y49405033D01*
X69674087Y49532720D01*
X69630117Y49586297D01*
X69605253Y49616594D01*
X69605250Y49616597D01*
X69582237Y49644638D01*
X69554197Y49667649D01*
X68280511Y50941335D01*
X69685000Y50941335D01*
X69685000Y50658665D01*
X69740147Y50381426D01*
X69848320Y50120273D01*
X70005363Y49885241D01*
X70205241Y49685363D01*
X70440273Y49528320D01*
X70701426Y49420147D01*
X70978665Y49365000D01*
X71261335Y49365000D01*
X71538574Y49420147D01*
X71799727Y49528320D01*
X72034759Y49685363D01*
X72234637Y49885241D01*
X72391680Y50120273D01*
X72499853Y50381426D01*
X72555000Y50658665D01*
X72555000Y50941335D01*
X72499853Y51218574D01*
X72391680Y51479727D01*
X72234637Y51714759D01*
X72034759Y51914637D01*
X71834131Y52048692D01*
X71861514Y52063329D01*
X71933097Y52307298D01*
X71120000Y53120395D01*
X70306903Y52307298D01*
X70378486Y52063329D01*
X70407341Y52049676D01*
X70205241Y51914637D01*
X70005363Y51714759D01*
X69848320Y51479727D01*
X69740147Y51218574D01*
X69685000Y50941335D01*
X68280511Y50941335D01*
X65992358Y53229488D01*
X69679783Y53229488D01*
X69721213Y52949870D01*
X69816397Y52683708D01*
X69883329Y52558486D01*
X70127298Y52486903D01*
X70940395Y53300000D01*
X71299605Y53300000D01*
X72112702Y52486903D01*
X72356671Y52558486D01*
X72477571Y52813996D01*
X72546300Y53088184D01*
X72560217Y53370512D01*
X72518787Y53650130D01*
X72423603Y53916292D01*
X72356671Y54041514D01*
X72112702Y54113097D01*
X71299605Y53300000D01*
X70940395Y53300000D01*
X70127298Y54113097D01*
X69883329Y54041514D01*
X69762429Y53786004D01*
X69693700Y53511816D01*
X69679783Y53229488D01*
X65992358Y53229488D01*
X65159621Y54062225D01*
X65405000Y54038057D01*
X65686308Y54065764D01*
X65956807Y54147818D01*
X66206100Y54281068D01*
X66424607Y54460392D01*
X66517419Y54573483D01*
X66519188Y54555518D01*
X66555498Y54435820D01*
X66614463Y54325506D01*
X66693815Y54228815D01*
X66790506Y54149463D01*
X66900820Y54090498D01*
X67020518Y54054188D01*
X67145000Y54041928D01*
X68745000Y54041928D01*
X68869482Y54054188D01*
X68989180Y54090498D01*
X69099494Y54149463D01*
X69196185Y54228815D01*
X69248615Y54292702D01*
X70306903Y54292702D01*
X71120000Y53479605D01*
X71933097Y54292702D01*
X71861514Y54536671D01*
X71606004Y54657571D01*
X71331816Y54726300D01*
X71049488Y54740217D01*
X70769870Y54698787D01*
X70503708Y54603603D01*
X70378486Y54536671D01*
X70306903Y54292702D01*
X69248615Y54292702D01*
X69275537Y54325506D01*
X69334502Y54435820D01*
X69370812Y54555518D01*
X69383072Y54680000D01*
X69383072Y57080000D01*
X69370812Y57204482D01*
X69334502Y57324180D01*
X69275537Y57434494D01*
X69196185Y57531185D01*
X69099494Y57610537D01*
X68989180Y57669502D01*
X68869482Y57705812D01*
X68745000Y57718072D01*
X67145000Y57718072D01*
X67020518Y57705812D01*
X66900820Y57669502D01*
X66790506Y57610537D01*
X66693815Y57531185D01*
X66614463Y57434494D01*
X66555498Y57324180D01*
X66519188Y57204482D01*
X66517419Y57186518D01*
X66424608Y57299608D01*
X66206101Y57478932D01*
X65956808Y57612182D01*
X65686309Y57694236D01*
X65405000Y57721943D01*
X65123692Y57694236D01*
X64853193Y57612182D01*
X64603900Y57478932D01*
X64385393Y57299608D01*
X64206068Y57081101D01*
X64135000Y56948142D01*
X64063932Y57081101D01*
X63884608Y57299608D01*
X63666101Y57478932D01*
X63416808Y57612182D01*
X63146309Y57694236D01*
X62865000Y57721943D01*
X62583692Y57694236D01*
X62313193Y57612182D01*
X62063900Y57478932D01*
X61845393Y57299608D01*
X61666068Y57081101D01*
X61595000Y56948142D01*
X61523932Y57081101D01*
X61344608Y57299608D01*
X61126101Y57478932D01*
X60876808Y57612182D01*
X60606309Y57694236D01*
X60325000Y57721943D01*
X60043692Y57694236D01*
X59773193Y57612182D01*
X59523900Y57478932D01*
X59305393Y57299608D01*
X59126068Y57081101D01*
X59055000Y56948142D01*
X58983932Y57081101D01*
X58804608Y57299608D01*
X58586101Y57478932D01*
X58336808Y57612182D01*
X58066309Y57694236D01*
X57785000Y57721943D01*
X57503692Y57694236D01*
X57233193Y57612182D01*
X56983900Y57478932D01*
X56765393Y57299608D01*
X56586068Y57081101D01*
X56515000Y56948142D01*
X56443932Y57081101D01*
X56264608Y57299608D01*
X56046101Y57478932D01*
X55796808Y57612182D01*
X55526309Y57694236D01*
X55245000Y57721943D01*
X54963692Y57694236D01*
X54693193Y57612182D01*
X54460679Y57487901D01*
X54436438Y57517438D01*
X54408393Y57540454D01*
X45441659Y66507187D01*
X45418638Y66535238D01*
X45306720Y66627087D01*
X45179033Y66695337D01*
X45040485Y66737365D01*
X44932505Y66748000D01*
X44896400Y66751556D01*
X44860295Y66748000D01*
X44550951Y66748000D01*
X44731308Y66765764D01*
X45001807Y66847818D01*
X45251100Y66981068D01*
X45469607Y67160392D01*
X45648932Y67378899D01*
X45782182Y67628192D01*
X45864236Y67898691D01*
X45885000Y68109508D01*
X45885000Y69050491D01*
X45864236Y69261309D01*
X45829520Y69375754D01*
X45902733Y69397963D01*
X46030420Y69466213D01*
X46142338Y69558062D01*
X46165359Y69586113D01*
X59799374Y83220128D01*
X71765000Y83220128D01*
X71765000Y82779872D01*
X71850890Y82348075D01*
X72019369Y81941331D01*
X72263962Y81575271D01*
X72575271Y81263962D01*
X72941331Y81019369D01*
X73348075Y80850890D01*
X73779872Y80765000D01*
X74220128Y80765000D01*
X74651925Y80850890D01*
X75058669Y81019369D01*
X75424729Y81263962D01*
X75736038Y81575271D01*
X75980631Y81941331D01*
X76149110Y82348075D01*
X76235000Y82779872D01*
X76235000Y83220128D01*
X76149110Y83651925D01*
X75980631Y84058669D01*
X75736038Y84424729D01*
X75424729Y84736038D01*
X75058669Y84980631D01*
X74651925Y85149110D01*
X74220128Y85235000D01*
X73779872Y85235000D01*
X73348075Y85149110D01*
X72941331Y84980631D01*
X72575271Y84736038D01*
X72263962Y84424729D01*
X72019369Y84058669D01*
X71850890Y83651925D01*
X71765000Y83220128D01*
X59799374Y83220128D01*
X61454198Y84874951D01*
X61482237Y84897962D01*
X61505250Y84926003D01*
X61505253Y84926006D01*
X61574087Y85009880D01*
X61642337Y85137566D01*
X61684365Y85276115D01*
X61698556Y85420200D01*
X61695000Y85456305D01*
X61695000Y88861928D01*
X61850000Y88861928D01*
X61962420Y88873000D01*
X62854033Y88873000D01*
X62904052Y88812052D01*
X63004550Y88729575D01*
X63119207Y88668290D01*
X63243617Y88630550D01*
X63340581Y88621000D01*
X63373000Y88617807D01*
X63405419Y88621000D01*
X78334045Y88621000D01*
X78339956Y660000D01*
X660000Y660000D01*
X660000Y5220128D01*
X2765000Y5220128D01*
X2765000Y4779872D01*
X2850890Y4348075D01*
X3019369Y3941331D01*
X3263962Y3575271D01*
X3575271Y3263962D01*
X3941331Y3019369D01*
X4348075Y2850890D01*
X4779872Y2765000D01*
X5220128Y2765000D01*
X5651925Y2850890D01*
X6058669Y3019369D01*
X6424729Y3263962D01*
X6736038Y3575271D01*
X6980631Y3941331D01*
X7149110Y4348075D01*
X7235000Y4779872D01*
X7235000Y5220128D01*
X71765000Y5220128D01*
X71765000Y4779872D01*
X71850890Y4348075D01*
X72019369Y3941331D01*
X72263962Y3575271D01*
X72575271Y3263962D01*
X72941331Y3019369D01*
X73348075Y2850890D01*
X73779872Y2765000D01*
X74220128Y2765000D01*
X74651925Y2850890D01*
X75058669Y3019369D01*
X75424729Y3263962D01*
X75736038Y3575271D01*
X75980631Y3941331D01*
X76149110Y4348075D01*
X76235000Y4779872D01*
X76235000Y5220128D01*
X76149110Y5651925D01*
X75980631Y6058669D01*
X75736038Y6424729D01*
X75424729Y6736038D01*
X75058669Y6980631D01*
X74651925Y7149110D01*
X74220128Y7235000D01*
X73779872Y7235000D01*
X73348075Y7149110D01*
X72941331Y6980631D01*
X72575271Y6736038D01*
X72263962Y6424729D01*
X72019369Y6058669D01*
X71850890Y5651925D01*
X71765000Y5220128D01*
X7235000Y5220128D01*
X7149110Y5651925D01*
X6980631Y6058669D01*
X6736038Y6424729D01*
X6424729Y6736038D01*
X6058669Y6980631D01*
X5651925Y7149110D01*
X5220128Y7235000D01*
X4779872Y7235000D01*
X4348075Y7149110D01*
X3941331Y6980631D01*
X3575271Y6736038D01*
X3263962Y6424729D01*
X3019369Y6058669D01*
X2850890Y5651925D01*
X2765000Y5220128D01*
X660000Y5220128D01*
X660000Y22733000D01*
X9995000Y22733000D01*
X9995000Y22333000D01*
X10047350Y22055486D01*
X10152834Y21793517D01*
X10307399Y21557161D01*
X10505105Y21355500D01*
X10738354Y21196285D01*
X10998182Y21085633D01*
X11080961Y21068096D01*
X11303000Y21190085D01*
X11303000Y22733000D01*
X9995000Y22733000D01*
X660000Y22733000D01*
X660000Y23387000D01*
X9995000Y23387000D01*
X9995000Y22987000D01*
X11303000Y22987000D01*
X11303000Y24529915D01*
X11080961Y24651904D01*
X10998182Y24634367D01*
X10738354Y24523715D01*
X10505105Y24364500D01*
X10307399Y24162839D01*
X10152834Y23926483D01*
X10047350Y23664514D01*
X9995000Y23387000D01*
X660000Y23387000D01*
X660000Y43053000D01*
X9995000Y43053000D01*
X9995000Y42653000D01*
X10047350Y42375486D01*
X10152834Y42113517D01*
X10307399Y41877161D01*
X10505105Y41675500D01*
X10738354Y41516285D01*
X10998182Y41405633D01*
X11080961Y41388096D01*
X11303000Y41510085D01*
X11303000Y43053000D01*
X9995000Y43053000D01*
X660000Y43053000D01*
X660000Y43707000D01*
X9995000Y43707000D01*
X9995000Y43307000D01*
X11303000Y43307000D01*
X11303000Y44849915D01*
X11080961Y44971904D01*
X10998182Y44954367D01*
X10738354Y44843715D01*
X10505105Y44684500D01*
X10307399Y44482839D01*
X10152834Y44246483D01*
X10047350Y43984514D01*
X9995000Y43707000D01*
X660000Y43707000D01*
X660000Y54791335D01*
X46190000Y54791335D01*
X46190000Y54508665D01*
X46245147Y54231426D01*
X46353320Y53970273D01*
X46510363Y53735241D01*
X46710241Y53535363D01*
X46945273Y53378320D01*
X47206426Y53270147D01*
X47483665Y53215000D01*
X47766335Y53215000D01*
X48043574Y53270147D01*
X48304727Y53378320D01*
X48539759Y53535363D01*
X48739637Y53735241D01*
X48896680Y53970273D01*
X49004853Y54231426D01*
X49060000Y54508665D01*
X49060000Y54791335D01*
X49004853Y55068574D01*
X48896680Y55329727D01*
X48739637Y55564759D01*
X48551396Y55753000D01*
X51270000Y55753000D01*
X51270000Y55353000D01*
X51322350Y55075486D01*
X51427834Y54813517D01*
X51582399Y54577161D01*
X51780105Y54375500D01*
X52013354Y54216285D01*
X52273182Y54105633D01*
X52355961Y54088096D01*
X52578000Y54210085D01*
X52578000Y55753000D01*
X51270000Y55753000D01*
X48551396Y55753000D01*
X48539759Y55764637D01*
X48339131Y55898692D01*
X48366514Y55913329D01*
X48438097Y56157298D01*
X47625000Y56970395D01*
X46811903Y56157298D01*
X46883486Y55913329D01*
X46912341Y55899676D01*
X46710241Y55764637D01*
X46510363Y55564759D01*
X46353320Y55329727D01*
X46245147Y55068574D01*
X46190000Y54791335D01*
X660000Y54791335D01*
X660000Y57079488D01*
X46184783Y57079488D01*
X46226213Y56799870D01*
X46321397Y56533708D01*
X46388329Y56408486D01*
X46632298Y56336903D01*
X47445395Y57150000D01*
X47804605Y57150000D01*
X48617702Y56336903D01*
X48861671Y56408486D01*
X48982571Y56663996D01*
X49051300Y56938184D01*
X49065217Y57220512D01*
X49023787Y57500130D01*
X48928603Y57766292D01*
X48861671Y57891514D01*
X48617702Y57963097D01*
X47804605Y57150000D01*
X47445395Y57150000D01*
X46632298Y57963097D01*
X46388329Y57891514D01*
X46267429Y57636004D01*
X46198700Y57361816D01*
X46184783Y57079488D01*
X660000Y57079488D01*
X660000Y58142702D01*
X46811903Y58142702D01*
X47625000Y57329605D01*
X48438097Y58142702D01*
X48366514Y58386671D01*
X48111004Y58507571D01*
X47836816Y58576300D01*
X47554488Y58590217D01*
X47274870Y58548787D01*
X47008708Y58453603D01*
X46883486Y58386671D01*
X46811903Y58142702D01*
X660000Y58142702D01*
X660000Y63373000D01*
X9995000Y63373000D01*
X9995000Y62973000D01*
X10047350Y62695486D01*
X10152834Y62433517D01*
X10307399Y62197161D01*
X10505105Y61995500D01*
X10738354Y61836285D01*
X10998182Y61725633D01*
X11080961Y61708096D01*
X11303000Y61830085D01*
X11303000Y63373000D01*
X9995000Y63373000D01*
X660000Y63373000D01*
X660000Y64027000D01*
X9995000Y64027000D01*
X9995000Y63627000D01*
X11303000Y63627000D01*
X11303000Y65169915D01*
X11080961Y65291904D01*
X10998182Y65274367D01*
X10738354Y65163715D01*
X10505105Y65004500D01*
X10307399Y64802839D01*
X10152834Y64566483D01*
X10047350Y64304514D01*
X9995000Y64027000D01*
X660000Y64027000D01*
X660000Y83220128D01*
X2765000Y83220128D01*
X2765000Y82779872D01*
X2850890Y82348075D01*
X3019369Y81941331D01*
X3263962Y81575271D01*
X3575271Y81263962D01*
X3941331Y81019369D01*
X4348075Y80850890D01*
X4779872Y80765000D01*
X5220128Y80765000D01*
X5651925Y80850890D01*
X6058669Y81019369D01*
X6424729Y81263962D01*
X6736038Y81575271D01*
X6980631Y81941331D01*
X7149110Y82348075D01*
X7235000Y82779872D01*
X7235000Y83220128D01*
X7149110Y83651925D01*
X7132097Y83693000D01*
X9995000Y83693000D01*
X9995000Y83293000D01*
X10047350Y83015486D01*
X10152834Y82753517D01*
X10307399Y82517161D01*
X10505105Y82315500D01*
X10738354Y82156285D01*
X10998182Y82045633D01*
X11080961Y82028096D01*
X11303000Y82150085D01*
X11303000Y83693000D01*
X9995000Y83693000D01*
X7132097Y83693000D01*
X6980631Y84058669D01*
X6787975Y84347000D01*
X9995000Y84347000D01*
X9995000Y83947000D01*
X11303000Y83947000D01*
X11303000Y85489915D01*
X11080961Y85611904D01*
X10998182Y85594367D01*
X10738354Y85483715D01*
X10505105Y85324500D01*
X10307399Y85122839D01*
X10152834Y84886483D01*
X10047350Y84624514D01*
X9995000Y84347000D01*
X6787975Y84347000D01*
X6736038Y84424729D01*
X6424729Y84736038D01*
X6058669Y84980631D01*
X5651925Y85149110D01*
X5220128Y85235000D01*
X4779872Y85235000D01*
X4348075Y85149110D01*
X3941331Y84980631D01*
X3575271Y84736038D01*
X3263962Y84424729D01*
X3019369Y84058669D01*
X2850890Y83651925D01*
X2765000Y83220128D01*
X660000Y83220128D01*
X660000Y88621000D01*
X15334581Y88621000D01*
X15367000Y88617807D01*
X15399419Y88621000D01*
X15496383Y88630550D01*
X15620793Y88668290D01*
X15735450Y88729575D01*
X15835948Y88812052D01*
X15885967Y88873000D01*
X16777580Y88873000D01*
X16890000Y88861928D01*
G04 #@! TA.AperFunction,Conductor*
D20*
G36*
X16890000Y88861928D02*
G01*
X17494250Y88865000D01*
X17502250Y88873000D01*
X18057750Y88873000D01*
X18065750Y88865000D01*
X18670000Y88861928D01*
X18782420Y88873000D01*
X18953854Y88873000D01*
X18555808Y88474954D01*
X18527763Y88451938D01*
X18435914Y88340020D01*
X18401843Y88276277D01*
X18367664Y88212333D01*
X18325635Y88073785D01*
X18311444Y87929700D01*
X18315001Y87893585D01*
X18315000Y85454263D01*
X18248900Y85418932D01*
X18030393Y85239608D01*
X17851068Y85021101D01*
X17780000Y84888142D01*
X17708932Y85021101D01*
X17529608Y85239608D01*
X17311101Y85418932D01*
X17061808Y85552182D01*
X16791309Y85634236D01*
X16510000Y85661943D01*
X16228692Y85634236D01*
X15958193Y85552182D01*
X15708900Y85418932D01*
X15490393Y85239608D01*
X15311068Y85021101D01*
X15240000Y84888142D01*
X15168932Y85021101D01*
X14989608Y85239608D01*
X14771101Y85418932D01*
X14521808Y85552182D01*
X14251309Y85634236D01*
X13970000Y85661943D01*
X13688692Y85634236D01*
X13418193Y85552182D01*
X13168900Y85418932D01*
X12950393Y85239608D01*
X12771068Y85021101D01*
X12702735Y84893259D01*
X12552601Y85122839D01*
X12354895Y85324500D01*
X12121646Y85483715D01*
X11861818Y85594367D01*
X11779039Y85611904D01*
X11557000Y85489915D01*
X11557000Y83947000D01*
X11577000Y83947000D01*
X11577000Y83693000D01*
X11557000Y83693000D01*
X11557000Y82150085D01*
X11779039Y82028096D01*
X11861818Y82045633D01*
X12121646Y82156285D01*
X12354895Y82315500D01*
X12552601Y82517161D01*
X12702735Y82746742D01*
X12771068Y82618900D01*
X12950392Y82400393D01*
X13168899Y82221068D01*
X13245174Y82180298D01*
X13245635Y82175615D01*
X13286869Y82039687D01*
X13287664Y82037067D01*
X13355914Y81909380D01*
X13447763Y81797462D01*
X13475807Y81774447D01*
X13838641Y81411613D01*
X13861662Y81383562D01*
X13973580Y81291713D01*
X14101267Y81223463D01*
X14197786Y81194184D01*
X14239814Y81181435D01*
X14383900Y81167244D01*
X14420005Y81170800D01*
X21598595Y81170800D01*
X21634700Y81167244D01*
X21670805Y81170800D01*
X21778785Y81181435D01*
X21917333Y81223463D01*
X22045020Y81291713D01*
X22156938Y81383562D01*
X22179958Y81411612D01*
X23142439Y82374092D01*
X23328899Y82221068D01*
X23420213Y82172260D01*
X12063254Y70815300D01*
X11466105Y70815300D01*
X11430000Y70818856D01*
X11393895Y70815300D01*
X11285915Y70804665D01*
X11147367Y70762637D01*
X11019680Y70694387D01*
X10907762Y70602538D01*
X10815913Y70490620D01*
X10747663Y70362933D01*
X10705635Y70224385D01*
X10705174Y70219701D01*
X10628900Y70178932D01*
X10410393Y69999608D01*
X10231068Y69781101D01*
X10097818Y69531808D01*
X10015764Y69261309D01*
X9995000Y69050492D01*
X9995000Y68109509D01*
X10015764Y67898692D01*
X10097818Y67628193D01*
X10231068Y67378900D01*
X10410392Y67160393D01*
X10628899Y66981068D01*
X10878192Y66847818D01*
X11148691Y66765764D01*
X11430000Y66738057D01*
X11711308Y66765764D01*
X11981807Y66847818D01*
X12231100Y66981068D01*
X12449607Y67160392D01*
X12628932Y67378899D01*
X12700000Y67511858D01*
X12771068Y67378900D01*
X12950392Y67160393D01*
X13168899Y66981068D01*
X13418192Y66847818D01*
X13688691Y66765764D01*
X13970000Y66738057D01*
X14251308Y66765764D01*
X14521807Y66847818D01*
X14771100Y66981068D01*
X14989607Y67160392D01*
X15168932Y67378899D01*
X15240000Y67511858D01*
X15311068Y67378900D01*
X15490392Y67160393D01*
X15708899Y66981068D01*
X15958192Y66847818D01*
X16228691Y66765764D01*
X16510000Y66738057D01*
X16791308Y66765764D01*
X17061807Y66847818D01*
X17311100Y66981068D01*
X17529607Y67160392D01*
X17708932Y67378899D01*
X17780000Y67511858D01*
X17851068Y67378900D01*
X18030392Y67160393D01*
X18248899Y66981068D01*
X18498192Y66847818D01*
X18768691Y66765764D01*
X19050000Y66738057D01*
X19331308Y66765764D01*
X19601807Y66847818D01*
X19851100Y66981068D01*
X20069607Y67160392D01*
X20248932Y67378899D01*
X20320000Y67511858D01*
X20391068Y67378900D01*
X20570392Y67160393D01*
X20788899Y66981068D01*
X21038192Y66847818D01*
X21308691Y66765764D01*
X21590000Y66738057D01*
X21871308Y66765764D01*
X22141807Y66847818D01*
X22294400Y66929381D01*
X22294400Y66137005D01*
X22290844Y66100900D01*
X22294400Y66064796D01*
X22305035Y65956816D01*
X22347063Y65818268D01*
X22415313Y65690581D01*
X22507162Y65578663D01*
X22535208Y65555646D01*
X23143816Y64947037D01*
X23110393Y64919608D01*
X22931068Y64701101D01*
X22860000Y64568142D01*
X22788932Y64701101D01*
X22609608Y64919608D01*
X22391101Y65098932D01*
X22141808Y65232182D01*
X21871309Y65314236D01*
X21590000Y65341943D01*
X21308692Y65314236D01*
X21038193Y65232182D01*
X20788900Y65098932D01*
X20570393Y64919608D01*
X20391068Y64701101D01*
X20320000Y64568142D01*
X20248932Y64701101D01*
X20069608Y64919608D01*
X19851101Y65098932D01*
X19601808Y65232182D01*
X19331309Y65314236D01*
X19050000Y65341943D01*
X18768692Y65314236D01*
X18498193Y65232182D01*
X18248900Y65098932D01*
X18030393Y64919608D01*
X17851068Y64701101D01*
X17780000Y64568142D01*
X17708932Y64701101D01*
X17529608Y64919608D01*
X17311101Y65098932D01*
X17061808Y65232182D01*
X16791309Y65314236D01*
X16510000Y65341943D01*
X16228692Y65314236D01*
X15958193Y65232182D01*
X15708900Y65098932D01*
X15490393Y64919608D01*
X15311068Y64701101D01*
X15240000Y64568142D01*
X15168932Y64701101D01*
X14989608Y64919608D01*
X14771101Y65098932D01*
X14521808Y65232182D01*
X14251309Y65314236D01*
X13970000Y65341943D01*
X13688692Y65314236D01*
X13418193Y65232182D01*
X13168900Y65098932D01*
X12950393Y64919608D01*
X12771068Y64701101D01*
X12702735Y64573259D01*
X12552601Y64802839D01*
X12354895Y65004500D01*
X12121646Y65163715D01*
X11861818Y65274367D01*
X11779039Y65291904D01*
X11557000Y65169915D01*
X11557000Y63627000D01*
X11577000Y63627000D01*
X11577000Y63373000D01*
X11557000Y63373000D01*
X11557000Y61830085D01*
X11779039Y61708096D01*
X11861818Y61725633D01*
X12121646Y61836285D01*
X12354895Y61995500D01*
X12552601Y62197161D01*
X12702735Y62426742D01*
X12771068Y62298900D01*
X12950392Y62080393D01*
X13168899Y61901068D01*
X13418192Y61767818D01*
X13688691Y61685764D01*
X13970000Y61658057D01*
X14251308Y61685764D01*
X14521807Y61767818D01*
X14771100Y61901068D01*
X14989607Y62080392D01*
X15168932Y62298899D01*
X15240000Y62431858D01*
X15311068Y62298900D01*
X15490392Y62080393D01*
X15708899Y61901068D01*
X15958192Y61767818D01*
X16228691Y61685764D01*
X16510000Y61658057D01*
X16791308Y61685764D01*
X17061807Y61767818D01*
X17311100Y61901068D01*
X17529607Y62080392D01*
X17708932Y62298899D01*
X17780000Y62431858D01*
X17851068Y62298900D01*
X18030392Y62080393D01*
X18248899Y61901068D01*
X18498192Y61767818D01*
X18768691Y61685764D01*
X19050000Y61658057D01*
X19331308Y61685764D01*
X19601807Y61767818D01*
X19851100Y61901068D01*
X20069607Y62080392D01*
X20248932Y62298899D01*
X20320000Y62431858D01*
X20391068Y62298900D01*
X20570392Y62080393D01*
X20788899Y61901068D01*
X21038192Y61767818D01*
X21308691Y61685764D01*
X21590000Y61658057D01*
X21871308Y61685764D01*
X22141807Y61767818D01*
X22391100Y61901068D01*
X22609607Y62080392D01*
X22788932Y62298899D01*
X22860000Y62431858D01*
X22931068Y62298900D01*
X23110392Y62080393D01*
X23328899Y61901068D01*
X23578192Y61767818D01*
X23848691Y61685764D01*
X24130000Y61658057D01*
X24411308Y61685764D01*
X24681807Y61767818D01*
X24931100Y61901068D01*
X25149607Y62080392D01*
X25328932Y62298899D01*
X25400000Y62431858D01*
X25471068Y62298900D01*
X25650392Y62080393D01*
X25868899Y61901068D01*
X26118192Y61767818D01*
X26388691Y61685764D01*
X26670000Y61658057D01*
X26951308Y61685764D01*
X27221807Y61767818D01*
X27471100Y61901068D01*
X27689607Y62080392D01*
X27868932Y62298899D01*
X27940000Y62431858D01*
X28011068Y62298900D01*
X28190392Y62080393D01*
X28408899Y61901068D01*
X28658192Y61767818D01*
X28928691Y61685764D01*
X29210000Y61658057D01*
X29491308Y61685764D01*
X29761807Y61767818D01*
X30011100Y61901068D01*
X30229607Y62080392D01*
X30408932Y62298899D01*
X30480000Y62431858D01*
X30551068Y62298900D01*
X30730392Y62080393D01*
X30948899Y61901068D01*
X31198192Y61767818D01*
X31468691Y61685764D01*
X31750000Y61658057D01*
X32031308Y61685764D01*
X32301807Y61767818D01*
X32551100Y61901068D01*
X32769607Y62080392D01*
X32948932Y62298899D01*
X33020000Y62431858D01*
X33091068Y62298900D01*
X33270392Y62080393D01*
X33488899Y61901068D01*
X33738192Y61767818D01*
X34008691Y61685764D01*
X34290000Y61658057D01*
X34571308Y61685764D01*
X34841807Y61767818D01*
X35091100Y61901068D01*
X35309607Y62080392D01*
X35488932Y62298899D01*
X35560000Y62431858D01*
X35631068Y62298900D01*
X35810392Y62080393D01*
X36028899Y61901068D01*
X36278192Y61767818D01*
X36548691Y61685764D01*
X36830000Y61658057D01*
X37111308Y61685764D01*
X37381807Y61767818D01*
X37631100Y61901068D01*
X37849607Y62080392D01*
X38028932Y62298899D01*
X38100000Y62431858D01*
X38171068Y62298900D01*
X38350392Y62080393D01*
X38568899Y61901068D01*
X38818192Y61767818D01*
X39088691Y61685764D01*
X39370000Y61658057D01*
X39651308Y61685764D01*
X39921807Y61767818D01*
X40171100Y61901068D01*
X40389607Y62080392D01*
X40568932Y62298899D01*
X40640000Y62431858D01*
X40711068Y62298900D01*
X40890392Y62080393D01*
X41108899Y61901068D01*
X41358192Y61767818D01*
X41628691Y61685764D01*
X41910000Y61658057D01*
X42191308Y61685764D01*
X42461807Y61767818D01*
X42711100Y61901068D01*
X42929607Y62080392D01*
X43022419Y62193483D01*
X43024188Y62175518D01*
X43060498Y62055820D01*
X43119463Y61945506D01*
X43198815Y61848815D01*
X43295506Y61769463D01*
X43405820Y61710498D01*
X43525518Y61674188D01*
X43650000Y61661928D01*
X45250000Y61661928D01*
X45374482Y61674188D01*
X45494180Y61710498D01*
X45604494Y61769463D01*
X45701185Y61848815D01*
X45780537Y61945506D01*
X45839502Y62055820D01*
X45875812Y62175518D01*
X45888072Y62300000D01*
X45888072Y63981882D01*
X52232788Y57637165D01*
X52013354Y57543715D01*
X51780105Y57384500D01*
X51582399Y57182839D01*
X51427834Y56946483D01*
X51322350Y56684514D01*
X51270000Y56407000D01*
X51270000Y56007000D01*
X52578000Y56007000D01*
X52578000Y56027000D01*
X52832000Y56027000D01*
X52832000Y56007000D01*
X52852000Y56007000D01*
X52852000Y55753000D01*
X52832000Y55753000D01*
X52832000Y54210085D01*
X53054039Y54088096D01*
X53136818Y54105633D01*
X53396646Y54216285D01*
X53629895Y54375500D01*
X53680766Y54427388D01*
X58030378Y50077775D01*
X57785000Y50101943D01*
X57503692Y50074236D01*
X57233193Y49992182D01*
X56983900Y49858932D01*
X56765393Y49679608D01*
X56586068Y49461101D01*
X56515000Y49328142D01*
X56443932Y49461101D01*
X56264608Y49679608D01*
X56046101Y49858932D01*
X55796808Y49992182D01*
X55526309Y50074236D01*
X55245000Y50101943D01*
X54963692Y50074236D01*
X54693193Y49992182D01*
X54443900Y49858932D01*
X54225393Y49679608D01*
X54046068Y49461101D01*
X53975000Y49328142D01*
X53903932Y49461101D01*
X53724608Y49679608D01*
X53506101Y49858932D01*
X53429826Y49899702D01*
X53429365Y49904385D01*
X53387337Y50042933D01*
X53319087Y50170620D01*
X53227238Y50282538D01*
X53115320Y50374387D01*
X52987633Y50442637D01*
X52849085Y50484665D01*
X52741105Y50495300D01*
X52705000Y50498856D01*
X52668895Y50495300D01*
X29246105Y50495300D01*
X29210000Y50498856D01*
X29173895Y50495300D01*
X29065915Y50484665D01*
X28927367Y50442637D01*
X28799680Y50374387D01*
X28687762Y50282538D01*
X28595913Y50170620D01*
X28527663Y50042933D01*
X28485635Y49904385D01*
X28485174Y49899701D01*
X28408900Y49858932D01*
X28190393Y49679608D01*
X28011068Y49461101D01*
X27940000Y49328142D01*
X27868932Y49461101D01*
X27689608Y49679608D01*
X27471101Y49858932D01*
X27221808Y49992182D01*
X26951309Y50074236D01*
X26670000Y50101943D01*
X26388692Y50074236D01*
X26118193Y49992182D01*
X25868900Y49858932D01*
X25650393Y49679608D01*
X25471068Y49461101D01*
X25400000Y49328142D01*
X25328932Y49461101D01*
X25149608Y49679608D01*
X24931101Y49858932D01*
X24681808Y49992182D01*
X24411309Y50074236D01*
X24130000Y50101943D01*
X23848692Y50074236D01*
X23578193Y49992182D01*
X23328900Y49858932D01*
X23110393Y49679608D01*
X22931068Y49461101D01*
X22860000Y49328142D01*
X22788932Y49461101D01*
X22609608Y49679608D01*
X22391101Y49858932D01*
X22141808Y49992182D01*
X21871309Y50074236D01*
X21590000Y50101943D01*
X21308692Y50074236D01*
X21038193Y49992182D01*
X20788900Y49858932D01*
X20570393Y49679608D01*
X20391068Y49461101D01*
X20320000Y49328142D01*
X20248932Y49461101D01*
X20069608Y49679608D01*
X19851101Y49858932D01*
X19601808Y49992182D01*
X19331309Y50074236D01*
X19050000Y50101943D01*
X18768692Y50074236D01*
X18498193Y49992182D01*
X18248900Y49858932D01*
X18030393Y49679608D01*
X17851068Y49461101D01*
X17780000Y49328142D01*
X17708932Y49461101D01*
X17529608Y49679608D01*
X17311101Y49858932D01*
X17061808Y49992182D01*
X16791309Y50074236D01*
X16510000Y50101943D01*
X16228692Y50074236D01*
X15958193Y49992182D01*
X15708900Y49858932D01*
X15490393Y49679608D01*
X15311068Y49461101D01*
X15240000Y49328142D01*
X15168932Y49461101D01*
X14989608Y49679608D01*
X14771101Y49858932D01*
X14521808Y49992182D01*
X14251309Y50074236D01*
X13970000Y50101943D01*
X13688692Y50074236D01*
X13418193Y49992182D01*
X13168900Y49858932D01*
X12950393Y49679608D01*
X12771068Y49461101D01*
X12700000Y49328142D01*
X12628932Y49461101D01*
X12449608Y49679608D01*
X12231101Y49858932D01*
X11981808Y49992182D01*
X11711309Y50074236D01*
X11430000Y50101943D01*
X11148692Y50074236D01*
X10878193Y49992182D01*
X10628900Y49858932D01*
X10410393Y49679608D01*
X10231068Y49461101D01*
X10097818Y49211808D01*
X10015764Y48941309D01*
X9995000Y48730492D01*
X9995000Y47789509D01*
X10015764Y47578692D01*
X10097818Y47308193D01*
X10231068Y47058900D01*
X10410392Y46840393D01*
X10628899Y46661068D01*
X10705174Y46620298D01*
X10705635Y46615615D01*
X10727722Y46542806D01*
X10747664Y46477067D01*
X10815914Y46349380D01*
X10907763Y46237462D01*
X10935808Y46214446D01*
X11806100Y45344153D01*
X11806100Y44966171D01*
X11779039Y44971904D01*
X11557000Y44849915D01*
X11557000Y43307000D01*
X11577000Y43307000D01*
X11577000Y43053000D01*
X11557000Y43053000D01*
X11557000Y41510085D01*
X11779039Y41388096D01*
X11806100Y41393829D01*
X11806101Y30855848D01*
X10935808Y29985554D01*
X10907763Y29962538D01*
X10815914Y29850620D01*
X10764396Y29754236D01*
X10747664Y29722933D01*
X10705635Y29584385D01*
X10705174Y29579701D01*
X10628900Y29538932D01*
X10410393Y29359608D01*
X10231068Y29141101D01*
X10097818Y28891808D01*
X10015764Y28621309D01*
X9995000Y28410492D01*
X9995000Y27469509D01*
X10015764Y27258692D01*
X10097818Y26988193D01*
X10231068Y26738900D01*
X10410392Y26520393D01*
X10628899Y26341068D01*
X10705174Y26300298D01*
X10705635Y26295615D01*
X10738837Y26186165D01*
X10747664Y26157067D01*
X10815914Y26029380D01*
X10907763Y25917462D01*
X10935808Y25894446D01*
X11806100Y25024153D01*
X11806100Y24646171D01*
X11779039Y24651904D01*
X11557000Y24529915D01*
X11557000Y22987000D01*
X11577000Y22987000D01*
X11577000Y22733000D01*
X11557000Y22733000D01*
X11557000Y21190085D01*
X11779039Y21068096D01*
X11806100Y21073829D01*
X11806101Y10535848D01*
X10935808Y9665554D01*
X10907763Y9642538D01*
X10815914Y9530620D01*
X10769970Y9444665D01*
X10747664Y9402933D01*
X10705635Y9264385D01*
X10705174Y9259701D01*
X10628900Y9218932D01*
X10410393Y9039608D01*
X10231068Y8821101D01*
X10097818Y8571808D01*
X10015764Y8301309D01*
X9995000Y8090492D01*
X9995000Y7149509D01*
X10015764Y6938692D01*
X10097818Y6668193D01*
X10231068Y6418900D01*
X10410392Y6200393D01*
X10628899Y6021068D01*
X10878192Y5887818D01*
X11148691Y5805764D01*
X11430000Y5778057D01*
X11711308Y5805764D01*
X11981807Y5887818D01*
X12231100Y6021068D01*
X12449607Y6200392D01*
X12628932Y6418899D01*
X12700000Y6551858D01*
X12771068Y6418900D01*
X12950392Y6200393D01*
X13168899Y6021068D01*
X13418192Y5887818D01*
X13688691Y5805764D01*
X13970000Y5778057D01*
X14251308Y5805764D01*
X14521807Y5887818D01*
X14771100Y6021068D01*
X14989607Y6200392D01*
X15168932Y6418899D01*
X15240000Y6551858D01*
X15311068Y6418900D01*
X15490392Y6200393D01*
X15708899Y6021068D01*
X15958192Y5887818D01*
X16228691Y5805764D01*
X16510000Y5778057D01*
X16791308Y5805764D01*
X17061807Y5887818D01*
X17311100Y6021068D01*
X17529607Y6200392D01*
X17708932Y6418899D01*
X17780000Y6551858D01*
X17851068Y6418900D01*
X18030392Y6200393D01*
X18248899Y6021068D01*
X18498192Y5887818D01*
X18768691Y5805764D01*
X19050000Y5778057D01*
X19331308Y5805764D01*
X19601807Y5887818D01*
X19851100Y6021068D01*
X20069607Y6200392D01*
X20248932Y6418899D01*
X20320000Y6551858D01*
X20391068Y6418900D01*
X20570392Y6200393D01*
X20788899Y6021068D01*
X21038192Y5887818D01*
X21308691Y5805764D01*
X21590000Y5778057D01*
X21871308Y5805764D01*
X22141807Y5887818D01*
X22391100Y6021068D01*
X22609607Y6200392D01*
X22788932Y6418899D01*
X22860000Y6551858D01*
X22931068Y6418900D01*
X23110392Y6200393D01*
X23328899Y6021068D01*
X23578192Y5887818D01*
X23848691Y5805764D01*
X24130000Y5778057D01*
X24411308Y5805764D01*
X24681807Y5887818D01*
X24931100Y6021068D01*
X25149607Y6200392D01*
X25328932Y6418899D01*
X25400000Y6551858D01*
X25471068Y6418900D01*
X25650392Y6200393D01*
X25868899Y6021068D01*
X26118192Y5887818D01*
X26388691Y5805764D01*
X26670000Y5778057D01*
X26951308Y5805764D01*
X27221807Y5887818D01*
X27471100Y6021068D01*
X27689607Y6200392D01*
X27868932Y6418899D01*
X27940000Y6551858D01*
X28011068Y6418900D01*
X28190392Y6200393D01*
X28408899Y6021068D01*
X28658192Y5887818D01*
X28928691Y5805764D01*
X29210000Y5778057D01*
X29491308Y5805764D01*
X29761807Y5887818D01*
X30011100Y6021068D01*
X30229607Y6200392D01*
X30408932Y6418899D01*
X30480000Y6551858D01*
X30551068Y6418900D01*
X30730392Y6200393D01*
X30948899Y6021068D01*
X31198192Y5887818D01*
X31468691Y5805764D01*
X31750000Y5778057D01*
X32031308Y5805764D01*
X32301807Y5887818D01*
X32551100Y6021068D01*
X32769607Y6200392D01*
X32948932Y6418899D01*
X33020000Y6551858D01*
X33091068Y6418900D01*
X33270392Y6200393D01*
X33488899Y6021068D01*
X33738192Y5887818D01*
X34008691Y5805764D01*
X34290000Y5778057D01*
X34571308Y5805764D01*
X34841807Y5887818D01*
X35091100Y6021068D01*
X35309607Y6200392D01*
X35488932Y6418899D01*
X35560000Y6551858D01*
X35631068Y6418900D01*
X35810392Y6200393D01*
X36028899Y6021068D01*
X36278192Y5887818D01*
X36548691Y5805764D01*
X36830000Y5778057D01*
X37111308Y5805764D01*
X37381807Y5887818D01*
X37631100Y6021068D01*
X37849607Y6200392D01*
X38028932Y6418899D01*
X38100000Y6551858D01*
X38171068Y6418900D01*
X38350392Y6200393D01*
X38568899Y6021068D01*
X38818192Y5887818D01*
X39088691Y5805764D01*
X39370000Y5778057D01*
X39651308Y5805764D01*
X39921807Y5887818D01*
X40171100Y6021068D01*
X40389607Y6200392D01*
X40568932Y6418899D01*
X40640000Y6551858D01*
X40711068Y6418900D01*
X40890392Y6200393D01*
X41108899Y6021068D01*
X41185174Y5980298D01*
X41185635Y5975615D01*
X41227663Y5837067D01*
X41295913Y5709380D01*
X41387762Y5597462D01*
X41499680Y5505613D01*
X41627367Y5437363D01*
X41765915Y5395335D01*
X41873895Y5384700D01*
X41910000Y5381144D01*
X41946105Y5384700D01*
X61000795Y5384700D01*
X61036900Y5381144D01*
X61073005Y5384700D01*
X61180985Y5395335D01*
X61319533Y5437363D01*
X61447220Y5505613D01*
X61559138Y5597462D01*
X61582158Y5625512D01*
X62523625Y6566979D01*
X62585241Y6505363D01*
X62820273Y6348320D01*
X63081426Y6240147D01*
X63358665Y6185000D01*
X63641335Y6185000D01*
X63918574Y6240147D01*
X64179727Y6348320D01*
X64414759Y6505363D01*
X64614637Y6705241D01*
X64771680Y6940273D01*
X64879853Y7201426D01*
X64935000Y7478665D01*
X64935000Y7761335D01*
X64879853Y8038574D01*
X64771680Y8299727D01*
X64614637Y8534759D01*
X64414759Y8734637D01*
X64179727Y8891680D01*
X63918574Y8999853D01*
X63641335Y9055000D01*
X63358665Y9055000D01*
X63081426Y8999853D01*
X62820273Y8891680D01*
X62585241Y8734637D01*
X62385363Y8534759D01*
X62258324Y8344632D01*
X62255615Y8344365D01*
X62210914Y8330805D01*
X62074637Y8534759D01*
X61944271Y8665125D01*
X65094597Y11815450D01*
X65122637Y11838462D01*
X65145650Y11866503D01*
X65145653Y11866506D01*
X65170517Y11896803D01*
X65214487Y11950380D01*
X65282737Y12078067D01*
X65324765Y12216615D01*
X65335400Y12324595D01*
X65335400Y12324596D01*
X65338956Y12360699D01*
X65335400Y12396804D01*
X65335400Y20093296D01*
X65338956Y20129401D01*
X65336435Y20155000D01*
X65546335Y20155000D01*
X65823574Y20210147D01*
X66084727Y20318320D01*
X66319759Y20475363D01*
X66519637Y20675241D01*
X66676680Y20910273D01*
X66784853Y21171426D01*
X66840000Y21448665D01*
X66840000Y21731335D01*
X69050000Y21731335D01*
X69050000Y21448665D01*
X69105147Y21171426D01*
X69213320Y20910273D01*
X69370363Y20675241D01*
X69570241Y20475363D01*
X69805273Y20318320D01*
X70066426Y20210147D01*
X70343665Y20155000D01*
X70626335Y20155000D01*
X70903574Y20210147D01*
X71164727Y20318320D01*
X71399759Y20475363D01*
X71599637Y20675241D01*
X71756680Y20910273D01*
X71864853Y21171426D01*
X71920000Y21448665D01*
X71920000Y21731335D01*
X71864853Y22008574D01*
X71756680Y22269727D01*
X71599637Y22504759D01*
X71399759Y22704637D01*
X71164727Y22861680D01*
X70903574Y22969853D01*
X70626335Y23025000D01*
X70343665Y23025000D01*
X70066426Y22969853D01*
X69805273Y22861680D01*
X69570241Y22704637D01*
X69370363Y22504759D01*
X69213320Y22269727D01*
X69105147Y22008574D01*
X69050000Y21731335D01*
X66840000Y21731335D01*
X66784853Y22008574D01*
X66676680Y22269727D01*
X66519637Y22504759D01*
X66319759Y22704637D01*
X66084727Y22861680D01*
X65823574Y22969853D01*
X65546335Y23025000D01*
X65263665Y23025000D01*
X64986426Y22969853D01*
X64725273Y22861680D01*
X64490241Y22704637D01*
X64290363Y22504759D01*
X64133320Y22269727D01*
X64025147Y22008574D01*
X63970000Y21731335D01*
X63970000Y21448665D01*
X64012178Y21236624D01*
X63967954Y21192400D01*
X61709025Y21192400D01*
X61760000Y21448665D01*
X61760000Y21731335D01*
X61704853Y22008574D01*
X61596680Y22269727D01*
X61439637Y22504759D01*
X61239759Y22704637D01*
X61004727Y22861680D01*
X60743574Y22969853D01*
X60466335Y23025000D01*
X60183665Y23025000D01*
X59906426Y22969853D01*
X59645273Y22861680D01*
X59410241Y22704637D01*
X59210363Y22504759D01*
X59053320Y22269727D01*
X58945147Y22008574D01*
X58890000Y21731335D01*
X58890000Y21448665D01*
X58940975Y21192400D01*
X56629025Y21192400D01*
X56680000Y21448665D01*
X56680000Y21731335D01*
X56624853Y22008574D01*
X56516680Y22269727D01*
X56359637Y22504759D01*
X56159759Y22704637D01*
X55924727Y22861680D01*
X55663574Y22969853D01*
X55386335Y23025000D01*
X55103665Y23025000D01*
X54826426Y22969853D01*
X54565273Y22861680D01*
X54330241Y22704637D01*
X54130363Y22504759D01*
X53973320Y22269727D01*
X53865147Y22008574D01*
X53810000Y21731335D01*
X53810000Y21448665D01*
X53860975Y21192400D01*
X45681183Y21192400D01*
X45701185Y21208815D01*
X45780537Y21305506D01*
X45839502Y21415820D01*
X45875812Y21535518D01*
X45888072Y21660000D01*
X45888072Y24060000D01*
X45875812Y24184482D01*
X45839502Y24304180D01*
X45780537Y24414494D01*
X45701185Y24511185D01*
X45604494Y24590537D01*
X45494180Y24649502D01*
X45374482Y24685812D01*
X45250000Y24698072D01*
X44726718Y24698072D01*
X46567493Y26538846D01*
X46595538Y26561862D01*
X46687387Y26673780D01*
X46755637Y26801467D01*
X46797665Y26940015D01*
X46808300Y27047995D01*
X46811856Y27084099D01*
X46808300Y27120204D01*
X46808300Y28860960D01*
X53853091Y28860960D01*
X53947930Y28596119D01*
X54092615Y28354869D01*
X54281586Y28146481D01*
X54507580Y27978963D01*
X54761913Y27858754D01*
X54895961Y27818096D01*
X55118000Y27940085D01*
X55118000Y29083000D01*
X55372000Y29083000D01*
X55372000Y27940085D01*
X55594039Y27818096D01*
X55728087Y27858754D01*
X55982420Y27978963D01*
X56208414Y28146481D01*
X56397385Y28354869D01*
X56542070Y28596119D01*
X56636909Y28860960D01*
X58933091Y28860960D01*
X59027930Y28596119D01*
X59172615Y28354869D01*
X59361586Y28146481D01*
X59587580Y27978963D01*
X59841913Y27858754D01*
X59975961Y27818096D01*
X60198000Y27940085D01*
X60198000Y29083000D01*
X60452000Y29083000D01*
X60452000Y27940085D01*
X60674039Y27818096D01*
X60808087Y27858754D01*
X61062420Y27978963D01*
X61288414Y28146481D01*
X61477385Y28354869D01*
X61622070Y28596119D01*
X61716909Y28860960D01*
X64013091Y28860960D01*
X64107930Y28596119D01*
X64252615Y28354869D01*
X64441586Y28146481D01*
X64667580Y27978963D01*
X64921913Y27858754D01*
X65055961Y27818096D01*
X65278000Y27940085D01*
X65278000Y29083000D01*
X65532000Y29083000D01*
X65532000Y27940085D01*
X65754039Y27818096D01*
X65888087Y27858754D01*
X66142420Y27978963D01*
X66368414Y28146481D01*
X66557385Y28354869D01*
X66702070Y28596119D01*
X66796909Y28860960D01*
X69093091Y28860960D01*
X69187930Y28596119D01*
X69332615Y28354869D01*
X69521586Y28146481D01*
X69747580Y27978963D01*
X70001913Y27858754D01*
X70135961Y27818096D01*
X70358000Y27940085D01*
X70358000Y29083000D01*
X70612000Y29083000D01*
X70612000Y27940085D01*
X70834039Y27818096D01*
X70968087Y27858754D01*
X71222420Y27978963D01*
X71448414Y28146481D01*
X71637385Y28354869D01*
X71782070Y28596119D01*
X71876909Y28860960D01*
X71755624Y29083000D01*
X70612000Y29083000D01*
X70358000Y29083000D01*
X69214376Y29083000D01*
X69093091Y28860960D01*
X66796909Y28860960D01*
X66675624Y29083000D01*
X65532000Y29083000D01*
X65278000Y29083000D01*
X64134376Y29083000D01*
X64013091Y28860960D01*
X61716909Y28860960D01*
X61595624Y29083000D01*
X60452000Y29083000D01*
X60198000Y29083000D01*
X59054376Y29083000D01*
X58933091Y28860960D01*
X56636909Y28860960D01*
X56515624Y29083000D01*
X55372000Y29083000D01*
X55118000Y29083000D01*
X53974376Y29083000D01*
X53853091Y28860960D01*
X46808300Y28860960D01*
X46808300Y29559040D01*
X53853091Y29559040D01*
X53974376Y29337000D01*
X55118000Y29337000D01*
X55118000Y30479915D01*
X55372000Y30479915D01*
X55372000Y29337000D01*
X56515624Y29337000D01*
X56636909Y29559040D01*
X58933091Y29559040D01*
X59054376Y29337000D01*
X60198000Y29337000D01*
X60198000Y30479915D01*
X60452000Y30479915D01*
X60452000Y29337000D01*
X61595624Y29337000D01*
X61716909Y29559040D01*
X64013091Y29559040D01*
X64134376Y29337000D01*
X65278000Y29337000D01*
X65278000Y30479915D01*
X65532000Y30479915D01*
X65532000Y29337000D01*
X66675624Y29337000D01*
X66796909Y29559040D01*
X69093091Y29559040D01*
X69214376Y29337000D01*
X70358000Y29337000D01*
X70358000Y30479915D01*
X70612000Y30479915D01*
X70612000Y29337000D01*
X71755624Y29337000D01*
X71876909Y29559040D01*
X71782070Y29823881D01*
X71637385Y30065131D01*
X71448414Y30273519D01*
X71222420Y30441037D01*
X70968087Y30561246D01*
X70834039Y30601904D01*
X70612000Y30479915D01*
X70358000Y30479915D01*
X70135961Y30601904D01*
X70001913Y30561246D01*
X69747580Y30441037D01*
X69521586Y30273519D01*
X69332615Y30065131D01*
X69187930Y29823881D01*
X69093091Y29559040D01*
X66796909Y29559040D01*
X66702070Y29823881D01*
X66557385Y30065131D01*
X66368414Y30273519D01*
X66142420Y30441037D01*
X65888087Y30561246D01*
X65754039Y30601904D01*
X65532000Y30479915D01*
X65278000Y30479915D01*
X65055961Y30601904D01*
X64921913Y30561246D01*
X64667580Y30441037D01*
X64441586Y30273519D01*
X64252615Y30065131D01*
X64107930Y29823881D01*
X64013091Y29559040D01*
X61716909Y29559040D01*
X61622070Y29823881D01*
X61477385Y30065131D01*
X61288414Y30273519D01*
X61062420Y30441037D01*
X60808087Y30561246D01*
X60674039Y30601904D01*
X60452000Y30479915D01*
X60198000Y30479915D01*
X59975961Y30601904D01*
X59841913Y30561246D01*
X59587580Y30441037D01*
X59361586Y30273519D01*
X59172615Y30065131D01*
X59027930Y29823881D01*
X58933091Y29559040D01*
X56636909Y29559040D01*
X56542070Y29823881D01*
X56397385Y30065131D01*
X56208414Y30273519D01*
X55982420Y30441037D01*
X55728087Y30561246D01*
X55594039Y30601904D01*
X55372000Y30479915D01*
X55118000Y30479915D01*
X54895961Y30601904D01*
X54761913Y30561246D01*
X54507580Y30441037D01*
X54281586Y30273519D01*
X54092615Y30065131D01*
X53947930Y29823881D01*
X53853091Y29559040D01*
X46808300Y29559040D01*
X46808300Y30612054D01*
X51271413Y35075166D01*
X51290764Y34878692D01*
X51372818Y34608193D01*
X51506068Y34358900D01*
X51685392Y34140393D01*
X51903899Y33961068D01*
X52153192Y33827818D01*
X52423691Y33745764D01*
X52705000Y33718057D01*
X52986308Y33745764D01*
X53256807Y33827818D01*
X53506100Y33961068D01*
X53724607Y34140392D01*
X53903932Y34358899D01*
X53975000Y34491858D01*
X54046068Y34358900D01*
X54225392Y34140393D01*
X54443899Y33961068D01*
X54693192Y33827818D01*
X54963691Y33745764D01*
X55245000Y33718057D01*
X55526308Y33745764D01*
X55796807Y33827818D01*
X56046100Y33961068D01*
X56264607Y34140392D01*
X56443932Y34358899D01*
X56515000Y34491858D01*
X56586068Y34358900D01*
X56765392Y34140393D01*
X56983899Y33961068D01*
X57233192Y33827818D01*
X57503691Y33745764D01*
X57785000Y33718057D01*
X58066308Y33745764D01*
X58336807Y33827818D01*
X58586100Y33961068D01*
X58804607Y34140392D01*
X58983932Y34358899D01*
X59055000Y34491858D01*
X59126068Y34358900D01*
X59305392Y34140393D01*
X59523899Y33961068D01*
X59773192Y33827818D01*
X60043691Y33745764D01*
X60325000Y33718057D01*
X60606308Y33745764D01*
X60876807Y33827818D01*
X61126100Y33961068D01*
X61344607Y34140392D01*
X61523932Y34358899D01*
X61595000Y34491858D01*
X61666068Y34358900D01*
X61845392Y34140393D01*
X62063899Y33961068D01*
X62313192Y33827818D01*
X62583691Y33745764D01*
X62865000Y33718057D01*
X63146308Y33745764D01*
X63416807Y33827818D01*
X63666100Y33961068D01*
X63884607Y34140392D01*
X64063932Y34358899D01*
X64135000Y34491858D01*
X64206068Y34358900D01*
X64385392Y34140393D01*
X64603899Y33961068D01*
X64853192Y33827818D01*
X65123691Y33745764D01*
X65405000Y33718057D01*
X65686308Y33745764D01*
X65956807Y33827818D01*
X66206100Y33961068D01*
X66424607Y34140392D01*
X66603932Y34358899D01*
X66675000Y34491858D01*
X66746068Y34358900D01*
X66925392Y34140393D01*
X67143899Y33961068D01*
X67393192Y33827818D01*
X67663691Y33745764D01*
X67945000Y33718057D01*
X68226308Y33745764D01*
X68496807Y33827818D01*
X68746100Y33961068D01*
X68964607Y34140392D01*
X69143932Y34358899D01*
X69215000Y34491858D01*
X69286068Y34358900D01*
X69465392Y34140393D01*
X69683899Y33961068D01*
X69933192Y33827818D01*
X70203691Y33745764D01*
X70485000Y33718057D01*
X70766308Y33745764D01*
X71036807Y33827818D01*
X71286100Y33961068D01*
X71504607Y34140392D01*
X71683932Y34358899D01*
X71817182Y34608192D01*
X71899236Y34878691D01*
X71920000Y35089508D01*
X71920000Y36030491D01*
X71899236Y36241309D01*
X71817182Y36511808D01*
X71683932Y36761101D01*
X71504608Y36979608D01*
X71286101Y37158932D01*
X71036808Y37292182D01*
X70766309Y37374236D01*
X70485000Y37401943D01*
X70203692Y37374236D01*
X69933193Y37292182D01*
X69683900Y37158932D01*
X69465393Y36979608D01*
X69286068Y36761101D01*
X69215000Y36628142D01*
X69143932Y36761101D01*
X68964608Y36979608D01*
X68746101Y37158932D01*
X68496808Y37292182D01*
X68226309Y37374236D01*
X67945000Y37401943D01*
X67663692Y37374236D01*
X67393193Y37292182D01*
X67143900Y37158932D01*
X66925393Y36979608D01*
X66746068Y36761101D01*
X66675000Y36628142D01*
X66603932Y36761101D01*
X66424608Y36979608D01*
X66206101Y37158932D01*
X65956808Y37292182D01*
X65686309Y37374236D01*
X65405000Y37401943D01*
X65123692Y37374236D01*
X64853193Y37292182D01*
X64603900Y37158932D01*
X64385393Y36979608D01*
X64206068Y36761101D01*
X64135000Y36628142D01*
X64063932Y36761101D01*
X63884608Y36979608D01*
X63666101Y37158932D01*
X63416808Y37292182D01*
X63146309Y37374236D01*
X62865000Y37401943D01*
X62583692Y37374236D01*
X62313193Y37292182D01*
X62063900Y37158932D01*
X61845393Y36979608D01*
X61666068Y36761101D01*
X61595000Y36628142D01*
X61523932Y36761101D01*
X61344608Y36979608D01*
X61126101Y37158932D01*
X60876808Y37292182D01*
X60606309Y37374236D01*
X60325000Y37401943D01*
X60043692Y37374236D01*
X59773193Y37292182D01*
X59523900Y37158932D01*
X59305393Y36979608D01*
X59126068Y36761101D01*
X59055000Y36628142D01*
X58983932Y36761101D01*
X58804608Y36979608D01*
X58586101Y37158932D01*
X58336808Y37292182D01*
X58066309Y37374236D01*
X57785000Y37401943D01*
X57503692Y37374236D01*
X57233193Y37292182D01*
X56983900Y37158932D01*
X56765393Y36979608D01*
X56586068Y36761101D01*
X56515000Y36628142D01*
X56443932Y36761101D01*
X56264608Y36979608D01*
X56046101Y37158932D01*
X55796808Y37292182D01*
X55526309Y37374236D01*
X55245000Y37401943D01*
X55017036Y37379490D01*
X55918881Y38281335D01*
X72225000Y38281335D01*
X72225000Y37998665D01*
X72280147Y37721426D01*
X72388320Y37460273D01*
X72545363Y37225241D01*
X72745241Y37025363D01*
X72980273Y36868320D01*
X73241426Y36760147D01*
X73518665Y36705000D01*
X73801335Y36705000D01*
X74078574Y36760147D01*
X74339727Y36868320D01*
X74574759Y37025363D01*
X74774637Y37225241D01*
X74931680Y37460273D01*
X75039853Y37721426D01*
X75095000Y37998665D01*
X75095000Y38281335D01*
X75039853Y38558574D01*
X74931680Y38819727D01*
X74774637Y39054759D01*
X74574759Y39254637D01*
X74374131Y39388692D01*
X74401514Y39403329D01*
X74473097Y39647298D01*
X73660000Y40460395D01*
X72846903Y39647298D01*
X72918486Y39403329D01*
X72947341Y39389676D01*
X72745241Y39254637D01*
X72545363Y39054759D01*
X72388320Y38819727D01*
X72280147Y38558574D01*
X72225000Y38281335D01*
X55918881Y38281335D01*
X58207034Y40569488D01*
X72219783Y40569488D01*
X72261213Y40289870D01*
X72356397Y40023708D01*
X72423329Y39898486D01*
X72667298Y39826903D01*
X73480395Y40640000D01*
X73839605Y40640000D01*
X74652702Y39826903D01*
X74896671Y39898486D01*
X75017571Y40153996D01*
X75086300Y40428184D01*
X75100217Y40710512D01*
X75058787Y40990130D01*
X74963603Y41256292D01*
X74896671Y41381514D01*
X74652702Y41453097D01*
X73839605Y40640000D01*
X73480395Y40640000D01*
X72667298Y41453097D01*
X72423329Y41381514D01*
X72302429Y41126004D01*
X72233700Y40851816D01*
X72219783Y40569488D01*
X58207034Y40569488D01*
X59357007Y41719460D01*
X59400105Y41675500D01*
X59633354Y41516285D01*
X59893182Y41405633D01*
X59975961Y41388096D01*
X60198000Y41510085D01*
X60198000Y43053000D01*
X60452000Y43053000D01*
X60452000Y41510085D01*
X60674039Y41388096D01*
X60756818Y41405633D01*
X61016646Y41516285D01*
X61249895Y41675500D01*
X61447601Y41877161D01*
X61595000Y42102559D01*
X61742399Y41877161D01*
X61940105Y41675500D01*
X62173354Y41516285D01*
X62433182Y41405633D01*
X62515961Y41388096D01*
X62738000Y41510085D01*
X62738000Y43053000D01*
X62992000Y43053000D01*
X62992000Y41510085D01*
X63214039Y41388096D01*
X63296818Y41405633D01*
X63556646Y41516285D01*
X63789895Y41675500D01*
X63987601Y41877161D01*
X64135000Y42102559D01*
X64282399Y41877161D01*
X64480105Y41675500D01*
X64713354Y41516285D01*
X64973182Y41405633D01*
X65055961Y41388096D01*
X65278000Y41510085D01*
X65278000Y43053000D01*
X62992000Y43053000D01*
X62738000Y43053000D01*
X60452000Y43053000D01*
X60198000Y43053000D01*
X60178000Y43053000D01*
X60178000Y43307000D01*
X60198000Y43307000D01*
X60198000Y43327000D01*
X60452000Y43327000D01*
X60452000Y43307000D01*
X62738000Y43307000D01*
X62738000Y43327000D01*
X62992000Y43327000D01*
X62992000Y43307000D01*
X65278000Y43307000D01*
X65278000Y43327000D01*
X65532000Y43327000D01*
X65532000Y43307000D01*
X65552000Y43307000D01*
X65552000Y43053000D01*
X65532000Y43053000D01*
X65532000Y41510085D01*
X65754039Y41388096D01*
X65836818Y41405633D01*
X66096646Y41516285D01*
X66329895Y41675500D01*
X66527601Y41877161D01*
X66677735Y42106742D01*
X66746068Y41978900D01*
X66925392Y41760393D01*
X67143899Y41581068D01*
X67393192Y41447818D01*
X67663691Y41365764D01*
X67945000Y41338057D01*
X68226308Y41365764D01*
X68496807Y41447818D01*
X68746100Y41581068D01*
X68964607Y41760392D01*
X69057419Y41873483D01*
X69059188Y41855518D01*
X69095498Y41735820D01*
X69154463Y41625506D01*
X69233815Y41528815D01*
X69330506Y41449463D01*
X69440820Y41390498D01*
X69560518Y41354188D01*
X69685000Y41341928D01*
X71285000Y41341928D01*
X71409482Y41354188D01*
X71529180Y41390498D01*
X71639494Y41449463D01*
X71736185Y41528815D01*
X71815537Y41625506D01*
X71819383Y41632702D01*
X72846903Y41632702D01*
X73660000Y40819605D01*
X74473097Y41632702D01*
X74401514Y41876671D01*
X74146004Y41997571D01*
X73871816Y42066300D01*
X73589488Y42080217D01*
X73309870Y42038787D01*
X73043708Y41943603D01*
X72918486Y41876671D01*
X72846903Y41632702D01*
X71819383Y41632702D01*
X71874502Y41735820D01*
X71910812Y41855518D01*
X71923072Y41980000D01*
X71923072Y44380000D01*
X71910812Y44504482D01*
X71874502Y44624180D01*
X71815537Y44734494D01*
X71736185Y44831185D01*
X71639494Y44910537D01*
X71529180Y44969502D01*
X71409482Y45005812D01*
X71285000Y45018072D01*
X69685000Y45018072D01*
X69560518Y45005812D01*
X69440820Y44969502D01*
X69330506Y44910537D01*
X69233815Y44831185D01*
X69154463Y44734494D01*
X69095498Y44624180D01*
X69059188Y44504482D01*
X69057419Y44486518D01*
X68964608Y44599608D01*
X68746101Y44778932D01*
X68496808Y44912182D01*
X68226309Y44994236D01*
X68071891Y45009445D01*
X69554193Y46491746D01*
X69582238Y46514762D01*
X69674087Y46626680D01*
X69725889Y46723595D01*
X69742337Y46754366D01*
X69784365Y46892915D01*
X69798556Y47037000D01*
X69795000Y47073105D01*
X69795000Y49086295D01*
X69798556Y49122400D01*
X69784365Y49266486D01*
X69759037Y49349981D01*
X69742337Y49405033D01*
X69674087Y49532720D01*
X69630117Y49586297D01*
X69605253Y49616594D01*
X69605250Y49616597D01*
X69582237Y49644638D01*
X69554197Y49667649D01*
X68280511Y50941335D01*
X69685000Y50941335D01*
X69685000Y50658665D01*
X69740147Y50381426D01*
X69848320Y50120273D01*
X70005363Y49885241D01*
X70205241Y49685363D01*
X70440273Y49528320D01*
X70701426Y49420147D01*
X70978665Y49365000D01*
X71261335Y49365000D01*
X71538574Y49420147D01*
X71799727Y49528320D01*
X72034759Y49685363D01*
X72234637Y49885241D01*
X72391680Y50120273D01*
X72499853Y50381426D01*
X72555000Y50658665D01*
X72555000Y50941335D01*
X72499853Y51218574D01*
X72391680Y51479727D01*
X72234637Y51714759D01*
X72034759Y51914637D01*
X71834131Y52048692D01*
X71861514Y52063329D01*
X71933097Y52307298D01*
X71120000Y53120395D01*
X70306903Y52307298D01*
X70378486Y52063329D01*
X70407341Y52049676D01*
X70205241Y51914637D01*
X70005363Y51714759D01*
X69848320Y51479727D01*
X69740147Y51218574D01*
X69685000Y50941335D01*
X68280511Y50941335D01*
X65992358Y53229488D01*
X69679783Y53229488D01*
X69721213Y52949870D01*
X69816397Y52683708D01*
X69883329Y52558486D01*
X70127298Y52486903D01*
X70940395Y53300000D01*
X71299605Y53300000D01*
X72112702Y52486903D01*
X72356671Y52558486D01*
X72477571Y52813996D01*
X72546300Y53088184D01*
X72560217Y53370512D01*
X72518787Y53650130D01*
X72423603Y53916292D01*
X72356671Y54041514D01*
X72112702Y54113097D01*
X71299605Y53300000D01*
X70940395Y53300000D01*
X70127298Y54113097D01*
X69883329Y54041514D01*
X69762429Y53786004D01*
X69693700Y53511816D01*
X69679783Y53229488D01*
X65992358Y53229488D01*
X65159621Y54062225D01*
X65405000Y54038057D01*
X65686308Y54065764D01*
X65956807Y54147818D01*
X66206100Y54281068D01*
X66424607Y54460392D01*
X66517419Y54573483D01*
X66519188Y54555518D01*
X66555498Y54435820D01*
X66614463Y54325506D01*
X66693815Y54228815D01*
X66790506Y54149463D01*
X66900820Y54090498D01*
X67020518Y54054188D01*
X67145000Y54041928D01*
X68745000Y54041928D01*
X68869482Y54054188D01*
X68989180Y54090498D01*
X69099494Y54149463D01*
X69196185Y54228815D01*
X69248615Y54292702D01*
X70306903Y54292702D01*
X71120000Y53479605D01*
X71933097Y54292702D01*
X71861514Y54536671D01*
X71606004Y54657571D01*
X71331816Y54726300D01*
X71049488Y54740217D01*
X70769870Y54698787D01*
X70503708Y54603603D01*
X70378486Y54536671D01*
X70306903Y54292702D01*
X69248615Y54292702D01*
X69275537Y54325506D01*
X69334502Y54435820D01*
X69370812Y54555518D01*
X69383072Y54680000D01*
X69383072Y57080000D01*
X69370812Y57204482D01*
X69334502Y57324180D01*
X69275537Y57434494D01*
X69196185Y57531185D01*
X69099494Y57610537D01*
X68989180Y57669502D01*
X68869482Y57705812D01*
X68745000Y57718072D01*
X67145000Y57718072D01*
X67020518Y57705812D01*
X66900820Y57669502D01*
X66790506Y57610537D01*
X66693815Y57531185D01*
X66614463Y57434494D01*
X66555498Y57324180D01*
X66519188Y57204482D01*
X66517419Y57186518D01*
X66424608Y57299608D01*
X66206101Y57478932D01*
X65956808Y57612182D01*
X65686309Y57694236D01*
X65405000Y57721943D01*
X65123692Y57694236D01*
X64853193Y57612182D01*
X64603900Y57478932D01*
X64385393Y57299608D01*
X64206068Y57081101D01*
X64135000Y56948142D01*
X64063932Y57081101D01*
X63884608Y57299608D01*
X63666101Y57478932D01*
X63416808Y57612182D01*
X63146309Y57694236D01*
X62865000Y57721943D01*
X62583692Y57694236D01*
X62313193Y57612182D01*
X62063900Y57478932D01*
X61845393Y57299608D01*
X61666068Y57081101D01*
X61595000Y56948142D01*
X61523932Y57081101D01*
X61344608Y57299608D01*
X61126101Y57478932D01*
X60876808Y57612182D01*
X60606309Y57694236D01*
X60325000Y57721943D01*
X60043692Y57694236D01*
X59773193Y57612182D01*
X59523900Y57478932D01*
X59305393Y57299608D01*
X59126068Y57081101D01*
X59055000Y56948142D01*
X58983932Y57081101D01*
X58804608Y57299608D01*
X58586101Y57478932D01*
X58336808Y57612182D01*
X58066309Y57694236D01*
X57785000Y57721943D01*
X57503692Y57694236D01*
X57233193Y57612182D01*
X56983900Y57478932D01*
X56765393Y57299608D01*
X56586068Y57081101D01*
X56515000Y56948142D01*
X56443932Y57081101D01*
X56264608Y57299608D01*
X56046101Y57478932D01*
X55796808Y57612182D01*
X55526309Y57694236D01*
X55245000Y57721943D01*
X54963692Y57694236D01*
X54693193Y57612182D01*
X54460679Y57487901D01*
X54436438Y57517438D01*
X54408393Y57540454D01*
X45441659Y66507187D01*
X45418638Y66535238D01*
X45306720Y66627087D01*
X45179033Y66695337D01*
X45040485Y66737365D01*
X44932505Y66748000D01*
X44896400Y66751556D01*
X44860295Y66748000D01*
X44550951Y66748000D01*
X44731308Y66765764D01*
X45001807Y66847818D01*
X45251100Y66981068D01*
X45469607Y67160392D01*
X45648932Y67378899D01*
X45782182Y67628192D01*
X45864236Y67898691D01*
X45885000Y68109508D01*
X45885000Y69050491D01*
X45864236Y69261309D01*
X45829520Y69375754D01*
X45902733Y69397963D01*
X46030420Y69466213D01*
X46142338Y69558062D01*
X46165359Y69586113D01*
X59799374Y83220128D01*
X71765000Y83220128D01*
X71765000Y82779872D01*
X71850890Y82348075D01*
X72019369Y81941331D01*
X72263962Y81575271D01*
X72575271Y81263962D01*
X72941331Y81019369D01*
X73348075Y80850890D01*
X73779872Y80765000D01*
X74220128Y80765000D01*
X74651925Y80850890D01*
X75058669Y81019369D01*
X75424729Y81263962D01*
X75736038Y81575271D01*
X75980631Y81941331D01*
X76149110Y82348075D01*
X76235000Y82779872D01*
X76235000Y83220128D01*
X76149110Y83651925D01*
X75980631Y84058669D01*
X75736038Y84424729D01*
X75424729Y84736038D01*
X75058669Y84980631D01*
X74651925Y85149110D01*
X74220128Y85235000D01*
X73779872Y85235000D01*
X73348075Y85149110D01*
X72941331Y84980631D01*
X72575271Y84736038D01*
X72263962Y84424729D01*
X72019369Y84058669D01*
X71850890Y83651925D01*
X71765000Y83220128D01*
X59799374Y83220128D01*
X61454198Y84874951D01*
X61482237Y84897962D01*
X61505250Y84926003D01*
X61505253Y84926006D01*
X61574087Y85009880D01*
X61642337Y85137566D01*
X61684365Y85276115D01*
X61698556Y85420200D01*
X61695000Y85456305D01*
X61695000Y88861928D01*
X61850000Y88861928D01*
X61962420Y88873000D01*
X62854033Y88873000D01*
X62904052Y88812052D01*
X63004550Y88729575D01*
X63119207Y88668290D01*
X63243617Y88630550D01*
X63340581Y88621000D01*
X63373000Y88617807D01*
X63405419Y88621000D01*
X78334045Y88621000D01*
X78339956Y660000D01*
X660000Y660000D01*
X660000Y5220128D01*
X2765000Y5220128D01*
X2765000Y4779872D01*
X2850890Y4348075D01*
X3019369Y3941331D01*
X3263962Y3575271D01*
X3575271Y3263962D01*
X3941331Y3019369D01*
X4348075Y2850890D01*
X4779872Y2765000D01*
X5220128Y2765000D01*
X5651925Y2850890D01*
X6058669Y3019369D01*
X6424729Y3263962D01*
X6736038Y3575271D01*
X6980631Y3941331D01*
X7149110Y4348075D01*
X7235000Y4779872D01*
X7235000Y5220128D01*
X71765000Y5220128D01*
X71765000Y4779872D01*
X71850890Y4348075D01*
X72019369Y3941331D01*
X72263962Y3575271D01*
X72575271Y3263962D01*
X72941331Y3019369D01*
X73348075Y2850890D01*
X73779872Y2765000D01*
X74220128Y2765000D01*
X74651925Y2850890D01*
X75058669Y3019369D01*
X75424729Y3263962D01*
X75736038Y3575271D01*
X75980631Y3941331D01*
X76149110Y4348075D01*
X76235000Y4779872D01*
X76235000Y5220128D01*
X76149110Y5651925D01*
X75980631Y6058669D01*
X75736038Y6424729D01*
X75424729Y6736038D01*
X75058669Y6980631D01*
X74651925Y7149110D01*
X74220128Y7235000D01*
X73779872Y7235000D01*
X73348075Y7149110D01*
X72941331Y6980631D01*
X72575271Y6736038D01*
X72263962Y6424729D01*
X72019369Y6058669D01*
X71850890Y5651925D01*
X71765000Y5220128D01*
X7235000Y5220128D01*
X7149110Y5651925D01*
X6980631Y6058669D01*
X6736038Y6424729D01*
X6424729Y6736038D01*
X6058669Y6980631D01*
X5651925Y7149110D01*
X5220128Y7235000D01*
X4779872Y7235000D01*
X4348075Y7149110D01*
X3941331Y6980631D01*
X3575271Y6736038D01*
X3263962Y6424729D01*
X3019369Y6058669D01*
X2850890Y5651925D01*
X2765000Y5220128D01*
X660000Y5220128D01*
X660000Y22733000D01*
X9995000Y22733000D01*
X9995000Y22333000D01*
X10047350Y22055486D01*
X10152834Y21793517D01*
X10307399Y21557161D01*
X10505105Y21355500D01*
X10738354Y21196285D01*
X10998182Y21085633D01*
X11080961Y21068096D01*
X11303000Y21190085D01*
X11303000Y22733000D01*
X9995000Y22733000D01*
X660000Y22733000D01*
X660000Y23387000D01*
X9995000Y23387000D01*
X9995000Y22987000D01*
X11303000Y22987000D01*
X11303000Y24529915D01*
X11080961Y24651904D01*
X10998182Y24634367D01*
X10738354Y24523715D01*
X10505105Y24364500D01*
X10307399Y24162839D01*
X10152834Y23926483D01*
X10047350Y23664514D01*
X9995000Y23387000D01*
X660000Y23387000D01*
X660000Y43053000D01*
X9995000Y43053000D01*
X9995000Y42653000D01*
X10047350Y42375486D01*
X10152834Y42113517D01*
X10307399Y41877161D01*
X10505105Y41675500D01*
X10738354Y41516285D01*
X10998182Y41405633D01*
X11080961Y41388096D01*
X11303000Y41510085D01*
X11303000Y43053000D01*
X9995000Y43053000D01*
X660000Y43053000D01*
X660000Y43707000D01*
X9995000Y43707000D01*
X9995000Y43307000D01*
X11303000Y43307000D01*
X11303000Y44849915D01*
X11080961Y44971904D01*
X10998182Y44954367D01*
X10738354Y44843715D01*
X10505105Y44684500D01*
X10307399Y44482839D01*
X10152834Y44246483D01*
X10047350Y43984514D01*
X9995000Y43707000D01*
X660000Y43707000D01*
X660000Y54791335D01*
X46190000Y54791335D01*
X46190000Y54508665D01*
X46245147Y54231426D01*
X46353320Y53970273D01*
X46510363Y53735241D01*
X46710241Y53535363D01*
X46945273Y53378320D01*
X47206426Y53270147D01*
X47483665Y53215000D01*
X47766335Y53215000D01*
X48043574Y53270147D01*
X48304727Y53378320D01*
X48539759Y53535363D01*
X48739637Y53735241D01*
X48896680Y53970273D01*
X49004853Y54231426D01*
X49060000Y54508665D01*
X49060000Y54791335D01*
X49004853Y55068574D01*
X48896680Y55329727D01*
X48739637Y55564759D01*
X48551396Y55753000D01*
X51270000Y55753000D01*
X51270000Y55353000D01*
X51322350Y55075486D01*
X51427834Y54813517D01*
X51582399Y54577161D01*
X51780105Y54375500D01*
X52013354Y54216285D01*
X52273182Y54105633D01*
X52355961Y54088096D01*
X52578000Y54210085D01*
X52578000Y55753000D01*
X51270000Y55753000D01*
X48551396Y55753000D01*
X48539759Y55764637D01*
X48339131Y55898692D01*
X48366514Y55913329D01*
X48438097Y56157298D01*
X47625000Y56970395D01*
X46811903Y56157298D01*
X46883486Y55913329D01*
X46912341Y55899676D01*
X46710241Y55764637D01*
X46510363Y55564759D01*
X46353320Y55329727D01*
X46245147Y55068574D01*
X46190000Y54791335D01*
X660000Y54791335D01*
X660000Y57079488D01*
X46184783Y57079488D01*
X46226213Y56799870D01*
X46321397Y56533708D01*
X46388329Y56408486D01*
X46632298Y56336903D01*
X47445395Y57150000D01*
X47804605Y57150000D01*
X48617702Y56336903D01*
X48861671Y56408486D01*
X48982571Y56663996D01*
X49051300Y56938184D01*
X49065217Y57220512D01*
X49023787Y57500130D01*
X48928603Y57766292D01*
X48861671Y57891514D01*
X48617702Y57963097D01*
X47804605Y57150000D01*
X47445395Y57150000D01*
X46632298Y57963097D01*
X46388329Y57891514D01*
X46267429Y57636004D01*
X46198700Y57361816D01*
X46184783Y57079488D01*
X660000Y57079488D01*
X660000Y58142702D01*
X46811903Y58142702D01*
X47625000Y57329605D01*
X48438097Y58142702D01*
X48366514Y58386671D01*
X48111004Y58507571D01*
X47836816Y58576300D01*
X47554488Y58590217D01*
X47274870Y58548787D01*
X47008708Y58453603D01*
X46883486Y58386671D01*
X46811903Y58142702D01*
X660000Y58142702D01*
X660000Y63373000D01*
X9995000Y63373000D01*
X9995000Y62973000D01*
X10047350Y62695486D01*
X10152834Y62433517D01*
X10307399Y62197161D01*
X10505105Y61995500D01*
X10738354Y61836285D01*
X10998182Y61725633D01*
X11080961Y61708096D01*
X11303000Y61830085D01*
X11303000Y63373000D01*
X9995000Y63373000D01*
X660000Y63373000D01*
X660000Y64027000D01*
X9995000Y64027000D01*
X9995000Y63627000D01*
X11303000Y63627000D01*
X11303000Y65169915D01*
X11080961Y65291904D01*
X10998182Y65274367D01*
X10738354Y65163715D01*
X10505105Y65004500D01*
X10307399Y64802839D01*
X10152834Y64566483D01*
X10047350Y64304514D01*
X9995000Y64027000D01*
X660000Y64027000D01*
X660000Y83220128D01*
X2765000Y83220128D01*
X2765000Y82779872D01*
X2850890Y82348075D01*
X3019369Y81941331D01*
X3263962Y81575271D01*
X3575271Y81263962D01*
X3941331Y81019369D01*
X4348075Y80850890D01*
X4779872Y80765000D01*
X5220128Y80765000D01*
X5651925Y80850890D01*
X6058669Y81019369D01*
X6424729Y81263962D01*
X6736038Y81575271D01*
X6980631Y81941331D01*
X7149110Y82348075D01*
X7235000Y82779872D01*
X7235000Y83220128D01*
X7149110Y83651925D01*
X7132097Y83693000D01*
X9995000Y83693000D01*
X9995000Y83293000D01*
X10047350Y83015486D01*
X10152834Y82753517D01*
X10307399Y82517161D01*
X10505105Y82315500D01*
X10738354Y82156285D01*
X10998182Y82045633D01*
X11080961Y82028096D01*
X11303000Y82150085D01*
X11303000Y83693000D01*
X9995000Y83693000D01*
X7132097Y83693000D01*
X6980631Y84058669D01*
X6787975Y84347000D01*
X9995000Y84347000D01*
X9995000Y83947000D01*
X11303000Y83947000D01*
X11303000Y85489915D01*
X11080961Y85611904D01*
X10998182Y85594367D01*
X10738354Y85483715D01*
X10505105Y85324500D01*
X10307399Y85122839D01*
X10152834Y84886483D01*
X10047350Y84624514D01*
X9995000Y84347000D01*
X6787975Y84347000D01*
X6736038Y84424729D01*
X6424729Y84736038D01*
X6058669Y84980631D01*
X5651925Y85149110D01*
X5220128Y85235000D01*
X4779872Y85235000D01*
X4348075Y85149110D01*
X3941331Y84980631D01*
X3575271Y84736038D01*
X3263962Y84424729D01*
X3019369Y84058669D01*
X2850890Y83651925D01*
X2765000Y83220128D01*
X660000Y83220128D01*
X660000Y88621000D01*
X15334581Y88621000D01*
X15367000Y88617807D01*
X15399419Y88621000D01*
X15496383Y88630550D01*
X15620793Y88668290D01*
X15735450Y88729575D01*
X15835948Y88812052D01*
X15885967Y88873000D01*
X16777580Y88873000D01*
X16890000Y88861928D01*
G37*
G04 #@! TD.AperFunction*
D19*
X43295506Y21129463D02*
X43405820Y21070498D01*
X43525518Y21034188D01*
X43650000Y21021928D01*
X43797136Y21021928D01*
X43835914Y20949380D01*
X43927763Y20837462D01*
X43955808Y20814446D01*
X44807046Y19963207D01*
X44830062Y19935162D01*
X44941980Y19843313D01*
X45069667Y19775063D01*
X45208215Y19733035D01*
X45352300Y19718844D01*
X45388405Y19722400D01*
X63865401Y19722400D01*
X63865401Y16678072D01*
X62700000Y16678072D01*
X62575518Y16665812D01*
X62455820Y16629502D01*
X62345506Y16570537D01*
X62248815Y16491185D01*
X62169463Y16394494D01*
X62110498Y16284180D01*
X62074188Y16164482D01*
X62073357Y16156039D01*
X61874759Y16354637D01*
X61639727Y16511680D01*
X61378574Y16619853D01*
X61101335Y16675000D01*
X60818665Y16675000D01*
X60541426Y16619853D01*
X60280273Y16511680D01*
X60045241Y16354637D01*
X59845363Y16154759D01*
X59792070Y16075000D01*
X59587930Y16075000D01*
X59534637Y16154759D01*
X59334759Y16354637D01*
X59099727Y16511680D01*
X58838574Y16619853D01*
X58561335Y16675000D01*
X58278665Y16675000D01*
X58001426Y16619853D01*
X57740273Y16511680D01*
X57505241Y16354637D01*
X57305363Y16154759D01*
X57252070Y16075000D01*
X57047930Y16075000D01*
X56994637Y16154759D01*
X56794759Y16354637D01*
X56559727Y16511680D01*
X56298574Y16619853D01*
X56021335Y16675000D01*
X55738665Y16675000D01*
X55461426Y16619853D01*
X55200273Y16511680D01*
X54965241Y16354637D01*
X54765363Y16154759D01*
X54712604Y16075799D01*
X54679700Y16079040D01*
X54638682Y16075000D01*
X54638681Y16075000D01*
X54516011Y16062918D01*
X54358613Y16015172D01*
X54213554Y15937636D01*
X54086409Y15833291D01*
X54060263Y15801432D01*
X53103833Y14845000D01*
X48792930Y14845000D01*
X48739637Y14924759D01*
X48539759Y15124637D01*
X48339131Y15258692D01*
X48366514Y15273329D01*
X48438097Y15517298D01*
X47625000Y16330395D01*
X46811903Y15517298D01*
X46883486Y15273329D01*
X46912341Y15259676D01*
X46710241Y15124637D01*
X46510363Y14924759D01*
X46353320Y14689727D01*
X46245147Y14428574D01*
X46190000Y14151335D01*
X46190000Y13868665D01*
X46245147Y13591426D01*
X46353320Y13330273D01*
X46510363Y13095241D01*
X46710241Y12895363D01*
X46945273Y12738320D01*
X47206426Y12630147D01*
X47483665Y12575000D01*
X47766335Y12575000D01*
X48043574Y12630147D01*
X48304727Y12738320D01*
X48539759Y12895363D01*
X48739637Y13095241D01*
X48792930Y13175000D01*
X53408682Y13175000D01*
X53449700Y13170960D01*
X53490718Y13175000D01*
X53490719Y13175000D01*
X53613389Y13187082D01*
X53770787Y13234828D01*
X53915846Y13312364D01*
X54042991Y13416709D01*
X54069145Y13448578D01*
X54855586Y14235018D01*
X54965241Y14125363D01*
X55200273Y13968320D01*
X55461426Y13860147D01*
X55738665Y13805000D01*
X56021335Y13805000D01*
X56298574Y13860147D01*
X56559727Y13968320D01*
X56794759Y14125363D01*
X56994637Y14325241D01*
X57047930Y14405000D01*
X57252070Y14405000D01*
X57305363Y14325241D01*
X57505241Y14125363D01*
X57740273Y13968320D01*
X58001426Y13860147D01*
X58278665Y13805000D01*
X58561335Y13805000D01*
X58838574Y13860147D01*
X59099727Y13968320D01*
X59334759Y14125363D01*
X59534637Y14325241D01*
X59587930Y14405000D01*
X59792070Y14405000D01*
X59845363Y14325241D01*
X60045241Y14125363D01*
X60280273Y13968320D01*
X60541426Y13860147D01*
X60818665Y13805000D01*
X61101335Y13805000D01*
X61378574Y13860147D01*
X61639727Y13968320D01*
X61874759Y14125363D01*
X62073357Y14323961D01*
X62074188Y14315518D01*
X62110498Y14195820D01*
X62169463Y14085506D01*
X62248815Y13988815D01*
X62345506Y13909463D01*
X62455820Y13850498D01*
X62575518Y13814188D01*
X62700000Y13801928D01*
X63865400Y13801928D01*
X63865400Y12665147D01*
X60465808Y9265554D01*
X60437763Y9242538D01*
X60345914Y9130620D01*
X60297267Y9039608D01*
X60277664Y9002933D01*
X60235635Y8864385D01*
X60235368Y8861676D01*
X60045241Y8734637D01*
X59845363Y8534759D01*
X59690000Y8302241D01*
X59534637Y8534759D01*
X59334759Y8734637D01*
X59099727Y8891680D01*
X58838574Y8999853D01*
X58561335Y9055000D01*
X58278665Y9055000D01*
X58001426Y8999853D01*
X57740273Y8891680D01*
X57505241Y8734637D01*
X57305363Y8534759D01*
X57150000Y8302241D01*
X56994637Y8534759D01*
X56794759Y8734637D01*
X56559727Y8891680D01*
X56298574Y8999853D01*
X56021335Y9055000D01*
X55738665Y9055000D01*
X55461426Y8999853D01*
X55200273Y8891680D01*
X54965241Y8734637D01*
X54765363Y8534759D01*
X54608320Y8299727D01*
X54500147Y8038574D01*
X54445000Y7761335D01*
X54445000Y7478665D01*
X54500147Y7201426D01*
X54608320Y6940273D01*
X54665498Y6854700D01*
X45838758Y6854700D01*
X45864236Y6938691D01*
X45885000Y7149508D01*
X45885000Y8090491D01*
X45864236Y8301309D01*
X45782182Y8571808D01*
X45648932Y8821101D01*
X45469608Y9039608D01*
X45251101Y9218932D01*
X45001808Y9352182D01*
X44731309Y9434236D01*
X44450000Y9461943D01*
X44168692Y9434236D01*
X43898193Y9352182D01*
X43648900Y9218932D01*
X43430393Y9039608D01*
X43251068Y8821101D01*
X43180000Y8688142D01*
X43108932Y8821101D01*
X42929608Y9039608D01*
X42711101Y9218932D01*
X42461808Y9352182D01*
X42191309Y9434236D01*
X41910000Y9461943D01*
X41628692Y9434236D01*
X41358193Y9352182D01*
X41108900Y9218932D01*
X40890393Y9039608D01*
X40711068Y8821101D01*
X40640000Y8688142D01*
X40568932Y8821101D01*
X40389608Y9039608D01*
X40171101Y9218932D01*
X39921808Y9352182D01*
X39651309Y9434236D01*
X39370000Y9461943D01*
X39088692Y9434236D01*
X38818193Y9352182D01*
X38568900Y9218932D01*
X38350393Y9039608D01*
X38171068Y8821101D01*
X38100000Y8688142D01*
X38028932Y8821101D01*
X37849608Y9039608D01*
X37631101Y9218932D01*
X37381808Y9352182D01*
X37111309Y9434236D01*
X36830000Y9461943D01*
X36548692Y9434236D01*
X36278193Y9352182D01*
X36028900Y9218932D01*
X35810393Y9039608D01*
X35631068Y8821101D01*
X35560000Y8688142D01*
X35488932Y8821101D01*
X35309608Y9039608D01*
X35091101Y9218932D01*
X34841808Y9352182D01*
X34571309Y9434236D01*
X34290000Y9461943D01*
X34008692Y9434236D01*
X33738193Y9352182D01*
X33488900Y9218932D01*
X33270393Y9039608D01*
X33091068Y8821101D01*
X33020000Y8688142D01*
X32948932Y8821101D01*
X32769608Y9039608D01*
X32551101Y9218932D01*
X32301808Y9352182D01*
X32031309Y9434236D01*
X31750000Y9461943D01*
X31549435Y9442189D01*
X38546734Y16439488D01*
X46184783Y16439488D01*
X46226213Y16159870D01*
X46321397Y15893708D01*
X46388329Y15768486D01*
X46632298Y15696903D01*
X47445395Y16510000D01*
X47804605Y16510000D01*
X48617702Y15696903D01*
X48861671Y15768486D01*
X48982571Y16023996D01*
X49051300Y16298184D01*
X49065217Y16580512D01*
X49023787Y16860130D01*
X48928603Y17126292D01*
X48861671Y17251514D01*
X48617702Y17323097D01*
X47804605Y16510000D01*
X47445395Y16510000D01*
X46632298Y17323097D01*
X46388329Y17251514D01*
X46267429Y16996004D01*
X46198700Y16721816D01*
X46184783Y16439488D01*
X38546734Y16439488D01*
X39609948Y17502702D01*
X46811903Y17502702D01*
X47625000Y16689605D01*
X48438097Y17502702D01*
X48366514Y17746671D01*
X48111004Y17867571D01*
X47836816Y17936300D01*
X47554488Y17950217D01*
X47274870Y17908787D01*
X47008708Y17813603D01*
X46883486Y17746671D01*
X46811903Y17502702D01*
X39609948Y17502702D01*
X43263212Y21155966D01*
X43295506Y21129463D01*
G04 #@! TA.AperFunction,Conductor*
D20*
G36*
X43295506Y21129463D02*
G01*
X43405820Y21070498D01*
X43525518Y21034188D01*
X43650000Y21021928D01*
X43797136Y21021928D01*
X43835914Y20949380D01*
X43927763Y20837462D01*
X43955808Y20814446D01*
X44807046Y19963207D01*
X44830062Y19935162D01*
X44941980Y19843313D01*
X45069667Y19775063D01*
X45208215Y19733035D01*
X45352300Y19718844D01*
X45388405Y19722400D01*
X63865401Y19722400D01*
X63865401Y16678072D01*
X62700000Y16678072D01*
X62575518Y16665812D01*
X62455820Y16629502D01*
X62345506Y16570537D01*
X62248815Y16491185D01*
X62169463Y16394494D01*
X62110498Y16284180D01*
X62074188Y16164482D01*
X62073357Y16156039D01*
X61874759Y16354637D01*
X61639727Y16511680D01*
X61378574Y16619853D01*
X61101335Y16675000D01*
X60818665Y16675000D01*
X60541426Y16619853D01*
X60280273Y16511680D01*
X60045241Y16354637D01*
X59845363Y16154759D01*
X59792070Y16075000D01*
X59587930Y16075000D01*
X59534637Y16154759D01*
X59334759Y16354637D01*
X59099727Y16511680D01*
X58838574Y16619853D01*
X58561335Y16675000D01*
X58278665Y16675000D01*
X58001426Y16619853D01*
X57740273Y16511680D01*
X57505241Y16354637D01*
X57305363Y16154759D01*
X57252070Y16075000D01*
X57047930Y16075000D01*
X56994637Y16154759D01*
X56794759Y16354637D01*
X56559727Y16511680D01*
X56298574Y16619853D01*
X56021335Y16675000D01*
X55738665Y16675000D01*
X55461426Y16619853D01*
X55200273Y16511680D01*
X54965241Y16354637D01*
X54765363Y16154759D01*
X54712604Y16075799D01*
X54679700Y16079040D01*
X54638682Y16075000D01*
X54638681Y16075000D01*
X54516011Y16062918D01*
X54358613Y16015172D01*
X54213554Y15937636D01*
X54086409Y15833291D01*
X54060263Y15801432D01*
X53103833Y14845000D01*
X48792930Y14845000D01*
X48739637Y14924759D01*
X48539759Y15124637D01*
X48339131Y15258692D01*
X48366514Y15273329D01*
X48438097Y15517298D01*
X47625000Y16330395D01*
X46811903Y15517298D01*
X46883486Y15273329D01*
X46912341Y15259676D01*
X46710241Y15124637D01*
X46510363Y14924759D01*
X46353320Y14689727D01*
X46245147Y14428574D01*
X46190000Y14151335D01*
X46190000Y13868665D01*
X46245147Y13591426D01*
X46353320Y13330273D01*
X46510363Y13095241D01*
X46710241Y12895363D01*
X46945273Y12738320D01*
X47206426Y12630147D01*
X47483665Y12575000D01*
X47766335Y12575000D01*
X48043574Y12630147D01*
X48304727Y12738320D01*
X48539759Y12895363D01*
X48739637Y13095241D01*
X48792930Y13175000D01*
X53408682Y13175000D01*
X53449700Y13170960D01*
X53490718Y13175000D01*
X53490719Y13175000D01*
X53613389Y13187082D01*
X53770787Y13234828D01*
X53915846Y13312364D01*
X54042991Y13416709D01*
X54069145Y13448578D01*
X54855586Y14235018D01*
X54965241Y14125363D01*
X55200273Y13968320D01*
X55461426Y13860147D01*
X55738665Y13805000D01*
X56021335Y13805000D01*
X56298574Y13860147D01*
X56559727Y13968320D01*
X56794759Y14125363D01*
X56994637Y14325241D01*
X57047930Y14405000D01*
X57252070Y14405000D01*
X57305363Y14325241D01*
X57505241Y14125363D01*
X57740273Y13968320D01*
X58001426Y13860147D01*
X58278665Y13805000D01*
X58561335Y13805000D01*
X58838574Y13860147D01*
X59099727Y13968320D01*
X59334759Y14125363D01*
X59534637Y14325241D01*
X59587930Y14405000D01*
X59792070Y14405000D01*
X59845363Y14325241D01*
X60045241Y14125363D01*
X60280273Y13968320D01*
X60541426Y13860147D01*
X60818665Y13805000D01*
X61101335Y13805000D01*
X61378574Y13860147D01*
X61639727Y13968320D01*
X61874759Y14125363D01*
X62073357Y14323961D01*
X62074188Y14315518D01*
X62110498Y14195820D01*
X62169463Y14085506D01*
X62248815Y13988815D01*
X62345506Y13909463D01*
X62455820Y13850498D01*
X62575518Y13814188D01*
X62700000Y13801928D01*
X63865400Y13801928D01*
X63865400Y12665147D01*
X60465808Y9265554D01*
X60437763Y9242538D01*
X60345914Y9130620D01*
X60297267Y9039608D01*
X60277664Y9002933D01*
X60235635Y8864385D01*
X60235368Y8861676D01*
X60045241Y8734637D01*
X59845363Y8534759D01*
X59690000Y8302241D01*
X59534637Y8534759D01*
X59334759Y8734637D01*
X59099727Y8891680D01*
X58838574Y8999853D01*
X58561335Y9055000D01*
X58278665Y9055000D01*
X58001426Y8999853D01*
X57740273Y8891680D01*
X57505241Y8734637D01*
X57305363Y8534759D01*
X57150000Y8302241D01*
X56994637Y8534759D01*
X56794759Y8734637D01*
X56559727Y8891680D01*
X56298574Y8999853D01*
X56021335Y9055000D01*
X55738665Y9055000D01*
X55461426Y8999853D01*
X55200273Y8891680D01*
X54965241Y8734637D01*
X54765363Y8534759D01*
X54608320Y8299727D01*
X54500147Y8038574D01*
X54445000Y7761335D01*
X54445000Y7478665D01*
X54500147Y7201426D01*
X54608320Y6940273D01*
X54665498Y6854700D01*
X45838758Y6854700D01*
X45864236Y6938691D01*
X45885000Y7149508D01*
X45885000Y8090491D01*
X45864236Y8301309D01*
X45782182Y8571808D01*
X45648932Y8821101D01*
X45469608Y9039608D01*
X45251101Y9218932D01*
X45001808Y9352182D01*
X44731309Y9434236D01*
X44450000Y9461943D01*
X44168692Y9434236D01*
X43898193Y9352182D01*
X43648900Y9218932D01*
X43430393Y9039608D01*
X43251068Y8821101D01*
X43180000Y8688142D01*
X43108932Y8821101D01*
X42929608Y9039608D01*
X42711101Y9218932D01*
X42461808Y9352182D01*
X42191309Y9434236D01*
X41910000Y9461943D01*
X41628692Y9434236D01*
X41358193Y9352182D01*
X41108900Y9218932D01*
X40890393Y9039608D01*
X40711068Y8821101D01*
X40640000Y8688142D01*
X40568932Y8821101D01*
X40389608Y9039608D01*
X40171101Y9218932D01*
X39921808Y9352182D01*
X39651309Y9434236D01*
X39370000Y9461943D01*
X39088692Y9434236D01*
X38818193Y9352182D01*
X38568900Y9218932D01*
X38350393Y9039608D01*
X38171068Y8821101D01*
X38100000Y8688142D01*
X38028932Y8821101D01*
X37849608Y9039608D01*
X37631101Y9218932D01*
X37381808Y9352182D01*
X37111309Y9434236D01*
X36830000Y9461943D01*
X36548692Y9434236D01*
X36278193Y9352182D01*
X36028900Y9218932D01*
X35810393Y9039608D01*
X35631068Y8821101D01*
X35560000Y8688142D01*
X35488932Y8821101D01*
X35309608Y9039608D01*
X35091101Y9218932D01*
X34841808Y9352182D01*
X34571309Y9434236D01*
X34290000Y9461943D01*
X34008692Y9434236D01*
X33738193Y9352182D01*
X33488900Y9218932D01*
X33270393Y9039608D01*
X33091068Y8821101D01*
X33020000Y8688142D01*
X32948932Y8821101D01*
X32769608Y9039608D01*
X32551101Y9218932D01*
X32301808Y9352182D01*
X32031309Y9434236D01*
X31750000Y9461943D01*
X31549435Y9442189D01*
X38546734Y16439488D01*
X46184783Y16439488D01*
X46226213Y16159870D01*
X46321397Y15893708D01*
X46388329Y15768486D01*
X46632298Y15696903D01*
X47445395Y16510000D01*
X47804605Y16510000D01*
X48617702Y15696903D01*
X48861671Y15768486D01*
X48982571Y16023996D01*
X49051300Y16298184D01*
X49065217Y16580512D01*
X49023787Y16860130D01*
X48928603Y17126292D01*
X48861671Y17251514D01*
X48617702Y17323097D01*
X47804605Y16510000D01*
X47445395Y16510000D01*
X46632298Y17323097D01*
X46388329Y17251514D01*
X46267429Y16996004D01*
X46198700Y16721816D01*
X46184783Y16439488D01*
X38546734Y16439488D01*
X39609948Y17502702D01*
X46811903Y17502702D01*
X47625000Y16689605D01*
X48438097Y17502702D01*
X48366514Y17746671D01*
X48111004Y17867571D01*
X47836816Y17936300D01*
X47554488Y17950217D01*
X47274870Y17908787D01*
X47008708Y17813603D01*
X46883486Y17746671D01*
X46811903Y17502702D01*
X39609948Y17502702D01*
X43263212Y21155966D01*
X43295506Y21129463D01*
G37*
G04 #@! TD.AperFunction*
D19*
X51270000Y43707000D02*
X51270000Y43307000D01*
X52578000Y43307000D01*
X52578000Y43327000D01*
X52832000Y43327000D01*
X52832000Y43307000D01*
X52852000Y43307000D01*
X52852000Y43053000D01*
X52832000Y43053000D01*
X52832000Y41510085D01*
X53054039Y41388096D01*
X53136818Y41405633D01*
X53396646Y41516285D01*
X53629895Y41675500D01*
X53827601Y41877161D01*
X53977735Y42106742D01*
X54046068Y41978900D01*
X54225392Y41760393D01*
X54443899Y41581068D01*
X54693192Y41447818D01*
X54963691Y41365764D01*
X55245000Y41338057D01*
X55526308Y41365764D01*
X55796807Y41447818D01*
X56046100Y41581068D01*
X56264607Y41760392D01*
X56443932Y41978899D01*
X56515000Y42111858D01*
X56586068Y41978900D01*
X56765392Y41760393D01*
X56983899Y41581068D01*
X57085444Y41526791D01*
X54110854Y38552200D01*
X53010105Y38552200D01*
X52974000Y38555756D01*
X52829915Y38541565D01*
X52691366Y38499537D01*
X52563680Y38431287D01*
X52451762Y38339438D01*
X52428746Y38311393D01*
X48964163Y34846809D01*
X48896680Y35009727D01*
X48739637Y35244759D01*
X48539759Y35444637D01*
X48339131Y35578692D01*
X48366514Y35593329D01*
X48438097Y35837298D01*
X47625000Y36650395D01*
X47610858Y36636252D01*
X47431253Y36815857D01*
X47445395Y36830000D01*
X47804605Y36830000D01*
X48617702Y36016903D01*
X48861671Y36088486D01*
X48982571Y36343996D01*
X49051300Y36618184D01*
X49065217Y36900512D01*
X49023787Y37180130D01*
X48928603Y37446292D01*
X48861671Y37571514D01*
X48617702Y37643097D01*
X47804605Y36830000D01*
X47445395Y36830000D01*
X47431253Y36844142D01*
X47610858Y37023747D01*
X47625000Y37009605D01*
X48438097Y37822702D01*
X48366514Y38066671D01*
X48111004Y38187571D01*
X47836816Y38256300D01*
X47554488Y38270217D01*
X47274870Y38228787D01*
X47217000Y38208092D01*
X47217000Y43053000D01*
X51270000Y43053000D01*
X51270000Y42653000D01*
X51322350Y42375486D01*
X51427834Y42113517D01*
X51582399Y41877161D01*
X51780105Y41675500D01*
X52013354Y41516285D01*
X52273182Y41405633D01*
X52355961Y41388096D01*
X52578000Y41510085D01*
X52578000Y43053000D01*
X51270000Y43053000D01*
X47217000Y43053000D01*
X47217000Y43945300D01*
X51314953Y43945300D01*
X51270000Y43707000D01*
G04 #@! TA.AperFunction,Conductor*
D20*
G36*
X51270000Y43707000D02*
G01*
X51270000Y43307000D01*
X52578000Y43307000D01*
X52578000Y43327000D01*
X52832000Y43327000D01*
X52832000Y43307000D01*
X52852000Y43307000D01*
X52852000Y43053000D01*
X52832000Y43053000D01*
X52832000Y41510085D01*
X53054039Y41388096D01*
X53136818Y41405633D01*
X53396646Y41516285D01*
X53629895Y41675500D01*
X53827601Y41877161D01*
X53977735Y42106742D01*
X54046068Y41978900D01*
X54225392Y41760393D01*
X54443899Y41581068D01*
X54693192Y41447818D01*
X54963691Y41365764D01*
X55245000Y41338057D01*
X55526308Y41365764D01*
X55796807Y41447818D01*
X56046100Y41581068D01*
X56264607Y41760392D01*
X56443932Y41978899D01*
X56515000Y42111858D01*
X56586068Y41978900D01*
X56765392Y41760393D01*
X56983899Y41581068D01*
X57085444Y41526791D01*
X54110854Y38552200D01*
X53010105Y38552200D01*
X52974000Y38555756D01*
X52829915Y38541565D01*
X52691366Y38499537D01*
X52563680Y38431287D01*
X52451762Y38339438D01*
X52428746Y38311393D01*
X48964163Y34846809D01*
X48896680Y35009727D01*
X48739637Y35244759D01*
X48539759Y35444637D01*
X48339131Y35578692D01*
X48366514Y35593329D01*
X48438097Y35837298D01*
X47625000Y36650395D01*
X47610858Y36636252D01*
X47431253Y36815857D01*
X47445395Y36830000D01*
X47804605Y36830000D01*
X48617702Y36016903D01*
X48861671Y36088486D01*
X48982571Y36343996D01*
X49051300Y36618184D01*
X49065217Y36900512D01*
X49023787Y37180130D01*
X48928603Y37446292D01*
X48861671Y37571514D01*
X48617702Y37643097D01*
X47804605Y36830000D01*
X47445395Y36830000D01*
X47431253Y36844142D01*
X47610858Y37023747D01*
X47625000Y37009605D01*
X48438097Y37822702D01*
X48366514Y38066671D01*
X48111004Y38187571D01*
X47836816Y38256300D01*
X47554488Y38270217D01*
X47274870Y38228787D01*
X47217000Y38208092D01*
X47217000Y43053000D01*
X51270000Y43053000D01*
X51270000Y42653000D01*
X51322350Y42375486D01*
X51427834Y42113517D01*
X51582399Y41877161D01*
X51780105Y41675500D01*
X52013354Y41516285D01*
X52273182Y41405633D01*
X52355961Y41388096D01*
X52578000Y41510085D01*
X52578000Y43053000D01*
X51270000Y43053000D01*
X47217000Y43053000D01*
X47217000Y43945300D01*
X51314953Y43945300D01*
X51270000Y43707000D01*
G37*
G04 #@! TD.AperFunction*
D19*
X49208913Y83044828D02*
X49366311Y82997082D01*
X49371601Y82996561D01*
X49371600Y77897469D01*
X49058691Y77584559D01*
X49023787Y77820130D01*
X48928603Y78086292D01*
X48861671Y78211514D01*
X48617702Y78283097D01*
X47804605Y77470000D01*
X47818748Y77455857D01*
X47639143Y77276252D01*
X47625000Y77290395D01*
X46811903Y76477298D01*
X46883486Y76233329D01*
X46912341Y76219676D01*
X46710241Y76084637D01*
X46510363Y75884759D01*
X46353320Y75649727D01*
X46245147Y75388574D01*
X46190000Y75111335D01*
X46190000Y74828665D01*
X46245147Y74551426D01*
X46353320Y74290273D01*
X46510363Y74055241D01*
X46710241Y73855363D01*
X46913622Y73719468D01*
X44409754Y71215600D01*
X39806405Y71215600D01*
X39770300Y71219156D01*
X39626215Y71204965D01*
X39487666Y71162937D01*
X39359980Y71094687D01*
X39248062Y71002838D01*
X39225041Y70974787D01*
X38875808Y70625554D01*
X38847763Y70602538D01*
X38755914Y70490620D01*
X38711022Y70406633D01*
X38687664Y70362933D01*
X38645635Y70224385D01*
X38645174Y70219701D01*
X38568900Y70178932D01*
X38350393Y69999608D01*
X38171068Y69781101D01*
X38100000Y69648142D01*
X38028932Y69781101D01*
X37849608Y69999608D01*
X37631101Y70178932D01*
X37381808Y70312182D01*
X37111309Y70394236D01*
X36830000Y70421943D01*
X36548692Y70394236D01*
X36278193Y70312182D01*
X36028900Y70178932D01*
X35810393Y69999608D01*
X35631068Y69781101D01*
X35560000Y69648142D01*
X35488932Y69781101D01*
X35422813Y69861667D01*
X41578853Y76017706D01*
X41665845Y76035010D01*
X41826905Y76101723D01*
X41971855Y76198576D01*
X42095124Y76321845D01*
X42191977Y76466795D01*
X42258690Y76627855D01*
X42292700Y76798835D01*
X42292700Y76973165D01*
X42258690Y77144145D01*
X42191977Y77305205D01*
X42128979Y77399488D01*
X46184783Y77399488D01*
X46226213Y77119870D01*
X46321397Y76853708D01*
X46388329Y76728486D01*
X46632298Y76656903D01*
X47445395Y77470000D01*
X46632298Y78283097D01*
X46388329Y78211514D01*
X46267429Y77956004D01*
X46198700Y77681816D01*
X46184783Y77399488D01*
X42128979Y77399488D01*
X42095124Y77450155D01*
X41971855Y77573424D01*
X41826905Y77670277D01*
X41665845Y77736990D01*
X41494865Y77771000D01*
X41320535Y77771000D01*
X41149555Y77736990D01*
X40988495Y77670277D01*
X40843545Y77573424D01*
X40720276Y77450155D01*
X40623423Y77305205D01*
X40556710Y77144145D01*
X40539406Y77057153D01*
X34300114Y70817860D01*
X34290000Y70818856D01*
X34253895Y70815300D01*
X34145915Y70804665D01*
X34007367Y70762637D01*
X33879680Y70694387D01*
X33767762Y70602538D01*
X33675913Y70490620D01*
X33607663Y70362933D01*
X33565635Y70224385D01*
X33565174Y70219701D01*
X33488900Y70178932D01*
X33270393Y69999608D01*
X33091068Y69781101D01*
X33020000Y69648142D01*
X32948932Y69781101D01*
X32769608Y69999608D01*
X32736184Y70027038D01*
X41171848Y78462702D01*
X46811903Y78462702D01*
X47625000Y77649605D01*
X48438097Y78462702D01*
X48366514Y78706671D01*
X48111004Y78827571D01*
X47836816Y78896300D01*
X47554488Y78910217D01*
X47274870Y78868787D01*
X47008708Y78773603D01*
X46883486Y78706671D01*
X46811903Y78462702D01*
X41171848Y78462702D01*
X42812047Y80102900D01*
X44964847Y80102900D01*
X45038595Y80053623D01*
X45199655Y79986910D01*
X45370635Y79952900D01*
X45544965Y79952900D01*
X45715945Y79986910D01*
X45877005Y80053623D01*
X46021955Y80150476D01*
X46145224Y80273745D01*
X46242077Y80418695D01*
X46308790Y80579755D01*
X46330805Y80690432D01*
X46365200Y80687044D01*
X46401305Y80690600D01*
X46509285Y80701235D01*
X46647833Y80743263D01*
X46775520Y80811513D01*
X46887438Y80903362D01*
X46910458Y80931412D01*
X48550653Y82571606D01*
X48637645Y82588910D01*
X48798705Y82655623D01*
X48943655Y82752476D01*
X49066924Y82875745D01*
X49163777Y83020695D01*
X49180143Y83060206D01*
X49208913Y83044828D01*
G04 #@! TA.AperFunction,Conductor*
D20*
G36*
X49208913Y83044828D02*
G01*
X49366311Y82997082D01*
X49371601Y82996561D01*
X49371600Y77897469D01*
X49058691Y77584559D01*
X49023787Y77820130D01*
X48928603Y78086292D01*
X48861671Y78211514D01*
X48617702Y78283097D01*
X47804605Y77470000D01*
X47818748Y77455857D01*
X47639143Y77276252D01*
X47625000Y77290395D01*
X46811903Y76477298D01*
X46883486Y76233329D01*
X46912341Y76219676D01*
X46710241Y76084637D01*
X46510363Y75884759D01*
X46353320Y75649727D01*
X46245147Y75388574D01*
X46190000Y75111335D01*
X46190000Y74828665D01*
X46245147Y74551426D01*
X46353320Y74290273D01*
X46510363Y74055241D01*
X46710241Y73855363D01*
X46913622Y73719468D01*
X44409754Y71215600D01*
X39806405Y71215600D01*
X39770300Y71219156D01*
X39626215Y71204965D01*
X39487666Y71162937D01*
X39359980Y71094687D01*
X39248062Y71002838D01*
X39225041Y70974787D01*
X38875808Y70625554D01*
X38847763Y70602538D01*
X38755914Y70490620D01*
X38711022Y70406633D01*
X38687664Y70362933D01*
X38645635Y70224385D01*
X38645174Y70219701D01*
X38568900Y70178932D01*
X38350393Y69999608D01*
X38171068Y69781101D01*
X38100000Y69648142D01*
X38028932Y69781101D01*
X37849608Y69999608D01*
X37631101Y70178932D01*
X37381808Y70312182D01*
X37111309Y70394236D01*
X36830000Y70421943D01*
X36548692Y70394236D01*
X36278193Y70312182D01*
X36028900Y70178932D01*
X35810393Y69999608D01*
X35631068Y69781101D01*
X35560000Y69648142D01*
X35488932Y69781101D01*
X35422813Y69861667D01*
X41578853Y76017706D01*
X41665845Y76035010D01*
X41826905Y76101723D01*
X41971855Y76198576D01*
X42095124Y76321845D01*
X42191977Y76466795D01*
X42258690Y76627855D01*
X42292700Y76798835D01*
X42292700Y76973165D01*
X42258690Y77144145D01*
X42191977Y77305205D01*
X42128979Y77399488D01*
X46184783Y77399488D01*
X46226213Y77119870D01*
X46321397Y76853708D01*
X46388329Y76728486D01*
X46632298Y76656903D01*
X47445395Y77470000D01*
X46632298Y78283097D01*
X46388329Y78211514D01*
X46267429Y77956004D01*
X46198700Y77681816D01*
X46184783Y77399488D01*
X42128979Y77399488D01*
X42095124Y77450155D01*
X41971855Y77573424D01*
X41826905Y77670277D01*
X41665845Y77736990D01*
X41494865Y77771000D01*
X41320535Y77771000D01*
X41149555Y77736990D01*
X40988495Y77670277D01*
X40843545Y77573424D01*
X40720276Y77450155D01*
X40623423Y77305205D01*
X40556710Y77144145D01*
X40539406Y77057153D01*
X34300114Y70817860D01*
X34290000Y70818856D01*
X34253895Y70815300D01*
X34145915Y70804665D01*
X34007367Y70762637D01*
X33879680Y70694387D01*
X33767762Y70602538D01*
X33675913Y70490620D01*
X33607663Y70362933D01*
X33565635Y70224385D01*
X33565174Y70219701D01*
X33488900Y70178932D01*
X33270393Y69999608D01*
X33091068Y69781101D01*
X33020000Y69648142D01*
X32948932Y69781101D01*
X32769608Y69999608D01*
X32736184Y70027038D01*
X41171848Y78462702D01*
X46811903Y78462702D01*
X47625000Y77649605D01*
X48438097Y78462702D01*
X48366514Y78706671D01*
X48111004Y78827571D01*
X47836816Y78896300D01*
X47554488Y78910217D01*
X47274870Y78868787D01*
X47008708Y78773603D01*
X46883486Y78706671D01*
X46811903Y78462702D01*
X41171848Y78462702D01*
X42812047Y80102900D01*
X44964847Y80102900D01*
X45038595Y80053623D01*
X45199655Y79986910D01*
X45370635Y79952900D01*
X45544965Y79952900D01*
X45715945Y79986910D01*
X45877005Y80053623D01*
X46021955Y80150476D01*
X46145224Y80273745D01*
X46242077Y80418695D01*
X46308790Y80579755D01*
X46330805Y80690432D01*
X46365200Y80687044D01*
X46401305Y80690600D01*
X46509285Y80701235D01*
X46647833Y80743263D01*
X46775520Y80811513D01*
X46887438Y80903362D01*
X46910458Y80931412D01*
X48550653Y82571606D01*
X48637645Y82588910D01*
X48798705Y82655623D01*
X48943655Y82752476D01*
X49066924Y82875745D01*
X49163777Y83020695D01*
X49180143Y83060206D01*
X49208913Y83044828D01*
G37*
G04 #@! TD.AperFunction*
D19*
X55438748Y81334142D02*
X55424605Y81320000D01*
X55438748Y81305857D01*
X55259143Y81126252D01*
X55245000Y81140395D01*
X54431903Y80327298D01*
X54503486Y80083329D01*
X54557924Y80057571D01*
X54085300Y79584947D01*
X54085300Y80555902D01*
X54252298Y80506903D01*
X55065395Y81320000D01*
X55051253Y81334142D01*
X55230858Y81513747D01*
X55245000Y81499605D01*
X55259143Y81513747D01*
X55438748Y81334142D01*
G04 #@! TA.AperFunction,Conductor*
D20*
G36*
X55438748Y81334142D02*
G01*
X55424605Y81320000D01*
X55438748Y81305857D01*
X55259143Y81126252D01*
X55245000Y81140395D01*
X54431903Y80327298D01*
X54503486Y80083329D01*
X54557924Y80057571D01*
X54085300Y79584947D01*
X54085300Y80555902D01*
X54252298Y80506903D01*
X55065395Y81320000D01*
X55051253Y81334142D01*
X55230858Y81513747D01*
X55245000Y81499605D01*
X55259143Y81513747D01*
X55438748Y81334142D01*
G37*
G04 #@! TD.AperFunction*
M02*
