G04 #@! TF.GenerationSoftware,KiCad,Pcbnew,(5.1.9)-1*
G04 #@! TF.CreationDate,2025-03-23T14:17:03+09:00*
G04 #@! TF.ProjectId,PYUUTA16k,50595555-5441-4313-966b-2e6b69636164,rev?*
G04 #@! TF.SameCoordinates,PX53920b0PY93c3260*
G04 #@! TF.FileFunction,Legend,Top*
G04 #@! TF.FilePolarity,Positive*
%FSLAX46Y46*%
G04 Gerber Fmt 4.6, Leading zero omitted, Abs format (unit mm)*
G04 Created by KiCad (PCBNEW (5.1.9)-1) date 2025-03-23 14:17:03*
%MOMM*%
%LPD*%
G01*
G04 APERTURE LIST*
%ADD10C,0.500000*%
%ADD11C,0.150000*%
%ADD12C,0.120000*%
G04 APERTURE END LIST*
D10*
X67227142Y4215477D02*
X67227142Y1915477D01*
X66465238Y1915477D01*
X66274761Y2025000D01*
X66179523Y2134524D01*
X66084285Y2353572D01*
X66084285Y2682143D01*
X66179523Y2901191D01*
X66274761Y3010715D01*
X66465238Y3120239D01*
X67227142Y3120239D01*
X64846190Y3120239D02*
X64846190Y4215477D01*
X65512857Y1915477D02*
X64846190Y3120239D01*
X64179523Y1915477D01*
X63512857Y1915477D02*
X63512857Y3777381D01*
X63417619Y3996429D01*
X63322380Y4105953D01*
X63131904Y4215477D01*
X62750952Y4215477D01*
X62560476Y4105953D01*
X62465238Y3996429D01*
X62370000Y3777381D01*
X62370000Y1915477D01*
X61417619Y1915477D02*
X61417619Y3777381D01*
X61322380Y3996429D01*
X61227142Y4105953D01*
X61036666Y4215477D01*
X60655714Y4215477D01*
X60465238Y4105953D01*
X60370000Y3996429D01*
X60274761Y3777381D01*
X60274761Y1915477D01*
X59608095Y1915477D02*
X58465238Y1915477D01*
X59036666Y4215477D02*
X59036666Y1915477D01*
X57893809Y3558334D02*
X56941428Y3558334D01*
X58084285Y4215477D02*
X57417619Y1915477D01*
X56750952Y4215477D01*
X55036666Y4215477D02*
X56179523Y4215477D01*
X55608095Y4215477D02*
X55608095Y1915477D01*
X55798571Y2244048D01*
X55989047Y2463096D01*
X56179523Y2572620D01*
X53322380Y1915477D02*
X53703333Y1915477D01*
X53893809Y2025000D01*
X53989047Y2134524D01*
X54179523Y2463096D01*
X54274761Y2901191D01*
X54274761Y3777381D01*
X54179523Y3996429D01*
X54084285Y4105953D01*
X53893809Y4215477D01*
X53512857Y4215477D01*
X53322380Y4105953D01*
X53227142Y3996429D01*
X53131904Y3777381D01*
X53131904Y3229762D01*
X53227142Y3010715D01*
X53322380Y2901191D01*
X53512857Y2791667D01*
X53893809Y2791667D01*
X54084285Y2901191D01*
X54179523Y3010715D01*
X54274761Y3229762D01*
X52274761Y4215477D02*
X52274761Y1915477D01*
X52084285Y3339286D02*
X51512857Y4215477D01*
X51512857Y2682143D02*
X52274761Y3558334D01*
X50084285Y5091667D02*
X50179523Y4982143D01*
X50370000Y4653572D01*
X50465238Y4434524D01*
X50560476Y4105953D01*
X50655714Y3558334D01*
X50655714Y3120239D01*
X50560476Y2572620D01*
X50465238Y2244048D01*
X50370000Y2025000D01*
X50179523Y1696429D01*
X50084285Y1586905D01*
X49036666Y2901191D02*
X49227142Y2791667D01*
X49322380Y2682143D01*
X49417619Y2463096D01*
X49417619Y2353572D01*
X49322380Y2134524D01*
X49227142Y2025000D01*
X49036666Y1915477D01*
X48655714Y1915477D01*
X48465238Y2025000D01*
X48370000Y2134524D01*
X48274761Y2353572D01*
X48274761Y2463096D01*
X48370000Y2682143D01*
X48465238Y2791667D01*
X48655714Y2901191D01*
X49036666Y2901191D01*
X49227142Y3010715D01*
X49322380Y3120239D01*
X49417619Y3339286D01*
X49417619Y3777381D01*
X49322380Y3996429D01*
X49227142Y4105953D01*
X49036666Y4215477D01*
X48655714Y4215477D01*
X48465238Y4105953D01*
X48370000Y3996429D01*
X48274761Y3777381D01*
X48274761Y3339286D01*
X48370000Y3120239D01*
X48465238Y3010715D01*
X48655714Y2901191D01*
X47417619Y4215477D02*
X47417619Y1915477D01*
X47227142Y3339286D02*
X46655714Y4215477D01*
X46655714Y2682143D02*
X47417619Y3558334D01*
X45989047Y5091667D02*
X45893809Y4982143D01*
X45703333Y4653572D01*
X45608095Y4434524D01*
X45512857Y4105953D01*
X45417619Y3558334D01*
X45417619Y3120239D01*
X45512857Y2572620D01*
X45608095Y2244048D01*
X45703333Y2025000D01*
X45893809Y1696429D01*
X45989047Y1586905D01*
X43322380Y4215477D02*
X43989047Y3120239D01*
X44465238Y4215477D02*
X44465238Y1915477D01*
X43703333Y1915477D01*
X43512857Y2025000D01*
X43417619Y2134524D01*
X43322380Y2353572D01*
X43322380Y2682143D01*
X43417619Y2901191D01*
X43512857Y3010715D01*
X43703333Y3120239D01*
X44465238Y3120239D01*
X42084285Y1915477D02*
X41703333Y1915477D01*
X41512857Y2025000D01*
X41322380Y2244048D01*
X41227142Y2682143D01*
X41227142Y3448810D01*
X41322380Y3886905D01*
X41512857Y4105953D01*
X41703333Y4215477D01*
X42084285Y4215477D01*
X42274761Y4105953D01*
X42465238Y3886905D01*
X42560476Y3448810D01*
X42560476Y2682143D01*
X42465238Y2244048D01*
X42274761Y2025000D01*
X42084285Y1915477D01*
X40370000Y4215477D02*
X40370000Y1915477D01*
X39703333Y3558334D01*
X39036666Y1915477D01*
X39036666Y4215477D01*
X36560476Y4215477D02*
X36560476Y1915477D01*
X35893809Y3558334D01*
X35227142Y1915477D01*
X35227142Y4215477D01*
X34274761Y1915477D02*
X34274761Y3777381D01*
X34179523Y3996429D01*
X34084285Y4105953D01*
X33893809Y4215477D01*
X33512857Y4215477D01*
X33322380Y4105953D01*
X33227142Y3996429D01*
X33131904Y3777381D01*
X33131904Y1915477D01*
X31227142Y4215477D02*
X32179523Y4215477D01*
X32179523Y1915477D01*
X30846190Y1915477D02*
X29703333Y1915477D01*
X30274761Y4215477D02*
X30274761Y1915477D01*
X29036666Y4215477D02*
X29036666Y1915477D01*
X25417619Y3996429D02*
X25512857Y4105953D01*
X25798571Y4215477D01*
X25989047Y4215477D01*
X26274761Y4105953D01*
X26465238Y3886905D01*
X26560476Y3667858D01*
X26655714Y3229762D01*
X26655714Y2901191D01*
X26560476Y2463096D01*
X26465238Y2244048D01*
X26274761Y2025000D01*
X25989047Y1915477D01*
X25798571Y1915477D01*
X25512857Y2025000D01*
X25417619Y2134524D01*
X24655714Y3558334D02*
X23703333Y3558334D01*
X24846190Y4215477D02*
X24179523Y1915477D01*
X23512857Y4215477D01*
X21703333Y4215477D02*
X22370000Y3120239D01*
X22846190Y4215477D02*
X22846190Y1915477D01*
X22084285Y1915477D01*
X21893809Y2025000D01*
X21798571Y2134524D01*
X21703333Y2353572D01*
X21703333Y2682143D01*
X21798571Y2901191D01*
X21893809Y3010715D01*
X22084285Y3120239D01*
X22846190Y3120239D01*
X21131904Y1915477D02*
X19989047Y1915477D01*
X20560476Y4215477D02*
X20560476Y1915477D01*
X18179523Y4215477D02*
X18846190Y3120239D01*
X19322380Y4215477D02*
X19322380Y1915477D01*
X18560476Y1915477D01*
X18370000Y2025000D01*
X18274761Y2134524D01*
X18179523Y2353572D01*
X18179523Y2682143D01*
X18274761Y2901191D01*
X18370000Y3010715D01*
X18560476Y3120239D01*
X19322380Y3120239D01*
X17322380Y4215477D02*
X17322380Y1915477D01*
X16370000Y4215477D02*
X16370000Y1915477D01*
X15893809Y1915477D01*
X15608095Y2025000D01*
X15417619Y2244048D01*
X15322380Y2463096D01*
X15227142Y2901191D01*
X15227142Y3229762D01*
X15322380Y3667858D01*
X15417619Y3886905D01*
X15608095Y4105953D01*
X15893809Y4215477D01*
X16370000Y4215477D01*
X13322380Y2025000D02*
X13512857Y1915477D01*
X13798571Y1915477D01*
X14084285Y2025000D01*
X14274761Y2244048D01*
X14370000Y2463096D01*
X14465238Y2901191D01*
X14465238Y3229762D01*
X14370000Y3667858D01*
X14274761Y3886905D01*
X14084285Y4105953D01*
X13798571Y4215477D01*
X13608095Y4215477D01*
X13322380Y4105953D01*
X13227142Y3996429D01*
X13227142Y3229762D01*
X13608095Y3229762D01*
X12370000Y3010715D02*
X11703333Y3010715D01*
X11417619Y4215477D02*
X12370000Y4215477D01*
X12370000Y1915477D01*
X11417619Y1915477D01*
X4318095Y75557143D02*
X4318095Y77557143D01*
X5270476Y74414286D02*
X6222857Y76557143D01*
X3746666Y76557143D01*
X6413333Y54872143D02*
X3937142Y54872143D01*
X5270476Y56015000D01*
X4699047Y56015000D01*
X4318095Y56157858D01*
X4127619Y56300715D01*
X3937142Y56586429D01*
X3937142Y57300715D01*
X4127619Y57586429D01*
X4318095Y57729286D01*
X4699047Y57872143D01*
X5841904Y57872143D01*
X6222857Y57729286D01*
X6413333Y57586429D01*
X6222857Y34202858D02*
X6032380Y34060000D01*
X5651428Y33917143D01*
X4699047Y33917143D01*
X4318095Y34060000D01*
X4127619Y34202858D01*
X3937142Y34488572D01*
X3937142Y34774286D01*
X4127619Y35202858D01*
X6413333Y36917143D01*
X3937142Y36917143D01*
X3302142Y17232143D02*
X5587857Y17232143D01*
X4445000Y17232143D02*
X4445000Y14232143D01*
X4825952Y14660715D01*
X5206904Y14946429D01*
X5587857Y15089286D01*
D11*
X50617380Y39679762D02*
X50617380Y39203572D01*
X49617380Y39203572D01*
X50569761Y39965477D02*
X50617380Y40108334D01*
X50617380Y40346429D01*
X50569761Y40441667D01*
X50522142Y40489286D01*
X50426904Y40536905D01*
X50331666Y40536905D01*
X50236428Y40489286D01*
X50188809Y40441667D01*
X50141190Y40346429D01*
X50093571Y40155953D01*
X50045952Y40060715D01*
X49998333Y40013096D01*
X49903095Y39965477D01*
X49807857Y39965477D01*
X49712619Y40013096D01*
X49665000Y40060715D01*
X49617380Y40155953D01*
X49617380Y40394048D01*
X49665000Y40536905D01*
X50617380Y41489286D02*
X50617380Y40917858D01*
X50617380Y41203572D02*
X49617380Y41203572D01*
X49760238Y41108334D01*
X49855476Y41013096D01*
X49903095Y40917858D01*
X49617380Y41822620D02*
X49617380Y42441667D01*
X49998333Y42108334D01*
X49998333Y42251191D01*
X50045952Y42346429D01*
X50093571Y42394048D01*
X50188809Y42441667D01*
X50426904Y42441667D01*
X50522142Y42394048D01*
X50569761Y42346429D01*
X50617380Y42251191D01*
X50617380Y41965477D01*
X50569761Y41870239D01*
X50522142Y41822620D01*
X50045952Y43013096D02*
X49998333Y42917858D01*
X49950714Y42870239D01*
X49855476Y42822620D01*
X49807857Y42822620D01*
X49712619Y42870239D01*
X49665000Y42917858D01*
X49617380Y43013096D01*
X49617380Y43203572D01*
X49665000Y43298810D01*
X49712619Y43346429D01*
X49807857Y43394048D01*
X49855476Y43394048D01*
X49950714Y43346429D01*
X49998333Y43298810D01*
X50045952Y43203572D01*
X50045952Y43013096D01*
X50093571Y42917858D01*
X50141190Y42870239D01*
X50236428Y42822620D01*
X50426904Y42822620D01*
X50522142Y42870239D01*
X50569761Y42917858D01*
X50617380Y43013096D01*
X50617380Y43203572D01*
X50569761Y43298810D01*
X50522142Y43346429D01*
X50426904Y43394048D01*
X50236428Y43394048D01*
X50141190Y43346429D01*
X50093571Y43298810D01*
X50045952Y43203572D01*
X50617380Y53490953D02*
X50617380Y53014762D01*
X49617380Y53014762D01*
X50569761Y53776667D02*
X50617380Y53919524D01*
X50617380Y54157620D01*
X50569761Y54252858D01*
X50522142Y54300477D01*
X50426904Y54348096D01*
X50331666Y54348096D01*
X50236428Y54300477D01*
X50188809Y54252858D01*
X50141190Y54157620D01*
X50093571Y53967143D01*
X50045952Y53871905D01*
X49998333Y53824286D01*
X49903095Y53776667D01*
X49807857Y53776667D01*
X49712619Y53824286D01*
X49665000Y53871905D01*
X49617380Y53967143D01*
X49617380Y54205239D01*
X49665000Y54348096D01*
X49617380Y54681429D02*
X49617380Y55300477D01*
X49998333Y54967143D01*
X49998333Y55110000D01*
X50045952Y55205239D01*
X50093571Y55252858D01*
X50188809Y55300477D01*
X50426904Y55300477D01*
X50522142Y55252858D01*
X50569761Y55205239D01*
X50617380Y55110000D01*
X50617380Y54824286D01*
X50569761Y54729048D01*
X50522142Y54681429D01*
X49712619Y55681429D02*
X49665000Y55729048D01*
X49617380Y55824286D01*
X49617380Y56062381D01*
X49665000Y56157620D01*
X49712619Y56205239D01*
X49807857Y56252858D01*
X49903095Y56252858D01*
X50045952Y56205239D01*
X50617380Y55633810D01*
X50617380Y56252858D01*
X8437619Y76549524D02*
X8390000Y76597143D01*
X8342380Y76692381D01*
X8342380Y76930477D01*
X8390000Y77025715D01*
X8437619Y77073334D01*
X8532857Y77120953D01*
X8628095Y77120953D01*
X8770952Y77073334D01*
X9342380Y76501905D01*
X9342380Y77120953D01*
X8342380Y77454286D02*
X8342380Y78120953D01*
X9342380Y77692381D01*
X8342380Y78978096D02*
X8342380Y78501905D01*
X8818571Y78454286D01*
X8770952Y78501905D01*
X8723333Y78597143D01*
X8723333Y78835239D01*
X8770952Y78930477D01*
X8818571Y78978096D01*
X8913809Y79025715D01*
X9151904Y79025715D01*
X9247142Y78978096D01*
X9294761Y78930477D01*
X9342380Y78835239D01*
X9342380Y78597143D01*
X9294761Y78501905D01*
X9247142Y78454286D01*
X9342380Y79978096D02*
X9342380Y79406667D01*
X9342380Y79692381D02*
X8342380Y79692381D01*
X8485238Y79597143D01*
X8580476Y79501905D01*
X8628095Y79406667D01*
X8437619Y80359048D02*
X8390000Y80406667D01*
X8342380Y80501905D01*
X8342380Y80740000D01*
X8390000Y80835239D01*
X8437619Y80882858D01*
X8532857Y80930477D01*
X8628095Y80930477D01*
X8770952Y80882858D01*
X9342380Y80311429D01*
X9342380Y80930477D01*
X8437619Y56864524D02*
X8390000Y56912143D01*
X8342380Y57007381D01*
X8342380Y57245477D01*
X8390000Y57340715D01*
X8437619Y57388334D01*
X8532857Y57435953D01*
X8628095Y57435953D01*
X8770952Y57388334D01*
X9342380Y56816905D01*
X9342380Y57435953D01*
X8342380Y57769286D02*
X8342380Y58435953D01*
X9342380Y58007381D01*
X8342380Y59293096D02*
X8342380Y58816905D01*
X8818571Y58769286D01*
X8770952Y58816905D01*
X8723333Y58912143D01*
X8723333Y59150239D01*
X8770952Y59245477D01*
X8818571Y59293096D01*
X8913809Y59340715D01*
X9151904Y59340715D01*
X9247142Y59293096D01*
X9294761Y59245477D01*
X9342380Y59150239D01*
X9342380Y58912143D01*
X9294761Y58816905D01*
X9247142Y58769286D01*
X9342380Y60293096D02*
X9342380Y59721667D01*
X9342380Y60007381D02*
X8342380Y60007381D01*
X8485238Y59912143D01*
X8580476Y59816905D01*
X8628095Y59721667D01*
X8437619Y60674048D02*
X8390000Y60721667D01*
X8342380Y60816905D01*
X8342380Y61055000D01*
X8390000Y61150239D01*
X8437619Y61197858D01*
X8532857Y61245477D01*
X8628095Y61245477D01*
X8770952Y61197858D01*
X9342380Y60626429D01*
X9342380Y61245477D01*
X8437619Y36544524D02*
X8390000Y36592143D01*
X8342380Y36687381D01*
X8342380Y36925477D01*
X8390000Y37020715D01*
X8437619Y37068334D01*
X8532857Y37115953D01*
X8628095Y37115953D01*
X8770952Y37068334D01*
X9342380Y36496905D01*
X9342380Y37115953D01*
X8342380Y37449286D02*
X8342380Y38115953D01*
X9342380Y37687381D01*
X8342380Y38973096D02*
X8342380Y38496905D01*
X8818571Y38449286D01*
X8770952Y38496905D01*
X8723333Y38592143D01*
X8723333Y38830239D01*
X8770952Y38925477D01*
X8818571Y38973096D01*
X8913809Y39020715D01*
X9151904Y39020715D01*
X9247142Y38973096D01*
X9294761Y38925477D01*
X9342380Y38830239D01*
X9342380Y38592143D01*
X9294761Y38496905D01*
X9247142Y38449286D01*
X9342380Y39973096D02*
X9342380Y39401667D01*
X9342380Y39687381D02*
X8342380Y39687381D01*
X8485238Y39592143D01*
X8580476Y39496905D01*
X8628095Y39401667D01*
X8437619Y40354048D02*
X8390000Y40401667D01*
X8342380Y40496905D01*
X8342380Y40735000D01*
X8390000Y40830239D01*
X8437619Y40877858D01*
X8532857Y40925477D01*
X8628095Y40925477D01*
X8770952Y40877858D01*
X9342380Y40306429D01*
X9342380Y40925477D01*
X8437619Y14954524D02*
X8390000Y15002143D01*
X8342380Y15097381D01*
X8342380Y15335477D01*
X8390000Y15430715D01*
X8437619Y15478334D01*
X8532857Y15525953D01*
X8628095Y15525953D01*
X8770952Y15478334D01*
X9342380Y14906905D01*
X9342380Y15525953D01*
X8342380Y15859286D02*
X8342380Y16525953D01*
X9342380Y16097381D01*
X8342380Y17383096D02*
X8342380Y16906905D01*
X8818571Y16859286D01*
X8770952Y16906905D01*
X8723333Y17002143D01*
X8723333Y17240239D01*
X8770952Y17335477D01*
X8818571Y17383096D01*
X8913809Y17430715D01*
X9151904Y17430715D01*
X9247142Y17383096D01*
X9294761Y17335477D01*
X9342380Y17240239D01*
X9342380Y17002143D01*
X9294761Y16906905D01*
X9247142Y16859286D01*
X9342380Y18383096D02*
X9342380Y17811667D01*
X9342380Y18097381D02*
X8342380Y18097381D01*
X8485238Y18002143D01*
X8580476Y17906905D01*
X8628095Y17811667D01*
X8437619Y18764048D02*
X8390000Y18811667D01*
X8342380Y18906905D01*
X8342380Y19145000D01*
X8390000Y19240239D01*
X8437619Y19287858D01*
X8532857Y19335477D01*
X8628095Y19335477D01*
X8770952Y19287858D01*
X9342380Y18716429D01*
X9342380Y19335477D01*
X68397380Y29249762D02*
X68397380Y28678334D01*
X68397380Y28964048D02*
X67397380Y28964048D01*
X67540238Y28868810D01*
X67635476Y28773572D01*
X67683095Y28678334D01*
X67397380Y29868810D02*
X67397380Y29964048D01*
X67445000Y30059286D01*
X67492619Y30106905D01*
X67587857Y30154524D01*
X67778333Y30202143D01*
X68016428Y30202143D01*
X68206904Y30154524D01*
X68302142Y30106905D01*
X68349761Y30059286D01*
X68397380Y29964048D01*
X68397380Y29868810D01*
X68349761Y29773572D01*
X68302142Y29725953D01*
X68206904Y29678334D01*
X68016428Y29630715D01*
X67778333Y29630715D01*
X67587857Y29678334D01*
X67492619Y29725953D01*
X67445000Y29773572D01*
X67397380Y29868810D01*
X68397380Y30630715D02*
X67397380Y30630715D01*
X68016428Y30725953D02*
X68397380Y31011667D01*
X67730714Y31011667D02*
X68111666Y30630715D01*
X63317380Y29249762D02*
X63317380Y28678334D01*
X63317380Y28964048D02*
X62317380Y28964048D01*
X62460238Y28868810D01*
X62555476Y28773572D01*
X62603095Y28678334D01*
X62317380Y29868810D02*
X62317380Y29964048D01*
X62365000Y30059286D01*
X62412619Y30106905D01*
X62507857Y30154524D01*
X62698333Y30202143D01*
X62936428Y30202143D01*
X63126904Y30154524D01*
X63222142Y30106905D01*
X63269761Y30059286D01*
X63317380Y29964048D01*
X63317380Y29868810D01*
X63269761Y29773572D01*
X63222142Y29725953D01*
X63126904Y29678334D01*
X62936428Y29630715D01*
X62698333Y29630715D01*
X62507857Y29678334D01*
X62412619Y29725953D01*
X62365000Y29773572D01*
X62317380Y29868810D01*
X63317380Y30630715D02*
X62317380Y30630715D01*
X62936428Y30725953D02*
X63317380Y31011667D01*
X62650714Y31011667D02*
X63031666Y30630715D01*
X58237380Y29249762D02*
X58237380Y28678334D01*
X58237380Y28964048D02*
X57237380Y28964048D01*
X57380238Y28868810D01*
X57475476Y28773572D01*
X57523095Y28678334D01*
X57237380Y29868810D02*
X57237380Y29964048D01*
X57285000Y30059286D01*
X57332619Y30106905D01*
X57427857Y30154524D01*
X57618333Y30202143D01*
X57856428Y30202143D01*
X58046904Y30154524D01*
X58142142Y30106905D01*
X58189761Y30059286D01*
X58237380Y29964048D01*
X58237380Y29868810D01*
X58189761Y29773572D01*
X58142142Y29725953D01*
X58046904Y29678334D01*
X57856428Y29630715D01*
X57618333Y29630715D01*
X57427857Y29678334D01*
X57332619Y29725953D01*
X57285000Y29773572D01*
X57237380Y29868810D01*
X58237380Y30630715D02*
X57237380Y30630715D01*
X57856428Y30725953D02*
X58237380Y31011667D01*
X57570714Y31011667D02*
X57951666Y30630715D01*
X53157380Y29249762D02*
X53157380Y28678334D01*
X53157380Y28964048D02*
X52157380Y28964048D01*
X52300238Y28868810D01*
X52395476Y28773572D01*
X52443095Y28678334D01*
X52157380Y29868810D02*
X52157380Y29964048D01*
X52205000Y30059286D01*
X52252619Y30106905D01*
X52347857Y30154524D01*
X52538333Y30202143D01*
X52776428Y30202143D01*
X52966904Y30154524D01*
X53062142Y30106905D01*
X53109761Y30059286D01*
X53157380Y29964048D01*
X53157380Y29868810D01*
X53109761Y29773572D01*
X53062142Y29725953D01*
X52966904Y29678334D01*
X52776428Y29630715D01*
X52538333Y29630715D01*
X52347857Y29678334D01*
X52252619Y29725953D01*
X52205000Y29773572D01*
X52157380Y29868810D01*
X53157380Y30630715D02*
X52157380Y30630715D01*
X52776428Y30725953D02*
X53157380Y31011667D01*
X52490714Y31011667D02*
X52871666Y30630715D01*
X59507380Y80367381D02*
X59507380Y79795953D01*
X59507380Y80081667D02*
X58507380Y80081667D01*
X58650238Y79986429D01*
X58745476Y79891191D01*
X58793095Y79795953D01*
X58507380Y80986429D02*
X58507380Y81081667D01*
X58555000Y81176905D01*
X58602619Y81224524D01*
X58697857Y81272143D01*
X58888333Y81319762D01*
X59126428Y81319762D01*
X59316904Y81272143D01*
X59412142Y81224524D01*
X59459761Y81176905D01*
X59507380Y81081667D01*
X59507380Y80986429D01*
X59459761Y80891191D01*
X59412142Y80843572D01*
X59316904Y80795953D01*
X59126428Y80748334D01*
X58888333Y80748334D01*
X58697857Y80795953D01*
X58602619Y80843572D01*
X58555000Y80891191D01*
X58507380Y80986429D01*
X58507380Y81938810D02*
X58507380Y82034048D01*
X58555000Y82129286D01*
X58602619Y82176905D01*
X58697857Y82224524D01*
X58888333Y82272143D01*
X59126428Y82272143D01*
X59316904Y82224524D01*
X59412142Y82176905D01*
X59459761Y82129286D01*
X59507380Y82034048D01*
X59507380Y81938810D01*
X59459761Y81843572D01*
X59412142Y81795953D01*
X59316904Y81748334D01*
X59126428Y81700715D01*
X58888333Y81700715D01*
X58697857Y81748334D01*
X58602619Y81795953D01*
X58555000Y81843572D01*
X58507380Y81938810D01*
X58840714Y83129286D02*
X59507380Y83129286D01*
X58840714Y82700715D02*
X59364523Y82700715D01*
X59459761Y82748334D01*
X59507380Y82843572D01*
X59507380Y82986429D01*
X59459761Y83081667D01*
X59412142Y83129286D01*
X58983571Y83938810D02*
X58983571Y83605477D01*
X59507380Y83605477D02*
X58507380Y83605477D01*
X58507380Y84081667D01*
X47077380Y79002143D02*
X47077380Y79097381D01*
X47125000Y79192620D01*
X47172619Y79240239D01*
X47267857Y79287858D01*
X47458333Y79335477D01*
X47696428Y79335477D01*
X47886904Y79287858D01*
X47982142Y79240239D01*
X48029761Y79192620D01*
X48077380Y79097381D01*
X48077380Y79002143D01*
X48029761Y78906905D01*
X47982142Y78859286D01*
X47886904Y78811667D01*
X47696428Y78764048D01*
X47458333Y78764048D01*
X47267857Y78811667D01*
X47172619Y78859286D01*
X47125000Y78906905D01*
X47077380Y79002143D01*
X47982142Y79764048D02*
X48029761Y79811667D01*
X48077380Y79764048D01*
X48029761Y79716429D01*
X47982142Y79764048D01*
X48077380Y79764048D01*
X48077380Y80764048D02*
X48077380Y80192620D01*
X48077380Y80478334D02*
X47077380Y80478334D01*
X47220238Y80383096D01*
X47315476Y80287858D01*
X47363095Y80192620D01*
X47410714Y81621191D02*
X48077380Y81621191D01*
X47410714Y81192620D02*
X47934523Y81192620D01*
X48029761Y81240239D01*
X48077380Y81335477D01*
X48077380Y81478334D01*
X48029761Y81573572D01*
X47982142Y81621191D01*
X47553571Y82430715D02*
X47553571Y82097381D01*
X48077380Y82097381D02*
X47077380Y82097381D01*
X47077380Y82573572D01*
X47077380Y58682143D02*
X47077380Y58777381D01*
X47125000Y58872620D01*
X47172619Y58920239D01*
X47267857Y58967858D01*
X47458333Y59015477D01*
X47696428Y59015477D01*
X47886904Y58967858D01*
X47982142Y58920239D01*
X48029761Y58872620D01*
X48077380Y58777381D01*
X48077380Y58682143D01*
X48029761Y58586905D01*
X47982142Y58539286D01*
X47886904Y58491667D01*
X47696428Y58444048D01*
X47458333Y58444048D01*
X47267857Y58491667D01*
X47172619Y58539286D01*
X47125000Y58586905D01*
X47077380Y58682143D01*
X47982142Y59444048D02*
X48029761Y59491667D01*
X48077380Y59444048D01*
X48029761Y59396429D01*
X47982142Y59444048D01*
X48077380Y59444048D01*
X48077380Y60444048D02*
X48077380Y59872620D01*
X48077380Y60158334D02*
X47077380Y60158334D01*
X47220238Y60063096D01*
X47315476Y59967858D01*
X47363095Y59872620D01*
X47410714Y61301191D02*
X48077380Y61301191D01*
X47410714Y60872620D02*
X47934523Y60872620D01*
X48029761Y60920239D01*
X48077380Y61015477D01*
X48077380Y61158334D01*
X48029761Y61253572D01*
X47982142Y61301191D01*
X47553571Y62110715D02*
X47553571Y61777381D01*
X48077380Y61777381D02*
X47077380Y61777381D01*
X47077380Y62253572D01*
X70572380Y54872143D02*
X70572380Y54967381D01*
X70620000Y55062620D01*
X70667619Y55110239D01*
X70762857Y55157858D01*
X70953333Y55205477D01*
X71191428Y55205477D01*
X71381904Y55157858D01*
X71477142Y55110239D01*
X71524761Y55062620D01*
X71572380Y54967381D01*
X71572380Y54872143D01*
X71524761Y54776905D01*
X71477142Y54729286D01*
X71381904Y54681667D01*
X71191428Y54634048D01*
X70953333Y54634048D01*
X70762857Y54681667D01*
X70667619Y54729286D01*
X70620000Y54776905D01*
X70572380Y54872143D01*
X71477142Y55634048D02*
X71524761Y55681667D01*
X71572380Y55634048D01*
X71524761Y55586429D01*
X71477142Y55634048D01*
X71572380Y55634048D01*
X71572380Y56634048D02*
X71572380Y56062620D01*
X71572380Y56348334D02*
X70572380Y56348334D01*
X70715238Y56253096D01*
X70810476Y56157858D01*
X70858095Y56062620D01*
X70905714Y57491191D02*
X71572380Y57491191D01*
X70905714Y57062620D02*
X71429523Y57062620D01*
X71524761Y57110239D01*
X71572380Y57205477D01*
X71572380Y57348334D01*
X71524761Y57443572D01*
X71477142Y57491191D01*
X71048571Y58300715D02*
X71048571Y57967381D01*
X71572380Y57967381D02*
X70572380Y57967381D01*
X70572380Y58443572D01*
X73112380Y41537143D02*
X73112380Y41632381D01*
X73160000Y41727620D01*
X73207619Y41775239D01*
X73302857Y41822858D01*
X73493333Y41870477D01*
X73731428Y41870477D01*
X73921904Y41822858D01*
X74017142Y41775239D01*
X74064761Y41727620D01*
X74112380Y41632381D01*
X74112380Y41537143D01*
X74064761Y41441905D01*
X74017142Y41394286D01*
X73921904Y41346667D01*
X73731428Y41299048D01*
X73493333Y41299048D01*
X73302857Y41346667D01*
X73207619Y41394286D01*
X73160000Y41441905D01*
X73112380Y41537143D01*
X74017142Y42299048D02*
X74064761Y42346667D01*
X74112380Y42299048D01*
X74064761Y42251429D01*
X74017142Y42299048D01*
X74112380Y42299048D01*
X74112380Y43299048D02*
X74112380Y42727620D01*
X74112380Y43013334D02*
X73112380Y43013334D01*
X73255238Y42918096D01*
X73350476Y42822858D01*
X73398095Y42727620D01*
X73445714Y44156191D02*
X74112380Y44156191D01*
X73445714Y43727620D02*
X73969523Y43727620D01*
X74064761Y43775239D01*
X74112380Y43870477D01*
X74112380Y44013334D01*
X74064761Y44108572D01*
X74017142Y44156191D01*
X73588571Y44965715D02*
X73588571Y44632381D01*
X74112380Y44632381D02*
X73112380Y44632381D01*
X73112380Y45108572D01*
X47077380Y38362143D02*
X47077380Y38457381D01*
X47125000Y38552620D01*
X47172619Y38600239D01*
X47267857Y38647858D01*
X47458333Y38695477D01*
X47696428Y38695477D01*
X47886904Y38647858D01*
X47982142Y38600239D01*
X48029761Y38552620D01*
X48077380Y38457381D01*
X48077380Y38362143D01*
X48029761Y38266905D01*
X47982142Y38219286D01*
X47886904Y38171667D01*
X47696428Y38124048D01*
X47458333Y38124048D01*
X47267857Y38171667D01*
X47172619Y38219286D01*
X47125000Y38266905D01*
X47077380Y38362143D01*
X47982142Y39124048D02*
X48029761Y39171667D01*
X48077380Y39124048D01*
X48029761Y39076429D01*
X47982142Y39124048D01*
X48077380Y39124048D01*
X48077380Y40124048D02*
X48077380Y39552620D01*
X48077380Y39838334D02*
X47077380Y39838334D01*
X47220238Y39743096D01*
X47315476Y39647858D01*
X47363095Y39552620D01*
X47410714Y40981191D02*
X48077380Y40981191D01*
X47410714Y40552620D02*
X47934523Y40552620D01*
X48029761Y40600239D01*
X48077380Y40695477D01*
X48077380Y40838334D01*
X48029761Y40933572D01*
X47982142Y40981191D01*
X47553571Y41790715D02*
X47553571Y41457381D01*
X48077380Y41457381D02*
X47077380Y41457381D01*
X47077380Y41933572D01*
X47077380Y18042143D02*
X47077380Y18137381D01*
X47125000Y18232620D01*
X47172619Y18280239D01*
X47267857Y18327858D01*
X47458333Y18375477D01*
X47696428Y18375477D01*
X47886904Y18327858D01*
X47982142Y18280239D01*
X48029761Y18232620D01*
X48077380Y18137381D01*
X48077380Y18042143D01*
X48029761Y17946905D01*
X47982142Y17899286D01*
X47886904Y17851667D01*
X47696428Y17804048D01*
X47458333Y17804048D01*
X47267857Y17851667D01*
X47172619Y17899286D01*
X47125000Y17946905D01*
X47077380Y18042143D01*
X47982142Y18804048D02*
X48029761Y18851667D01*
X48077380Y18804048D01*
X48029761Y18756429D01*
X47982142Y18804048D01*
X48077380Y18804048D01*
X48077380Y19804048D02*
X48077380Y19232620D01*
X48077380Y19518334D02*
X47077380Y19518334D01*
X47220238Y19423096D01*
X47315476Y19327858D01*
X47363095Y19232620D01*
X47410714Y20661191D02*
X48077380Y20661191D01*
X47410714Y20232620D02*
X47934523Y20232620D01*
X48029761Y20280239D01*
X48077380Y20375477D01*
X48077380Y20518334D01*
X48029761Y20613572D01*
X47982142Y20661191D01*
X47553571Y21470715D02*
X47553571Y21137381D01*
X48077380Y21137381D02*
X47077380Y21137381D01*
X47077380Y21613572D01*
X56213333Y17232381D02*
X55594285Y17232381D01*
X55927619Y17613334D01*
X55784761Y17613334D01*
X55689523Y17660953D01*
X55641904Y17708572D01*
X55594285Y17803810D01*
X55594285Y18041905D01*
X55641904Y18137143D01*
X55689523Y18184762D01*
X55784761Y18232381D01*
X56070476Y18232381D01*
X56165714Y18184762D01*
X56213333Y18137143D01*
X58705714Y17327620D02*
X58658095Y17280000D01*
X58562857Y17232381D01*
X58324761Y17232381D01*
X58229523Y17280000D01*
X58181904Y17327620D01*
X58134285Y17422858D01*
X58134285Y17518096D01*
X58181904Y17660953D01*
X58753333Y18232381D01*
X58134285Y18232381D01*
X60674285Y18232381D02*
X61245714Y18232381D01*
X60960000Y18232381D02*
X60960000Y17232381D01*
X61055238Y17375239D01*
X61150476Y17470477D01*
X61245714Y17518096D01*
X63547619Y17232381D02*
X63452380Y17232381D01*
X63357142Y17280000D01*
X63309523Y17327620D01*
X63261904Y17422858D01*
X63214285Y17613334D01*
X63214285Y17851429D01*
X63261904Y18041905D01*
X63309523Y18137143D01*
X63357142Y18184762D01*
X63452380Y18232381D01*
X63547619Y18232381D01*
X63642857Y18184762D01*
X63690476Y18137143D01*
X63738095Y18041905D01*
X63785714Y17851429D01*
X63785714Y17613334D01*
X63738095Y17422858D01*
X63690476Y17327620D01*
X63642857Y17280000D01*
X63547619Y17232381D01*
D12*
X69750000Y49930000D02*
X69750000Y54170000D01*
X72490000Y49930000D02*
X72490000Y54170000D01*
X69750000Y49930000D02*
X70455000Y49930000D01*
X71785000Y49930000D02*
X72490000Y49930000D01*
X69750000Y54170000D02*
X70455000Y54170000D01*
X71785000Y54170000D02*
X72490000Y54170000D01*
X72995000Y37270000D02*
X72290000Y37270000D01*
X75030000Y37270000D02*
X74325000Y37270000D01*
X72995000Y41510000D02*
X72290000Y41510000D01*
X75030000Y41510000D02*
X74325000Y41510000D01*
X72290000Y41510000D02*
X72290000Y37270000D01*
X75030000Y41510000D02*
X75030000Y37270000D01*
X48995000Y17380000D02*
X48995000Y13140000D01*
X46255000Y17380000D02*
X46255000Y13140000D01*
X48995000Y17380000D02*
X48290000Y17380000D01*
X46960000Y17380000D02*
X46255000Y17380000D01*
X48995000Y13140000D02*
X48290000Y13140000D01*
X46960000Y13140000D02*
X46255000Y13140000D01*
X46960000Y33460000D02*
X46255000Y33460000D01*
X48995000Y33460000D02*
X48290000Y33460000D01*
X46960000Y37700000D02*
X46255000Y37700000D01*
X48995000Y37700000D02*
X48290000Y37700000D01*
X46255000Y37700000D02*
X46255000Y33460000D01*
X48995000Y37700000D02*
X48995000Y33460000D01*
X46960000Y53780000D02*
X46255000Y53780000D01*
X48995000Y53780000D02*
X48290000Y53780000D01*
X46960000Y58020000D02*
X46255000Y58020000D01*
X48995000Y58020000D02*
X48290000Y58020000D01*
X46255000Y58020000D02*
X46255000Y53780000D01*
X48995000Y58020000D02*
X48995000Y53780000D01*
X48995000Y78340000D02*
X48995000Y74100000D01*
X46255000Y78340000D02*
X46255000Y74100000D01*
X48995000Y78340000D02*
X48290000Y78340000D01*
X46960000Y78340000D02*
X46255000Y78340000D01*
X48995000Y74100000D02*
X48290000Y74100000D01*
X46960000Y74100000D02*
X46255000Y74100000D01*
X71855000Y28670000D02*
X71525000Y28670000D01*
X71855000Y22130000D02*
X71855000Y28670000D01*
X71525000Y22130000D02*
X71855000Y22130000D01*
X69115000Y28670000D02*
X69445000Y28670000D01*
X69115000Y22130000D02*
X69115000Y28670000D01*
X69445000Y22130000D02*
X69115000Y22130000D01*
X64365000Y22130000D02*
X64035000Y22130000D01*
X64035000Y22130000D02*
X64035000Y28670000D01*
X64035000Y28670000D02*
X64365000Y28670000D01*
X66445000Y22130000D02*
X66775000Y22130000D01*
X66775000Y22130000D02*
X66775000Y28670000D01*
X66775000Y28670000D02*
X66445000Y28670000D01*
X61695000Y28670000D02*
X61365000Y28670000D01*
X61695000Y22130000D02*
X61695000Y28670000D01*
X61365000Y22130000D02*
X61695000Y22130000D01*
X58955000Y28670000D02*
X59285000Y28670000D01*
X58955000Y22130000D02*
X58955000Y28670000D01*
X59285000Y22130000D02*
X58955000Y22130000D01*
X54205000Y22130000D02*
X53875000Y22130000D01*
X53875000Y22130000D02*
X53875000Y28670000D01*
X53875000Y28670000D02*
X54205000Y28670000D01*
X56285000Y22130000D02*
X56615000Y22130000D01*
X56615000Y22130000D02*
X56615000Y28670000D01*
X56615000Y28670000D02*
X56285000Y28670000D01*
X56515000Y12033333D02*
X55245000Y12033333D01*
X55315000Y13240000D02*
X55315000Y12033333D01*
X55435000Y13240000D02*
X55435000Y12033333D01*
X55555000Y13240000D02*
X55555000Y12033333D01*
X55675000Y13240000D02*
X55675000Y12033333D01*
X55795000Y13240000D02*
X55795000Y12033333D01*
X55915000Y13240000D02*
X55915000Y12033333D01*
X56035000Y13240000D02*
X56035000Y12033333D01*
X56155000Y13240000D02*
X56155000Y12033333D01*
X56275000Y13240000D02*
X56275000Y12033333D01*
X56395000Y13240000D02*
X56395000Y12033333D01*
X56515000Y9620000D02*
X56515000Y13240000D01*
X55245000Y9620000D02*
X56515000Y9620000D01*
X55245000Y13240000D02*
X55245000Y9620000D01*
X56515000Y13240000D02*
X55245000Y13240000D01*
X59055000Y12033333D02*
X57785000Y12033333D01*
X57855000Y13240000D02*
X57855000Y12033333D01*
X57975000Y13240000D02*
X57975000Y12033333D01*
X58095000Y13240000D02*
X58095000Y12033333D01*
X58215000Y13240000D02*
X58215000Y12033333D01*
X58335000Y13240000D02*
X58335000Y12033333D01*
X58455000Y13240000D02*
X58455000Y12033333D01*
X58575000Y13240000D02*
X58575000Y12033333D01*
X58695000Y13240000D02*
X58695000Y12033333D01*
X58815000Y13240000D02*
X58815000Y12033333D01*
X58935000Y13240000D02*
X58935000Y12033333D01*
X59055000Y9620000D02*
X59055000Y13240000D01*
X57785000Y9620000D02*
X59055000Y9620000D01*
X57785000Y13240000D02*
X57785000Y9620000D01*
X59055000Y13240000D02*
X57785000Y13240000D01*
X61595000Y12033333D02*
X60325000Y12033333D01*
X60395000Y13240000D02*
X60395000Y12033333D01*
X60515000Y13240000D02*
X60515000Y12033333D01*
X60635000Y13240000D02*
X60635000Y12033333D01*
X60755000Y13240000D02*
X60755000Y12033333D01*
X60875000Y13240000D02*
X60875000Y12033333D01*
X60995000Y13240000D02*
X60995000Y12033333D01*
X61115000Y13240000D02*
X61115000Y12033333D01*
X61235000Y13240000D02*
X61235000Y12033333D01*
X61355000Y13240000D02*
X61355000Y12033333D01*
X61475000Y13240000D02*
X61475000Y12033333D01*
X61595000Y9620000D02*
X61595000Y13240000D01*
X60325000Y9620000D02*
X61595000Y9620000D01*
X60325000Y13240000D02*
X60325000Y9620000D01*
X61595000Y13240000D02*
X60325000Y13240000D01*
X64135000Y12033333D02*
X62865000Y12033333D01*
X62935000Y13240000D02*
X62935000Y12033333D01*
X63055000Y13240000D02*
X63055000Y12033333D01*
X63175000Y13240000D02*
X63175000Y12033333D01*
X63295000Y13240000D02*
X63295000Y12033333D01*
X63415000Y13240000D02*
X63415000Y12033333D01*
X63535000Y13240000D02*
X63535000Y12033333D01*
X63655000Y13240000D02*
X63655000Y12033333D01*
X63775000Y13240000D02*
X63775000Y12033333D01*
X63895000Y13240000D02*
X63895000Y12033333D01*
X64015000Y13240000D02*
X64015000Y12033333D01*
X64135000Y9620000D02*
X64135000Y13240000D01*
X62865000Y9620000D02*
X64135000Y9620000D01*
X62865000Y13240000D02*
X62865000Y9620000D01*
X64135000Y13240000D02*
X62865000Y13240000D01*
X65850000Y15080000D02*
X64540000Y15080000D01*
X65850000Y15080000D02*
X65850000Y13697000D01*
X62510000Y8019000D02*
X61949000Y8019000D01*
X65610000Y8019000D02*
X64490000Y8019000D01*
X59970000Y8019000D02*
X59409000Y8019000D01*
X57430000Y8019000D02*
X56869000Y8019000D01*
X54890000Y8019000D02*
X53770000Y8019000D01*
X54890000Y14840000D02*
X53770000Y14840000D01*
X57430000Y14840000D02*
X56869000Y14840000D01*
X59970000Y14840000D02*
X59409000Y14840000D01*
X62460000Y14840000D02*
X61949000Y14840000D01*
X65610000Y14840000D02*
X64540000Y14840000D01*
X53770000Y14840000D02*
X53770000Y8019000D01*
X65610000Y14840000D02*
X65610000Y8019000D01*
X45780000Y9180000D02*
X45780000Y14240000D01*
X10100000Y9180000D02*
X45780000Y9180000D01*
X10100000Y21300000D02*
X10100000Y9180000D01*
X45780000Y21300000D02*
X10100000Y21300000D01*
X45780000Y16240000D02*
X45780000Y21300000D01*
X45780000Y14240000D02*
G75*
G02*
X45780000Y16240000I0J1000000D01*
G01*
X45780000Y29500000D02*
X45780000Y34560000D01*
X10100000Y29500000D02*
X45780000Y29500000D01*
X10100000Y41620000D02*
X10100000Y29500000D01*
X45780000Y41620000D02*
X10100000Y41620000D01*
X45780000Y36560000D02*
X45780000Y41620000D01*
X45780000Y34560000D02*
G75*
G02*
X45780000Y36560000I0J1000000D01*
G01*
X45780000Y56880000D02*
X45780000Y61940000D01*
X45780000Y61940000D02*
X10100000Y61940000D01*
X10100000Y61940000D02*
X10100000Y49820000D01*
X10100000Y49820000D02*
X45780000Y49820000D01*
X45780000Y49820000D02*
X45780000Y54880000D01*
X45780000Y54880000D02*
G75*
G02*
X45780000Y56880000I0J1000000D01*
G01*
X45780000Y77200000D02*
X45780000Y82260000D01*
X45780000Y82260000D02*
X10100000Y82260000D01*
X10100000Y82260000D02*
X10100000Y70140000D01*
X10100000Y70140000D02*
X45780000Y70140000D01*
X45780000Y70140000D02*
X45780000Y75200000D01*
X45780000Y75200000D02*
G75*
G02*
X45780000Y77200000I0J1000000D01*
G01*
X71815000Y37120000D02*
X71815000Y38370000D01*
X51375000Y37120000D02*
X71815000Y37120000D01*
X51375000Y41620000D02*
X51375000Y37120000D01*
X71815000Y41620000D02*
X51375000Y41620000D01*
X71815000Y40370000D02*
X71815000Y41620000D01*
X71815000Y38370000D02*
G75*
G02*
X71815000Y40370000I0J1000000D01*
G01*
X69275000Y49820000D02*
X69275000Y51070000D01*
X51375000Y49820000D02*
X69275000Y49820000D01*
X51375000Y54320000D02*
X51375000Y49820000D01*
X69275000Y54320000D02*
X51375000Y54320000D01*
X69275000Y53070000D02*
X69275000Y54320000D01*
X69275000Y51070000D02*
G75*
G02*
X69275000Y53070000I0J1000000D01*
G01*
X56970000Y85124775D02*
X56470000Y85124775D01*
X56720000Y85374775D02*
X56720000Y84874775D01*
X55529000Y79969000D02*
X54961000Y79969000D01*
X55763000Y80009000D02*
X54727000Y80009000D01*
X55922000Y80049000D02*
X54568000Y80049000D01*
X56050000Y80089000D02*
X54440000Y80089000D01*
X56160000Y80129000D02*
X54330000Y80129000D01*
X56256000Y80169000D02*
X54234000Y80169000D01*
X56343000Y80209000D02*
X54147000Y80209000D01*
X56423000Y80249000D02*
X54067000Y80249000D01*
X54205000Y80289000D02*
X53994000Y80289000D01*
X56496000Y80289000D02*
X56285000Y80289000D01*
X54205000Y80329000D02*
X53926000Y80329000D01*
X56564000Y80329000D02*
X56285000Y80329000D01*
X54205000Y80369000D02*
X53862000Y80369000D01*
X56628000Y80369000D02*
X56285000Y80369000D01*
X54205000Y80409000D02*
X53802000Y80409000D01*
X56688000Y80409000D02*
X56285000Y80409000D01*
X54205000Y80449000D02*
X53745000Y80449000D01*
X56745000Y80449000D02*
X56285000Y80449000D01*
X54205000Y80489000D02*
X53691000Y80489000D01*
X56799000Y80489000D02*
X56285000Y80489000D01*
X54205000Y80529000D02*
X53640000Y80529000D01*
X56850000Y80529000D02*
X56285000Y80529000D01*
X54205000Y80569000D02*
X53592000Y80569000D01*
X56898000Y80569000D02*
X56285000Y80569000D01*
X54205000Y80609000D02*
X53546000Y80609000D01*
X56944000Y80609000D02*
X56285000Y80609000D01*
X54205000Y80649000D02*
X53502000Y80649000D01*
X56988000Y80649000D02*
X56285000Y80649000D01*
X54205000Y80689000D02*
X53460000Y80689000D01*
X57030000Y80689000D02*
X56285000Y80689000D01*
X54205000Y80729000D02*
X53419000Y80729000D01*
X57071000Y80729000D02*
X56285000Y80729000D01*
X54205000Y80769000D02*
X53381000Y80769000D01*
X57109000Y80769000D02*
X56285000Y80769000D01*
X54205000Y80809000D02*
X53344000Y80809000D01*
X57146000Y80809000D02*
X56285000Y80809000D01*
X54205000Y80849000D02*
X53308000Y80849000D01*
X57182000Y80849000D02*
X56285000Y80849000D01*
X54205000Y80889000D02*
X53274000Y80889000D01*
X57216000Y80889000D02*
X56285000Y80889000D01*
X54205000Y80929000D02*
X53241000Y80929000D01*
X57249000Y80929000D02*
X56285000Y80929000D01*
X54205000Y80969000D02*
X53210000Y80969000D01*
X57280000Y80969000D02*
X56285000Y80969000D01*
X54205000Y81009000D02*
X53180000Y81009000D01*
X57310000Y81009000D02*
X56285000Y81009000D01*
X54205000Y81049000D02*
X53150000Y81049000D01*
X57340000Y81049000D02*
X56285000Y81049000D01*
X54205000Y81089000D02*
X53123000Y81089000D01*
X57367000Y81089000D02*
X56285000Y81089000D01*
X54205000Y81129000D02*
X53096000Y81129000D01*
X57394000Y81129000D02*
X56285000Y81129000D01*
X54205000Y81169000D02*
X53070000Y81169000D01*
X57420000Y81169000D02*
X56285000Y81169000D01*
X54205000Y81209000D02*
X53045000Y81209000D01*
X57445000Y81209000D02*
X56285000Y81209000D01*
X54205000Y81249000D02*
X53021000Y81249000D01*
X57469000Y81249000D02*
X56285000Y81249000D01*
X54205000Y81289000D02*
X52998000Y81289000D01*
X57492000Y81289000D02*
X56285000Y81289000D01*
X54205000Y81329000D02*
X52977000Y81329000D01*
X57513000Y81329000D02*
X56285000Y81329000D01*
X54205000Y81369000D02*
X52955000Y81369000D01*
X57535000Y81369000D02*
X56285000Y81369000D01*
X54205000Y81409000D02*
X52935000Y81409000D01*
X57555000Y81409000D02*
X56285000Y81409000D01*
X54205000Y81449000D02*
X52916000Y81449000D01*
X57574000Y81449000D02*
X56285000Y81449000D01*
X54205000Y81489000D02*
X52897000Y81489000D01*
X57593000Y81489000D02*
X56285000Y81489000D01*
X54205000Y81529000D02*
X52880000Y81529000D01*
X57610000Y81529000D02*
X56285000Y81529000D01*
X54205000Y81569000D02*
X52863000Y81569000D01*
X57627000Y81569000D02*
X56285000Y81569000D01*
X54205000Y81609000D02*
X52847000Y81609000D01*
X57643000Y81609000D02*
X56285000Y81609000D01*
X54205000Y81649000D02*
X52831000Y81649000D01*
X57659000Y81649000D02*
X56285000Y81649000D01*
X54205000Y81689000D02*
X52817000Y81689000D01*
X57673000Y81689000D02*
X56285000Y81689000D01*
X54205000Y81729000D02*
X52803000Y81729000D01*
X57687000Y81729000D02*
X56285000Y81729000D01*
X54205000Y81769000D02*
X52790000Y81769000D01*
X57700000Y81769000D02*
X56285000Y81769000D01*
X54205000Y81809000D02*
X52777000Y81809000D01*
X57713000Y81809000D02*
X56285000Y81809000D01*
X54205000Y81849000D02*
X52765000Y81849000D01*
X57725000Y81849000D02*
X56285000Y81849000D01*
X54205000Y81890000D02*
X52754000Y81890000D01*
X57736000Y81890000D02*
X56285000Y81890000D01*
X54205000Y81930000D02*
X52744000Y81930000D01*
X57746000Y81930000D02*
X56285000Y81930000D01*
X54205000Y81970000D02*
X52734000Y81970000D01*
X57756000Y81970000D02*
X56285000Y81970000D01*
X54205000Y82010000D02*
X52725000Y82010000D01*
X57765000Y82010000D02*
X56285000Y82010000D01*
X54205000Y82050000D02*
X52717000Y82050000D01*
X57773000Y82050000D02*
X56285000Y82050000D01*
X54205000Y82090000D02*
X52709000Y82090000D01*
X57781000Y82090000D02*
X56285000Y82090000D01*
X54205000Y82130000D02*
X52702000Y82130000D01*
X57788000Y82130000D02*
X56285000Y82130000D01*
X54205000Y82170000D02*
X52695000Y82170000D01*
X57795000Y82170000D02*
X56285000Y82170000D01*
X54205000Y82210000D02*
X52689000Y82210000D01*
X57801000Y82210000D02*
X56285000Y82210000D01*
X54205000Y82250000D02*
X52684000Y82250000D01*
X57806000Y82250000D02*
X56285000Y82250000D01*
X54205000Y82290000D02*
X52680000Y82290000D01*
X57810000Y82290000D02*
X56285000Y82290000D01*
X54205000Y82330000D02*
X52676000Y82330000D01*
X57814000Y82330000D02*
X56285000Y82330000D01*
X57818000Y82370000D02*
X52672000Y82370000D01*
X57821000Y82410000D02*
X52669000Y82410000D01*
X57823000Y82450000D02*
X52667000Y82450000D01*
X57824000Y82490000D02*
X52666000Y82490000D01*
X57825000Y82530000D02*
X52665000Y82530000D01*
X57825000Y82570000D02*
X52665000Y82570000D01*
X57865000Y82570000D02*
G75*
G03*
X57865000Y82570000I-2620000J0D01*
G01*
D11*
X71477142Y48728334D02*
X71524761Y48680715D01*
X71572380Y48537858D01*
X71572380Y48442620D01*
X71524761Y48299762D01*
X71429523Y48204524D01*
X71334285Y48156905D01*
X71143809Y48109286D01*
X71000952Y48109286D01*
X70810476Y48156905D01*
X70715238Y48204524D01*
X70620000Y48299762D01*
X70572380Y48442620D01*
X70572380Y48537858D01*
X70620000Y48680715D01*
X70667619Y48728334D01*
X71572380Y49680715D02*
X71572380Y49109286D01*
X71572380Y49395000D02*
X70572380Y49395000D01*
X70715238Y49299762D01*
X70810476Y49204524D01*
X70858095Y49109286D01*
X74017142Y35393334D02*
X74064761Y35345715D01*
X74112380Y35202858D01*
X74112380Y35107620D01*
X74064761Y34964762D01*
X73969523Y34869524D01*
X73874285Y34821905D01*
X73683809Y34774286D01*
X73540952Y34774286D01*
X73350476Y34821905D01*
X73255238Y34869524D01*
X73160000Y34964762D01*
X73112380Y35107620D01*
X73112380Y35202858D01*
X73160000Y35345715D01*
X73207619Y35393334D01*
X73207619Y35774286D02*
X73160000Y35821905D01*
X73112380Y35917143D01*
X73112380Y36155239D01*
X73160000Y36250477D01*
X73207619Y36298096D01*
X73302857Y36345715D01*
X73398095Y36345715D01*
X73540952Y36298096D01*
X74112380Y35726667D01*
X74112380Y36345715D01*
X47982142Y11263334D02*
X48029761Y11215715D01*
X48077380Y11072858D01*
X48077380Y10977620D01*
X48029761Y10834762D01*
X47934523Y10739524D01*
X47839285Y10691905D01*
X47648809Y10644286D01*
X47505952Y10644286D01*
X47315476Y10691905D01*
X47220238Y10739524D01*
X47125000Y10834762D01*
X47077380Y10977620D01*
X47077380Y11072858D01*
X47125000Y11215715D01*
X47172619Y11263334D01*
X47077380Y11596667D02*
X47077380Y12215715D01*
X47458333Y11882381D01*
X47458333Y12025239D01*
X47505952Y12120477D01*
X47553571Y12168096D01*
X47648809Y12215715D01*
X47886904Y12215715D01*
X47982142Y12168096D01*
X48029761Y12120477D01*
X48077380Y12025239D01*
X48077380Y11739524D01*
X48029761Y11644286D01*
X47982142Y11596667D01*
X47982142Y31583334D02*
X48029761Y31535715D01*
X48077380Y31392858D01*
X48077380Y31297620D01*
X48029761Y31154762D01*
X47934523Y31059524D01*
X47839285Y31011905D01*
X47648809Y30964286D01*
X47505952Y30964286D01*
X47315476Y31011905D01*
X47220238Y31059524D01*
X47125000Y31154762D01*
X47077380Y31297620D01*
X47077380Y31392858D01*
X47125000Y31535715D01*
X47172619Y31583334D01*
X47410714Y32440477D02*
X48077380Y32440477D01*
X47029761Y32202381D02*
X47744047Y31964286D01*
X47744047Y32583334D01*
X47982142Y51903334D02*
X48029761Y51855715D01*
X48077380Y51712858D01*
X48077380Y51617620D01*
X48029761Y51474762D01*
X47934523Y51379524D01*
X47839285Y51331905D01*
X47648809Y51284286D01*
X47505952Y51284286D01*
X47315476Y51331905D01*
X47220238Y51379524D01*
X47125000Y51474762D01*
X47077380Y51617620D01*
X47077380Y51712858D01*
X47125000Y51855715D01*
X47172619Y51903334D01*
X47077380Y52760477D02*
X47077380Y52570000D01*
X47125000Y52474762D01*
X47172619Y52427143D01*
X47315476Y52331905D01*
X47505952Y52284286D01*
X47886904Y52284286D01*
X47982142Y52331905D01*
X48029761Y52379524D01*
X48077380Y52474762D01*
X48077380Y52665239D01*
X48029761Y52760477D01*
X47982142Y52808096D01*
X47886904Y52855715D01*
X47648809Y52855715D01*
X47553571Y52808096D01*
X47505952Y52760477D01*
X47458333Y52665239D01*
X47458333Y52474762D01*
X47505952Y52379524D01*
X47553571Y52331905D01*
X47648809Y52284286D01*
X47982142Y72223334D02*
X48029761Y72175715D01*
X48077380Y72032858D01*
X48077380Y71937620D01*
X48029761Y71794762D01*
X47934523Y71699524D01*
X47839285Y71651905D01*
X47648809Y71604286D01*
X47505952Y71604286D01*
X47315476Y71651905D01*
X47220238Y71699524D01*
X47125000Y71794762D01*
X47077380Y71937620D01*
X47077380Y72032858D01*
X47125000Y72175715D01*
X47172619Y72223334D01*
X47077380Y72556667D02*
X47077380Y73223334D01*
X48077380Y72794762D01*
X46656666Y102032620D02*
X46656666Y101318334D01*
X46609047Y101175477D01*
X46513809Y101080239D01*
X46370952Y101032620D01*
X46275714Y101032620D01*
X47656666Y101032620D02*
X47085238Y101032620D01*
X47370952Y101032620D02*
X47370952Y102032620D01*
X47275714Y101889762D01*
X47180476Y101794524D01*
X47085238Y101746905D01*
X68567380Y22693334D02*
X68091190Y22360000D01*
X68567380Y22121905D02*
X67567380Y22121905D01*
X67567380Y22502858D01*
X67615000Y22598096D01*
X67662619Y22645715D01*
X67757857Y22693334D01*
X67900714Y22693334D01*
X67995952Y22645715D01*
X68043571Y22598096D01*
X68091190Y22502858D01*
X68091190Y22121905D01*
X68567380Y23645715D02*
X68567380Y23074286D01*
X68567380Y23360000D02*
X67567380Y23360000D01*
X67710238Y23264762D01*
X67805476Y23169524D01*
X67853095Y23074286D01*
X63487380Y22693334D02*
X63011190Y22360000D01*
X63487380Y22121905D02*
X62487380Y22121905D01*
X62487380Y22502858D01*
X62535000Y22598096D01*
X62582619Y22645715D01*
X62677857Y22693334D01*
X62820714Y22693334D01*
X62915952Y22645715D01*
X62963571Y22598096D01*
X63011190Y22502858D01*
X63011190Y22121905D01*
X62582619Y23074286D02*
X62535000Y23121905D01*
X62487380Y23217143D01*
X62487380Y23455239D01*
X62535000Y23550477D01*
X62582619Y23598096D01*
X62677857Y23645715D01*
X62773095Y23645715D01*
X62915952Y23598096D01*
X63487380Y23026667D01*
X63487380Y23645715D01*
X58407380Y22693334D02*
X57931190Y22360000D01*
X58407380Y22121905D02*
X57407380Y22121905D01*
X57407380Y22502858D01*
X57455000Y22598096D01*
X57502619Y22645715D01*
X57597857Y22693334D01*
X57740714Y22693334D01*
X57835952Y22645715D01*
X57883571Y22598096D01*
X57931190Y22502858D01*
X57931190Y22121905D01*
X57407380Y23026667D02*
X57407380Y23645715D01*
X57788333Y23312381D01*
X57788333Y23455239D01*
X57835952Y23550477D01*
X57883571Y23598096D01*
X57978809Y23645715D01*
X58216904Y23645715D01*
X58312142Y23598096D01*
X58359761Y23550477D01*
X58407380Y23455239D01*
X58407380Y23169524D01*
X58359761Y23074286D01*
X58312142Y23026667D01*
X53327380Y22693334D02*
X52851190Y22360000D01*
X53327380Y22121905D02*
X52327380Y22121905D01*
X52327380Y22502858D01*
X52375000Y22598096D01*
X52422619Y22645715D01*
X52517857Y22693334D01*
X52660714Y22693334D01*
X52755952Y22645715D01*
X52803571Y22598096D01*
X52851190Y22502858D01*
X52851190Y22121905D01*
X52660714Y23550477D02*
X53327380Y23550477D01*
X52279761Y23312381D02*
X52994047Y23074286D01*
X52994047Y23693334D01*
X68643333Y11834762D02*
X68500476Y11882381D01*
X68262380Y11882381D01*
X68167142Y11834762D01*
X68119523Y11787143D01*
X68071904Y11691905D01*
X68071904Y11596667D01*
X68119523Y11501429D01*
X68167142Y11453810D01*
X68262380Y11406191D01*
X68452857Y11358572D01*
X68548095Y11310953D01*
X68595714Y11263334D01*
X68643333Y11168096D01*
X68643333Y11072858D01*
X68595714Y10977620D01*
X68548095Y10930000D01*
X68452857Y10882381D01*
X68214761Y10882381D01*
X68071904Y10930000D01*
X67738571Y10882381D02*
X67500476Y11882381D01*
X67310000Y11168096D01*
X67119523Y11882381D01*
X66881428Y10882381D01*
X65976666Y11882381D02*
X66548095Y11882381D01*
X66262380Y11882381D02*
X66262380Y10882381D01*
X66357619Y11025239D01*
X66452857Y11120477D01*
X66548095Y11168096D01*
X8342380Y9398096D02*
X9151904Y9398096D01*
X9247142Y9445715D01*
X9294761Y9493334D01*
X9342380Y9588572D01*
X9342380Y9779048D01*
X9294761Y9874286D01*
X9247142Y9921905D01*
X9151904Y9969524D01*
X8342380Y9969524D01*
X9342380Y10969524D02*
X9342380Y10398096D01*
X9342380Y10683810D02*
X8342380Y10683810D01*
X8485238Y10588572D01*
X8580476Y10493334D01*
X8628095Y10398096D01*
X8342380Y29718096D02*
X9151904Y29718096D01*
X9247142Y29765715D01*
X9294761Y29813334D01*
X9342380Y29908572D01*
X9342380Y30099048D01*
X9294761Y30194286D01*
X9247142Y30241905D01*
X9151904Y30289524D01*
X8342380Y30289524D01*
X8437619Y30718096D02*
X8390000Y30765715D01*
X8342380Y30860953D01*
X8342380Y31099048D01*
X8390000Y31194286D01*
X8437619Y31241905D01*
X8532857Y31289524D01*
X8628095Y31289524D01*
X8770952Y31241905D01*
X9342380Y30670477D01*
X9342380Y31289524D01*
X8342380Y50038096D02*
X9151904Y50038096D01*
X9247142Y50085715D01*
X9294761Y50133334D01*
X9342380Y50228572D01*
X9342380Y50419048D01*
X9294761Y50514286D01*
X9247142Y50561905D01*
X9151904Y50609524D01*
X8342380Y50609524D01*
X8342380Y50990477D02*
X8342380Y51609524D01*
X8723333Y51276191D01*
X8723333Y51419048D01*
X8770952Y51514286D01*
X8818571Y51561905D01*
X8913809Y51609524D01*
X9151904Y51609524D01*
X9247142Y51561905D01*
X9294761Y51514286D01*
X9342380Y51419048D01*
X9342380Y51133334D01*
X9294761Y51038096D01*
X9247142Y50990477D01*
X8342380Y70358096D02*
X9151904Y70358096D01*
X9247142Y70405715D01*
X9294761Y70453334D01*
X9342380Y70548572D01*
X9342380Y70739048D01*
X9294761Y70834286D01*
X9247142Y70881905D01*
X9151904Y70929524D01*
X8342380Y70929524D01*
X8675714Y71834286D02*
X9342380Y71834286D01*
X8294761Y71596191D02*
X9009047Y71358096D01*
X9009047Y71977143D01*
X50252380Y36068096D02*
X51061904Y36068096D01*
X51157142Y36115715D01*
X51204761Y36163334D01*
X51252380Y36258572D01*
X51252380Y36449048D01*
X51204761Y36544286D01*
X51157142Y36591905D01*
X51061904Y36639524D01*
X50252380Y36639524D01*
X50252380Y37591905D02*
X50252380Y37115715D01*
X50728571Y37068096D01*
X50680952Y37115715D01*
X50633333Y37210953D01*
X50633333Y37449048D01*
X50680952Y37544286D01*
X50728571Y37591905D01*
X50823809Y37639524D01*
X51061904Y37639524D01*
X51157142Y37591905D01*
X51204761Y37544286D01*
X51252380Y37449048D01*
X51252380Y37210953D01*
X51204761Y37115715D01*
X51157142Y37068096D01*
X50252380Y48768096D02*
X51061904Y48768096D01*
X51157142Y48815715D01*
X51204761Y48863334D01*
X51252380Y48958572D01*
X51252380Y49149048D01*
X51204761Y49244286D01*
X51157142Y49291905D01*
X51061904Y49339524D01*
X50252380Y49339524D01*
X50252380Y50244286D02*
X50252380Y50053810D01*
X50300000Y49958572D01*
X50347619Y49910953D01*
X50490476Y49815715D01*
X50680952Y49768096D01*
X51061904Y49768096D01*
X51157142Y49815715D01*
X51204761Y49863334D01*
X51252380Y49958572D01*
X51252380Y50149048D01*
X51204761Y50244286D01*
X51157142Y50291905D01*
X51061904Y50339524D01*
X50823809Y50339524D01*
X50728571Y50291905D01*
X50680952Y50244286D01*
X50633333Y50149048D01*
X50633333Y49958572D01*
X50680952Y49863334D01*
X50728571Y49815715D01*
X50823809Y49768096D01*
X55602142Y77938334D02*
X55649761Y77890715D01*
X55697380Y77747858D01*
X55697380Y77652620D01*
X55649761Y77509762D01*
X55554523Y77414524D01*
X55459285Y77366905D01*
X55268809Y77319286D01*
X55125952Y77319286D01*
X54935476Y77366905D01*
X54840238Y77414524D01*
X54745000Y77509762D01*
X54697380Y77652620D01*
X54697380Y77747858D01*
X54745000Y77890715D01*
X54792619Y77938334D01*
X54697380Y78843096D02*
X54697380Y78366905D01*
X55173571Y78319286D01*
X55125952Y78366905D01*
X55078333Y78462143D01*
X55078333Y78700239D01*
X55125952Y78795477D01*
X55173571Y78843096D01*
X55268809Y78890715D01*
X55506904Y78890715D01*
X55602142Y78843096D01*
X55649761Y78795477D01*
X55697380Y78700239D01*
X55697380Y78462143D01*
X55649761Y78366905D01*
X55602142Y78319286D01*
M02*
